<svg height="1074.0086093074724" version="1.1" width="1153.9999999999918" xmlns="http://www.w3.org/2000/svg" id="svgSvg" viewBox="0 0 1153.9999999999918 1074.0086093074724" style="width: 1366px; height: 1271.33px;"><desc>Created with Snap</desc><defs/><path d="M8,5 C10,2 10,2 5.67,3.6  C1.8,4.9 1.8,5.1 5.67,6.4 C10,8 10,8 8,5 z" fill="#ffffff" style=""/><path d="M2,5 C0,2 0,2 4.33,3.6  C8.2,4.9 8.2,5.1 4.33,6.4 C0,8 0,8 2,5 z" fill="#ffffff" style=""/><polyline points="802.0000000000164,784.0076082252081,1053.9999999999918,784.0076082252081" fill="none" stroke="#ffffff" style="stroke-opacity: 0; stroke-width: 0; stroke-linecap: round; stroke-linejoin: round; marker-start: none; marker-end: none;"/><path d="M8,5 C10,2 10,2 5.67,3.6  C1.8,4.9 1.8,5.1 5.67,6.4 C10,8 10,8 8,5 z" fill="#ffffff" style=""/><path d="M2,5 C0,2 0,2 4.33,3.6  C8.2,4.9 8.2,5.1 4.33,6.4 C0,8 0,8 2,5 z" fill="#ffffff" style=""/><polyline points="910,316.0024025974341,910,136.00040043290568" fill="none" stroke="#ffffff" style="stroke-opacity: 0; stroke-width: 0; stroke-linecap: round; stroke-linejoin: round; marker-start: none; marker-end: none;"/><path d="M8,5 C10,2 10,2 5.67,3.6  C1.8,4.9 1.8,5.1 5.67,6.4 C10,8 10,8 8,5 z" fill="#ffffff" style=""/><path d="M2,5 C0,2 0,2 4.33,3.6  C8.2,4.9 8.2,5.1 4.33,6.4 C0,8 0,8 2,5 z" fill="#ffffff" style=""/><polyline points="788.50719999999,532.0048051948684,788.50719999999,550.0050054113211" fill="none" stroke="#ffffff" style="stroke-opacity: 0; stroke-width: 0; stroke-linecap: round; stroke-linejoin: round; marker-start: none; marker-end: none;"/><path d="M8,5 C10,2 10,2 5.67,3.6  C1.8,4.9 1.8,5.1 5.67,6.4 C10,8 10,8 8,5 z" fill="#0000ff" style=""/><path d="M2,5 C0,2 0,2 4.33,3.6  C8.2,4.9 8.2,5.1 4.33,6.4 C0,8 0,8 2,5 z" fill="#0000ff" style=""/><polyline points="657.9999999999836,496.00440476196263,676.0000000000082,568.0052056277739,693.9999999999918,496.00440476196263,712.0000000000164,568.0052056277739,730,496.00440476196263,730,568.0052056277739,730,496.00440476196263,783.9999999999918,568.0052056277739,783.9999999999918,496.00440476196263" fill="none" stroke="#0000ff" style="stroke-opacity: 0.9; stroke-width: 6; stroke-linecap: round; stroke-linejoin: round; marker-start: none; marker-end: none;"/><path d="M8,5 C10,2 10,2 5.67,3.6  C1.8,4.9 1.8,5.1 5.67,6.4 C10,8 10,8 8,5 z" fill="#000000" style=""/><path d="M2,5 C0,2 0,2 4.33,3.6  C8.2,4.9 8.2,5.1 4.33,6.4 C0,8 0,8 2,5 z" fill="#000000" style=""/><polyline points="856.0000000000082,424.0036038961512,783.9999999999918,424.0036038961512,730,496.00440476196263,730,568.0052056277739,693.9999999999918,622.0058062771326" fill="none" stroke="#000000" style="stroke-opacity: 0.9; stroke-width: 6; stroke-linecap: round; stroke-linejoin: round; marker-start: none; marker-end: none;"/><path d="M8,5 C10,2 10,2 5.67,3.6  C1.8,4.9 1.8,5.1 5.67,6.4 C10,8 10,8 8,5 z" fill="#2a2a5a" style=""/><path d="M2,5 C0,2 0,2 4.33,3.6  C8.2,4.9 8.2,5.1 4.33,6.4 C0,8 0,8 2,5 z" fill="#2a2a5a" style=""/><polyline points="892.0000000000164,334.00260281388694,927.9999999999836,334.00260281388694" fill="none" stroke="#2a2a5a" style="stroke-opacity: 0.7; stroke-width: 6; stroke-linecap: round; stroke-linejoin: round; marker-start: none; marker-end: none;"/><path d="M8,5 C10,2 10,2 5.67,3.6  C1.8,4.9 1.8,5.1 5.67,6.4 C10,8 10,8 8,5 z" fill="#b6b61b" style=""/><path d="M2,5 C0,2 0,2 4.33,3.6  C8.2,4.9 8.2,5.1 4.33,6.4 C0,8 0,8 2,5 z" fill="#b6b61b" style=""/><polyline points="892.0000000000164,334.00260281388694,982.0000000000164,244.00160173162274,982.0000000000164,208.0012012987171,982.0000000000164,172.00080086581136,982.0000000000164,136.00040043290568,982.0000000000164,100" fill="none" stroke="#b6b61b" style="stroke-opacity: 0.9; stroke-width: 6; stroke-linecap: round; stroke-linejoin: round; marker-start: none; marker-end: none;"/><path d="M8,5 C10,2 10,2 5.67,3.6  C1.8,4.9 1.8,5.1 5.67,6.4 C10,8 10,8 8,5 z" fill="#199f19" style=""/><path d="M2,5 C0,2 0,2 4.33,3.6  C8.2,4.9 8.2,5.1 4.33,6.4 C0,8 0,8 2,5 z" fill="#199f19" style=""/><polyline points="496.0000000000082,730.0070075758496,460,730.0070075758496,423.9999999999918,730.0070075758496,387.99999999998363,730.0070075758496,352.00000000001637,730.0070075758496,316.0000000000082,730.0070075758496,280,730.0070075758496,243.99999999999181,730.0070075758496,207.99999999998363,730.0070075758496,172.00000000001637,730.0070075758496,136.00000000000819,730.0070075758496,100,730.0070075758496" fill="none" stroke="#199f19" style="stroke-opacity: 0.9; stroke-width: 6; stroke-linecap: round; stroke-linejoin: round; marker-start: none; marker-end: none;"/><path d="M8,5 C10,2 10,2 5.67,3.6  C1.8,4.9 1.8,5.1 5.67,6.4 C10,8 10,8 8,5 z" fill="#db1f1f" style=""/><path d="M2,5 C0,2 0,2 4.33,3.6  C8.2,4.9 8.2,5.1 4.33,6.4 C0,8 0,8 2,5 z" fill="#db1f1f" style=""/><polyline points="496.0000000000082,334.00260281388694,496.0000000000082,370.0030032467927,496.0000000000082,406.00340367969835,496.0000000000082,442.00380411260403,496.0000000000082,478.0042045455097,496.0000000000082,514.0046049784155,496.0000000000082,550.0050054113211,496.0000000000082,586.0054058442269,496.0000000000082,622.0058062771326,496.0000000000082,658.0062067100382,496.0000000000082,694.0066071429438,496.0000000000082,730.0070075758496,496.0000000000082,766.0074080087552,496.0000000000082,802.007808441661,496.0000000000082,838.0082088745665,496.0000000000082,874.0086093074723" fill="none" stroke="#db1f1f" style="stroke-opacity: 0.9; stroke-width: 6; stroke-linecap: round; stroke-linejoin: round; marker-start: none; marker-end: none;"/><path d="M8,5 C10,2 10,2 5.67,3.6  C1.8,4.9 1.8,5.1 5.67,6.4 C10,8 10,8 8,5 z" fill="#2a2a5a" style=""/><path d="M2,5 C0,2 0,2 4.33,3.6  C8.2,4.9 8.2,5.1 4.33,6.4 C0,8 0,8 2,5 z" fill="#2a2a5a" style=""/><polyline points="387.99999999998363,334.00260281388694,423.9999999999918,334.00260281388694,460,334.00260281388694,496.0000000000082,334.00260281388694,532.0000000000164,334.00260281388694,567.9999999999836,334.00260281388694,603.9999999999918,334.00260281388694,640,334.00260281388694,676.0000000000082,334.00260281388694,712.0000000000164,334.00260281388694,747.9999999999836,334.00260281388694,783.9999999999918,334.00260281388694,820,334.00260281388694,856.0000000000082,334.00260281388694,892.0000000000164,334.00260281388694" fill="none" stroke="#2a2a5a" style="stroke-opacity: 0.9; stroke-width: 6; stroke-linecap: round; stroke-linejoin: round; marker-start: none; marker-end: none;"/><circle cx="788.50719999999" cy="532.0048051948684" r="2" fill="#ffffff" stroke="#ffffff" style="stroke-width: 0; fill-opacity: 1;"/><circle cx="788.50719999999" cy="550.0050054113211" r="2" fill="#ffffff" stroke="#ffffff" style="stroke-width: 0; fill-opacity: 1;"/><circle cx="927.9999999999836" cy="334.00260281388694" r="2" fill="#ffffff" stroke="#6464a6" style="stroke-width: 0; fill-opacity: 0;"/><rect x="886.0000000000164" y="328.00260281388694" width="12" height="12" fill="#ffffff" stroke="#b6b61b" transform="matrix(1,0,0,1,0,0)" style="stroke-width: 3; fill-opacity: 1;"/><rect x="976.0000000000164" y="238.00160173162274" width="12" height="12" fill="#ffffff" stroke="#b6b61b" transform="matrix(1,0,0,1,0,0)" style="stroke-width: 3; fill-opacity: 1;"/><rect x="976.0000000000164" y="202.0012012987171" width="12" height="12" fill="#ffffff" stroke="#b6b61b" transform="matrix(1,0,0,1,0,0)" style="stroke-width: 3; fill-opacity: 1;"/><rect x="976.0000000000164" y="166.00080086581136" width="12" height="12" fill="#ffffff" stroke="#b6b61b" transform="matrix(1,0,0,1,0,0)" style="stroke-width: 3; fill-opacity: 1;"/><rect x="976.0000000000164" y="130.00040043290568" width="12" height="12" fill="#ffffff" stroke="#b6b61b" transform="matrix(1,0,0,1,0,0)" style="stroke-width: 3; fill-opacity: 1;"/><rect x="976.0000000000164" y="94" width="12" height="12" fill="#ffffff" stroke="#b6b61b" transform="matrix(1,0,0,1,0,0)" style="stroke-width: 3; fill-opacity: 1;"/><rect x="454" y="724.0070075758496" width="12" height="12" fill="#ffffff" stroke="#199f19" transform="matrix(1,0,0,1,0,0)" style="stroke-width: 3; fill-opacity: 1;"/><rect x="417.9999999999918" y="724.0070075758496" width="12" height="12" fill="#ffffff" stroke="#199f19" transform="matrix(1,0,0,1,0,0)" style="stroke-width: 3; fill-opacity: 1;"/><rect x="381.99999999998363" y="724.0070075758496" width="12" height="12" fill="#ffffff" stroke="#199f19" transform="matrix(1,0,0,1,0,0)" style="stroke-width: 3; fill-opacity: 1;"/><rect x="346.00000000001637" y="724.0070075758496" width="12" height="12" fill="#ffffff" stroke="#199f19" transform="matrix(1,0,0,1,0,0)" style="stroke-width: 3; fill-opacity: 1;"/><rect x="310.0000000000082" y="724.0070075758496" width="12" height="12" fill="#ffffff" stroke="#199f19" transform="matrix(1,0,0,1,0,0)" style="stroke-width: 3; fill-opacity: 1;"/><rect x="274" y="724.0070075758496" width="12" height="12" fill="#ffffff" stroke="#199f19" transform="matrix(1,0,0,1,0,0)" style="stroke-width: 3; fill-opacity: 1;"/><rect x="237.99999999999181" y="724.0070075758496" width="12" height="12" fill="#ffffff" stroke="#199f19" transform="matrix(1,0,0,1,0,0)" style="stroke-width: 3; fill-opacity: 1;"/><rect x="201.99999999998363" y="724.0070075758496" width="12" height="12" fill="#ffffff" stroke="#199f19" transform="matrix(1,0,0,1,0,0)" style="stroke-width: 3; fill-opacity: 1;"/><rect x="166.00000000001637" y="724.0070075758496" width="12" height="12" fill="#ffffff" stroke="#199f19" transform="matrix(1,0,0,1,0,0)" style="stroke-width: 3; fill-opacity: 1;"/><rect x="130.00000000000819" y="724.0070075758496" width="12" height="12" fill="#ffffff" stroke="#199f19" transform="matrix(1,0,0,1,0,0)" style="stroke-width: 3; fill-opacity: 1;"/><rect x="94" y="724.0070075758496" width="12" height="12" fill="#ffffff" stroke="#199f19" transform="matrix(1,0,0,1,0,0)" style="stroke-width: 3; fill-opacity: 1;"/><rect x="490.0000000000082" y="364.0030032467927" width="12" height="12" fill="#ffffff" stroke="#db1f1f" transform="matrix(1,0,0,1,0,0)" style="stroke-width: 3; fill-opacity: 1;"/><rect x="490.0000000000082" y="400.00340367969835" width="12" height="12" fill="#ffffff" stroke="#db1f1f" transform="matrix(1,0,0,1,0,0)" style="stroke-width: 3; fill-opacity: 1;"/><rect x="490.0000000000082" y="436.00380411260403" width="12" height="12" fill="#ffffff" stroke="#db1f1f" transform="matrix(1,0,0,1,0,0)" style="stroke-width: 3; fill-opacity: 1;"/><rect x="490.0000000000082" y="472.0042045455097" width="12" height="12" fill="#ffffff" stroke="#db1f1f" transform="matrix(1,0,0,1,0,0)" style="stroke-width: 3; fill-opacity: 1;"/><rect x="490.0000000000082" y="508.0046049784155" width="12" height="12" fill="#ffffff" stroke="#db1f1f" transform="matrix(1,0,0,1,0,0)" style="stroke-width: 3; fill-opacity: 1;"/><rect x="490.0000000000082" y="544.0050054113211" width="12" height="12" fill="#ffffff" stroke="#db1f1f" transform="matrix(1,0,0,1,0,0)" style="stroke-width: 3; fill-opacity: 1;"/><rect x="490.0000000000082" y="580.0054058442269" width="12" height="12" fill="#ffffff" stroke="#db1f1f" transform="matrix(1,0,0,1,0,0)" style="stroke-width: 3; fill-opacity: 1;"/><rect x="490.0000000000082" y="616.0058062771326" width="12" height="12" fill="#ffffff" stroke="#db1f1f" transform="matrix(1,0,0,1,0,0)" style="stroke-width: 3; fill-opacity: 1;"/><rect x="490.0000000000082" y="652.0062067100382" width="12" height="12" fill="#ffffff" stroke="#db1f1f" transform="matrix(1,0,0,1,0,0)" style="stroke-width: 3; fill-opacity: 1;"/><rect x="490.0000000000082" y="688.0066071429438" width="12" height="12" fill="#ffffff" stroke="#db1f1f" transform="matrix(1,0,0,1,0,0)" style="stroke-width: 3; fill-opacity: 1;"/><rect x="490.0000000000082" y="724.0070075758496" width="12" height="12" fill="#ffffff" stroke="#db1f1f" transform="matrix(1,0,0,1,0,0)" style="stroke-width: 3; fill-opacity: 1;"/><rect x="490.0000000000082" y="760.0074080087552" width="12" height="12" fill="#ffffff" stroke="#db1f1f" transform="matrix(1,0,0,1,0,0)" style="stroke-width: 3; fill-opacity: 1;"/><rect x="490.0000000000082" y="796.007808441661" width="12" height="12" fill="#ffffff" stroke="#db1f1f" transform="matrix(1,0,0,1,0,0)" style="stroke-width: 3; fill-opacity: 1;"/><rect x="490.0000000000082" y="832.0082088745665" width="12" height="12" fill="#ffffff" stroke="#db1f1f" transform="matrix(1,0,0,1,0,0)" style="stroke-width: 3; fill-opacity: 1;"/><rect x="490.0000000000082" y="868.0086093074723" width="12" height="12" fill="#ffffff" stroke="#db1f1f" transform="matrix(1,0,0,1,0,0)" style="stroke-width: 3; fill-opacity: 1;"/><rect x="381.99999999998363" y="328.00260281388694" width="12" height="12" fill="#ffffff" stroke="#2a2a5a" transform="matrix(1,0,0,1,0,0)" style="stroke-width: 3; fill-opacity: 1;"/><rect x="417.9999999999918" y="328.00260281388694" width="12" height="12" fill="#ffffff" stroke="#2a2a5a" transform="matrix(1,0,0,1,0,0)" style="stroke-width: 3; fill-opacity: 1;"/><rect x="454" y="328.00260281388694" width="12" height="12" fill="#ffffff" stroke="#2a2a5a" transform="matrix(1,0,0,1,0,0)" style="stroke-width: 3; fill-opacity: 1;"/><rect x="490.0000000000082" y="328.00260281388694" width="12" height="12" fill="#ffffff" stroke="#2a2a5a" transform="matrix(1,0,0,1,0,0)" style="stroke-width: 3; fill-opacity: 1;"/><rect x="526.0000000000164" y="328.00260281388694" width="12" height="12" fill="#ffffff" stroke="#2a2a5a" transform="matrix(1,0,0,1,0,0)" style="stroke-width: 3; fill-opacity: 1;"/><rect x="561.9999999999836" y="328.00260281388694" width="12" height="12" fill="#ffffff" stroke="#2a2a5a" transform="matrix(1,0,0,1,0,0)" style="stroke-width: 3; fill-opacity: 1;"/><rect x="597.9999999999918" y="328.00260281388694" width="12" height="12" fill="#ffffff" stroke="#2a2a5a" transform="matrix(1,0,0,1,0,0)" style="stroke-width: 3; fill-opacity: 1;"/><rect x="634" y="328.00260281388694" width="12" height="12" fill="#ffffff" stroke="#2a2a5a" transform="matrix(1,0,0,1,0,0)" style="stroke-width: 3; fill-opacity: 1;"/><rect x="670.0000000000082" y="328.00260281388694" width="12" height="12" fill="#ffffff" stroke="#2a2a5a" transform="matrix(1,0,0,1,0,0)" style="stroke-width: 3; fill-opacity: 1;"/><rect x="706.0000000000164" y="328.00260281388694" width="12" height="12" fill="#ffffff" stroke="#2a2a5a" transform="matrix(1,0,0,1,0,0)" style="stroke-width: 3; fill-opacity: 1;"/><rect x="741.9999999999836" y="328.00260281388694" width="12" height="12" fill="#ffffff" stroke="#2a2a5a" transform="matrix(1,0,0,1,0,0)" style="stroke-width: 3; fill-opacity: 1;"/><rect x="777.9999999999918" y="328.00260281388694" width="12" height="12" fill="#ffffff" stroke="#2a2a5a" transform="matrix(1,0,0,1,0,0)" style="stroke-width: 3; fill-opacity: 1;"/><rect x="814" y="328.00260281388694" width="12" height="12" fill="#ffffff" stroke="#2a2a5a" transform="matrix(1,0,0,1,0,0)" style="stroke-width: 3; fill-opacity: 1;"/><rect x="850.0000000000082" y="328.00260281388694" width="12" height="12" fill="#ffffff" stroke="#2a2a5a" transform="matrix(1,0,0,1,0,0)" style="stroke-width: 3; fill-opacity: 1;"/><rect x="886.0000000000164" y="328.00260281388694" width="12" height="12" fill="#ffffff" stroke="#2a2a5a" transform="matrix(1,0,0,1,0,0)" style="stroke-width: 3; fill-opacity: 1;"/><text x="808.50719999999" y="538.0048051948684" fill="#000000" transform="matrix(1,0,0,1,0,0)" style="font-size: 18px; font-family: Roboto, Arial, sans-serif; font-weight: 900; text-anchor: start; letter-spacing: 0em;">区境ネットワーク</text><text x="808.50719999999" y="556.0050054113211" fill="#000000" transform="matrix(1,0,0,1,0,0)" style="font-size: 18px; font-family: Roboto, Arial, sans-serif; font-weight: 900; text-anchor: start; letter-spacing: 0em;">Kuzakai Network</text><text x="935.9999999999836" y="338.00260281388694" fill="#6464a6" transform="matrix(1,0,0,1,0,0)" style="font-size: 14px; font-family: Roboto, Arial, sans-serif; font-weight: 900; text-anchor: start; letter-spacing: 0em;">TR彗城線へ直通</text><text x="1002.0000000000164" y="250.00160173162274" fill="#000000" transform="matrix(1,0,0,1,0,0)" style="font-size: 18px; font-family: Roboto, Arial, sans-serif; font-weight: 900; text-anchor: start; letter-spacing: 0em;">北城公園 Kitashiro-Kōen</text><text x="1002.0000000000164" y="214.0012012987171" fill="#000000" transform="matrix(1,0,0,1,0,0)" style="font-size: 18px; font-family: Roboto, Arial, sans-serif; font-weight: 900; text-anchor: start; letter-spacing: 0em;">上城野 Kami-Kino</text><text x="1002.0000000000164" y="178.00080086581136" fill="#000000" transform="matrix(1,0,0,1,0,0)" style="font-size: 18px; font-family: Roboto, Arial, sans-serif; font-weight: 900; text-anchor: start; letter-spacing: 0em;">日和髙崎 Hiyoritakasaki</text><text x="1002.0000000000164" y="142.00040043290568" fill="#000000" transform="matrix(1,0,0,1,0,0)" style="font-size: 18px; font-family: Roboto, Arial, sans-serif; font-weight: 900; text-anchor: start; letter-spacing: 0em;">離小野 Riono</text><text x="1002.0000000000164" y="106" fill="#000000" transform="matrix(1,0,0,1,0,0)" style="font-size: 18px; font-family: Roboto, Arial, sans-serif; font-weight: 900; text-anchor: start; letter-spacing: 0em;">宗映山 Soueisan</text><text x="460" y="710.0070075758496" fill="#000000" transform="matrix(1,0,0,1,0,0)" style="font-size: 18px; font-family: Roboto, Arial, sans-serif; font-weight: 900; text-anchor: end; writing-mode: tb; letter-spacing: -0.1em;">Ritto 立砥</text><text x="423.9999999999918" y="710.0070075758496" fill="#000000" transform="matrix(1,0,0,1,0,0)" style="font-size: 18px; font-family: Roboto, Arial, sans-serif; font-weight: 900; text-anchor: end; writing-mode: tb; letter-spacing: -0.1em;">Nishigoku 西石</text><text x="387.99999999998363" y="710.0070075758496" fill="#000000" transform="matrix(1,0,0,1,0,0)" style="font-size: 18px; font-family: Roboto, Arial, sans-serif; font-weight: 900; text-anchor: end; writing-mode: tb; letter-spacing: -0.1em;">Kami-Nagao 上長尾</text><text x="352.00000000001637" y="710.0070075758496" fill="#000000" transform="matrix(1,0,0,1,0,0)" style="font-size: 18px; font-family: Roboto, Arial, sans-serif; font-weight: 900; text-anchor: end; writing-mode: tb; letter-spacing: -0.1em;">Nagaosato 長尾里</text><text x="316.0000000000082" y="710.0070075758496" fill="#000000" transform="matrix(1,0,0,1,0,0)" style="font-size: 18px; font-family: Roboto, Arial, sans-serif; font-weight: 900; text-anchor: end; writing-mode: tb; letter-spacing: -0.1em;">Kagesumidai 影紺台</text><text x="280" y="710.0070075758496" fill="#000000" transform="matrix(1,0,0,1,0,0)" style="font-size: 18px; font-family: Roboto, Arial, sans-serif; font-weight: 900; text-anchor: end; writing-mode: tb; letter-spacing: -0.1em;">Kōnohara 河野原</text><text x="243.99999999999181" y="710.0070075758496" fill="#000000" transform="matrix(1,0,0,1,0,0)" style="font-size: 18px; font-family: Roboto, Arial, sans-serif; font-weight: 900; text-anchor: end; writing-mode: tb; letter-spacing: -0.1em;">Hōya 方椰</text><text x="207.99999999998363" y="710.0070075758496" fill="#000000" transform="matrix(1,0,0,1,0,0)" style="font-size: 18px; font-family: Roboto, Arial, sans-serif; font-weight: 900; text-anchor: end; writing-mode: tb; letter-spacing: -0.1em;">Nishi-Hōya 西方椰</text><text x="172.00000000001637" y="710.0070075758496" fill="#000000" transform="matrix(1,0,0,1,0,0)" style="font-size: 18px; font-family: Roboto, Arial, sans-serif; font-weight: 900; text-anchor: end; writing-mode: tb; letter-spacing: -0.1em;">Huridome 振留</text><text x="136.00000000000819" y="710.0070075758496" fill="#000000" transform="matrix(1,0,0,1,0,0)" style="font-size: 18px; font-family: Roboto, Arial, sans-serif; font-weight: 900; text-anchor: end; writing-mode: tb; letter-spacing: -0.1em;">Kawabata-Kita 川端北</text><text x="100" y="710.0070075758496" fill="#000000" transform="matrix(1,0,0,1,0,0)" style="font-size: 18px; font-family: Roboto, Arial, sans-serif; font-weight: 900; text-anchor: end; writing-mode: tb; letter-spacing: -0.1em;">Kawaki 叶涌</text><text x="516.0000000000082" y="376.0030032467927" fill="#000000" transform="matrix(1,0,0,1,0,0)" style="font-size: 18px; font-family: Roboto, Arial, sans-serif; font-weight: 900; text-anchor: start; letter-spacing: 0em;">甲斐岡 Kaioka</text><text x="516.0000000000082" y="412.00340367969835" fill="#000000" transform="matrix(1,0,0,1,0,0)" style="font-size: 18px; font-family: Roboto, Arial, sans-serif; font-weight: 900; text-anchor: start; letter-spacing: 0em;">沖田 Okita</text><text x="516.0000000000082" y="448.00380411260403" fill="#000000" transform="matrix(1,0,0,1,0,0)" style="font-size: 18px; font-family: Roboto, Arial, sans-serif; font-weight: 900; text-anchor: start; letter-spacing: 0em;">沖田本町 Okita-Honchō</text><text x="516.0000000000082" y="484.0042045455097" fill="#000000" transform="matrix(1,0,0,1,0,0)" style="font-size: 18px; font-family: Roboto, Arial, sans-serif; font-weight: 900; text-anchor: start; letter-spacing: 0em;">室佐乃 Murosano</text><text x="516.0000000000082" y="520.0046049784155" fill="#000000" transform="matrix(1,0,0,1,0,0)" style="font-size: 18px; font-family: Roboto, Arial, sans-serif; font-weight: 900; text-anchor: start; letter-spacing: 0em;">静波 Shizunami</text><text x="516.0000000000082" y="556.0050054113211" fill="#000000" transform="matrix(1,0,0,1,0,0)" style="font-size: 18px; font-family: Roboto, Arial, sans-serif; font-weight: 900; text-anchor: start; letter-spacing: 0em;">小矢町 Koyachō</text><text x="516.0000000000082" y="592.0054058442269" fill="#000000" transform="matrix(1,0,0,1,0,0)" style="font-size: 18px; font-family: Roboto, Arial, sans-serif; font-weight: 900; text-anchor: start; letter-spacing: 0em;">元小矢 Moto-Koya</text><text x="516.0000000000082" y="628.0058062771326" fill="#000000" transform="matrix(1,0,0,1,0,0)" style="font-size: 18px; font-family: Roboto, Arial, sans-serif; font-weight: 900; text-anchor: start; letter-spacing: 0em;">封原 Tozihara</text><text x="516.0000000000082" y="664.0062067100382" fill="#000000" transform="matrix(1,0,0,1,0,0)" style="font-size: 18px; font-family: Roboto, Arial, sans-serif; font-weight: 900; text-anchor: start; letter-spacing: 0em;">沿戸 Ento</text><text x="516.0000000000082" y="700.0066071429438" fill="#000000" transform="matrix(1,0,0,1,0,0)" style="font-size: 18px; font-family: Roboto, Arial, sans-serif; font-weight: 900; text-anchor: start; letter-spacing: 0em;">栖実野北 Sumino-Kita</text><text x="516.0000000000082" y="736.0070075758496" fill="#000000" transform="matrix(1,0,0,1,0,0)" style="font-size: 18px; font-family: Roboto, Arial, sans-serif; font-weight: 900; text-anchor: start; letter-spacing: 0em;">栖実野 Sumino</text><text x="516.0000000000082" y="772.0074080087552" fill="#000000" transform="matrix(1,0,0,1,0,0)" style="font-size: 18px; font-family: Roboto, Arial, sans-serif; font-weight: 900; text-anchor: start; letter-spacing: 0em;">椎名 Shīna</text><text x="516.0000000000082" y="808.007808441661" fill="#000000" transform="matrix(1,0,0,1,0,0)" style="font-size: 18px; font-family: Roboto, Arial, sans-serif; font-weight: 900; text-anchor: start; letter-spacing: 0em;">南椎名 Minami-Shīna</text><text x="516.0000000000082" y="844.0082088745665" fill="#000000" transform="matrix(1,0,0,1,0,0)" style="font-size: 18px; font-family: Roboto, Arial, sans-serif; font-weight: 900; text-anchor: start; letter-spacing: 0em;">鞍付 Kuratsuke</text><text x="516.0000000000082" y="880.0086093074723" fill="#000000" transform="matrix(1,0,0,1,0,0)" style="font-size: 18px; font-family: Roboto, Arial, sans-serif; font-weight: 900; text-anchor: start; letter-spacing: 0em;">朋翔 Nakato</text><text x="387.99999999998363" y="314.00260281388694" fill="#000000" transform="matrix(1,0,0,1,0,0)" style="font-size: 18px; font-family: Roboto, Arial, sans-serif; font-weight: 900; text-anchor: end; writing-mode: tb; letter-spacing: -0.1em;">Tanjin 短神</text><text x="423.9999999999918" y="314.00260281388694" fill="#000000" transform="matrix(1,0,0,1,0,0)" style="font-size: 18px; font-family: Roboto, Arial, sans-serif; font-weight: 900; text-anchor: end; writing-mode: tb; letter-spacing: -0.1em;">Tsujiyama 辻山</text><text x="460" y="314.00260281388694" fill="#000000" transform="matrix(1,0,0,1,0,0)" style="font-size: 18px; font-family: Roboto, Arial, sans-serif; font-weight: 900; text-anchor: end; writing-mode: tb; letter-spacing: -0.1em;">Minami-Inui 南乾</text><text x="496.0000000000082" y="314.00260281388694" fill="#000000" transform="matrix(1,0,0,1,0,0)" style="font-size: 18px; font-family: Roboto, Arial, sans-serif; font-weight: 900; text-anchor: end; writing-mode: tb; letter-spacing: -0.1em;">Yarihara 槍原</text><text x="532.0000000000164" y="314.00260281388694" fill="#000000" transform="matrix(1,0,0,1,0,0)" style="font-size: 18px; font-family: Roboto, Arial, sans-serif; font-weight: 900; text-anchor: end; writing-mode: tb; letter-spacing: -0.1em;">Minami-Yarihara 南槍原</text><text x="567.9999999999836" y="314.00260281388694" fill="#000000" transform="matrix(1,0,0,1,0,0)" style="font-size: 18px; font-family: Roboto, Arial, sans-serif; font-weight: 900; text-anchor: end; writing-mode: tb; letter-spacing: -0.1em;">Sakaebata 栄端</text><text x="603.9999999999918" y="314.00260281388694" fill="#000000" transform="matrix(1,0,0,1,0,0)" style="font-size: 18px; font-family: Roboto, Arial, sans-serif; font-weight: 900; text-anchor: end; writing-mode: tb; letter-spacing: -0.1em;">Nakai-Kōen 中伊公園</text><text x="640" y="314.00260281388694" fill="#000000" transform="matrix(1,0,0,1,0,0)" style="font-size: 18px; font-family: Roboto, Arial, sans-serif; font-weight: 900; text-anchor: end; writing-mode: tb; letter-spacing: -0.1em;">Nakai 中伊</text><text x="676.0000000000082" y="314.00260281388694" fill="#000000" transform="matrix(1,0,0,1,0,0)" style="font-size: 18px; font-family: Roboto, Arial, sans-serif; font-weight: 900; text-anchor: end; writing-mode: tb; letter-spacing: -0.1em;">Inoyori 井野寄</text><text x="712.0000000000164" y="314.00260281388694" fill="#000000" transform="matrix(1,0,0,1,0,0)" style="font-size: 18px; font-family: Roboto, Arial, sans-serif; font-weight: 900; text-anchor: end; writing-mode: tb; letter-spacing: -0.1em;">Meiki 芽域</text><text x="747.9999999999836" y="314.00260281388694" fill="#000000" transform="matrix(1,0,0,1,0,0)" style="font-size: 18px; font-family: Roboto, Arial, sans-serif; font-weight: 900; text-anchor: end; writing-mode: tb; letter-spacing: -0.1em;">Kita-Meiki 北芽域</text><text x="783.9999999999918" y="314.00260281388694" fill="#000000" transform="matrix(1,0,0,1,0,0)" style="font-size: 18px; font-family: Roboto, Arial, sans-serif; font-weight: 900; text-anchor: end; writing-mode: tb; letter-spacing: -0.1em;">Mukōji 報向寺</text><text x="820" y="314.00260281388694" fill="#000000" transform="matrix(1,0,0,1,0,0)" style="font-size: 18px; font-family: Roboto, Arial, sans-serif; font-weight: 900; text-anchor: end; writing-mode: tb; letter-spacing: -0.1em;">Hosato-Kihou 保里城報</text><text x="856.0000000000082" y="314.00260281388694" fill="#000000" transform="matrix(1,0,0,1,0,0)" style="font-size: 18px; font-family: Roboto, Arial, sans-serif; font-weight: 900; text-anchor: end; writing-mode: tb; letter-spacing: -0.1em;">Kino-Nishi 城野西</text><text x="892.0000000000164" y="314.00260281388694" fill="#000000" transform="matrix(1,0,0,1,0,0)" style="font-size: 18px; font-family: Roboto, Arial, sans-serif; font-weight: 900; text-anchor: end; writing-mode: tb; letter-spacing: -0.1em;">Kino-Chuō 城野中央</text></svg>