<svg height="1236.0065234741296" version="1.1" width="1891.9999999999345" xmlns="http://www.w3.org/2000/svg" id="svgSvg" viewBox="0 0 1891.9999999999345 1236.0065234741296" style="width: 1366px; height: 892.387px;"><desc>Created with Snap</desc><defs/><path d="M8,5 C10,2 10,2 5.67,3.6  C1.8,4.9 1.8,5.1 5.67,6.4 C10,8 10,8 8,5 z" fill="#ffffff" style=""/><path d="M2,5 C0,2 0,2 4.33,3.6  C8.2,4.9 8.2,5.1 4.33,6.4 C0,8 0,8 2,5 z" fill="#ffffff" style=""/><polyline points="631.0143999999309,406.00213267423464,631.0143999999309,424.00225812566026" fill="none" stroke="#ffffff" style="stroke-opacity: 0; stroke-width: 0; stroke-linecap: round; stroke-linejoin: round; marker-start: none; marker-end: none;"/><path d="M8,5 C10,2 10,2 5.67,3.6  C1.8,4.9 1.8,5.1 5.67,6.4 C10,8 10,8 8,5 z" fill="#ffffff" style=""/><path d="M2,5 C0,2 0,2 4.33,3.6  C8.2,4.9 8.2,5.1 4.33,6.4 C0,8 0,8 2,5 z" fill="#ffffff" style=""/><polyline points="711.9999999999345,784.0047671541718,460,784.0047671541718,100,784.0047671541718" fill="none" stroke="#ffffff" style="stroke-opacity: 0; stroke-width: 0; stroke-linecap: round; stroke-linejoin: round; marker-start: none; marker-end: none;"/><path d="M8,5 C10,2 10,2 5.67,3.6  C1.8,4.9 1.8,5.1 5.67,6.4 C10,8 10,8 8,5 z" fill="#ffffff" style=""/><path d="M2,5 C0,2 0,2 4.33,3.6  C8.2,4.9 8.2,5.1 4.33,6.4 C0,8 0,8 2,5 z" fill="#ffffff" style=""/><polyline points="1233.999999999951,154.00037635427668,1431.9999999999345,154.00037635427668,1540,154.00037635427668,1791.9999999999345,172.00050180570219" fill="none" stroke="#ffffff" style="stroke-opacity: 0; stroke-width: 0; stroke-linecap: round; stroke-linejoin: round; marker-start: none; marker-end: none;"/><path d="M8,5 C10,2 10,2 5.67,3.6  C1.8,4.9 1.8,5.1 5.67,6.4 C10,8 10,8 8,5 z" fill="#000080" style=""/><path d="M2,5 C0,2 0,2 4.33,3.6  C8.2,4.9 8.2,5.1 4.33,6.4 C0,8 0,8 2,5 z" fill="#000080" style=""/><polyline points="747.9999999999836,388.0020072228091,711.9999999999345,388.0020072228091,675.9999999999673,388.0020072228091" fill="none" stroke="#000080" style="stroke-opacity: 0.4; stroke-width: 6; stroke-linecap: round; stroke-linejoin: round; marker-start: none; marker-end: none;"/><path d="M8,5 C10,2 10,2 5.67,3.6  C1.8,4.9 1.8,5.1 5.67,6.4 C10,8 10,8 8,5 z" fill="#d05dce" style=""/><path d="M2,5 C0,2 0,2 4.33,3.6  C8.2,4.9 8.2,5.1 4.33,6.4 C0,8 0,8 2,5 z" fill="#d05dce" style=""/><polyline points="855.9999999999673,388.0020072228091,837.9999999999836,406.00213267423464,837.9999999999836,586.0033871884904,711.9999999999345,640.0037635427672,711.9999999999345,820.0050180570229,981.9999999999345,820.0050180570229,1000,838.0051435084483,1035.9999999999673,874.0053944112996,1071.9999999999345,910.0056453141507,1107.9999999999836,946.0058962170019" fill="none" stroke="#d05dce" style="stroke-opacity: 0.9; stroke-width: 6; stroke-linecap: round; stroke-linejoin: round; marker-start: none; marker-end: none;"/><path d="M8,5 C10,2 10,2 5.67,3.6  C1.8,4.9 1.8,5.1 5.67,6.4 C10,8 10,8 8,5 z" fill="#168000" style=""/><path d="M2,5 C0,2 0,2 4.33,3.6  C8.2,4.9 8.2,5.1 4.33,6.4 C0,8 0,8 2,5 z" fill="#168000" style=""/><polyline points="495.99999999996726,1036.0065234741296,531.9999999999345,1000.0062725712786,567.9999999999836,964.0060216684275,603.9999999999509,928.0057707655761,640,892.005519862725,675.9999999999673,856.005268959874,711.9999999999345,820.0050180570229,747.9999999999836,784.0047671541718,747.9999999999836,640.0037635427672,873.9999999999509,586.0033871884904,981.9999999999345,532.0030108342137,981.9999999999345,406.00213267423464,1000,388.0020072228091,1035.9999999999673,352.00175631995796,1071.9999999999345,316.00150541710684,1107.9999999999836,280.0012545142557,1143.999999999951,244.00100361140454,1180,208.00075270855336,1215.9999999999673,172.00050180570219,1251.9999999999345,136.00025090285118,1287.9999999999836,100" fill="none" stroke="#168000" style="stroke-opacity: 0.9; stroke-width: 6; stroke-linecap: round; stroke-linejoin: round; marker-start: none; marker-end: none;"/><path d="M8,5 C10,2 10,2 5.67,3.6  C1.8,4.9 1.8,5.1 5.67,6.4 C10,8 10,8 8,5 z" fill="#006080" style=""/><path d="M2,5 C0,2 0,2 4.33,3.6  C8.2,4.9 8.2,5.1 4.33,6.4 C0,8 0,8 2,5 z" fill="#006080" style=""/><polyline points="1395.9999999999673,460.00250902851144,1360,460.00250902851144,1323.999999999951,460.00250902851144,1287.9999999999836,460.00250902851144,1251.9999999999345,460.00250902851144,1215.9999999999673,460.00250902851144,1180,460.00250902851144,1143.999999999951,460.00250902851144,1107.9999999999836,460.00250902851144,1071.9999999999345,460.00250902851144,1000,388.0020072228091,963.9999999999509,388.0020072228091,927.9999999999836,388.0020072228091,891.9999999999345,388.0020072228091,855.9999999999673,388.0020072228091,820,388.0020072228091,783.9999999999509,388.0020072228091,747.9999999999836,388.0020072228091" fill="none" stroke="#006080" style="stroke-opacity: 0.9; stroke-width: 6; stroke-linecap: round; stroke-linejoin: round; marker-start: none; marker-end: none;"/><path d="M8,5 C10,2 10,2 5.67,3.6  C1.8,4.9 1.8,5.1 5.67,6.4 C10,8 10,8 8,5 z" fill="#ffbf00" style=""/><path d="M2,5 C0,2 0,2 4.33,3.6  C8.2,4.9 8.2,5.1 4.33,6.4 C0,8 0,8 2,5 z" fill="#ffbf00" style=""/><polyline points="1000,100,1000,136.00025090285118,1000,172.00050180570219,1000,208.00075270855336,1000,244.00100361140454,1000,280.0012545142557,1000,316.00150541710684,1000,352.00175631995796,1000,388.0020072228091,1000,622.0036380913416,1000,658.0038889941926,1000,694.0041398970438,1000,730.004390799895,1000,766.0046417027462,1000,802.0048926055973,1000,838.0051435084483" fill="none" stroke="#ffbf00" style="stroke-opacity: 0.9; stroke-width: 6; stroke-linecap: round; stroke-linejoin: round; marker-start: none; marker-end: none;"/><circle cx="631.0143999999309" cy="406.00213267423464" r="2" fill="#ffffff" stroke="#ffffff" style="stroke-width: 0; fill-opacity: 1;"/><circle cx="631.0143999999309" cy="424.00225812566026" r="2" fill="#ffffff" stroke="#ffffff" style="stroke-width: 0; fill-opacity: 1;"/><circle cx="711.9999999999345" cy="388.0020072228091" r="8" fill="#a691e3" stroke="#ffffff" style="stroke-width: 3; fill-opacity: 1;"/><circle cx="855.9999999999673" cy="388.0020072228091" r="8" fill="#000000" stroke="#ffffff" style="stroke-width: 3; fill-opacity: 1;"/><circle cx="711.9999999999345" cy="640.0037635427672" r="8" fill="#d05dce" stroke="#ffffff" style="stroke-width: 3; fill-opacity: 1;"/><circle cx="711.9999999999345" cy="820.0050180570229" r="8" fill="#000000" stroke="#ffffff" style="stroke-width: 3; fill-opacity: 1;"/><circle cx="1000" cy="838.0051435084483" r="8" fill="#000000" stroke="#ffffff" style="stroke-width: 3; fill-opacity: 1;"/><circle cx="1035.9999999999673" cy="874.0053944112996" r="8" fill="#d05dce" stroke="#ffffff" style="stroke-width: 3; fill-opacity: 1;"/><circle cx="1071.9999999999345" cy="910.0056453141507" r="8" fill="#d05dce" stroke="#ffffff" style="stroke-width: 3; fill-opacity: 1;"/><circle cx="1107.9999999999836" cy="946.0058962170019" r="8" fill="#d05dce" stroke="#ffffff" style="stroke-width: 3; fill-opacity: 1;"/><circle cx="495.99999999996726" cy="1036.0065234741296" r="8" fill="#168000" stroke="#ffffff" style="stroke-width: 3; fill-opacity: 1;"/><circle cx="531.9999999999345" cy="1000.0062725712786" r="8" fill="#168000" stroke="#ffffff" style="stroke-width: 3; fill-opacity: 1;"/><circle cx="567.9999999999836" cy="964.0060216684275" r="8" fill="#168000" stroke="#ffffff" style="stroke-width: 3; fill-opacity: 1;"/><circle cx="603.9999999999509" cy="928.0057707655761" r="8" fill="#168000" stroke="#ffffff" style="stroke-width: 3; fill-opacity: 1;"/><circle cx="640" cy="892.005519862725" r="8" fill="#168000" stroke="#ffffff" style="stroke-width: 3; fill-opacity: 1;"/><circle cx="675.9999999999673" cy="856.005268959874" r="8" fill="#168000" stroke="#ffffff" style="stroke-width: 3; fill-opacity: 1;"/><circle cx="711.9999999999345" cy="820.0050180570229" r="8" fill="#000000" stroke="#ffffff" style="stroke-width: 3; fill-opacity: 1;"/><circle cx="1000" cy="388.0020072228091" r="8" fill="#168000" stroke="#ffffff" style="stroke-width: 3; fill-opacity: 1;"/><circle cx="1035.9999999999673" cy="352.00175631995796" r="8" fill="#168000" stroke="#ffffff" style="stroke-width: 3; fill-opacity: 1;"/><circle cx="1071.9999999999345" cy="316.00150541710684" r="8" fill="#168000" stroke="#ffffff" style="stroke-width: 3; fill-opacity: 1;"/><circle cx="1107.9999999999836" cy="280.0012545142557" r="8" fill="#168000" stroke="#ffffff" style="stroke-width: 3; fill-opacity: 1;"/><circle cx="1143.999999999951" cy="244.00100361140454" r="8" fill="#168000" stroke="#ffffff" style="stroke-width: 3; fill-opacity: 1;"/><circle cx="1180" cy="208.00075270855336" r="8" fill="#168000" stroke="#ffffff" style="stroke-width: 3; fill-opacity: 1;"/><circle cx="1215.9999999999673" cy="172.00050180570219" r="8" fill="#168000" stroke="#ffffff" style="stroke-width: 3; fill-opacity: 1;"/><circle cx="1251.9999999999345" cy="136.00025090285118" r="8" fill="#168000" stroke="#ffffff" style="stroke-width: 3; fill-opacity: 1;"/><circle cx="1287.9999999999836" cy="100" r="8" fill="#168000" stroke="#ffffff" style="stroke-width: 3; fill-opacity: 1;"/><circle cx="1395.9999999999673" cy="460.00250902851144" r="8" fill="#006080" stroke="#ffffff" style="stroke-width: 3; fill-opacity: 1;"/><circle cx="1360" cy="460.00250902851144" r="8" fill="#006080" stroke="#ffffff" style="stroke-width: 3; fill-opacity: 1;"/><circle cx="1323.999999999951" cy="460.00250902851144" r="8" fill="#006080" stroke="#ffffff" style="stroke-width: 3; fill-opacity: 1;"/><circle cx="1287.9999999999836" cy="460.00250902851144" r="8" fill="#006080" stroke="#ffffff" style="stroke-width: 3; fill-opacity: 1;"/><circle cx="1251.9999999999345" cy="460.00250902851144" r="8" fill="#006080" stroke="#ffffff" style="stroke-width: 3; fill-opacity: 1;"/><circle cx="1215.9999999999673" cy="460.00250902851144" r="8" fill="#006080" stroke="#ffffff" style="stroke-width: 3; fill-opacity: 1;"/><circle cx="1180" cy="460.00250902851144" r="8" fill="#006080" stroke="#ffffff" style="stroke-width: 3; fill-opacity: 1;"/><circle cx="1143.999999999951" cy="460.00250902851144" r="8" fill="#006080" stroke="#ffffff" style="stroke-width: 3; fill-opacity: 1;"/><circle cx="1107.9999999999836" cy="460.00250902851144" r="8" fill="#006080" stroke="#ffffff" style="stroke-width: 3; fill-opacity: 1;"/><circle cx="1071.9999999999345" cy="460.00250902851144" r="8" fill="#006080" stroke="#ffffff" style="stroke-width: 3; fill-opacity: 1;"/><circle cx="1000" cy="388.0020072228091" r="8" fill="#000000" stroke="#ffffff" style="stroke-width: 3; fill-opacity: 1;"/><circle cx="963.9999999999509" cy="388.0020072228091" r="8" fill="#006080" stroke="#ffffff" style="stroke-width: 3; fill-opacity: 1;"/><circle cx="927.9999999999836" cy="388.0020072228091" r="8" fill="#006080" stroke="#ffffff" style="stroke-width: 3; fill-opacity: 1;"/><circle cx="891.9999999999345" cy="388.0020072228091" r="8" fill="#006080" stroke="#ffffff" style="stroke-width: 3; fill-opacity: 1;"/><circle cx="855.9999999999673" cy="388.0020072228091" r="8" fill="#000000" stroke="#ffffff" style="stroke-width: 3; fill-opacity: 1;"/><circle cx="820" cy="388.0020072228091" r="8" fill="#006080" stroke="#ffffff" style="stroke-width: 3; fill-opacity: 1;"/><circle cx="783.9999999999509" cy="388.0020072228091" r="8" fill="#006080" stroke="#ffffff" style="stroke-width: 3; fill-opacity: 1;"/><circle cx="747.9999999999836" cy="388.0020072228091" r="8" fill="#006080" stroke="#ffffff" style="stroke-width: 3; fill-opacity: 1;"/><circle cx="1000" cy="100" r="8" fill="#ffbf00" stroke="#ffffff" style="stroke-width: 3; fill-opacity: 1;"/><circle cx="1000" cy="136.00025090285118" r="8" fill="#ffbf00" stroke="#ffffff" style="stroke-width: 3; fill-opacity: 1;"/><circle cx="1000" cy="172.00050180570219" r="8" fill="#ffbf00" stroke="#ffffff" style="stroke-width: 3; fill-opacity: 1;"/><circle cx="1000" cy="208.00075270855336" r="8" fill="#ffbf00" stroke="#ffffff" style="stroke-width: 3; fill-opacity: 1;"/><circle cx="1000" cy="244.00100361140454" r="8" fill="#ffbf00" stroke="#ffffff" style="stroke-width: 3; fill-opacity: 1;"/><circle cx="1000" cy="280.0012545142557" r="8" fill="#ffbf00" stroke="#ffffff" style="stroke-width: 3; fill-opacity: 1;"/><circle cx="1000" cy="316.00150541710684" r="8" fill="#ffbf00" stroke="#ffffff" style="stroke-width: 3; fill-opacity: 1;"/><circle cx="1000" cy="352.00175631995796" r="8" fill="#ffbf00" stroke="#ffffff" style="stroke-width: 3; fill-opacity: 1;"/><circle cx="1000" cy="388.0020072228091" r="8" fill="#000000" stroke="#ffffff" style="stroke-width: 3; fill-opacity: 1;"/><circle cx="1000" cy="622.0036380913416" r="8" fill="#ffbf00" stroke="#ffffff" style="stroke-width: 3; fill-opacity: 1;"/><circle cx="1000" cy="658.0038889941926" r="8" fill="#ffbf00" stroke="#ffffff" style="stroke-width: 3; fill-opacity: 1;"/><circle cx="1000" cy="694.0041398970438" r="8" fill="#ffbf00" stroke="#ffffff" style="stroke-width: 3; fill-opacity: 1;"/><circle cx="1000" cy="730.004390799895" r="8" fill="#ffbf00" stroke="#ffffff" style="stroke-width: 3; fill-opacity: 1;"/><circle cx="1000" cy="766.0046417027462" r="8" fill="#ffbf00" stroke="#ffffff" style="stroke-width: 3; fill-opacity: 1;"/><circle cx="1000" cy="802.0048926055973" r="8" fill="#ffbf00" stroke="#ffffff" style="stroke-width: 3; fill-opacity: 1;"/><circle cx="1000" cy="838.0051435084483" r="8" fill="#000000" stroke="#ffffff" style="stroke-width: 3; fill-opacity: 1;"/><text x="651.0143999999309" y="409.00213267423464" fill="#808080" transform="matrix(1,0,0,1,0,0)" style="font-size: 12px; font-family: Roboto, Arial, sans-serif; font-weight: 900; text-anchor: start; letter-spacing: 0em;">槻真電気鉄道へ</text><text x="651.0143999999309" y="427.00225812566026" fill="#808080" transform="matrix(1,0,0,1,0,0)" style="font-size: 12px; font-family: Roboto, Arial, sans-serif; font-weight: 900; text-anchor: start; letter-spacing: 0em;">直通運転</text><text x="691.9999999999345" y="645.0037635427672" fill="#000000" transform="matrix(1,0,0,1,0,0)" style="font-size: 16px; font-family: Roboto, Arial, sans-serif; font-weight: 900; text-anchor: end; letter-spacing: 0em;">Keiri / 経里</text><text x="691.9999999999345" y="826.0050180570229" fill="#000000" transform="matrix(1,0,0,1,0,0)" style="font-size: 18px; font-family: Roboto, Arial, sans-serif; font-weight: 900; text-anchor: end; letter-spacing: 0em;">Mizotachi-Jinjamae / 溝立神社前</text><text x="1015.9999999999673" y="879.0053944112996" fill="#000000" transform="matrix(1,0,0,1,0,0)" style="font-size: 16px; font-family: Roboto, Arial, sans-serif; font-weight: 900; text-anchor: end; letter-spacing: 0em;">Yukiji / 雪地</text><text x="1051.9999999999345" y="915.0056453141507" fill="#000000" transform="matrix(1,0,0,1,0,0)" style="font-size: 16px; font-family: Roboto, Arial, sans-serif; font-weight: 900; text-anchor: end; letter-spacing: 0em;">Yukiji-Airport-West / 雪地空港西</text><text x="1087.9999999999836" y="951.0058962170019" fill="#000000" transform="matrix(1,0,0,1,0,0)" style="font-size: 16px; font-family: Roboto, Arial, sans-serif; font-weight: 900; text-anchor: end; letter-spacing: 0em;">Yukiji-Airport-East / 雪地空港東</text><text x="475.99999999996726" y="1041.0065234741296" fill="#000000" transform="matrix(1,0,0,1,0,0)" style="font-size: 16px; font-family: Roboto, Arial, sans-serif; font-weight: 900; text-anchor: end; letter-spacing: 0em;">Itake / 伊武</text><text x="511.9999999999345" y="1005.0062725712786" fill="#000000" transform="matrix(1,0,0,1,0,0)" style="font-size: 16px; font-family: Roboto, Arial, sans-serif; font-weight: 900; text-anchor: end; letter-spacing: 0em;">Ronkyōhakuna / 論恭博奈</text><text x="547.9999999999836" y="969.0060216684275" fill="#000000" transform="matrix(1,0,0,1,0,0)" style="font-size: 16px; font-family: Roboto, Arial, sans-serif; font-weight: 900; text-anchor: end; letter-spacing: 0em;">Shano / 斜乃</text><text x="583.9999999999509" y="933.0057707655761" fill="#000000" transform="matrix(1,0,0,1,0,0)" style="font-size: 16px; font-family: Roboto, Arial, sans-serif; font-weight: 900; text-anchor: end; letter-spacing: 0em;">Ryūrō / 琉廊</text><text x="620" y="897.005519862725" fill="#000000" transform="matrix(1,0,0,1,0,0)" style="font-size: 16px; font-family: Roboto, Arial, sans-serif; font-weight: 900; text-anchor: end; letter-spacing: 0em;">Ryūrō-Kita / 琉廊北</text><text x="655.9999999999673" y="861.005268959874" fill="#000000" transform="matrix(1,0,0,1,0,0)" style="font-size: 16px; font-family: Roboto, Arial, sans-serif; font-weight: 900; text-anchor: end; letter-spacing: 0em;">Shimo-Mizotachi / 下溝立</text><text x="1055.9999999999673" y="357.00175631995796" fill="#000000" transform="matrix(1,0,0,1,0,0)" style="font-size: 16px; font-family: Roboto, Arial, sans-serif; font-weight: 900; text-anchor: start; letter-spacing: 0em;">興仰橋 / Kōgyō-Bashi</text><text x="1091.9999999999345" y="321.00150541710684" fill="#000000" transform="matrix(1,0,0,1,0,0)" style="font-size: 16px; font-family: Roboto, Arial, sans-serif; font-weight: 900; text-anchor: start; letter-spacing: 0em;">上倉 / Kamikura</text><text x="1127.9999999999836" y="285.0012545142557" fill="#000000" transform="matrix(1,0,0,1,0,0)" style="font-size: 16px; font-family: Roboto, Arial, sans-serif; font-weight: 900; text-anchor: start; letter-spacing: 0em;">徳河 / Tokuga</text><text x="1163.999999999951" y="249.00100361140454" fill="#000000" transform="matrix(1,0,0,1,0,0)" style="font-size: 16px; font-family: Roboto, Arial, sans-serif; font-weight: 900; text-anchor: start; letter-spacing: 0em;">岩飛 / Iwatobi</text><text x="1200" y="213.00075270855336" fill="#000000" transform="matrix(1,0,0,1,0,0)" style="font-size: 16px; font-family: Roboto, Arial, sans-serif; font-weight: 900; text-anchor: start; letter-spacing: 0em;">北岩飛 / Kita-Iwatobi</text><text x="1235.9999999999673" y="177.00050180570219" fill="#000000" transform="matrix(1,0,0,1,0,0)" style="font-size: 16px; font-family: Roboto, Arial, sans-serif; font-weight: 900; text-anchor: start; letter-spacing: 0em;">報向寺 / Mukōji</text><text x="1271.9999999999345" y="141.00025090285118" fill="#000000" transform="matrix(1,0,0,1,0,0)" style="font-size: 16px; font-family: Roboto, Arial, sans-serif; font-weight: 900; text-anchor: start; letter-spacing: 0em;">城野中央 / Kino-Chūō</text><text x="1307.9999999999836" y="105" fill="#000000" transform="matrix(1,0,0,1,0,0)" style="font-size: 16px; font-family: Roboto, Arial, sans-serif; font-weight: 900; text-anchor: start; letter-spacing: 0em;">国際城報堂大学前 / KokusaiGihōdōDaigakuMae</text><text x="1395.9999999999673" y="480.00250902851144" fill="#000000" transform="matrix(1,0,0,1,0,0)" style="font-size: 16px; font-family: Roboto, Arial, sans-serif; font-weight: 900; text-anchor: start; writing-mode: tb; letter-spacing: -0.1em;">発複 / Happuku</text><text x="1360" y="480.00250902851144" fill="#000000" transform="matrix(1,0,0,1,0,0)" style="font-size: 16px; font-family: Roboto, Arial, sans-serif; font-weight: 900; text-anchor: start; writing-mode: tb; letter-spacing: -0.1em;">篠野目 / Shinonome</text><text x="1323.999999999951" y="480.00250902851144" fill="#000000" transform="matrix(1,0,0,1,0,0)" style="font-size: 16px; font-family: Roboto, Arial, sans-serif; font-weight: 900; text-anchor: start; writing-mode: tb; letter-spacing: -0.1em;">篠美音 / Shinomine</text><text x="1287.9999999999836" y="480.00250902851144" fill="#000000" transform="matrix(1,0,0,1,0,0)" style="font-size: 16px; font-family: Roboto, Arial, sans-serif; font-weight: 900; text-anchor: start; writing-mode: tb; letter-spacing: -0.1em;">篠大前 / Shinodaimae</text><text x="1251.9999999999345" y="480.00250902851144" fill="#000000" transform="matrix(1,0,0,1,0,0)" style="font-size: 16px; font-family: Roboto, Arial, sans-serif; font-weight: 900; text-anchor: start; writing-mode: tb; letter-spacing: -0.1em;">芝 / Shiba</text><text x="1215.9999999999673" y="480.00250902851144" fill="#000000" transform="matrix(1,0,0,1,0,0)" style="font-size: 16px; font-family: Roboto, Arial, sans-serif; font-weight: 900; text-anchor: start; writing-mode: tb; letter-spacing: -0.1em;">東色友 / Higashi-Shikiyū</text><text x="1180" y="480.00250902851144" fill="#000000" transform="matrix(1,0,0,1,0,0)" style="font-size: 16px; font-family: Roboto, Arial, sans-serif; font-weight: 900; text-anchor: start; writing-mode: tb; letter-spacing: -0.1em;">色友 / Shikiyū</text><text x="1143.999999999951" y="480.00250902851144" fill="#000000" transform="matrix(1,0,0,1,0,0)" style="font-size: 16px; font-family: Roboto, Arial, sans-serif; font-weight: 900; text-anchor: start; writing-mode: tb; letter-spacing: -0.1em;">栖実野 / Sumino</text><text x="1107.9999999999836" y="480.00250902851144" fill="#000000" transform="matrix(1,0,0,1,0,0)" style="font-size: 16px; font-family: Roboto, Arial, sans-serif; font-weight: 900; text-anchor: start; writing-mode: tb; letter-spacing: -0.1em;">込沢町 / Komesawachō</text><text x="1071.9999999999345" y="480.00250902851144" fill="#000000" transform="matrix(1,0,0,1,0,0)" style="font-size: 16px; font-family: Roboto, Arial, sans-serif; font-weight: 900; text-anchor: start; writing-mode: tb; letter-spacing: -0.1em;">保柚 / Hoyū</text><text x="963.9999999999509" y="408.0020072228091" fill="#000000" transform="matrix(1,0,0,1,0,0)" style="font-size: 16px; font-family: Roboto, Arial, sans-serif; font-weight: 900; text-anchor: start; writing-mode: tb; letter-spacing: -0.1em;">風加 / Fūka</text><text x="927.9999999999836" y="408.0020072228091" fill="#000000" transform="matrix(1,0,0,1,0,0)" style="font-size: 16px; font-family: Roboto, Arial, sans-serif; font-weight: 900; text-anchor: start; writing-mode: tb; letter-spacing: -0.1em;">究名 / Kyūna</text><text x="891.9999999999345" y="408.0020072228091" fill="#000000" transform="matrix(1,0,0,1,0,0)" style="font-size: 16px; font-family: Roboto, Arial, sans-serif; font-weight: 900; text-anchor: start; writing-mode: tb; letter-spacing: -0.1em;">雉堂 / Kizidō</text><text x="855.9999999999673" y="408.0020072228091" fill="#000000" transform="matrix(1,0,0,1,0,0)" style="font-size: 18px; font-family: Roboto, Arial, sans-serif; font-weight: 900; text-anchor: start; writing-mode: tb; letter-spacing: -0.1em;">理操研 / Risōken</text><text x="820" y="408.0020072228091" fill="#000000" transform="matrix(1,0,0,1,0,0)" style="font-size: 16px; font-family: Roboto, Arial, sans-serif; font-weight: 900; text-anchor: start; writing-mode: tb; letter-spacing: -0.1em;">東樟岐 / Higashi-Shōki</text><text x="783.9999999999509" y="408.0020072228091" fill="#000000" transform="matrix(1,0,0,1,0,0)" style="font-size: 16px; font-family: Roboto, Arial, sans-serif; font-weight: 900; text-anchor: start; writing-mode: tb; letter-spacing: -0.1em;">樟岐 / Shōki</text><text x="747.9999999999836" y="408.0020072228091" fill="#000000" transform="matrix(1,0,0,1,0,0)" style="font-size: 16px; font-family: Roboto, Arial, sans-serif; font-weight: 900; text-anchor: start; writing-mode: tb; letter-spacing: -0.1em;">𠮷会 / Yoshie</text><text x="980" y="105" fill="#000000" transform="matrix(1,0,0,1,0,0)" style="font-size: 16px; font-family: Roboto, Arial, sans-serif; font-weight: 900; text-anchor: end; letter-spacing: 0em;">Sakiyarichō / 先槍町</text><text x="980" y="141.00025090285118" fill="#000000" transform="matrix(1,0,0,1,0,0)" style="font-size: 16px; font-family: Roboto, Arial, sans-serif; font-weight: 900; text-anchor: end; letter-spacing: 0em;">Kita-Yarihara / 北槍原</text><text x="980" y="177.00050180570219" fill="#000000" transform="matrix(1,0,0,1,0,0)" style="font-size: 16px; font-family: Roboto, Arial, sans-serif; font-weight: 900; text-anchor: end; letter-spacing: 0em;">Yarihara / 槍原</text><text x="980" y="213.00075270855336" fill="#000000" transform="matrix(1,0,0,1,0,0)" style="font-size: 16px; font-family: Roboto, Arial, sans-serif; font-weight: 900; text-anchor: end; letter-spacing: 0em;">Tarui-Shokubutsuen / 垂井植物園</text><text x="980" y="249.00100361140454" fill="#000000" transform="matrix(1,0,0,1,0,0)" style="font-size: 16px; font-family: Roboto, Arial, sans-serif; font-weight: 900; text-anchor: end; letter-spacing: 0em;">Asano / 麻佐乃</text><text x="980" y="285.0012545142557" fill="#000000" transform="matrix(1,0,0,1,0,0)" style="font-size: 16px; font-family: Roboto, Arial, sans-serif; font-weight: 900; text-anchor: end; letter-spacing: 0em;">Tokoya / 床谷</text><text x="980" y="321.00150541710684" fill="#000000" transform="matrix(1,0,0,1,0,0)" style="font-size: 16px; font-family: Roboto, Arial, sans-serif; font-weight: 900; text-anchor: end; letter-spacing: 0em;">Minami-Tokoya / 南床谷</text><text x="980" y="357.00175631995796" fill="#000000" transform="matrix(1,0,0,1,0,0)" style="font-size: 16px; font-family: Roboto, Arial, sans-serif; font-weight: 900; text-anchor: end; letter-spacing: 0em;">Suzuhara / 素津原</text><text x="1020" y="395.0020072228091" fill="#000000" transform="matrix(1,0,0,1,0,0)" style="font-size: 20px; font-family: Roboto, Arial, sans-serif; font-weight: 900; text-anchor: start; letter-spacing: 0em;">興仰 / Kōgyō</text><text x="980" y="627.0036380913416" fill="#000000" transform="matrix(1,0,0,1,0,0)" style="font-size: 16px; font-family: Roboto, Arial, sans-serif; font-weight: 900; text-anchor: end; letter-spacing: 0em;">Nishi-Kōgyō / 西興仰</text><text x="980" y="663.0038889941926" fill="#000000" transform="matrix(1,0,0,1,0,0)" style="font-size: 16px; font-family: Roboto, Arial, sans-serif; font-weight: 900; text-anchor: end; letter-spacing: 0em;">Sennomaru-Bashi / 千の丸橋</text><text x="980" y="699.0041398970438" fill="#000000" transform="matrix(1,0,0,1,0,0)" style="font-size: 16px; font-family: Roboto, Arial, sans-serif; font-weight: 900; text-anchor: end; letter-spacing: 0em;">Hokuto / 北斗</text><text x="980" y="735.004390799895" fill="#000000" transform="matrix(1,0,0,1,0,0)" style="font-size: 16px; font-family: Roboto, Arial, sans-serif; font-weight: 900; text-anchor: end; letter-spacing: 0em;">Rino / 理野</text><text x="980" y="771.0046417027462" fill="#000000" transform="matrix(1,0,0,1,0,0)" style="font-size: 16px; font-family: Roboto, Arial, sans-serif; font-weight: 900; text-anchor: end; letter-spacing: 0em;">Rino-Sanchōme / 理野三丁目</text><text x="980" y="807.0048926055973" fill="#000000" transform="matrix(1,0,0,1,0,0)" style="font-size: 16px; font-family: Roboto, Arial, sans-serif; font-weight: 900; text-anchor: end; letter-spacing: 0em;">Kamino / 紙之</text><text x="980" y="844.0051435084483" fill="#000000" transform="matrix(1,0,0,1,0,0)" style="font-size: 18px; font-family: Roboto, Arial, sans-serif; font-weight: 900; text-anchor: end; letter-spacing: 0em;">Fuseba / 伏葉</text></svg>