<svg height="1647.2055600845981" version="1.1" width="812.0000000000164" xmlns="http://www.w3.org/2000/svg" id="svgSvg" viewBox="0 0 812.0000000000164 1647.2055600845981" style="width: 1366px; height: 2880.52px;"><desc>Created with Snap</desc><defs/><path d="M8,5 C10,2 10,2 5.67,3.6  C1.8,4.9 1.8,5.1 5.67,6.4 C10,8 10,8 8,5 z" fill="#ffffff" style=""/><path d="M2,5 C0,2 0,2 4.33,3.6  C8.2,4.9 8.2,5.1 4.33,6.4 C0,8 0,8 2,5 z" fill="#ffffff" style=""/><polyline points="657.9999999999836,100,657.9999999999836,511.6461433591849,657.9999999999836,811.0251567113161,657.9999999999836,885.8699100493501,657.9999999999836,1297.5160534085296,496.0000000000082,1428.4943717500855,387.99999999998363,1428.4943717500855,207.99999999998363,1428.4943717500855,100,1428.4943717500855" fill="none" stroke="#ffffff" style="stroke-opacity: 0; stroke-width: 6; stroke-linecap: round; stroke-linejoin: round; marker-start: none; marker-end: none;"/><path d="M8,5 C10,2 10,2 5.67,3.6  C1.8,4.9 1.8,5.1 5.67,6.4 C10,8 10,8 8,5 z" fill="#ff0000" style=""/><path d="M2,5 C0,2 0,2 4.33,3.6  C8.2,4.9 8.2,5.1 4.33,6.4 C0,8 0,8 2,5 z" fill="#ff0000" style=""/><polyline points="640,1297.5160534085296,496.0000000000082,1447.2055600845981,387.99999999998363,1447.2055600845981,207.99999999998363,1447.2055600845981,100,1447.2055600845981" fill="none" stroke="#ff0000" style="stroke-opacity: 1; stroke-width: 6; stroke-linecap: round; stroke-linejoin: round; marker-start: none; marker-end: none;"/><path d="M8,5 C10,2 10,2 5.67,3.6  C1.8,4.9 1.8,5.1 5.67,6.4 C10,8 10,8 8,5 z" fill="#808080" style=""/><path d="M2,5 C0,2 0,2 4.33,3.6  C8.2,4.9 8.2,5.1 4.33,6.4 C0,8 0,8 2,5 z" fill="#808080" style=""/><polyline points="603.9999999999918,1297.5160534085296,496.0000000000082,1409.7831834155784,460,1409.7831834155784,423.9999999999918,1409.7831834155784,387.99999999998363,1409.7831834155784,352.00000000001637,1409.7831834155784,316.0000000000082,1409.7831834155784,280,1409.7831834155784,244.00000000003274,1409.7831834155784,207.99999999998363,1409.7831834155784,172.00000000001637,1409.7831834155784,135.99999999996726,1409.7831834155784,100,1409.7831834155784" fill="none" stroke="#808080" style="stroke-opacity: 1; stroke-width: 6; stroke-linecap: round; stroke-linejoin: round; marker-start: none; marker-end: none;"/><path d="M8,5 C10,2 10,2 5.67,3.6  C1.8,4.9 1.8,5.1 5.67,6.4 C10,8 10,8 8,5 z" fill="#008000" style=""/><path d="M2,5 C0,2 0,2 4.33,3.6  C8.2,4.9 8.2,5.1 4.33,6.4 C0,8 0,8 2,5 z" fill="#008000" style=""/><polyline points="712.0000000000164,100,712.0000000000164,511.6461433591849,712.0000000000164,811.0251567113161,712.0000000000164,885.8699100493501,712.0000000000164,1297.5160534085296" fill="none" stroke="#008000" style="stroke-opacity: 1; stroke-width: 6; stroke-linecap: round; stroke-linejoin: round; marker-start: none; marker-end: none;"/><path d="M8,5 C10,2 10,2 5.67,3.6  C1.8,4.9 1.8,5.1 5.67,6.4 C10,8 10,8 8,5 z" fill="#ffa500" style=""/><path d="M2,5 C0,2 0,2 4.33,3.6  C8.2,4.9 8.2,5.1 4.33,6.4 C0,8 0,8 2,5 z" fill="#ffa500" style=""/><polyline points="676.0000000000082,100,676.0000000000082,212.2671300070485,676.0000000000082,324.5342600141023,676.0000000000082,399.3790133521311,676.0000000000082,511.6461433591849,676.0000000000082,661.3356500352478,676.0000000000082,811.0251567113161,676.0000000000082,885.8699100493501,676.0000000000082,960.7146633873789,676.0000000000082,998.1370400563986,676.0000000000082,1147.8265467324616,676.0000000000082,1297.5160534085296" fill="none" stroke="#ffa500" style="stroke-opacity: 1; stroke-width: 6; stroke-linecap: round; stroke-linejoin: round; marker-start: none; marker-end: none;"/><path d="M8,5 C10,2 10,2 5.67,3.6  C1.8,4.9 1.8,5.1 5.67,6.4 C10,8 10,8 8,5 z" fill="#ff0000" style=""/><path d="M2,5 C0,2 0,2 4.33,3.6  C8.2,4.9 8.2,5.1 4.33,6.4 C0,8 0,8 2,5 z" fill="#ff0000" style=""/><polyline points="640,100,640,212.2671300070485,640,287.1118833450826,640,324.5342600141023,640,436.80139002115084,640,511.6461433591849,640,586.4908966972137,640,661.3356500352478,640,698.7580267042675,640,811.0251567113161,640,848.4475333803305,640,885.8699100493501,640,960.7146633873789,640,1035.559416725413,640,1147.8265467324616,640,1222.6713000704956,640,1297.5160534085296" fill="none" stroke="#ff0000" style="stroke-opacity: 1; stroke-width: 6; stroke-linecap: round; stroke-linejoin: round; marker-start: none; marker-end: none;"/><path d="M8,5 C10,2 10,2 5.67,3.6  C1.8,4.9 1.8,5.1 5.67,6.4 C10,8 10,8 8,5 z" fill="#808080" style=""/><path d="M2,5 C0,2 0,2 4.33,3.6  C8.2,4.9 8.2,5.1 4.33,6.4 C0,8 0,8 2,5 z" fill="#808080" style=""/><polyline points="603.9999999999918,100,603.9999999999918,137.4223766690197,603.9999999999918,174.8447533380341,603.9999999999918,212.2671300070485,603.9999999999918,249.68950667606822,603.9999999999918,287.1118833450826,603.9999999999918,324.5342600141023,603.9999999999918,361.9566366831167,603.9999999999918,399.3790133521311,603.9999999999918,436.80139002115084,603.9999999999918,474.22376669016523,603.9999999999918,511.6461433591849,603.9999999999918,549.0685200281994,603.9999999999918,586.4908966972137,603.9999999999918,623.9132733662334,603.9999999999918,661.3356500352478,603.9999999999918,698.7580267042675,603.9999999999918,736.1804033732819,603.9999999999918,773.6027800422963,603.9999999999918,811.0251567113161,603.9999999999918,848.4475333803305,603.9999999999918,885.8699100493501,603.9999999999918,923.2922867183645,603.9999999999918,960.7146633873789,603.9999999999918,998.1370400563986,603.9999999999918,1035.559416725413,603.9999999999918,1072.9817933944328,603.9999999999918,1110.404170063447,603.9999999999918,1147.8265467324616,603.9999999999918,1185.2489234014813,603.9999999999918,1222.6713000704956,603.9999999999918,1260.0936767395156,603.9999999999918,1297.5160534085296" fill="none" stroke="#808080" style="stroke-opacity: 1; stroke-width: 6; stroke-linecap: round; stroke-linejoin: round; marker-start: none; marker-end: none;"/><path d="M645.9999999999836,100v-54a12,12,0,1,1,24,0v 54v 54a12,12,0,1,1,-24,0v-54z" fill="#ffffff" stroke="#000000" transform="matrix(0,1,-1,0,758,-558)" style="stroke-width: 3; fill-opacity: 1;"/><path d="M645.9999999999836,511.6461433591849v-54a12,12,0,1,1,24,0v 54v 54a12,12,0,1,1,-24,0v-54z" fill="#ffffff" stroke="#000000" transform="matrix(0,1,-1,0,1169.6461,-146.3539)" style="stroke-width: 3; fill-opacity: 1;"/><path d="M645.9999999999836,811.0251567113161v-54a12,12,0,1,1,24,0v 54v 54a12,12,0,1,1,-24,0v-54z" fill="#ffffff" stroke="#000000" transform="matrix(0,1,-1,0,1469.0252,153.0252)" style="stroke-width: 3; fill-opacity: 1;"/><path d="M645.9999999999836,885.8699100493501v-54a12,12,0,1,1,24,0v 54v 54a12,12,0,1,1,-24,0v-54z" fill="#ffffff" stroke="#000000" transform="matrix(0,1,-1,0,1543.8699,227.8699)" style="stroke-width: 3; fill-opacity: 1;"/><path d="M645.9999999999836,1297.5160534085296v-54a12,12,0,1,1,24,0v 54v 54a12,12,0,1,1,-24,0v-54z" fill="#ffffff" stroke="#000000" transform="matrix(0,1,-1,0,1955.5161,639.5161)" style="stroke-width: 3; fill-opacity: 1;"/><path d="M484.0000000000082,1428.4943717500855v-18a12,12,0,1,1,24,0v 18v 18a12,12,0,1,1,-24,0v-18z" fill="#ffffff" stroke="#000000" transform="matrix(1,0,0,1,0,0)" style="stroke-width: 3; fill-opacity: 1;"/><path d="M375.99999999998363,1428.4943717500855v-18a12,12,0,1,1,24,0v 18v 18a12,12,0,1,1,-24,0v-18z" fill="#ffffff" stroke="#000000" transform="matrix(1,0,0,1,0,0)" style="stroke-width: 3; fill-opacity: 1;"/><path d="M195.99999999998363,1428.4943717500855v-18a12,12,0,1,1,24,0v 18v 18a12,12,0,1,1,-24,0v-18z" fill="#ffffff" stroke="#000000" transform="matrix(1,0,0,1,0,0)" style="stroke-width: 3; fill-opacity: 1;"/><path d="M88,1428.4943717500855v-18a12,12,0,1,1,24,0v 18v 18a12,12,0,1,1,-24,0v-18z" fill="#ffffff" stroke="#000000" transform="matrix(1,0,0,1,0,0)" style="stroke-width: 3; fill-opacity: 1;"/><circle cx="640" cy="1297.5160534085296" r="6" fill="#ffffff" stroke="#ff0000" style="stroke-width: 3; fill-opacity: 1;"/><circle cx="496.0000000000082" cy="1447.2055600845981" r="6" fill="#ffffff" stroke="#ff0000" style="stroke-width: 3; fill-opacity: 1;"/><circle cx="387.99999999998363" cy="1447.2055600845981" r="6" fill="#ffffff" stroke="#ff0000" style="stroke-width: 3; fill-opacity: 1;"/><circle cx="207.99999999998363" cy="1447.2055600845981" r="6" fill="#ffffff" stroke="#ff0000" style="stroke-width: 3; fill-opacity: 1;"/><circle cx="100" cy="1447.2055600845981" r="6" fill="#ffffff" stroke="#ff0000" style="stroke-width: 3; fill-opacity: 1;"/><circle cx="603.9999999999918" cy="1297.5160534085296" r="6" fill="#ffffff" stroke="#808080" style="stroke-width: 3; fill-opacity: 1;"/><circle cx="496.0000000000082" cy="1409.7831834155784" r="6" fill="#ffffff" stroke="#808080" style="stroke-width: 3; fill-opacity: 1;"/><circle cx="460" cy="1409.7831834155784" r="6" fill="#ffffff" stroke="#808080" style="stroke-width: 3; fill-opacity: 1;"/><circle cx="423.9999999999918" cy="1409.7831834155784" r="6" fill="#ffffff" stroke="#808080" style="stroke-width: 3; fill-opacity: 1;"/><circle cx="387.99999999998363" cy="1409.7831834155784" r="6" fill="#ffffff" stroke="#808080" style="stroke-width: 3; fill-opacity: 1;"/><circle cx="352.00000000001637" cy="1409.7831834155784" r="6" fill="#ffffff" stroke="#808080" style="stroke-width: 3; fill-opacity: 1;"/><circle cx="316.0000000000082" cy="1409.7831834155784" r="6" fill="#ffffff" stroke="#808080" style="stroke-width: 3; fill-opacity: 1;"/><circle cx="280" cy="1409.7831834155784" r="6" fill="#ffffff" stroke="#808080" style="stroke-width: 3; fill-opacity: 1;"/><circle cx="244.00000000003274" cy="1409.7831834155784" r="6" fill="#ffffff" stroke="#808080" style="stroke-width: 3; fill-opacity: 1;"/><circle cx="207.99999999998363" cy="1409.7831834155784" r="6" fill="#ffffff" stroke="#808080" style="stroke-width: 3; fill-opacity: 1;"/><circle cx="172.00000000001637" cy="1409.7831834155784" r="6" fill="#ffffff" stroke="#808080" style="stroke-width: 3; fill-opacity: 1;"/><circle cx="135.99999999996726" cy="1409.7831834155784" r="6" fill="#ffffff" stroke="#808080" style="stroke-width: 3; fill-opacity: 1;"/><circle cx="100" cy="1409.7831834155784" r="6" fill="#ffffff" stroke="#808080" style="stroke-width: 3; fill-opacity: 1;"/><circle cx="712.0000000000164" cy="100" r="6" fill="#ffffff" stroke="#008000" style="stroke-width: 3; fill-opacity: 1;"/><circle cx="712.0000000000164" cy="511.6461433591849" r="6" fill="#ffffff" stroke="#008000" style="stroke-width: 3; fill-opacity: 1;"/><circle cx="712.0000000000164" cy="811.0251567113161" r="6" fill="#ffffff" stroke="#008000" style="stroke-width: 3; fill-opacity: 1;"/><circle cx="712.0000000000164" cy="885.8699100493501" r="6" fill="#ffffff" stroke="#008000" style="stroke-width: 3; fill-opacity: 1;"/><circle cx="712.0000000000164" cy="1297.5160534085296" r="6" fill="#ffffff" stroke="#008000" style="stroke-width: 3; fill-opacity: 1;"/><circle cx="676.0000000000082" cy="100" r="6" fill="#ffffff" stroke="#ffa500" style="stroke-width: 3; fill-opacity: 1;"/><circle cx="676.0000000000082" cy="212.2671300070485" r="6" fill="#ffffff" stroke="#ffa500" style="stroke-width: 3; fill-opacity: 1;"/><circle cx="676.0000000000082" cy="324.5342600141023" r="6" fill="#ffffff" stroke="#ffa500" style="stroke-width: 3; fill-opacity: 1;"/><circle cx="676.0000000000082" cy="399.3790133521311" r="6" fill="#ffffff" stroke="#ffa500" style="stroke-width: 3; fill-opacity: 1;"/><circle cx="676.0000000000082" cy="511.6461433591849" r="6" fill="#ffffff" stroke="#ffa500" style="stroke-width: 3; fill-opacity: 1;"/><circle cx="676.0000000000082" cy="661.3356500352478" r="6" fill="#ffffff" stroke="#ffa500" style="stroke-width: 3; fill-opacity: 1;"/><circle cx="676.0000000000082" cy="811.0251567113161" r="6" fill="#ffffff" stroke="#ffa500" style="stroke-width: 3; fill-opacity: 1;"/><circle cx="676.0000000000082" cy="885.8699100493501" r="6" fill="#ffffff" stroke="#ffa500" style="stroke-width: 3; fill-opacity: 1;"/><circle cx="676.0000000000082" cy="960.7146633873789" r="6" fill="#ffffff" stroke="#ffa500" style="stroke-width: 3; fill-opacity: 1;"/><circle cx="676.0000000000082" cy="998.1370400563986" r="6" fill="#ffffff" stroke="#ffa500" style="stroke-width: 3; fill-opacity: 1;"/><circle cx="676.0000000000082" cy="1147.8265467324616" r="6" fill="#ffffff" stroke="#ffa500" style="stroke-width: 3; fill-opacity: 1;"/><circle cx="676.0000000000082" cy="1297.5160534085296" r="6" fill="#ffffff" stroke="#ffa500" style="stroke-width: 3; fill-opacity: 1;"/><circle cx="640" cy="100" r="6" fill="#ffffff" stroke="#ff0000" style="stroke-width: 3; fill-opacity: 1;"/><circle cx="640" cy="212.2671300070485" r="6" fill="#ffffff" stroke="#ff0000" style="stroke-width: 3; fill-opacity: 1;"/><circle cx="640" cy="287.1118833450826" r="6" fill="#ffffff" stroke="#ff0000" style="stroke-width: 3; fill-opacity: 1;"/><circle cx="640" cy="324.5342600141023" r="6" fill="#ffffff" stroke="#ff0000" style="stroke-width: 3; fill-opacity: 1;"/><circle cx="640" cy="436.80139002115084" r="6" fill="#ffffff" stroke="#ff0000" style="stroke-width: 3; fill-opacity: 1;"/><circle cx="640" cy="511.6461433591849" r="6" fill="#ffffff" stroke="#ff0000" style="stroke-width: 3; fill-opacity: 1;"/><circle cx="640" cy="586.4908966972137" r="6" fill="#ffffff" stroke="#ff0000" style="stroke-width: 3; fill-opacity: 1;"/><circle cx="640" cy="661.3356500352478" r="6" fill="#ffffff" stroke="#ff0000" style="stroke-width: 3; fill-opacity: 1;"/><circle cx="640" cy="698.7580267042675" r="6" fill="#ffffff" stroke="#ff0000" style="stroke-width: 3; fill-opacity: 1;"/><circle cx="640" cy="811.0251567113161" r="6" fill="#ffffff" stroke="#ff0000" style="stroke-width: 3; fill-opacity: 1;"/><circle cx="640" cy="848.4475333803305" r="6" fill="#ffffff" stroke="#ff0000" style="stroke-width: 3; fill-opacity: 1;"/><circle cx="640" cy="885.8699100493501" r="6" fill="#ffffff" stroke="#ff0000" style="stroke-width: 3; fill-opacity: 1;"/><circle cx="640" cy="960.7146633873789" r="6" fill="#ffffff" stroke="#ff0000" style="stroke-width: 3; fill-opacity: 1;"/><circle cx="640" cy="1035.559416725413" r="6" fill="#ffffff" stroke="#ff0000" style="stroke-width: 3; fill-opacity: 1;"/><circle cx="640" cy="1147.8265467324616" r="6" fill="#ffffff" stroke="#ff0000" style="stroke-width: 3; fill-opacity: 1;"/><circle cx="640" cy="1222.6713000704956" r="6" fill="#ffffff" stroke="#ff0000" style="stroke-width: 3; fill-opacity: 1;"/><circle cx="640" cy="1297.5160534085296" r="6" fill="#ffffff" stroke="#ff0000" style="stroke-width: 3; fill-opacity: 1;"/><circle cx="603.9999999999918" cy="100" r="6" fill="#ffffff" stroke="#808080" style="stroke-width: 3; fill-opacity: 1;"/><circle cx="603.9999999999918" cy="137.4223766690197" r="6" fill="#ffffff" stroke="#808080" style="stroke-width: 3; fill-opacity: 1;"/><circle cx="603.9999999999918" cy="174.8447533380341" r="6" fill="#ffffff" stroke="#808080" style="stroke-width: 3; fill-opacity: 1;"/><circle cx="603.9999999999918" cy="212.2671300070485" r="6" fill="#ffffff" stroke="#808080" style="stroke-width: 3; fill-opacity: 1;"/><circle cx="603.9999999999918" cy="249.68950667606822" r="6" fill="#ffffff" stroke="#808080" style="stroke-width: 3; fill-opacity: 1;"/><circle cx="603.9999999999918" cy="287.1118833450826" r="6" fill="#ffffff" stroke="#808080" style="stroke-width: 3; fill-opacity: 1;"/><circle cx="603.9999999999918" cy="324.5342600141023" r="6" fill="#ffffff" stroke="#808080" style="stroke-width: 3; fill-opacity: 1;"/><circle cx="603.9999999999918" cy="361.9566366831167" r="6" fill="#ffffff" stroke="#808080" style="stroke-width: 3; fill-opacity: 1;"/><circle cx="603.9999999999918" cy="399.3790133521311" r="6" fill="#ffffff" stroke="#808080" style="stroke-width: 3; fill-opacity: 1;"/><circle cx="603.9999999999918" cy="436.80139002115084" r="6" fill="#ffffff" stroke="#808080" style="stroke-width: 3; fill-opacity: 1;"/><circle cx="603.9999999999918" cy="474.22376669016523" r="6" fill="#ffffff" stroke="#808080" style="stroke-width: 3; fill-opacity: 1;"/><circle cx="603.9999999999918" cy="511.6461433591849" r="6" fill="#ffffff" stroke="#808080" style="stroke-width: 3; fill-opacity: 1;"/><circle cx="603.9999999999918" cy="549.0685200281994" r="6" fill="#ffffff" stroke="#808080" style="stroke-width: 3; fill-opacity: 1;"/><circle cx="603.9999999999918" cy="586.4908966972137" r="6" fill="#ffffff" stroke="#808080" style="stroke-width: 3; fill-opacity: 1;"/><circle cx="603.9999999999918" cy="623.9132733662334" r="6" fill="#ffffff" stroke="#808080" style="stroke-width: 3; fill-opacity: 1;"/><circle cx="603.9999999999918" cy="661.3356500352478" r="6" fill="#ffffff" stroke="#808080" style="stroke-width: 3; fill-opacity: 1;"/><circle cx="603.9999999999918" cy="698.7580267042675" r="6" fill="#ffffff" stroke="#808080" style="stroke-width: 3; fill-opacity: 1;"/><circle cx="603.9999999999918" cy="736.1804033732819" r="6" fill="#ffffff" stroke="#808080" style="stroke-width: 3; fill-opacity: 1;"/><circle cx="603.9999999999918" cy="773.6027800422963" r="6" fill="#ffffff" stroke="#808080" style="stroke-width: 3; fill-opacity: 1;"/><circle cx="603.9999999999918" cy="811.0251567113161" r="6" fill="#ffffff" stroke="#808080" style="stroke-width: 3; fill-opacity: 1;"/><circle cx="603.9999999999918" cy="848.4475333803305" r="6" fill="#ffffff" stroke="#808080" style="stroke-width: 3; fill-opacity: 1;"/><circle cx="603.9999999999918" cy="885.8699100493501" r="6" fill="#ffffff" stroke="#808080" style="stroke-width: 3; fill-opacity: 1;"/><circle cx="603.9999999999918" cy="923.2922867183645" r="6" fill="#ffffff" stroke="#808080" style="stroke-width: 3; fill-opacity: 1;"/><circle cx="603.9999999999918" cy="960.7146633873789" r="6" fill="#ffffff" stroke="#808080" style="stroke-width: 3; fill-opacity: 1;"/><circle cx="603.9999999999918" cy="998.1370400563986" r="6" fill="#ffffff" stroke="#808080" style="stroke-width: 3; fill-opacity: 1;"/><circle cx="603.9999999999918" cy="1035.559416725413" r="6" fill="#ffffff" stroke="#808080" style="stroke-width: 3; fill-opacity: 1;"/><circle cx="603.9999999999918" cy="1072.9817933944328" r="6" fill="#ffffff" stroke="#808080" style="stroke-width: 3; fill-opacity: 1;"/><circle cx="603.9999999999918" cy="1110.404170063447" r="6" fill="#ffffff" stroke="#808080" style="stroke-width: 3; fill-opacity: 1;"/><circle cx="603.9999999999918" cy="1147.8265467324616" r="6" fill="#ffffff" stroke="#808080" style="stroke-width: 3; fill-opacity: 1;"/><circle cx="603.9999999999918" cy="1185.2489234014813" r="6" fill="#ffffff" stroke="#808080" style="stroke-width: 3; fill-opacity: 1;"/><circle cx="603.9999999999918" cy="1222.6713000704956" r="6" fill="#ffffff" stroke="#808080" style="stroke-width: 3; fill-opacity: 1;"/><circle cx="603.9999999999918" cy="1260.0936767395156" r="6" fill="#ffffff" stroke="#808080" style="stroke-width: 3; fill-opacity: 1;"/><circle cx="603.9999999999918" cy="1297.5160534085296" r="6" fill="#ffffff" stroke="#808080" style="stroke-width: 3; fill-opacity: 1;"/><text x="496.0000000000082" y="1465.7831834155784" fill="#000000" transform="matrix(1,0,0,1,0,0)" style="font-size: 18px; font-family: Roboto, Arial, sans-serif; font-weight: 900; text-anchor: start; writing-mode: tb; letter-spacing: -0.1em;">芝原西喩渡 Shibahara-nishi-yuwata</text><text x="460" y="1465.7831834155784" fill="#000000" transform="matrix(1,0,0,1,0,0)" style="font-size: 18px; font-family: Roboto, Arial, sans-serif; font-weight: 900; text-anchor: start; writing-mode: tb; letter-spacing: -0.1em;">今堀 Imahori</text><text x="423.9999999999918" y="1465.7831834155784" fill="#000000" transform="matrix(1,0,0,1,0,0)" style="font-size: 18px; font-family: Roboto, Arial, sans-serif; font-weight: 900; text-anchor: start; writing-mode: tb; letter-spacing: -0.1em;">上神南 Kami-kōnan</text><text x="387.99999999998363" y="1465.7831834155784" fill="#000000" transform="matrix(1,0,0,1,0,0)" style="font-size: 18px; font-family: Roboto, Arial, sans-serif; font-weight: 900; text-anchor: start; writing-mode: tb; letter-spacing: -0.1em;">神南 Kōnan</text><text x="352.00000000001637" y="1465.7831834155784" fill="#000000" transform="matrix(1,0,0,1,0,0)" style="font-size: 18px; font-family: Roboto, Arial, sans-serif; font-weight: 900; text-anchor: start; writing-mode: tb; letter-spacing: -0.1em;">陸浦 Rikuura</text><text x="316.0000000000082" y="1465.7831834155784" fill="#000000" transform="matrix(1,0,0,1,0,0)" style="font-size: 18px; font-family: Roboto, Arial, sans-serif; font-weight: 900; text-anchor: start; writing-mode: tb; letter-spacing: -0.1em;">内吉 Uchiyoshi</text><text x="280" y="1465.7831834155784" fill="#000000" transform="matrix(1,0,0,1,0,0)" style="font-size: 18px; font-family: Roboto, Arial, sans-serif; font-weight: 900; text-anchor: start; writing-mode: tb; letter-spacing: -0.1em;">西ケ谷 Nishigaya</text><text x="244.00000000003274" y="1465.7831834155784" fill="#000000" transform="matrix(1,0,0,1,0,0)" style="font-size: 18px; font-family: Roboto, Arial, sans-serif; font-weight: 900; text-anchor: start; writing-mode: tb; letter-spacing: -0.1em;">米路 Yonemichi</text><text x="207.99999999998363" y="1465.7831834155784" fill="#000000" transform="matrix(1,0,0,1,0,0)" style="font-size: 18px; font-family: Roboto, Arial, sans-serif; font-weight: 900; text-anchor: start; writing-mode: tb; letter-spacing: -0.1em;">蜜焼 Mitsuyaki</text><text x="172.00000000001637" y="1465.7831834155784" fill="#000000" transform="matrix(1,0,0,1,0,0)" style="font-size: 18px; font-family: Roboto, Arial, sans-serif; font-weight: 900; text-anchor: start; writing-mode: tb; letter-spacing: -0.1em;">大月ヶ原 Ōtsukigahara</text><text x="135.99999999996726" y="1465.7831834155784" fill="#000000" transform="matrix(1,0,0,1,0,0)" style="font-size: 18px; font-family: Roboto, Arial, sans-serif; font-weight: 900; text-anchor: start; writing-mode: tb; letter-spacing: -0.1em;">葉加瀬 Hakase</text><text x="100" y="1465.7831834155784" fill="#000000" transform="matrix(1,0,0,1,0,0)" style="font-size: 18px; font-family: Roboto, Arial, sans-serif; font-weight: 900; text-anchor: start; writing-mode: tb; letter-spacing: -0.1em;">藤五行 Tōgogyo</text><text x="583.9999999999918" y="106" fill="#000000" transform="matrix(1,0,0,1,0,0)" style="font-size: 18px; font-family: Roboto, Arial, sans-serif; font-weight: 900; text-anchor: end; letter-spacing: 0em;">Shibahara-nakamo 芝原朋羚</text><text x="583.9999999999918" y="143.4223766690197" fill="#000000" transform="matrix(1,0,0,1,0,0)" style="font-size: 18px; font-family: Roboto, Arial, sans-serif; font-weight: 900; text-anchor: end; letter-spacing: 0em;">Nakamo-minami 朋羚南</text><text x="583.9999999999918" y="180.8447533380341" fill="#000000" transform="matrix(1,0,0,1,0,0)" style="font-size: 18px; font-family: Roboto, Arial, sans-serif; font-weight: 900; text-anchor: end; letter-spacing: 0em;">Suino 穂野</text><text x="583.9999999999918" y="218.2671300070485" fill="#000000" transform="matrix(1,0,0,1,0,0)" style="font-size: 18px; font-family: Roboto, Arial, sans-serif; font-weight: 900; text-anchor: end; letter-spacing: 0em;">Akihaya  秋早</text><text x="583.9999999999918" y="255.68950667606822" fill="#000000" transform="matrix(1,0,0,1,0,0)" style="font-size: 18px; font-family: Roboto, Arial, sans-serif; font-weight: 900; text-anchor: end; letter-spacing: 0em;">Minami-hirogi 南宏城</text><text x="583.9999999999918" y="293.1118833450826" fill="#000000" transform="matrix(1,0,0,1,0,0)" style="font-size: 18px; font-family: Roboto, Arial, sans-serif; font-weight: 900; text-anchor: end; letter-spacing: 0em;">Shibahara-sorakage 芝原宙蔭</text><text x="583.9999999999918" y="330.5342600141023" fill="#000000" transform="matrix(1,0,0,1,0,0)" style="font-size: 18px; font-family: Roboto, Arial, sans-serif; font-weight: 900; text-anchor: end; letter-spacing: 0em;">Shibahara-hirogishi 芝原宏城市</text><text x="583.9999999999918" y="367.9566366831167" fill="#000000" transform="matrix(1,0,0,1,0,0)" style="font-size: 18px; font-family: Roboto, Arial, sans-serif; font-weight: 900; text-anchor: end; letter-spacing: 0em;">Okukoshi 奥越</text><text x="583.9999999999918" y="405.3790133521311" fill="#000000" transform="matrix(1,0,0,1,0,0)" style="font-size: 18px; font-family: Roboto, Arial, sans-serif; font-weight: 900; text-anchor: end; letter-spacing: 0em;">Reihoku 伶北</text><text x="583.9999999999918" y="442.80139002115084" fill="#000000" transform="matrix(1,0,0,1,0,0)" style="font-size: 18px; font-family: Roboto, Arial, sans-serif; font-weight: 900; text-anchor: end; letter-spacing: 0em;">Kamakari 鎌刈</text><text x="583.9999999999918" y="480.22376669016523" fill="#000000" transform="matrix(1,0,0,1,0,0)" style="font-size: 18px; font-family: Roboto, Arial, sans-serif; font-weight: 900; text-anchor: end; letter-spacing: 0em;">Kasshōkuri 括尚繰</text><text x="583.9999999999918" y="517.6461433591849" fill="#000000" transform="matrix(1,0,0,1,0,0)" style="font-size: 18px; font-family: Roboto, Arial, sans-serif; font-weight: 900; text-anchor: end; letter-spacing: 0em;">Kyōmaai 凶麻相</text><text x="583.9999999999918" y="555.0685200281994" fill="#000000" transform="matrix(1,0,0,1,0,0)" style="font-size: 18px; font-family: Roboto, Arial, sans-serif; font-weight: 900; text-anchor: end; letter-spacing: 0em;">Isoya 磯谷</text><text x="583.9999999999918" y="592.4908966972137" fill="#000000" transform="matrix(1,0,0,1,0,0)" style="font-size: 18px; font-family: Roboto, Arial, sans-serif; font-weight: 900; text-anchor: end; letter-spacing: 0em;">hamachō-chūō 浜町中央</text><text x="583.9999999999918" y="629.9132733662334" fill="#000000" transform="matrix(1,0,0,1,0,0)" style="font-size: 18px; font-family: Roboto, Arial, sans-serif; font-weight: 900; text-anchor: end; letter-spacing: 0em;">Onohama 小野浜</text><text x="583.9999999999918" y="667.3356500352478" fill="#000000" transform="matrix(1,0,0,1,0,0)" style="font-size: 18px; font-family: Roboto, Arial, sans-serif; font-weight: 900; text-anchor: end; letter-spacing: 0em;">Umizoihara 海沿原</text><text x="583.9999999999918" y="704.7580267042675" fill="#000000" transform="matrix(1,0,0,1,0,0)" style="font-size: 18px; font-family: Roboto, Arial, sans-serif; font-weight: 900; text-anchor: end; letter-spacing: 0em;">Umisaki-shi 海埼市</text><text x="583.9999999999918" y="742.1804033732819" fill="#000000" transform="matrix(1,0,0,1,0,0)" style="font-size: 18px; font-family: Roboto, Arial, sans-serif; font-weight: 900; text-anchor: end; letter-spacing: 0em;">Higashi-umisaki 東海埼</text><text x="583.9999999999918" y="779.6027800422963" fill="#000000" transform="matrix(1,0,0,1,0,0)" style="font-size: 18px; font-family: Roboto, Arial, sans-serif; font-weight: 900; text-anchor: end; letter-spacing: 0em;">Takumiya 匠矢</text><text x="583.9999999999918" y="817.0251567113161" fill="#000000" transform="matrix(1,0,0,1,0,0)" style="font-size: 18px; font-family: Roboto, Arial, sans-serif; font-weight: 900; text-anchor: end; letter-spacing: 0em;">keikyū 競笈</text><text x="583.9999999999918" y="854.4475333803305" fill="#000000" transform="matrix(1,0,0,1,0,0)" style="font-size: 18px; font-family: Roboto, Arial, sans-serif; font-weight: 900; text-anchor: end; letter-spacing: 0em;">Uchii-jima 内居島</text><text x="583.9999999999918" y="891.8699100493501" fill="#000000" transform="matrix(1,0,0,1,0,0)" style="font-size: 18px; font-family: Roboto, Arial, sans-serif; font-weight: 900; text-anchor: end; letter-spacing: 0em;">Nijijutsu 虹述</text><text x="583.9999999999918" y="929.2922867183645" fill="#000000" transform="matrix(1,0,0,1,0,0)" style="font-size: 18px; font-family: Roboto, Arial, sans-serif; font-weight: 900; text-anchor: end; letter-spacing: 0em;">Yuhoku 喩北</text><text x="583.9999999999918" y="966.7146633873789" fill="#000000" transform="matrix(1,0,0,1,0,0)" style="font-size: 18px; font-family: Roboto, Arial, sans-serif; font-weight: 900; text-anchor: end; letter-spacing: 0em;">YuhokugakuenToshi 喩北学園都市</text><text x="583.9999999999918" y="1004.1370400563986" fill="#000000" transform="matrix(1,0,0,1,0,0)" style="font-size: 18px; font-family: Roboto, Arial, sans-serif; font-weight: 900; text-anchor: end; letter-spacing: 0em;">YuwatakaiyōDai 喩渡海洋大</text><text x="583.9999999999918" y="1041.559416725413" fill="#000000" transform="matrix(1,0,0,1,0,0)" style="font-size: 18px; font-family: Roboto, Arial, sans-serif; font-weight: 900; text-anchor: end; letter-spacing: 0em;">Yoshiharido 義張戸</text><text x="583.9999999999918" y="1078.9817933944328" fill="#000000" transform="matrix(1,0,0,1,0,0)" style="font-size: 18px; font-family: Roboto, Arial, sans-serif; font-weight: 900; text-anchor: end; letter-spacing: 0em;">Funayama 舩山</text><text x="583.9999999999918" y="1116.404170063447" fill="#000000" transform="matrix(1,0,0,1,0,0)" style="font-size: 18px; font-family: Roboto, Arial, sans-serif; font-weight: 900; text-anchor: end; letter-spacing: 0em;">Nofuri 乃降</text><text x="583.9999999999918" y="1153.8265467324616" fill="#000000" transform="matrix(1,0,0,1,0,0)" style="font-size: 18px; font-family: Roboto, Arial, sans-serif; font-weight: 900; text-anchor: end; letter-spacing: 0em;">Sense 洗瀬</text><text x="583.9999999999918" y="1191.2489234014813" fill="#000000" transform="matrix(1,0,0,1,0,0)" style="font-size: 18px; font-family: Roboto, Arial, sans-serif; font-weight: 900; text-anchor: end; letter-spacing: 0em;">Tonofuse 殿伏</text><text x="583.9999999999918" y="1228.6713000704956" fill="#000000" transform="matrix(1,0,0,1,0,0)" style="font-size: 18px; font-family: Roboto, Arial, sans-serif; font-weight: 900; text-anchor: end; letter-spacing: 0em;">Asagi 朝義</text><text x="583.9999999999918" y="1266.0936767395156" fill="#000000" transform="matrix(1,0,0,1,0,0)" style="font-size: 18px; font-family: Roboto, Arial, sans-serif; font-weight: 900; text-anchor: end; letter-spacing: 0em;">Uwanari-Bashi 嫐橋</text><text x="583.9999999999918" y="1303.5160534085296" fill="#000000" transform="matrix(1,0,0,1,0,0)" style="font-size: 18px; font-family: Roboto, Arial, sans-serif; font-weight: 900; text-anchor: end; letter-spacing: 0em;">Yuwata 喩渡</text></svg>