<svg height="588.000254653448" version="1.1" width="839.0000000000123" xmlns="http://www.w3.org/2000/svg" id="svgSvg" viewBox="0 0 839.0000000000123 588.000254653448" style="width: 1366px; height: 957.341px;"><desc>Created with Snap</desc><defs/><path d="M8,5 C10,2 10,2 5.67,3.6  C1.8,4.9 1.8,5.1 5.67,6.4 C10,8 10,8 8,5 z" fill="#ffffff" style=""/><path d="M2,5 C0,2 0,2 4.33,3.6  C8.2,4.9 8.2,5.1 4.33,6.4 C0,8 0,8 2,5 z" fill="#ffffff" style=""/><polyline points="469.0000000000123,388.000254653448,739.0000000000123,388.000254653448" fill="none" stroke="#ffffff" style="stroke-opacity: 0.9; stroke-width: 0; stroke-linecap: round; stroke-linejoin: round; marker-start: none; marker-end: none;"/><path d="M8,5 C10,2 10,2 5.67,3.6  C1.8,4.9 1.8,5.1 5.67,6.4 C10,8 10,8 8,5 z" fill="#ffffff" style=""/><path d="M2,5 C0,2 0,2 4.33,3.6  C8.2,4.9 8.2,5.1 4.33,6.4 C0,8 0,8 2,5 z" fill="#ffffff" style=""/><polyline points="415,100,415,127.00002387376075,415,154.0000477475215,415,181.00007162128225,415,208.000095495043,415,235.00011936880375,415,262.0001432425645,415,289.00016711632526,415,316.000190990086,415,343.00021486384674,415,370.0002387376075" fill="none" stroke="#ffffff" style="stroke-opacity: 0.9; stroke-width: 6; stroke-linecap: round; stroke-linejoin: round; marker-start: none; marker-end: none;"/><path d="M8,5 C10,2 10,2 5.67,3.6  C1.8,4.9 1.8,5.1 5.67,6.4 C10,8 10,8 8,5 z" fill="#ffffff" style=""/><path d="M2,5 C0,2 0,2 4.33,3.6  C8.2,4.9 8.2,5.1 4.33,6.4 C0,8 0,8 2,5 z" fill="#ffffff" style=""/><polyline points="415,100,415,127.00002387376075,415,154.0000477475215,415,181.00007162128225,415,208.000095495043,415,235.00011936880375,415,262.0001432425645,415,289.00016711632526,415,316.000190990086,415,343.00021486384674,415,370.0002387376075" fill="none" stroke="#ffffff" style="stroke-opacity: 0.9; stroke-width: 6; stroke-linecap: round; stroke-linejoin: round; marker-start: none; marker-end: none;"/><path d="M8,5 C10,2 10,2 5.67,3.6  C1.8,4.9 1.8,5.1 5.67,6.4 C10,8 10,8 8,5 z" fill="#ffffff" style=""/><path d="M2,5 C0,2 0,2 4.33,3.6  C8.2,4.9 8.2,5.1 4.33,6.4 C0,8 0,8 2,5 z" fill="#ffffff" style=""/><polyline points="235,217.00010345296323,235,199.00008753712277" fill="none" stroke="#ffffff" style="stroke-opacity: 0.9; stroke-width: 6; stroke-linecap: round; stroke-linejoin: round; marker-start: none; marker-end: none;"/><path d="M8,5 C10,2 10,2 5.67,3.6  C1.8,4.9 1.8,5.1 5.67,6.4 C10,8 10,8 8,5 z" fill="#863ce2" style=""/><path d="M2,5 C0,2 0,2 4.33,3.6  C8.2,4.9 8.2,5.1 4.33,6.4 C0,8 0,8 2,5 z" fill="#863ce2" style=""/><polyline points="100,190.00007957920252,100,226.0001114108835,100,208.000095495043,163.0000000000041,226.0001114108835,100,208.000095495043,154.00000000001228,190.00007957920252,163.0000000000041,226.0001114108835,171.9999999999959,190.00007957920252,181.00000000000819,226.0001114108835,190,190.00007957920252,244.00000000001228,208.000095495043,181.00000000000819,226.0001114108835,244.00000000001228,208.000095495043,244.00000000001228,190.00007957920252,244.00000000001228,226.0001114108835" fill="none" stroke="#863ce2" style="stroke-opacity: 0.9; stroke-width: 6; stroke-linecap: round; stroke-linejoin: round; marker-start: none; marker-end: none;"/><path d="M8,5 C10,2 10,2 5.67,3.6  C1.8,4.9 1.8,5.1 5.67,6.4 C10,8 10,8 8,5 z" fill="#e8b311" style=""/><path d="M2,5 C0,2 0,2 4.33,3.6  C8.2,4.9 8.2,5.1 4.33,6.4 C0,8 0,8 2,5 z" fill="#e8b311" style=""/><polyline points="451.0000000000082,100,451.0000000000082,127.00002387376075,451.0000000000082,154.0000477475215,451.0000000000082,181.00007162128225,451.0000000000082,208.000095495043,451.0000000000082,235.00011936880375,451.0000000000082,262.0001432425645,451.0000000000082,289.00016711632526,451.0000000000082,316.000190990086,451.0000000000082,343.00021486384674,451.0000000000082,370.0002387376075" fill="none" stroke="#e8b311" style="stroke-opacity: 0.9; stroke-width: 14; stroke-linecap: round; stroke-linejoin: round; marker-start: none; marker-end: none;"/><circle cx="415" cy="100" r="10" fill="#ffffff" stroke="#ffffff" style="stroke-width: 5; fill-opacity: 1;"/><circle cx="415" cy="127.00002387376075" r="10" fill="#ffffff" stroke="#ffffff" style="stroke-width: 5; fill-opacity: 1;"/><circle cx="415" cy="154.0000477475215" r="10" fill="#ffffff" stroke="#ffffff" style="stroke-width: 5; fill-opacity: 1;"/><circle cx="415" cy="181.00007162128225" r="10" fill="#ffffff" stroke="#ffffff" style="stroke-width: 5; fill-opacity: 1;"/><circle cx="415" cy="208.000095495043" r="10" fill="#ffffff" stroke="#ffffff" style="stroke-width: 5; fill-opacity: 1;"/><circle cx="415" cy="235.00011936880375" r="10" fill="#ffffff" stroke="#ffffff" style="stroke-width: 5; fill-opacity: 1;"/><circle cx="415" cy="262.0001432425645" r="10" fill="#ffffff" stroke="#ffffff" style="stroke-width: 5; fill-opacity: 1;"/><circle cx="415" cy="289.00016711632526" r="10" fill="#ffffff" stroke="#ffffff" style="stroke-width: 5; fill-opacity: 1;"/><circle cx="415" cy="316.000190990086" r="10" fill="#ffffff" stroke="#ffffff" style="stroke-width: 5; fill-opacity: 1;"/><circle cx="415" cy="343.00021486384674" r="10" fill="#ffffff" stroke="#ffffff" style="stroke-width: 5; fill-opacity: 1;"/><circle cx="415" cy="370.0002387376075" r="10" fill="#ffffff" stroke="#ffffff" style="stroke-width: 5; fill-opacity: 1;"/><rect x="403" y="88" width="24" height="24" fill="#ffffff" stroke="#ffa500" transform="matrix(1,0,0,1,0,0)" style="stroke-width: 3; fill-opacity: 1;"/><rect x="403" y="115.00002387376075" width="24" height="24" fill="#ffffff" stroke="#ffa500" transform="matrix(1,0,0,1,0,0)" style="stroke-width: 3; fill-opacity: 1;"/><rect x="403" y="142.0000477475215" width="24" height="24" fill="#ffffff" stroke="#ffa500" transform="matrix(1,0,0,1,0,0)" style="stroke-width: 3; fill-opacity: 1;"/><rect x="403" y="169.00007162128225" width="24" height="24" fill="#ffffff" stroke="#ffa500" transform="matrix(1,0,0,1,0,0)" style="stroke-width: 3; fill-opacity: 1;"/><rect x="403" y="196.000095495043" width="24" height="24" fill="#ffffff" stroke="#ffa500" transform="matrix(1,0,0,1,0,0)" style="stroke-width: 3; fill-opacity: 1;"/><rect x="403" y="223.00011936880375" width="24" height="24" fill="#ffffff" stroke="#ffa500" transform="matrix(1,0,0,1,0,0)" style="stroke-width: 3; fill-opacity: 1;"/><rect x="403" y="250.0001432425645" width="24" height="24" fill="#ffffff" stroke="#ffa500" transform="matrix(1,0,0,1,0,0)" style="stroke-width: 3; fill-opacity: 1;"/><rect x="403" y="277.00016711632526" width="24" height="24" fill="#ffffff" stroke="#ffa500" transform="matrix(1,0,0,1,0,0)" style="stroke-width: 3; fill-opacity: 1;"/><rect x="403" y="304.000190990086" width="24" height="24" fill="#ffffff" stroke="#ffa500" transform="matrix(1,0,0,1,0,0)" style="stroke-width: 3; fill-opacity: 1;"/><rect x="403" y="331.00021486384674" width="24" height="24" fill="#ffffff" stroke="#ffa500" transform="matrix(1,0,0,1,0,0)" style="stroke-width: 3; fill-opacity: 1;"/><rect x="403" y="358.0002387376075" width="24" height="24" fill="#ffffff" stroke="#ffa500" transform="matrix(1,0,0,1,0,0)" style="stroke-width: 3; fill-opacity: 1;"/><circle cx="235" cy="217.00010345296323" r="2" fill="#ffffff" stroke="#ffffff" style="stroke-width: 0; fill-opacity: 0;"/><circle cx="235" cy="199.00008753712277" r="2" fill="#ffffff" stroke="#ffffff" style="stroke-width: 0; fill-opacity: 0;"/><circle cx="451.0000000000082" cy="100" r="4" fill="#ffffff" stroke="#000000" style="stroke-width: 0; fill-opacity: 1;"/><circle cx="451.0000000000082" cy="127.00002387376075" r="4" fill="#ffffff" stroke="#000000" style="stroke-width: 0; fill-opacity: 1;"/><circle cx="451.0000000000082" cy="154.0000477475215" r="4" fill="#ffffff" stroke="#000000" style="stroke-width: 0; fill-opacity: 1;"/><circle cx="451.0000000000082" cy="181.00007162128225" r="4" fill="#ffffff" stroke="#000000" style="stroke-width: 0; fill-opacity: 1;"/><circle cx="451.0000000000082" cy="208.000095495043" r="4" fill="#ffffff" stroke="#000000" style="stroke-width: 0; fill-opacity: 1;"/><circle cx="451.0000000000082" cy="235.00011936880375" r="4" fill="#ffffff" stroke="#000000" style="stroke-width: 0; fill-opacity: 1;"/><circle cx="451.0000000000082" cy="262.0001432425645" r="4" fill="#ffffff" stroke="#000000" style="stroke-width: 0; fill-opacity: 1;"/><circle cx="451.0000000000082" cy="289.00016711632526" r="4" fill="#ffffff" stroke="#000000" style="stroke-width: 0; fill-opacity: 1;"/><circle cx="451.0000000000082" cy="316.000190990086" r="4" fill="#ffffff" stroke="#000000" style="stroke-width: 0; fill-opacity: 1;"/><circle cx="451.0000000000082" cy="343.00021486384674" r="4" fill="#ffffff" stroke="#000000" style="stroke-width: 0; fill-opacity: 1;"/><circle cx="451.0000000000082" cy="370.0002387376075" r="4" fill="#ffffff" stroke="#000000" style="stroke-width: 0; fill-opacity: 1;"/><text x="415" y="109" fill="#000000" transform="matrix(1,0,0,1,0,0)" style="font-size: 12px; font-family: Roboto, Arial, sans-serif; font-weight: 900; text-anchor: middle; letter-spacing: 0em;">01</text><text x="415" y="136.00002387376077" fill="#000000" transform="matrix(1,0,0,1,0,0)" style="font-size: 12px; font-family: Roboto, Arial, sans-serif; font-weight: 900; text-anchor: middle; letter-spacing: 0em;">02</text><text x="415" y="163.0000477475215" fill="#000000" transform="matrix(1,0,0,1,0,0)" style="font-size: 12px; font-family: Roboto, Arial, sans-serif; font-weight: 900; text-anchor: middle; letter-spacing: 0em;">03</text><text x="415" y="190.00007162128225" fill="#000000" transform="matrix(1,0,0,1,0,0)" style="font-size: 12px; font-family: Roboto, Arial, sans-serif; font-weight: 900; text-anchor: middle; letter-spacing: 0em;">04</text><text x="415" y="217.000095495043" fill="#000000" transform="matrix(1,0,0,1,0,0)" style="font-size: 12px; font-family: Roboto, Arial, sans-serif; font-weight: 900; text-anchor: middle; letter-spacing: 0em;">05</text><text x="415" y="244.00011936880375" fill="#000000" transform="matrix(1,0,0,1,0,0)" style="font-size: 12px; font-family: Roboto, Arial, sans-serif; font-weight: 900; text-anchor: middle; letter-spacing: 0em;">06</text><text x="415" y="271.0001432425645" fill="#000000" transform="matrix(1,0,0,1,0,0)" style="font-size: 12px; font-family: Roboto, Arial, sans-serif; font-weight: 900; text-anchor: middle; letter-spacing: 0em;">07</text><text x="415" y="298.00016711632526" fill="#000000" transform="matrix(1,0,0,1,0,0)" style="font-size: 12px; font-family: Roboto, Arial, sans-serif; font-weight: 900; text-anchor: middle; letter-spacing: 0em;">08</text><text x="415" y="325.000190990086" fill="#000000" transform="matrix(1,0,0,1,0,0)" style="font-size: 12px; font-family: Roboto, Arial, sans-serif; font-weight: 900; text-anchor: middle; letter-spacing: 0em;">09</text><text x="415" y="352.00021486384674" fill="#000000" transform="matrix(1,0,0,1,0,0)" style="font-size: 12px; font-family: Roboto, Arial, sans-serif; font-weight: 900; text-anchor: middle; letter-spacing: 0em;">10</text><text x="415" y="379.0002387376075" fill="#000000" transform="matrix(1,0,0,1,0,0)" style="font-size: 12px; font-family: Roboto, Arial, sans-serif; font-weight: 900; text-anchor: middle; letter-spacing: 0em;">11</text><text x="415" y="97" fill="#000000" transform="matrix(1,0,0,1,0,0)" style="font-size: 12px; font-family: Roboto, Arial, sans-serif; font-weight: 900; text-anchor: middle; letter-spacing: 0em;">KM</text><text x="415" y="124.00002387376075" fill="#000000" transform="matrix(1,0,0,1,0,0)" style="font-size: 12px; font-family: Roboto, Arial, sans-serif; font-weight: 900; text-anchor: middle; letter-spacing: 0em;">KM</text><text x="415" y="151.0000477475215" fill="#000000" transform="matrix(1,0,0,1,0,0)" style="font-size: 12px; font-family: Roboto, Arial, sans-serif; font-weight: 900; text-anchor: middle; letter-spacing: 0em;">KM</text><text x="415" y="178.00007162128225" fill="#000000" transform="matrix(1,0,0,1,0,0)" style="font-size: 12px; font-family: Roboto, Arial, sans-serif; font-weight: 900; text-anchor: middle; letter-spacing: 0em;">KM</text><text x="415" y="205.000095495043" fill="#000000" transform="matrix(1,0,0,1,0,0)" style="font-size: 12px; font-family: Roboto, Arial, sans-serif; font-weight: 900; text-anchor: middle; letter-spacing: 0em;">KM</text><text x="415" y="232.00011936880375" fill="#000000" transform="matrix(1,0,0,1,0,0)" style="font-size: 12px; font-family: Roboto, Arial, sans-serif; font-weight: 900; text-anchor: middle; letter-spacing: 0em;">KM</text><text x="415" y="259.0001432425645" fill="#000000" transform="matrix(1,0,0,1,0,0)" style="font-size: 12px; font-family: Roboto, Arial, sans-serif; font-weight: 900; text-anchor: middle; letter-spacing: 0em;">KM</text><text x="415" y="286.00016711632526" fill="#000000" transform="matrix(1,0,0,1,0,0)" style="font-size: 12px; font-family: Roboto, Arial, sans-serif; font-weight: 900; text-anchor: middle; letter-spacing: 0em;">KM</text><text x="415" y="313.000190990086" fill="#000000" transform="matrix(1,0,0,1,0,0)" style="font-size: 12px; font-family: Roboto, Arial, sans-serif; font-weight: 900; text-anchor: middle; letter-spacing: 0em;">KM</text><text x="415" y="340.00021486384674" fill="#000000" transform="matrix(1,0,0,1,0,0)" style="font-size: 12px; font-family: Roboto, Arial, sans-serif; font-weight: 900; text-anchor: middle; letter-spacing: 0em;">KM</text><text x="415" y="367.0002387376075" fill="#000000" transform="matrix(1,0,0,1,0,0)" style="font-size: 12px; font-family: Roboto, Arial, sans-serif; font-weight: 900; text-anchor: middle; letter-spacing: 0em;">KM</text><text x="255" y="224.00010345296323" fill="#000000" transform="matrix(1,0,0,1,0,0)" style="font-size: 20px; font-family: Roboto, Arial, sans-serif; font-weight: 900; text-anchor: start; letter-spacing: 0em;">叶涌モノレール</text><text x="255" y="204.00008753712277" fill="#000000" transform="matrix(1,0,0,1,0,0)" style="font-size: 16px; font-family: Roboto, Arial, sans-serif; font-weight: 900; text-anchor: start; letter-spacing: 0em;">Kawaki Monorail</text><text x="471.0000000000082" y="106" fill="#ff1900" transform="matrix(1,0,0,1,0,0)" style="font-size: 18px; font-family: Roboto, Arial, sans-serif; font-weight: 900; text-anchor: start; letter-spacing: 0em;">峰斗苑 / Minetoen</text><text x="471.0000000000082" y="133.00002387376077" fill="#ff1900" transform="matrix(1,0,0,1,0,0)" style="font-size: 18px; font-family: Roboto, Arial, sans-serif; font-weight: 900; text-anchor: start; letter-spacing: 0em;">千歳台 / Chitosedai</text><text x="471.0000000000082" y="160.0000477475215" fill="#ff1900" transform="matrix(1,0,0,1,0,0)" style="font-size: 18px; font-family: Roboto, Arial, sans-serif; font-weight: 900; text-anchor: start; letter-spacing: 0em;">久遠 / Kuon</text><text x="471.0000000000082" y="187.00007162128225" fill="#ff1900" transform="matrix(1,0,0,1,0,0)" style="font-size: 18px; font-family: Roboto, Arial, sans-serif; font-weight: 900; text-anchor: start; letter-spacing: 0em;">北叶涌 / Kita-Kawaki</text><text x="471.0000000000082" y="214.000095495043" fill="#ff1900" transform="matrix(1,0,0,1,0,0)" style="font-size: 18px; font-family: Roboto, Arial, sans-serif; font-weight: 900; text-anchor: start; letter-spacing: 0em;">雫大叶涌未来 / NadaiKawakiMirai</text><text x="471.0000000000082" y="241.00011936880375" fill="#ff1900" transform="matrix(1,0,0,1,0,0)" style="font-size: 18px; font-family: Roboto, Arial, sans-serif; font-weight: 900; text-anchor: start; letter-spacing: 0em;">叶涌 / Kawaki</text><text x="471.0000000000082" y="268.0001432425645" fill="#ff1900" transform="matrix(1,0,0,1,0,0)" style="font-size: 18px; font-family: Roboto, Arial, sans-serif; font-weight: 900; text-anchor: start; letter-spacing: 0em;">工座 / kōza</text><text x="471.0000000000082" y="295.00016711632526" fill="#ff1900" transform="matrix(1,0,0,1,0,0)" style="font-size: 18px; font-family: Roboto, Arial, sans-serif; font-weight: 900; text-anchor: start; letter-spacing: 0em;">広寿 / Kōju</text><text x="471.0000000000082" y="322.000190990086" fill="#ff1900" transform="matrix(1,0,0,1,0,0)" style="font-size: 18px; font-family: Roboto, Arial, sans-serif; font-weight: 900; text-anchor: start; letter-spacing: 0em;">鷺名丘 / Saginaoka</text><text x="471.0000000000082" y="349.00021486384674" fill="#ff1900" transform="matrix(1,0,0,1,0,0)" style="font-size: 18px; font-family: Roboto, Arial, sans-serif; font-weight: 900; text-anchor: start; letter-spacing: 0em;">雫城大学 / Shizukugi-daigaku</text><text x="471.0000000000082" y="376.0002387376075" fill="#ff1900" transform="matrix(1,0,0,1,0,0)" style="font-size: 18px; font-family: Roboto, Arial, sans-serif; font-weight: 900; text-anchor: start; letter-spacing: 0em;">星奈 / Seina</text></svg>