<svg height="1596.0010311571784" version="1.1" width="1046.0000000000082" xmlns="http://www.w3.org/2000/svg" id="svgSvg" viewBox="0 0 1046.0000000000082 1596.0010311571784" style="width: 1366px; height: 2084.26px;"><desc>Created with Snap</desc><defs/><path d="M8,5 C10,2 10,2 5.67,3.6  C1.8,4.9 1.8,5.1 5.67,6.4 C10,8 10,8 8,5 z" fill="#ffffff" style=""/><path d="M2,5 C0,2 0,2 4.33,3.6  C8.2,4.9 8.2,5.1 4.33,6.4 C0,8 0,8 2,5 z" fill="#ffffff" style=""/><polyline points="171.99999999997544,1108.0008020111388,171.99999999997544,1144.000830654394,171.99999999997544,1180.000859297649,171.99999999997544,1216.0008879409036,171.99999999997544,1360.0010025139238,171.99999999997544,1378.0010168355511,171.99999999997544,1396.0010311571784" fill="none" stroke="#ffffff" style="stroke-opacity: 0; stroke-width: 0; stroke-linecap: round; stroke-linejoin: round; marker-start: none; marker-end: none;"/><path d="M8,5 C10,2 10,2 5.67,3.6  C1.8,4.9 1.8,5.1 5.67,6.4 C10,8 10,8 8,5 z" fill="#ffffff" style=""/><path d="M2,5 C0,2 0,2 4.33,3.6  C8.2,4.9 8.2,5.1 4.33,6.4 C0,8 0,8 2,5 z" fill="#ffffff" style=""/><polyline points="171.99999999997544,1144.000830654394,171.99999999997544,1180.000859297649,171.99999999997544,1216.0008879409036" fill="none" stroke="#ffffff" style="stroke-opacity: 0; stroke-width: 0; stroke-linecap: round; stroke-linejoin: round; marker-start: none; marker-end: none;"/><path d="M8,5 C10,2 10,2 5.67,3.6  C1.8,4.9 1.8,5.1 5.67,6.4 C10,8 10,8 8,5 z" fill="#ffffff" style=""/><path d="M2,5 C0,2 0,2 4.33,3.6  C8.2,4.9 8.2,5.1 4.33,6.4 C0,8 0,8 2,5 z" fill="#ffffff" style=""/><polyline points="171.99999999997544,1216.0008879409036" fill="none" stroke="#ffffff" style="stroke-opacity: 0; stroke-width: 0; stroke-linecap: round; stroke-linejoin: round; marker-start: none; marker-end: none;"/><path d="M8,5 C10,2 10,2 5.67,3.6  C1.8,4.9 1.8,5.1 5.67,6.4 C10,8 10,8 8,5 z"/><path d="M2,5 C0,2 0,2 4.33,3.6  C8.2,4.9 8.2,5.1 4.33,6.4 C0,8 0,8 2,5 z"/><polygon points="100,1072.000773367884,100,1252.0009165841589,460,1252.0009165841589,460,1072.000773367884,100,1072.000773367884" fill="#c0c0c0" stroke="#c0c0c0" style="fill-opacity: 0.6; stroke-opacity: 0.6; stroke-width: 0; stroke-linecap: round; stroke-linejoin: round;"/><path d="M8,5 C10,2 10,2 5.67,3.6  C1.8,4.9 1.8,5.1 5.67,6.4 C10,8 10,8 8,5 z" fill="#000080" style=""/><path d="M2,5 C0,2 0,2 4.33,3.6  C8.2,4.9 8.2,5.1 4.33,6.4 C0,8 0,8 2,5 z" fill="#000080" style=""/><polyline points="946.0000000000082,626.493218901875,783.9999999999918,626.493218901875,730,640.0004296488244,603.9999999999918,640.0004296488244,747.9999999999836,640.0004296488244" fill="none" stroke="#000080" style="stroke-opacity: 1; stroke-width: 2; stroke-linecap: round; stroke-linejoin: round; marker-start: none; marker-end: none;"/><path d="M8,5 C10,2 10,2 5.67,3.6  C1.8,4.9 1.8,5.1 5.67,6.4 C10,8 10,8 8,5 z" fill="#800050" style=""/><path d="M2,5 C0,2 0,2 4.33,3.6  C8.2,4.9 8.2,5.1 4.33,6.4 C0,8 0,8 2,5 z" fill="#800050" style=""/><polyline points="603.9999999999918,833.4933836005912,711.9999999999754,833.4933836005912,747.9999999999836,820.0005728650991,783.9999999999918,806.4933621181499,946.0000000000082,806.4933621181499" fill="none" stroke="#800050" style="stroke-opacity: 1; stroke-width: 2; stroke-linecap: round; stroke-linejoin: round; marker-start: none; marker-end: none;"/><path d="M8,5 C10,2 10,2 5.67,3.6  C1.8,4.9 1.8,5.1 5.67,6.4 C10,8 10,8 8,5 z" fill="#ff00ff" style=""/><path d="M2,5 C0,2 0,2 4.33,3.6  C8.2,4.9 8.2,5.1 4.33,6.4 C0,8 0,8 2,5 z" fill="#ff00ff" style=""/><polyline points="603.9999999999918,1299.2473541755667,711.9999999999754,1299.2473541755667,747.9999999999836,1288.000945227414,783.9999999999918,1274.4937344804646,946.0000000000082,1274.4937344804646" fill="none" stroke="#ff00ff" style="stroke-opacity: 1; stroke-width: 2; stroke-linecap: round; stroke-linejoin: round; marker-start: none; marker-end: none;"/><path d="M8,5 C10,2 10,2 5.67,3.6  C1.8,4.9 1.8,5.1 5.67,6.4 C10,8 10,8 8,5 z" fill="#808080" style=""/><path d="M2,5 C0,2 0,2 4.33,3.6  C8.2,4.9 8.2,5.1 4.33,6.4 C0,8 0,8 2,5 z" fill="#808080" style=""/><polyline points="603.9999999999918,280.0001432162748,676.0000000000082,280.0001432162748,747.9999999999836,244.00011457301983,820,208.00008592976485,946.0000000000082,208.00008592976485,820,208.00008592976485,747.9999999999836,244.00011457301983,747.9999999999836,100" fill="none" stroke="#808080" style="stroke-opacity: 1; stroke-width: 2; stroke-linecap: round; stroke-linejoin: round; marker-start: none; marker-end: none;"/><path d="M8,5 C10,2 10,2 5.67,3.6  C1.8,4.9 1.8,5.1 5.67,6.4 C10,8 10,8 8,5 z" fill="#808080" style=""/><path d="M2,5 C0,2 0,2 4.33,3.6  C8.2,4.9 8.2,5.1 4.33,6.4 C0,8 0,8 2,5 z" fill="#808080" style=""/><polyline points="603.9999999999918,941.493469530356,711.9999999999754,941.493469530356,747.9999999999836,928.0006587948641,783.9999999999918,914.4934480479149,946.0000000000082,914.4934480479149" fill="none" stroke="#808080" style="stroke-opacity: 1; stroke-width: 2; stroke-linecap: round; stroke-linejoin: round; marker-start: none; marker-end: none;"/><path d="M8,5 C10,2 10,2 5.67,3.6  C1.8,4.9 1.8,5.1 5.67,6.4 C10,8 10,8 8,5 z" fill="#808080" style=""/><path d="M2,5 C0,2 0,2 4.33,3.6  C8.2,4.9 8.2,5.1 4.33,6.4 C0,8 0,8 2,5 z" fill="#808080" style=""/><polyline points="730,1144.000830654394,730,1270.0009309057864,747.9999999999836,1324.0009738706688,766.0000000000082,1378.0010168355511,946.0000000000082,1378.0010168355511,766.0000000000082,1378.0010168355511,747.9999999999836,1324.0009738706688,711.9999999999754,1360.0010025139238,603.9999999999918,1360.0010025139238,711.9999999999754,1360.0010025139238,747.9999999999836,1324.0009738706688,711.9999999999754,1396.0010311571784,603.9999999999918,1396.0010311571784,711.9999999999754,1396.0010311571784,747.9999999999836,1324.0009738706688,730,1270.0009309057864,730,1144.000830654394,711.9999999999754,1090.0007876895115,603.9999999999918,1090.0007876895115,711.9999999999754,1090.0007876895115,730,1144.000830654394,747.9999999999836,1144.000830654394" fill="none" stroke="#808080" style="stroke-opacity: 1; stroke-width: 2; stroke-linecap: round; stroke-linejoin: round; marker-start: none; marker-end: none;"/><path d="M8,5 C10,2 10,2 5.67,3.6  C1.8,4.9 1.8,5.1 5.67,6.4 C10,8 10,8 8,5 z" fill="#ffffff" style=""/><path d="M2,5 C0,2 0,2 4.33,3.6  C8.2,4.9 8.2,5.1 4.33,6.4 C0,8 0,8 2,5 z" fill="#ffffff" style=""/><polyline points="640,1090.0007876895115,766.0000000000082,1360.0010025139238,640,1360.0010025139238,640,1396.0010311571784,891.9999999999754,1274.4937344804646,891.9999999999754,914.4934480479149,891.9999999999754,806.4933621181499,891.9999999999754,626.493218901875,891.9999999999754,208.00008592976485,747.9999999999836,136.00002864325484" fill="none" stroke="#ffffff" style="stroke-opacity: 0; stroke-width: 0; stroke-linecap: round; stroke-linejoin: round; marker-start: none; marker-end: none;"/><path d="M8,5 C10,2 10,2 5.67,3.6  C1.8,4.9 1.8,5.1 5.67,6.4 C10,8 10,8 8,5 z" fill="#ffffff" style=""/><path d="M2,5 C0,2 0,2 4.33,3.6  C8.2,4.9 8.2,5.1 4.33,6.4 C0,8 0,8 2,5 z" fill="#ffffff" style=""/><polyline points="747.9999999999836,1333.0009810314825,747.9999999999836,1297.0009523882275,747.9999999999836,1261.0009237449724,747.9999999999836,1225.0008951017176,747.9999999999836,1189.0008664584627,747.9999999999836,1153.0008378152077,747.9999999999836,1117.0008091719526,747.9999999999836,1081.0007805286978,747.9999999999836,1045.0007518854427,747.9999999999836,1009.0007232421879,747.9999999999836,973.0006945989328,747.9999999999836,937.0006659556778,747.9999999999836,901.0006373124228,747.9999999999836,865.000608669168,747.9999999999836,829.000580025913,747.9999999999836,793.0005513826579,747.9999999999836,757.000522739403,747.9999999999836,721.0004940961481,747.9999999999836,685.0004654528931,747.9999999999836,649.0004368096382,747.9999999999836,613.0004081663831,747.9999999999836,577.0003795231282,747.9999999999836,541.0003508798732,747.9999999999836,505.0003222366183,747.9999999999836,469.0002935933633,747.9999999999836,433.0002649501084,747.9999999999836,397.00023630685337,747.9999999999836,361.00020766359836,747.9999999999836,325.0001790203435,747.9999999999836,289.0001503770885,747.9999999999836,253.00012173383354" fill="none" stroke="#ffffff" style="stroke-opacity: 0; stroke-width: 0; stroke-linecap: round; stroke-linejoin: round; marker-start: none; marker-end: none;"/><path d="M8,5 C10,2 10,2 5.67,3.6  C1.8,4.9 1.8,5.1 5.67,6.4 C10,8 10,8 8,5 z" fill="#008080" style=""/><path d="M2,5 C0,2 0,2 4.33,3.6  C8.2,4.9 8.2,5.1 4.33,6.4 C0,8 0,8 2,5 z" fill="#008080" style=""/><polyline points="747.9999999999836,1324.0009738706688,747.9999999999836,1288.000945227414,747.9999999999836,1252.0009165841589,747.9999999999836,1216.0008879409036,747.9999999999836,1180.000859297649,747.9999999999836,1144.000830654394,747.9999999999836,1108.0008020111388,747.9999999999836,1072.000773367884,747.9999999999836,1036.000744724629,747.9999999999836,1000.0007160813741,747.9999999999836,964.0006874381191,747.9999999999836,928.0006587948641,747.9999999999836,892.0006301516091,747.9999999999836,856.0006015083542,747.9999999999836,820.0005728650991,747.9999999999836,784.0005442218443,747.9999999999836,748.0005155785892,747.9999999999836,712.0004869353343,747.9999999999836,676.0004582920794,747.9999999999836,640.0004296488244,747.9999999999836,604.0004010055694,747.9999999999836,568.0003723623145,747.9999999999836,532.0003437190594,747.9999999999836,496.00031507580456,747.9999999999836,460.00028643254956,747.9999999999836,424.0002577892946,747.9999999999836,388.00022914603966,747.9999999999836,352.00020050278465,747.9999999999836,316.0001718595297,747.9999999999836,280.0001432162748,747.9999999999836,244.00011457301983" fill="none" stroke="#008080" style="stroke-opacity: 1; stroke-width: 4; stroke-linecap: round; stroke-linejoin: round; marker-start: none; marker-end: none;"/><path d="M8,5 C10,2 10,2 5.67,3.6  C1.8,4.9 1.8,5.1 5.67,6.4 C10,8 10,8 8,5 z" fill="#008080" style=""/><path d="M2,5 C0,2 0,2 4.33,3.6  C8.2,4.9 8.2,5.1 4.33,6.4 C0,8 0,8 2,5 z" fill="#008080" style=""/><polyline points="747.9999999999836,1324.0009738706688,747.9999999999836,1288.000945227414,747.9999999999836,1216.0008879409036,747.9999999999836,1144.000830654394,747.9999999999836,1108.0008020111388,747.9999999999836,1036.000744724629,747.9999999999836,928.0006587948641,747.9999999999836,820.0005728650991,747.9999999999836,748.0005155785892,747.9999999999836,640.0004296488244,747.9999999999836,532.0003437190594,747.9999999999836,496.00031507580456,747.9999999999836,388.00022914603966,747.9999999999836,316.0001718595297,747.9999999999836,280.0001432162748,747.9999999999836,244.00011457301983" fill="none" stroke="#008080" style="stroke-opacity: 1; stroke-width: 4; stroke-linecap: round; stroke-linejoin: round; marker-start: none; marker-end: none;"/><path d="M8,5 C10,2 10,2 5.67,3.6  C1.8,4.9 1.8,5.1 5.67,6.4 C10,8 10,8 8,5 z" fill="#008080" style=""/><path d="M2,5 C0,2 0,2 4.33,3.6  C8.2,4.9 8.2,5.1 4.33,6.4 C0,8 0,8 2,5 z" fill="#008080" style=""/><polyline points="747.9999999999836,1324.0009738706688,747.9999999999836,928.0006587948641,747.9999999999836,820.0005728650991,747.9999999999836,496.00031507580456,747.9999999999836,244.00011457301983" fill="none" stroke="#008080" style="stroke-opacity: 1; stroke-width: 4; stroke-linecap: round; stroke-linejoin: round; marker-start: none; marker-end: none;"/><circle cx="171.99999999997544" cy="1108.0008020111388" r="10" fill="#ffffff" stroke="#000000" style="stroke-width: 2; fill-opacity: 1;"/><circle cx="171.99999999997544" cy="1144.000830654394" r="10" fill="#ffffff" stroke="#000000" style="stroke-width: 2; fill-opacity: 1;"/><circle cx="171.99999999997544" cy="1180.000859297649" r="10" fill="#ffffff" stroke="#000000" style="stroke-width: 2; fill-opacity: 1;"/><circle cx="171.99999999997544" cy="1216.0008879409036" r="10" fill="#ffffff" stroke="#000000" style="stroke-width: 2; fill-opacity: 1;"/><circle cx="171.99999999997544" cy="1360.0010025139238" r="2" fill="#ffffff" stroke="#ffffff" style="stroke-width: 0; fill-opacity: 1;"/><circle cx="171.99999999997544" cy="1378.0010168355511" r="2" fill="#ffffff" stroke="#ffffff" style="stroke-width: 0; fill-opacity: 1;"/><circle cx="171.99999999997544" cy="1396.0010311571784" r="2" fill="#ffffff" stroke="#ffffff" style="stroke-width: 0; fill-opacity: 0;"/><circle cx="171.99999999997544" cy="1144.000830654394" r="5" fill="#9acd32" stroke="#ffffff" style="stroke-width: 0; fill-opacity: 1;"/><rect x="166.99999999997544" y="1175.000859297649" width="10" height="10" fill="#ffa500" stroke="#ffffff" transform="matrix(1,0,0,1,0,0)" style="stroke-width: 0; fill-opacity: 1;"/><circle cx="171.99999999997544" cy="1216.0008879409036" r="6" fill="#ff0000" stroke="#ffffff" style="stroke-width: 0; fill-opacity: 1;"/><circle cx="171.99999999997544" cy="1216.0008879409036" r="2" fill="#ffffff" stroke="#ff0000" style="stroke-width: 0; fill-opacity: 1;"/><circle cx="730" cy="640.0004296488244" r="5" fill="#ffffff" stroke="#000080" style="stroke-width: 2; fill-opacity: 1;"/><circle cx="730" cy="1144.000830654394" r="5" fill="#ffffff" stroke="#808080" style="stroke-width: 2; fill-opacity: 1;"/><circle cx="640" cy="1090.0007876895115" r="2" fill="#ffffff" stroke="#ffffff" style="stroke-width: 0; fill-opacity: 0;"/><circle cx="640" cy="1360.0010025139238" r="2" fill="#ffffff" stroke="#ffffff" style="stroke-width: 0; fill-opacity: 0;"/><circle cx="640" cy="1396.0010311571784" r="2" fill="#ffffff" stroke="#ffffff" style="stroke-width: 0; fill-opacity: 0;"/><circle cx="891.9999999999754" cy="1274.4937344804646" r="2" fill="#ffffff" stroke="#ffffff" style="stroke-width: 0; fill-opacity: 0;"/><circle cx="891.9999999999754" cy="914.4934480479149" r="2" fill="#ffffff" stroke="#ffffff" style="stroke-width: 0; fill-opacity: 0;"/><circle cx="891.9999999999754" cy="806.4933621181499" r="2" fill="#ffffff" stroke="#ffffff" style="stroke-width: 0; fill-opacity: 0;"/><circle cx="891.9999999999754" cy="626.493218901875" r="2" fill="#ffffff" stroke="#ffffff" style="stroke-width: 0; fill-opacity: 0;"/><circle cx="891.9999999999754" cy="208.00008592976485" r="2" fill="#ffffff" stroke="#ffffff" style="stroke-width: 0; fill-opacity: 0;"/><circle cx="747.9999999999836" cy="136.00002864325484" r="2" fill="#ffffff" stroke="#ffffff" style="stroke-width: 0; fill-opacity: 0;"/><circle cx="747.9999999999836" cy="1333.0009810314825" r="2" fill="#ffffff" stroke="#ffffff" style="stroke-width: 0; fill-opacity: 0;"/><circle cx="747.9999999999836" cy="1297.0009523882275" r="2" fill="#ffffff" stroke="#ffffff" style="stroke-width: 0; fill-opacity: 0;"/><circle cx="747.9999999999836" cy="1261.0009237449724" r="2" fill="#ffffff" stroke="#ffffff" style="stroke-width: 0; fill-opacity: 0;"/><circle cx="747.9999999999836" cy="1225.0008951017176" r="2" fill="#ffffff" stroke="#ffffff" style="stroke-width: 0; fill-opacity: 0;"/><circle cx="747.9999999999836" cy="1189.0008664584627" r="2" fill="#ffffff" stroke="#ffffff" style="stroke-width: 0; fill-opacity: 0;"/><circle cx="747.9999999999836" cy="1153.0008378152077" r="2" fill="#ffffff" stroke="#ffffff" style="stroke-width: 0; fill-opacity: 0;"/><circle cx="747.9999999999836" cy="1117.0008091719526" r="2" fill="#ffffff" stroke="#ffffff" style="stroke-width: 0; fill-opacity: 0;"/><circle cx="747.9999999999836" cy="1081.0007805286978" r="2" fill="#ffffff" stroke="#ffffff" style="stroke-width: 0; fill-opacity: 0;"/><circle cx="747.9999999999836" cy="1045.0007518854427" r="2" fill="#ffffff" stroke="#ffffff" style="stroke-width: 0; fill-opacity: 0;"/><circle cx="747.9999999999836" cy="1009.0007232421879" r="2" fill="#ffffff" stroke="#ffffff" style="stroke-width: 0; fill-opacity: 0;"/><circle cx="747.9999999999836" cy="973.0006945989328" r="2" fill="#ffffff" stroke="#ffffff" style="stroke-width: 0; fill-opacity: 0;"/><circle cx="747.9999999999836" cy="937.0006659556778" r="2" fill="#ffffff" stroke="#ffffff" style="stroke-width: 0; fill-opacity: 0;"/><circle cx="747.9999999999836" cy="901.0006373124228" r="2" fill="#ffffff" stroke="#ffffff" style="stroke-width: 0; fill-opacity: 0;"/><circle cx="747.9999999999836" cy="865.000608669168" r="2" fill="#ffffff" stroke="#ffffff" style="stroke-width: 0; fill-opacity: 0;"/><circle cx="747.9999999999836" cy="829.000580025913" r="2" fill="#ffffff" stroke="#ffffff" style="stroke-width: 0; fill-opacity: 0;"/><circle cx="747.9999999999836" cy="793.0005513826579" r="2" fill="#ffffff" stroke="#ffffff" style="stroke-width: 0; fill-opacity: 0;"/><circle cx="747.9999999999836" cy="757.000522739403" r="2" fill="#ffffff" stroke="#ffffff" style="stroke-width: 0; fill-opacity: 0;"/><circle cx="747.9999999999836" cy="721.0004940961481" r="2" fill="#ffffff" stroke="#ffffff" style="stroke-width: 0; fill-opacity: 0;"/><circle cx="747.9999999999836" cy="685.0004654528931" r="2" fill="#ffffff" stroke="#ffffff" style="stroke-width: 0; fill-opacity: 0;"/><circle cx="747.9999999999836" cy="649.0004368096382" r="2" fill="#ffffff" stroke="#ffffff" style="stroke-width: 0; fill-opacity: 0;"/><circle cx="747.9999999999836" cy="613.0004081663831" r="2" fill="#ffffff" stroke="#ffffff" style="stroke-width: 0; fill-opacity: 0;"/><circle cx="747.9999999999836" cy="577.0003795231282" r="2" fill="#ffffff" stroke="#ffffff" style="stroke-width: 0; fill-opacity: 0;"/><circle cx="747.9999999999836" cy="541.0003508798732" r="2" fill="#ffffff" stroke="#ffffff" style="stroke-width: 0; fill-opacity: 0;"/><circle cx="747.9999999999836" cy="505.0003222366183" r="2" fill="#ffffff" stroke="#ffffff" style="stroke-width: 0; fill-opacity: 0;"/><circle cx="747.9999999999836" cy="469.0002935933633" r="2" fill="#ffffff" stroke="#ffffff" style="stroke-width: 0; fill-opacity: 0;"/><circle cx="747.9999999999836" cy="433.0002649501084" r="2" fill="#ffffff" stroke="#ffffff" style="stroke-width: 0; fill-opacity: 0;"/><circle cx="747.9999999999836" cy="397.00023630685337" r="2" fill="#ffffff" stroke="#ffffff" style="stroke-width: 0; fill-opacity: 0;"/><circle cx="747.9999999999836" cy="361.00020766359836" r="2" fill="#ffffff" stroke="#ffffff" style="stroke-width: 0; fill-opacity: 0;"/><circle cx="747.9999999999836" cy="325.0001790203435" r="2" fill="#ffffff" stroke="#ffffff" style="stroke-width: 0; fill-opacity: 0;"/><circle cx="747.9999999999836" cy="289.0001503770885" r="2" fill="#ffffff" stroke="#ffffff" style="stroke-width: 0; fill-opacity: 0;"/><circle cx="747.9999999999836" cy="253.00012173383354" r="2" fill="#ffffff" stroke="#ffffff" style="stroke-width: 0; fill-opacity: 0;"/><circle cx="747.9999999999836" cy="1324.0009738706688" r="10" fill="#ffffff" stroke="#008080" style="stroke-width: 2; fill-opacity: 1;"/><circle cx="747.9999999999836" cy="1288.000945227414" r="10" fill="#ffffff" stroke="#008080" style="stroke-width: 2; fill-opacity: 1;"/><circle cx="747.9999999999836" cy="1252.0009165841589" r="10" fill="#ffffff" stroke="#008080" style="stroke-width: 2; fill-opacity: 1;"/><circle cx="747.9999999999836" cy="1216.0008879409036" r="10" fill="#ffffff" stroke="#008080" style="stroke-width: 2; fill-opacity: 1;"/><circle cx="747.9999999999836" cy="1180.000859297649" r="10" fill="#ffffff" stroke="#008080" style="stroke-width: 2; fill-opacity: 1;"/><circle cx="747.9999999999836" cy="1144.000830654394" r="10" fill="#ffffff" stroke="#008080" style="stroke-width: 2; fill-opacity: 1;"/><circle cx="747.9999999999836" cy="1108.0008020111388" r="10" fill="#ffffff" stroke="#008080" style="stroke-width: 2; fill-opacity: 1;"/><circle cx="747.9999999999836" cy="1072.000773367884" r="10" fill="#ffffff" stroke="#008080" style="stroke-width: 2; fill-opacity: 1;"/><circle cx="747.9999999999836" cy="1036.000744724629" r="10" fill="#ffffff" stroke="#008080" style="stroke-width: 2; fill-opacity: 1;"/><circle cx="747.9999999999836" cy="1000.0007160813741" r="10" fill="#ffffff" stroke="#008080" style="stroke-width: 2; fill-opacity: 1;"/><circle cx="747.9999999999836" cy="964.0006874381191" r="10" fill="#ffffff" stroke="#008080" style="stroke-width: 2; fill-opacity: 1;"/><circle cx="747.9999999999836" cy="928.0006587948641" r="10" fill="#ffffff" stroke="#008080" style="stroke-width: 2; fill-opacity: 1;"/><circle cx="747.9999999999836" cy="892.0006301516091" r="10" fill="#ffffff" stroke="#008080" style="stroke-width: 2; fill-opacity: 1;"/><circle cx="747.9999999999836" cy="856.0006015083542" r="10" fill="#ffffff" stroke="#008080" style="stroke-width: 2; fill-opacity: 1;"/><circle cx="747.9999999999836" cy="820.0005728650991" r="10" fill="#ffffff" stroke="#008080" style="stroke-width: 2; fill-opacity: 1;"/><circle cx="747.9999999999836" cy="784.0005442218443" r="10" fill="#ffffff" stroke="#008080" style="stroke-width: 2; fill-opacity: 1;"/><circle cx="747.9999999999836" cy="748.0005155785892" r="10" fill="#ffffff" stroke="#008080" style="stroke-width: 2; fill-opacity: 1;"/><circle cx="747.9999999999836" cy="712.0004869353343" r="10" fill="#ffffff" stroke="#008080" style="stroke-width: 2; fill-opacity: 1;"/><circle cx="747.9999999999836" cy="676.0004582920794" r="10" fill="#ffffff" stroke="#008080" style="stroke-width: 2; fill-opacity: 1;"/><circle cx="747.9999999999836" cy="640.0004296488244" r="10" fill="#ffffff" stroke="#008080" style="stroke-width: 2; fill-opacity: 1;"/><circle cx="747.9999999999836" cy="604.0004010055694" r="10" fill="#ffffff" stroke="#008080" style="stroke-width: 2; fill-opacity: 1;"/><circle cx="747.9999999999836" cy="568.0003723623145" r="10" fill="#ffffff" stroke="#008080" style="stroke-width: 2; fill-opacity: 1;"/><circle cx="747.9999999999836" cy="532.0003437190594" r="10" fill="#ffffff" stroke="#008080" style="stroke-width: 2; fill-opacity: 1;"/><circle cx="747.9999999999836" cy="496.00031507580456" r="10" fill="#ffffff" stroke="#008080" style="stroke-width: 2; fill-opacity: 1;"/><circle cx="747.9999999999836" cy="460.00028643254956" r="10" fill="#ffffff" stroke="#008080" style="stroke-width: 2; fill-opacity: 1;"/><circle cx="747.9999999999836" cy="424.0002577892946" r="10" fill="#ffffff" stroke="#008080" style="stroke-width: 2; fill-opacity: 1;"/><circle cx="747.9999999999836" cy="388.00022914603966" r="10" fill="#ffffff" stroke="#008080" style="stroke-width: 2; fill-opacity: 1;"/><circle cx="747.9999999999836" cy="352.00020050278465" r="10" fill="#ffffff" stroke="#008080" style="stroke-width: 2; fill-opacity: 1;"/><circle cx="747.9999999999836" cy="316.0001718595297" r="10" fill="#ffffff" stroke="#008080" style="stroke-width: 2; fill-opacity: 1;"/><circle cx="747.9999999999836" cy="280.0001432162748" r="10" fill="#ffffff" stroke="#008080" style="stroke-width: 2; fill-opacity: 1;"/><circle cx="747.9999999999836" cy="244.00011457301983" r="10" fill="#ffffff" stroke="#008080" style="stroke-width: 2; fill-opacity: 1;"/><circle cx="747.9999999999836" cy="1324.0009738706688" r="6" fill="#ff0000" stroke="#ffa500" style="stroke-width: 0; fill-opacity: 1;"/><rect x="742.9999999999836" y="1283.000945227414" width="10" height="10" fill="#ffa500" stroke="#000000" transform="matrix(1,0,0,1,0,0)" style="stroke-width: 0; fill-opacity: 1;"/><circle cx="747.9999999999836" cy="1216.0008879409036" r="5" fill="#9acd32" stroke="#000000" style="stroke-width: 0; fill-opacity: 1;"/><rect x="742.9999999999836" y="1139.000830654394" width="10" height="10" fill="#ffa500" stroke="#000000" transform="matrix(1,0,0,1,0,0)" style="stroke-width: 0; fill-opacity: 1;"/><circle cx="747.9999999999836" cy="1108.0008020111388" r="5" fill="#9acd32" stroke="#000000" style="stroke-width: 0; fill-opacity: 1;"/><circle cx="747.9999999999836" cy="1036.000744724629" r="5" fill="#9acd32" stroke="#000000" style="stroke-width: 0; fill-opacity: 1;"/><circle cx="747.9999999999836" cy="928.0006587948641" r="6" fill="#ff0000" stroke="#000000" style="stroke-width: 0; fill-opacity: 1;"/><circle cx="747.9999999999836" cy="820.0005728650991" r="6" fill="#ff0000" stroke="#000000" style="stroke-width: 0; fill-opacity: 1;"/><circle cx="747.9999999999836" cy="748.0005155785892" r="5" fill="#9acd32" stroke="#000000" style="stroke-width: 0; fill-opacity: 1;"/><rect x="742.9999999999836" y="635.0004296488244" width="10" height="10" fill="#ffa500" stroke="#000000" transform="matrix(1,0,0,1,0,0)" style="stroke-width: 0; fill-opacity: 1;"/><circle cx="747.9999999999836" cy="532.0003437190594" r="5" fill="#9acd32" stroke="#000000" style="stroke-width: 0; fill-opacity: 1;"/><circle cx="747.9999999999836" cy="496.00031507580456" r="6" fill="#ff0000" stroke="#000000" style="stroke-width: 0; fill-opacity: 1;"/><circle cx="747.9999999999836" cy="388.00022914603966" r="5" fill="#9acd32" stroke="#000000" style="stroke-width: 0; fill-opacity: 1;"/><circle cx="747.9999999999836" cy="316.0001718595297" r="5" fill="#9acd32" stroke="#000000" style="stroke-width: 0; fill-opacity: 1;"/><rect x="742.9999999999836" y="275.0001432162748" width="10" height="10" fill="#ffa500" stroke="#000000" transform="matrix(1,0,0,1,0,0)" style="stroke-width: 0; fill-opacity: 1;"/><circle cx="747.9999999999836" cy="244.00011457301983" r="6" fill="#ff0000" stroke="#000000" style="stroke-width: 0; fill-opacity: 1;"/><circle cx="747.9999999999836" cy="1324.0009738706688" r="2" fill="#ffffff" stroke="#008080" style="stroke-width: 0; fill-opacity: 1;"/><circle cx="747.9999999999836" cy="928.0006587948641" r="2" fill="#ffffff" stroke="#000000" style="stroke-width: 0; fill-opacity: 1;"/><circle cx="747.9999999999836" cy="820.0005728650991" r="2" fill="#ffffff" stroke="#000000" style="stroke-width: 0; fill-opacity: 1;"/><circle cx="747.9999999999836" cy="496.00031507580456" r="2" fill="#ffffff" stroke="#000000" style="stroke-width: 0; fill-opacity: 1;"/><circle cx="747.9999999999836" cy="244.00011457301983" r="2" fill="#ffffff" stroke="#000000" style="stroke-width: 0; fill-opacity: 1;"/><text x="191.99999999997544" y="1113.0008020111388" fill="#000000" transform="matrix(1,0,0,1,0,0)" style="font-size: 16px; font-family: Roboto, Arial, sans-serif; font-weight: 900; text-anchor: start; letter-spacing: 0em;">各停 停車駅</text><text x="191.99999999997544" y="1149.000830654394" fill="#000000" transform="matrix(1,0,0,1,0,0)" style="font-size: 16px; font-family: Roboto, Arial, sans-serif; font-weight: 900; text-anchor: start; letter-spacing: 0em;">各停・準急 停車駅</text><text x="191.99999999997544" y="1185.000859297649" fill="#000000" transform="matrix(1,0,0,1,0,0)" style="font-size: 16px; font-family: Roboto, Arial, sans-serif; font-weight: 900; text-anchor: start; letter-spacing: 0em;">各停・準急・急行 停車駅</text><text x="191.99999999997544" y="1221.0008879409036" fill="#000000" transform="matrix(1,0,0,1,0,0)" style="font-size: 16px; font-family: Roboto, Arial, sans-serif; font-weight: 900; text-anchor: start; letter-spacing: 0em;">各停・準急・急行・特急 停車駅</text><text x="191.99999999997544" y="1371.0010025139238" fill="#000000" transform="matrix(1,0,0,1,0,0)" style="font-size: 28px; font-family: Roboto, Arial, sans-serif; font-weight: 900; text-anchor: start; letter-spacing: 0em;">首都圏中央急行</text><text x="191.99999999997544" y="1377.0010168355511" fill="#000000" transform="matrix(1,0,0,1,0,0)" style="font-size: 16px; font-family: Roboto, Arial, sans-serif; font-weight: 900; text-anchor: start; letter-spacing: 0em;">＿＿＿＿＿＿＿＿＿＿＿＿＿</text><text x="215.99999999997544" y="1393.0010311571784" fill="#000000" transform="matrix(1,0,0,1,0,0)" style="font-size: 12px; font-family: Roboto, Arial, sans-serif; font-weight: 900; text-anchor: start; letter-spacing: 0em;">Shutoken ChuO Kyuko</text><text x="722" y="648.0004296488244" fill="#000080" transform="matrix(0.7071,-0.7071,0.7071,0.7071,-245.3224,699.7402)" style="font-size: 10px; font-family: Roboto, Arial, sans-serif; font-weight: 900; text-anchor: end; letter-spacing: 0em;">衛藤</text><text x="722" y="1152.000830654394" fill="#696969" transform="matrix(0.7071,-0.7071,0.7071,0.7071,-601.7045,847.3585)" style="font-size: 10px; font-family: Roboto, Arial, sans-serif; font-weight: 900; text-anchor: end; letter-spacing: 0em;">控沢</text><text x="640" y="1102.0007876895115" fill="#808080" transform="matrix(1,0,0,1,0,0)" style="font-size: 6px; font-family: Roboto, Arial, sans-serif; font-weight: 900; text-anchor: middle; letter-spacing: 0em;">TR 北彩源線</text><text x="640" y="1372.0010025139238" fill="#808080" transform="matrix(1,0,0,1,0,0)" style="font-size: 6px; font-family: Roboto, Arial, sans-serif; font-weight: 900; text-anchor: middle; letter-spacing: 0em;">TR 西中央線</text><text x="640" y="1408.0010311571784" fill="#808080" transform="matrix(1,0,0,1,0,0)" style="font-size: 6px; font-family: Roboto, Arial, sans-serif; font-weight: 900; text-anchor: middle; letter-spacing: 0em;">TR 川瀬都市線</text><text x="891.9999999999754" y="1286.4937344804646" fill="#ff00ff" transform="matrix(1,0,0,1,0,0)" style="font-size: 6px; font-family: Roboto, Arial, sans-serif; font-weight: 900; text-anchor: middle; letter-spacing: 0em;">氷部鉄道 外都市線</text><text x="891.9999999999754" y="926.4934480479149" fill="#808080" transform="matrix(1,0,0,1,0,0)" style="font-size: 6px; font-family: Roboto, Arial, sans-serif; font-weight: 900; text-anchor: middle; letter-spacing: 0em;">TR 彩源環状線</text><text x="891.9999999999754" y="818.4933621181499" fill="#800050" transform="matrix(1,0,0,1,0,0)" style="font-size: 6px; font-family: Roboto, Arial, sans-serif; font-weight: 900; text-anchor: middle; letter-spacing: 0em;">札磐電鉄 瑠那線</text><text x="891.9999999999754" y="638.493218901875" fill="#000080" transform="matrix(1,0,0,1,0,0)" style="font-size: 6px; font-family: Roboto, Arial, sans-serif; font-weight: 900; text-anchor: middle; letter-spacing: 0em;">剋奈交通事業 東剋線</text><text x="891.9999999999754" y="220.00008592976485" fill="#808080" transform="matrix(1,0,0,1,0,0)" style="font-size: 6px; font-family: Roboto, Arial, sans-serif; font-weight: 900; text-anchor: middle; letter-spacing: 0em;">TR 結城線</text><text x="759.9999999999836" y="136.00002864325484" fill="#808080" transform="matrix(1,0,0,1,0,0)" style="font-size: 6px; font-family: Roboto, Arial, sans-serif; font-weight: 900; text-anchor: middle; writing-mode: tb; letter-spacing: 0em;">TR 君森線</text><text x="767.9999999999836" y="1341.0009810314825" fill="#696969" transform="matrix(1,0,0,1,0,0)" style="font-size: 10px; font-family: Roboto, Arial, sans-serif; font-weight: 900; text-anchor: start; letter-spacing: 0em;">Sekizu</text><text x="767.9999999999836" y="1305.0009523882275" fill="#696969" transform="matrix(1,0,0,1,0,0)" style="font-size: 10px; font-family: Roboto, Arial, sans-serif; font-weight: 900; text-anchor: start; letter-spacing: 0em;">Chihaya-gami</text><text x="767.9999999999836" y="1269.0009237449724" fill="#696969" transform="matrix(1,0,0,1,0,0)" style="font-size: 10px; font-family: Roboto, Arial, sans-serif; font-weight: 900; text-anchor: start; letter-spacing: 0em;">Chihaya-Yoshida</text><text x="767.9999999999836" y="1233.0008951017176" fill="#696969" transform="matrix(1,0,0,1,0,0)" style="font-size: 10px; font-family: Roboto, Arial, sans-serif; font-weight: 900; text-anchor: start; letter-spacing: 0em;">Asaasuka</text><text x="767.9999999999836" y="1197.0008664584627" fill="#696969" transform="matrix(1,0,0,1,0,0)" style="font-size: 10px; font-family: Roboto, Arial, sans-serif; font-weight: 900; text-anchor: start; letter-spacing: 0em;">Haizawa</text><text x="767.9999999999836" y="1161.0008378152077" fill="#696969" transform="matrix(1,0,0,1,0,0)" style="font-size: 10px; font-family: Roboto, Arial, sans-serif; font-weight: 900; text-anchor: start; letter-spacing: 0em;">Nakakozawa</text><text x="767.9999999999836" y="1125.0008091719526" fill="#696969" transform="matrix(1,0,0,1,0,0)" style="font-size: 10px; font-family: Roboto, Arial, sans-serif; font-weight: 900; text-anchor: start; letter-spacing: 0em;">KenO-Oi</text><text x="767.9999999999836" y="1089.0007805286978" fill="#696969" transform="matrix(1,0,0,1,0,0)" style="font-size: 10px; font-family: Roboto, Arial, sans-serif; font-weight: 900; text-anchor: start; letter-spacing: 0em;">Kokuna-Sakae</text><text x="767.9999999999836" y="1053.0007518854427" fill="#696969" transform="matrix(1,0,0,1,0,0)" style="font-size: 10px; font-family: Roboto, Arial, sans-serif; font-weight: 900; text-anchor: start; letter-spacing: 0em;">Saya</text><text x="767.9999999999836" y="1017.0007232421879" fill="#696969" transform="matrix(1,0,0,1,0,0)" style="font-size: 10px; font-family: Roboto, Arial, sans-serif; font-weight: 900; text-anchor: start; letter-spacing: 0em;">Sayadaira</text><text x="767.9999999999836" y="981.0006945989328" fill="#696969" transform="matrix(1,0,0,1,0,0)" style="font-size: 10px; font-family: Roboto, Arial, sans-serif; font-weight: 900; text-anchor: start; letter-spacing: 0em;">Banma</text><text x="767.9999999999836" y="945.0006659556778" fill="#696969" transform="matrix(1,0,0,1,0,0)" style="font-size: 10px; font-family: Roboto, Arial, sans-serif; font-weight: 900; text-anchor: start; letter-spacing: 0em;">Houodai</text><text x="767.9999999999836" y="909.0006373124228" fill="#696969" transform="matrix(1,0,0,1,0,0)" style="font-size: 10px; font-family: Roboto, Arial, sans-serif; font-weight: 900; text-anchor: start; letter-spacing: 0em;">Teradai</text><text x="767.9999999999836" y="873.000608669168" fill="#696969" transform="matrix(1,0,0,1,0,0)" style="font-size: 10px; font-family: Roboto, Arial, sans-serif; font-weight: 900; text-anchor: start; letter-spacing: 0em;">Nishi-Koto</text><text x="767.9999999999836" y="837.000580025913" fill="#696969" transform="matrix(1,0,0,1,0,0)" style="font-size: 10px; font-family: Roboto, Arial, sans-serif; font-weight: 900; text-anchor: start; letter-spacing: 0em;">Aicho</text><text x="767.9999999999836" y="801.0005513826579" fill="#696969" transform="matrix(1,0,0,1,0,0)" style="font-size: 10px; font-family: Roboto, Arial, sans-serif; font-weight: 900; text-anchor: start; letter-spacing: 0em;">Ai-kita</text><text x="767.9999999999836" y="765.000522739403" fill="#696969" transform="matrix(1,0,0,1,0,0)" style="font-size: 10px; font-family: Roboto, Arial, sans-serif; font-weight: 900; text-anchor: start; letter-spacing: 0em;">Yamanamirai</text><text x="767.9999999999836" y="729.0004940961481" fill="#696969" transform="matrix(1,0,0,1,0,0)" style="font-size: 10px; font-family: Roboto, Arial, sans-serif; font-weight: 900; text-anchor: start; letter-spacing: 0em;">Hiyama</text><text x="767.9999999999836" y="693.0004654528931" fill="#696969" transform="matrix(1,0,0,1,0,0)" style="font-size: 10px; font-family: Roboto, Arial, sans-serif; font-weight: 900; text-anchor: start; letter-spacing: 0em;">Minami-Eto</text><text x="767.9999999999836" y="657.0004368096382" fill="#696969" transform="matrix(1,0,0,1,0,0)" style="font-size: 10px; font-family: Roboto, Arial, sans-serif; font-weight: 900; text-anchor: start; letter-spacing: 0em;">Shin-Eto</text><text x="767.9999999999836" y="621.0004081663831" fill="#696969" transform="matrix(1,0,0,1,0,0)" style="font-size: 10px; font-family: Roboto, Arial, sans-serif; font-weight: 900; text-anchor: start; letter-spacing: 0em;">Yugo</text><text x="767.9999999999836" y="585.0003795231282" fill="#696969" transform="matrix(1,0,0,1,0,0)" style="font-size: 10px; font-family: Roboto, Arial, sans-serif; font-weight: 900; text-anchor: start; letter-spacing: 0em;">Chiominemitsu</text><text x="767.9999999999836" y="549.0003508798732" fill="#696969" transform="matrix(1,0,0,1,0,0)" style="font-size: 10px; font-family: Roboto, Arial, sans-serif; font-weight: 900; text-anchor: start; letter-spacing: 0em;">Tsutomidai</text><text x="767.9999999999836" y="513.0003222366183" fill="#696969" transform="matrix(1,0,0,1,0,0)" style="font-size: 10px; font-family: Roboto, Arial, sans-serif; font-weight: 900; text-anchor: start; letter-spacing: 0em;">Hokage-Soragaoka</text><text x="767.9999999999836" y="477.0002935933633" fill="#696969" transform="matrix(1,0,0,1,0,0)" style="font-size: 10px; font-family: Roboto, Arial, sans-serif; font-weight: 900; text-anchor: start; letter-spacing: 0em;">Kyokei</text><text x="767.9999999999836" y="441.0002649501084" fill="#696969" transform="matrix(1,0,0,1,0,0)" style="font-size: 10px; font-family: Roboto, Arial, sans-serif; font-weight: 900; text-anchor: start; letter-spacing: 0em;">Shinsakai</text><text x="767.9999999999836" y="405.00023630685337" fill="#696969" transform="matrix(1,0,0,1,0,0)" style="font-size: 10px; font-family: Roboto, Arial, sans-serif; font-weight: 900; text-anchor: start; letter-spacing: 0em;">Kagamiooka</text><text x="767.9999999999836" y="369.00020766359836" fill="#696969" transform="matrix(1,0,0,1,0,0)" style="font-size: 10px; font-family: Roboto, Arial, sans-serif; font-weight: 900; text-anchor: start; letter-spacing: 0em;">Yuzatooki</text><text x="767.9999999999836" y="333.0001790203435" fill="#696969" transform="matrix(1,0,0,1,0,0)" style="font-size: 10px; font-family: Roboto, Arial, sans-serif; font-weight: 900; text-anchor: start; letter-spacing: 0em;">Shin-Yukino</text><text x="767.9999999999836" y="297.0001503770885" fill="#696969" transform="matrix(1,0,0,1,0,0)" style="font-size: 10px; font-family: Roboto, Arial, sans-serif; font-weight: 900; text-anchor: start; letter-spacing: 0em;">Yukinodaimae</text><text x="767.9999999999836" y="261.00012173383357" fill="#696969" transform="matrix(1,0,0,1,0,0)" style="font-size: 10px; font-family: Roboto, Arial, sans-serif; font-weight: 900; text-anchor: start; letter-spacing: 0em;">Yukino</text><text x="767.9999999999836" y="1330.0009738706688" fill="#000000" transform="matrix(1,0,0,1,0,0)" style="font-size: 18px; font-family: Roboto, Arial, sans-serif; font-weight: 900; text-anchor: start; letter-spacing: 0em;">晰津</text><text x="767.9999999999836" y="1294.000945227414" fill="#000000" transform="matrix(1,0,0,1,0,0)" style="font-size: 18px; font-family: Roboto, Arial, sans-serif; font-weight: 900; text-anchor: start; letter-spacing: 0em;">千颯上</text><text x="767.9999999999836" y="1258.0009165841589" fill="#000000" transform="matrix(1,0,0,1,0,0)" style="font-size: 18px; font-family: Roboto, Arial, sans-serif; font-weight: 900; text-anchor: start; letter-spacing: 0em;">千颯吉田</text><text x="767.9999999999836" y="1222.0008879409036" fill="#000000" transform="matrix(1,0,0,1,0,0)" style="font-size: 18px; font-family: Roboto, Arial, sans-serif; font-weight: 900; text-anchor: start; letter-spacing: 0em;">朝飛鳥</text><text x="767.9999999999836" y="1186.000859297649" fill="#000000" transform="matrix(1,0,0,1,0,0)" style="font-size: 18px; font-family: Roboto, Arial, sans-serif; font-weight: 900; text-anchor: start; letter-spacing: 0em;">佩沢</text><text x="767.9999999999836" y="1150.000830654394" fill="#000000" transform="matrix(1,0,0,1,0,0)" style="font-size: 18px; font-family: Roboto, Arial, sans-serif; font-weight: 900; text-anchor: start; letter-spacing: 0em;">仲子沢</text><text x="767.9999999999836" y="1114.0008020111388" fill="#000000" transform="matrix(1,0,0,1,0,0)" style="font-size: 18px; font-family: Roboto, Arial, sans-serif; font-weight: 900; text-anchor: start; letter-spacing: 0em;">圏央尾井</text><text x="767.9999999999836" y="1078.000773367884" fill="#000000" transform="matrix(1,0,0,1,0,0)" style="font-size: 18px; font-family: Roboto, Arial, sans-serif; font-weight: 900; text-anchor: start; letter-spacing: 0em;">剋奈栄</text><text x="767.9999999999836" y="1042.000744724629" fill="#000000" transform="matrix(1,0,0,1,0,0)" style="font-size: 18px; font-family: Roboto, Arial, sans-serif; font-weight: 900; text-anchor: start; letter-spacing: 0em;">沙谷</text><text x="767.9999999999836" y="1006.0007160813741" fill="#000000" transform="matrix(1,0,0,1,0,0)" style="font-size: 18px; font-family: Roboto, Arial, sans-serif; font-weight: 900; text-anchor: start; letter-spacing: 0em;">沙谷平</text><text x="767.9999999999836" y="970.0006874381191" fill="#000000" transform="matrix(1,0,0,1,0,0)" style="font-size: 18px; font-family: Roboto, Arial, sans-serif; font-weight: 900; text-anchor: start; letter-spacing: 0em;">番磨</text><text x="767.9999999999836" y="934.0006587948641" fill="#000000" transform="matrix(1,0,0,1,0,0)" style="font-size: 18px; font-family: Roboto, Arial, sans-serif; font-weight: 900; text-anchor: start; letter-spacing: 0em;">奉央台</text><text x="767.9999999999836" y="898.0006301516091" fill="#000000" transform="matrix(1,0,0,1,0,0)" style="font-size: 18px; font-family: Roboto, Arial, sans-serif; font-weight: 900; text-anchor: start; letter-spacing: 0em;">寺田井</text><text x="767.9999999999836" y="862.0006015083542" fill="#000000" transform="matrix(1,0,0,1,0,0)" style="font-size: 18px; font-family: Roboto, Arial, sans-serif; font-weight: 900; text-anchor: start; letter-spacing: 0em;">西交藤</text><text x="767.9999999999836" y="826.0005728650991" fill="#000000" transform="matrix(1,0,0,1,0,0)" style="font-size: 18px; font-family: Roboto, Arial, sans-serif; font-weight: 900; text-anchor: start; letter-spacing: 0em;">相以町</text><text x="767.9999999999836" y="790.0005442218443" fill="#000000" transform="matrix(1,0,0,1,0,0)" style="font-size: 18px; font-family: Roboto, Arial, sans-serif; font-weight: 900; text-anchor: start; letter-spacing: 0em;">相以北</text><text x="767.9999999999836" y="754.0005155785892" fill="#000000" transform="matrix(1,0,0,1,0,0)" style="font-size: 18px; font-family: Roboto, Arial, sans-serif; font-weight: 900; text-anchor: start; letter-spacing: 0em;">山名みらい</text><text x="767.9999999999836" y="718.0004869353343" fill="#000000" transform="matrix(1,0,0,1,0,0)" style="font-size: 18px; font-family: Roboto, Arial, sans-serif; font-weight: 900; text-anchor: start; letter-spacing: 0em;">桧山</text><text x="767.9999999999836" y="682.0004582920794" fill="#000000" transform="matrix(1,0,0,1,0,0)" style="font-size: 18px; font-family: Roboto, Arial, sans-serif; font-weight: 900; text-anchor: start; letter-spacing: 0em;">南衛藤</text><text x="767.9999999999836" y="646.0004296488244" fill="#000000" transform="matrix(1,0,0,1,0,0)" style="font-size: 18px; font-family: Roboto, Arial, sans-serif; font-weight: 900; text-anchor: start; letter-spacing: 0em;">新衛藤</text><text x="767.9999999999836" y="610.0004010055694" fill="#000000" transform="matrix(1,0,0,1,0,0)" style="font-size: 18px; font-family: Roboto, Arial, sans-serif; font-weight: 900; text-anchor: start; letter-spacing: 0em;">侑吾</text><text x="767.9999999999836" y="574.0003723623145" fill="#000000" transform="matrix(1,0,0,1,0,0)" style="font-size: 18px; font-family: Roboto, Arial, sans-serif; font-weight: 900; text-anchor: start; letter-spacing: 0em;">千代峰光</text><text x="767.9999999999836" y="538.0003437190594" fill="#000000" transform="matrix(1,0,0,1,0,0)" style="font-size: 18px; font-family: Roboto, Arial, sans-serif; font-weight: 900; text-anchor: start; letter-spacing: 0em;">務実台</text><text x="767.9999999999836" y="502.00031507580456" fill="#000000" transform="matrix(1,0,0,1,0,0)" style="font-size: 18px; font-family: Roboto, Arial, sans-serif; font-weight: 900; text-anchor: start; letter-spacing: 0em;">保影宙ヶ丘</text><text x="767.9999999999836" y="466.00028643254956" fill="#000000" transform="matrix(1,0,0,1,0,0)" style="font-size: 18px; font-family: Roboto, Arial, sans-serif; font-weight: 900; text-anchor: start; letter-spacing: 0em;">京形</text><text x="767.9999999999836" y="430.0002577892946" fill="#000000" transform="matrix(1,0,0,1,0,0)" style="font-size: 18px; font-family: Roboto, Arial, sans-serif; font-weight: 900; text-anchor: start; letter-spacing: 0em;">新境</text><text x="767.9999999999836" y="394.00022914603966" fill="#000000" transform="matrix(1,0,0,1,0,0)" style="font-size: 18px; font-family: Roboto, Arial, sans-serif; font-weight: 900; text-anchor: start; letter-spacing: 0em;">鏡大岡</text><text x="767.9999999999836" y="358.00020050278465" fill="#000000" transform="matrix(1,0,0,1,0,0)" style="font-size: 18px; font-family: Roboto, Arial, sans-serif; font-weight: 900; text-anchor: start; letter-spacing: 0em;">湯里沖</text><text x="767.9999999999836" y="322.0001718595297" fill="#000000" transform="matrix(1,0,0,1,0,0)" style="font-size: 18px; font-family: Roboto, Arial, sans-serif; font-weight: 900; text-anchor: start; letter-spacing: 0em;">新結城野</text><text x="767.9999999999836" y="286.0001432162748" fill="#000000" transform="matrix(1,0,0,1,0,0)" style="font-size: 18px; font-family: Roboto, Arial, sans-serif; font-weight: 900; text-anchor: start; letter-spacing: 0em;">結城野大前</text><text x="767.9999999999836" y="250.00011457301983" fill="#000000" transform="matrix(1,0,0,1,0,0)" style="font-size: 18px; font-family: Roboto, Arial, sans-serif; font-weight: 900; text-anchor: start; letter-spacing: 0em;">結城野</text></svg>