<svg height="1596.0023865968794" version="1.1" width="1046.0000000000082" xmlns="http://www.w3.org/2000/svg" id="svgSvg" viewBox="0 0 1046.0000000000082 1596.0023865968794" style="width: 1366px; height: 2084.27px;"><desc>Created with Snap</desc><defs/><path d="M8,5 C10,2 10,2 5.67,3.6  C1.8,4.9 1.8,5.1 5.67,6.4 C10,8 10,8 8,5 z" fill="#ffffff" style=""/><path d="M2,5 C0,2 0,2 4.33,3.6  C8.2,4.9 8.2,5.1 4.33,6.4 C0,8 0,8 2,5 z" fill="#ffffff" style=""/><polyline points="171.99999999997544,1108.0018562420173,171.99999999997544,1144.0019225363753,171.99999999997544,1180.001988830733,171.99999999997544,1216.0020551250905,171.99999999997544,1360.0023203025219,171.99999999997544,1378.0023534497006,171.99999999997544,1396.0023865968794" fill="none" stroke="#ffffff" style="stroke-opacity: 0; stroke-width: 0; stroke-linecap: round; stroke-linejoin: round; marker-start: none; marker-end: none;"/><path d="M8,5 C10,2 10,2 5.67,3.6  C1.8,4.9 1.8,5.1 5.67,6.4 C10,8 10,8 8,5 z" fill="#ffffff" style=""/><path d="M2,5 C0,2 0,2 4.33,3.6  C8.2,4.9 8.2,5.1 4.33,6.4 C0,8 0,8 2,5 z" fill="#ffffff" style=""/><polyline points="171.99999999997544,1144.0019225363753,171.99999999997544,1180.001988830733,171.99999999997544,1216.0020551250905" fill="none" stroke="#ffffff" style="stroke-opacity: 0; stroke-width: 0; stroke-linecap: round; stroke-linejoin: round; marker-start: none; marker-end: none;"/><path d="M8,5 C10,2 10,2 5.67,3.6  C1.8,4.9 1.8,5.1 5.67,6.4 C10,8 10,8 8,5 z"/><path d="M2,5 C0,2 0,2 4.33,3.6  C8.2,4.9 8.2,5.1 4.33,6.4 C0,8 0,8 2,5 z"/><polygon points="100,1072.0017899476597,100,1252.0021214194485,460,1252.0021214194485,460,1072.0017899476597,100,1072.0017899476597" fill="#c0c0c0" stroke="#c0c0c0" style="fill-opacity: 0.6; stroke-opacity: 0.6; stroke-width: 0; stroke-linecap: round; stroke-linejoin: round;"/><path d="M8,5 C10,2 10,2 5.67,3.6  C1.8,4.9 1.8,5.1 5.67,6.4 C10,8 10,8 8,5 z" fill="#000080" style=""/><path d="M2,5 C0,2 0,2 4.33,3.6  C8.2,4.9 8.2,5.1 4.33,6.4 C0,8 0,8 2,5 z" fill="#000080" style=""/><polyline points="946.0000000000082,626.4937695417234,783.9999999999918,626.4937695417234,730,640.0009944153663,603.9999999999918,640.0009944153663,747.9999999999836,640.0009944153663" fill="none" stroke="#000080" style="stroke-opacity: 1; stroke-width: 2; stroke-linecap: round; stroke-linejoin: round; marker-start: none; marker-end: none;"/><path d="M8,5 C10,2 10,2 5.67,3.6  C1.8,4.9 1.8,5.1 5.67,6.4 C10,8 10,8 8,5 z" fill="#800050" style=""/><path d="M2,5 C0,2 0,2 4.33,3.6  C8.2,4.9 8.2,5.1 4.33,6.4 C0,8 0,8 2,5 z" fill="#800050" style=""/><polyline points="603.9999999999918,833.4941507342807,711.9999999999754,833.4941507342807,747.9999999999836,820.0013258871552,783.9999999999918,806.4941010135121,946.0000000000082,806.4941010135121" fill="none" stroke="#800050" style="stroke-opacity: 1; stroke-width: 2; stroke-linecap: round; stroke-linejoin: round; marker-start: none; marker-end: none;"/><path d="M8,5 C10,2 10,2 5.67,3.6  C1.8,4.9 1.8,5.1 5.67,6.4 C10,8 10,8 8,5 z" fill="#ff00ff" style=""/><path d="M2,5 C0,2 0,2 4.33,3.6  C8.2,4.9 8.2,5.1 4.33,6.4 C0,8 0,8 2,5 z" fill="#ff00ff" style=""/><polyline points="603.9999999999918,1299.2486084241636,711.9999999999754,1299.2486084241636,747.9999999999836,1288.0021877138063,783.9999999999918,1274.4949628401632,946.0000000000082,1274.4949628401632" fill="none" stroke="#ff00ff" style="stroke-opacity: 1; stroke-width: 2; stroke-linecap: round; stroke-linejoin: round; marker-start: none; marker-end: none;"/><path d="M8,5 C10,2 10,2 5.67,3.6  C1.8,4.9 1.8,5.1 5.67,6.4 C10,8 10,8 8,5 z" fill="#808080" style=""/><path d="M2,5 C0,2 0,2 4.33,3.6  C8.2,4.9 8.2,5.1 4.33,6.4 C0,8 0,8 2,5 z" fill="#808080" style=""/><polyline points="603.9999999999918,280.00033147178885,676.0000000000082,280.00033147178885,747.9999999999836,244.00026517743103,820,208.00019888307324,946.0000000000082,208.00019888307324,820,208.00019888307324,747.9999999999836,244.00026517743103,747.9999999999836,100" fill="none" stroke="#808080" style="stroke-opacity: 1; stroke-width: 2; stroke-linecap: round; stroke-linejoin: round; marker-start: none; marker-end: none;"/><path d="M8,5 C10,2 10,2 5.67,3.6  C1.8,4.9 1.8,5.1 5.67,6.4 C10,8 10,8 8,5 z" fill="#808080" style=""/><path d="M2,5 C0,2 0,2 4.33,3.6  C8.2,4.9 8.2,5.1 4.33,6.4 C0,8 0,8 2,5 z" fill="#808080" style=""/><polyline points="603.9999999999918,941.4943496173538,711.9999999999754,941.4943496173538,747.9999999999836,928.0015247702286,783.9999999999918,914.4942998965856,946.0000000000082,914.4942998965856" fill="none" stroke="#808080" style="stroke-opacity: 1; stroke-width: 2; stroke-linecap: round; stroke-linejoin: round; marker-start: none; marker-end: none;"/><path d="M8,5 C10,2 10,2 5.67,3.6  C1.8,4.9 1.8,5.1 5.67,6.4 C10,8 10,8 8,5 z" fill="#808080" style=""/><path d="M2,5 C0,2 0,2 4.33,3.6  C8.2,4.9 8.2,5.1 4.33,6.4 C0,8 0,8 2,5 z" fill="#808080" style=""/><polyline points="730,1144.0019225363753,730,1270.0021545666275,747.9999999999836,1324.002254008164,766.0000000000082,1378.0023534497006,946.0000000000082,1378.0023534497006,766.0000000000082,1378.0023534497006,747.9999999999836,1324.002254008164,711.9999999999754,1360.0023203025219,603.9999999999918,1360.0023203025219,711.9999999999754,1360.0023203025219,747.9999999999836,1324.002254008164,711.9999999999754,1396.0023865968794,603.9999999999918,1396.0023865968794,711.9999999999754,1396.0023865968794,747.9999999999836,1324.002254008164,730,1270.0021545666275,730,1144.0019225363753,711.9999999999754,1090.0018230948385,603.9999999999918,1090.0018230948385,711.9999999999754,1090.0018230948385,730,1144.0019225363753,747.9999999999836,1144.0019225363753" fill="none" stroke="#808080" style="stroke-opacity: 1; stroke-width: 2; stroke-linecap: round; stroke-linejoin: round; marker-start: none; marker-end: none;"/><path d="M8,5 C10,2 10,2 5.67,3.6  C1.8,4.9 1.8,5.1 5.67,6.4 C10,8 10,8 8,5 z" fill="#ffffff" style=""/><path d="M2,5 C0,2 0,2 4.33,3.6  C8.2,4.9 8.2,5.1 4.33,6.4 C0,8 0,8 2,5 z" fill="#ffffff" style=""/><polyline points="640,1090.0018230948385,766.0000000000082,1360.0023203025219,640,1360.0023203025219,640,1396.0023865968794,891.9999999999754,1274.4949628401632,891.9999999999754,914.4942998965856,891.9999999999754,806.4941010135121,891.9999999999754,626.4937695417234,891.9999999999754,208.00019888307324,747.9999999999836,136.00006629435762" fill="none" stroke="#ffffff" style="stroke-opacity: 0; stroke-width: 0; stroke-linecap: round; stroke-linejoin: round; marker-start: none; marker-end: none;"/><path d="M8,5 C10,2 10,2 5.67,3.6  C1.8,4.9 1.8,5.1 5.67,6.4 C10,8 10,8 8,5 z" fill="#ffffff" style=""/><path d="M2,5 C0,2 0,2 4.33,3.6  C8.2,4.9 8.2,5.1 4.33,6.4 C0,8 0,8 2,5 z" fill="#ffffff" style=""/><polyline points="747.9999999999836,1333.0022705817535,747.9999999999836,1297.0022042873957,747.9999999999836,1261.0021379930376,747.9999999999836,1225.0020716986803,747.9999999999836,1189.0020054043225,747.9999999999836,1153.0019391099647,747.9999999999836,1117.001872815607,747.9999999999836,1081.001806521249,747.9999999999836,1045.0017402268913,747.9999999999836,1009.0016739325335,747.9999999999836,973.0016076381758,747.9999999999836,937.001541343818,747.9999999999836,901.0014750494602,747.9999999999836,865.0014087551025,747.9999999999836,829.0013424607448,747.9999999999836,793.0012761663869,747.9999999999836,757.0012098720291,747.9999999999836,721.0011435776714,747.9999999999836,685.0010772833136,747.9999999999836,649.001010988956,747.9999999999836,613.000944694598,747.9999999999836,577.0008784002403,747.9999999999836,541.0008121058826,747.9999999999836,505.00074581152484,747.9999999999836,469.00067951716704,747.9999999999836,433.0006132228093,747.9999999999836,397.00054692845146,747.9999999999836,361.0004806340937,747.9999999999836,325.00041433973604,747.9999999999836,289.00034804537825,747.9999999999836,253.00028175102045" fill="none" stroke="#ffffff" style="stroke-opacity: 0; stroke-width: 0; stroke-linecap: round; stroke-linejoin: round; marker-start: none; marker-end: none;"/><path d="M8,5 C10,2 10,2 5.67,3.6  C1.8,4.9 1.8,5.1 5.67,6.4 C10,8 10,8 8,5 z" fill="#008080" style=""/><path d="M2,5 C0,2 0,2 4.33,3.6  C8.2,4.9 8.2,5.1 4.33,6.4 C0,8 0,8 2,5 z" fill="#008080" style=""/><polyline points="747.9999999999836,1324.002254008164,747.9999999999836,1288.0021877138063,747.9999999999836,1252.0021214194485,747.9999999999836,1216.0020551250905,747.9999999999836,1180.001988830733,747.9999999999836,1144.0019225363753,747.9999999999836,1108.0018562420173,747.9999999999836,1072.0017899476597,747.9999999999836,1036.0017236533017,747.9999999999836,1000.0016573589442,747.9999999999836,964.0015910645864,747.9999999999836,928.0015247702286,747.9999999999836,892.0014584758708,747.9999999999836,856.001392181513,747.9999999999836,820.0013258871552,747.9999999999836,784.0012595927975,747.9999999999836,748.0011932984397,747.9999999999836,712.0011270040819,747.9999999999836,676.0010607097242,747.9999999999836,640.0009944153663,747.9999999999836,604.0009281210087,747.9999999999836,568.0008618266509,747.9999999999836,532.0007955322931,747.9999999999836,496.0007292379354,747.9999999999836,460.0006629435776,747.9999999999836,424.00059664921986,747.9999999999836,388.00053035486206,747.9999999999836,352.00046406050427,747.9999999999836,316.0003977661465,747.9999999999836,280.00033147178885,747.9999999999836,244.00026517743103" fill="none" stroke="#008080" style="stroke-opacity: 1; stroke-width: 4; stroke-linecap: round; stroke-linejoin: round; marker-start: none; marker-end: none;"/><path d="M8,5 C10,2 10,2 5.67,3.6  C1.8,4.9 1.8,5.1 5.67,6.4 C10,8 10,8 8,5 z" fill="#008080" style=""/><path d="M2,5 C0,2 0,2 4.33,3.6  C8.2,4.9 8.2,5.1 4.33,6.4 C0,8 0,8 2,5 z" fill="#008080" style=""/><polyline points="747.9999999999836,1324.002254008164,747.9999999999836,1288.0021877138063,747.9999999999836,1216.0020551250905,747.9999999999836,1144.0019225363753,747.9999999999836,1108.0018562420173,747.9999999999836,1036.0017236533017,747.9999999999836,928.0015247702286,747.9999999999836,820.0013258871552,747.9999999999836,748.0011932984397,747.9999999999836,640.0009944153663,747.9999999999836,532.0007955322931,747.9999999999836,496.0007292379354,747.9999999999836,388.00053035486206,747.9999999999836,316.0003977661465,747.9999999999836,280.00033147178885,747.9999999999836,244.00026517743103" fill="none" stroke="#008080" style="stroke-opacity: 1; stroke-width: 4; stroke-linecap: round; stroke-linejoin: round; marker-start: none; marker-end: none;"/><circle cx="171.99999999997544" cy="1108.0018562420173" r="8" fill="#ffffff" stroke="#000000" style="stroke-width: 2; fill-opacity: 1;"/><circle cx="171.99999999997544" cy="1144.0019225363753" r="8" fill="#ffffff" stroke="#000000" style="stroke-width: 2; fill-opacity: 1;"/><circle cx="171.99999999997544" cy="1180.001988830733" r="8" fill="#ffffff" stroke="#000000" style="stroke-width: 2; fill-opacity: 1;"/><circle cx="171.99999999997544" cy="1216.0020551250905" r="8" fill="#ffffff" stroke="#000000" style="stroke-width: 2; fill-opacity: 1;"/><circle cx="171.99999999997544" cy="1360.0023203025219" r="2" fill="#ffffff" stroke="#ffffff" style="stroke-width: 0; fill-opacity: 1;"/><circle cx="171.99999999997544" cy="1378.0023534497006" r="2" fill="#ffffff" stroke="#ffffff" style="stroke-width: 0; fill-opacity: 1;"/><circle cx="171.99999999997544" cy="1396.0023865968794" r="2" fill="#ffffff" stroke="#ffffff" style="stroke-width: 0; fill-opacity: 0;"/><circle cx="171.99999999997544" cy="1144.0019225363753" r="5" fill="#9acd32" stroke="#ffffff" style="stroke-width: 0; fill-opacity: 1;"/><circle cx="171.99999999997544" cy="1180.001988830733" r="5" fill="#ffa500" stroke="#ffffff" style="stroke-width: 0; fill-opacity: 1;"/><circle cx="171.99999999997544" cy="1216.0020551250905" r="5" fill="#ff0000" stroke="#ffffff" style="stroke-width: 0; fill-opacity: 1;"/><circle cx="730" cy="640.0009944153663" r="5" fill="#ffffff" stroke="#000080" style="stroke-width: 2; fill-opacity: 1;"/><circle cx="730" cy="1144.0019225363753" r="5" fill="#ffffff" stroke="#808080" style="stroke-width: 2; fill-opacity: 1;"/><circle cx="640" cy="1090.0018230948385" r="2" fill="#ffffff" stroke="#ffffff" style="stroke-width: 0; fill-opacity: 0;"/><circle cx="640" cy="1360.0023203025219" r="2" fill="#ffffff" stroke="#ffffff" style="stroke-width: 0; fill-opacity: 0;"/><circle cx="640" cy="1396.0023865968794" r="2" fill="#ffffff" stroke="#ffffff" style="stroke-width: 0; fill-opacity: 0;"/><circle cx="891.9999999999754" cy="1274.4949628401632" r="2" fill="#ffffff" stroke="#ffffff" style="stroke-width: 0; fill-opacity: 0;"/><circle cx="891.9999999999754" cy="914.4942998965856" r="2" fill="#ffffff" stroke="#ffffff" style="stroke-width: 0; fill-opacity: 0;"/><circle cx="891.9999999999754" cy="806.4941010135121" r="2" fill="#ffffff" stroke="#ffffff" style="stroke-width: 0; fill-opacity: 0;"/><circle cx="891.9999999999754" cy="626.4937695417234" r="2" fill="#ffffff" stroke="#ffffff" style="stroke-width: 0; fill-opacity: 0;"/><circle cx="891.9999999999754" cy="208.00019888307324" r="2" fill="#ffffff" stroke="#ffffff" style="stroke-width: 0; fill-opacity: 0;"/><circle cx="747.9999999999836" cy="136.00006629435762" r="2" fill="#ffffff" stroke="#ffffff" style="stroke-width: 0; fill-opacity: 0;"/><circle cx="747.9999999999836" cy="1333.0022705817535" r="2" fill="#ffffff" stroke="#ffffff" style="stroke-width: 0; fill-opacity: 0;"/><circle cx="747.9999999999836" cy="1297.0022042873957" r="2" fill="#ffffff" stroke="#ffffff" style="stroke-width: 0; fill-opacity: 0;"/><circle cx="747.9999999999836" cy="1261.0021379930376" r="2" fill="#ffffff" stroke="#ffffff" style="stroke-width: 0; fill-opacity: 0;"/><circle cx="747.9999999999836" cy="1225.0020716986803" r="2" fill="#ffffff" stroke="#ffffff" style="stroke-width: 0; fill-opacity: 0;"/><circle cx="747.9999999999836" cy="1189.0020054043225" r="2" fill="#ffffff" stroke="#ffffff" style="stroke-width: 0; fill-opacity: 0;"/><circle cx="747.9999999999836" cy="1153.0019391099647" r="2" fill="#ffffff" stroke="#ffffff" style="stroke-width: 0; fill-opacity: 0;"/><circle cx="747.9999999999836" cy="1117.001872815607" r="2" fill="#ffffff" stroke="#ffffff" style="stroke-width: 0; fill-opacity: 0;"/><circle cx="747.9999999999836" cy="1081.001806521249" r="2" fill="#ffffff" stroke="#ffffff" style="stroke-width: 0; fill-opacity: 0;"/><circle cx="747.9999999999836" cy="1045.0017402268913" r="2" fill="#ffffff" stroke="#ffffff" style="stroke-width: 0; fill-opacity: 0;"/><circle cx="747.9999999999836" cy="1009.0016739325335" r="2" fill="#ffffff" stroke="#ffffff" style="stroke-width: 0; fill-opacity: 0;"/><circle cx="747.9999999999836" cy="973.0016076381758" r="2" fill="#ffffff" stroke="#ffffff" style="stroke-width: 0; fill-opacity: 0;"/><circle cx="747.9999999999836" cy="937.001541343818" r="2" fill="#ffffff" stroke="#ffffff" style="stroke-width: 0; fill-opacity: 0;"/><circle cx="747.9999999999836" cy="901.0014750494602" r="2" fill="#ffffff" stroke="#ffffff" style="stroke-width: 0; fill-opacity: 0;"/><circle cx="747.9999999999836" cy="865.0014087551025" r="2" fill="#ffffff" stroke="#ffffff" style="stroke-width: 0; fill-opacity: 0;"/><circle cx="747.9999999999836" cy="829.0013424607448" r="2" fill="#ffffff" stroke="#ffffff" style="stroke-width: 0; fill-opacity: 0;"/><circle cx="747.9999999999836" cy="793.0012761663869" r="2" fill="#ffffff" stroke="#ffffff" style="stroke-width: 0; fill-opacity: 0;"/><circle cx="747.9999999999836" cy="757.0012098720291" r="2" fill="#ffffff" stroke="#ffffff" style="stroke-width: 0; fill-opacity: 0;"/><circle cx="747.9999999999836" cy="721.0011435776714" r="2" fill="#ffffff" stroke="#ffffff" style="stroke-width: 0; fill-opacity: 0;"/><circle cx="747.9999999999836" cy="685.0010772833136" r="2" fill="#ffffff" stroke="#ffffff" style="stroke-width: 0; fill-opacity: 0;"/><circle cx="747.9999999999836" cy="649.001010988956" r="2" fill="#ffffff" stroke="#ffffff" style="stroke-width: 0; fill-opacity: 0;"/><circle cx="747.9999999999836" cy="613.000944694598" r="2" fill="#ffffff" stroke="#ffffff" style="stroke-width: 0; fill-opacity: 0;"/><circle cx="747.9999999999836" cy="577.0008784002403" r="2" fill="#ffffff" stroke="#ffffff" style="stroke-width: 0; fill-opacity: 0;"/><circle cx="747.9999999999836" cy="541.0008121058826" r="2" fill="#ffffff" stroke="#ffffff" style="stroke-width: 0; fill-opacity: 0;"/><circle cx="747.9999999999836" cy="505.00074581152484" r="2" fill="#ffffff" stroke="#ffffff" style="stroke-width: 0; fill-opacity: 0;"/><circle cx="747.9999999999836" cy="469.00067951716704" r="2" fill="#ffffff" stroke="#ffffff" style="stroke-width: 0; fill-opacity: 0;"/><circle cx="747.9999999999836" cy="433.0006132228093" r="2" fill="#ffffff" stroke="#ffffff" style="stroke-width: 0; fill-opacity: 0;"/><circle cx="747.9999999999836" cy="397.00054692845146" r="2" fill="#ffffff" stroke="#ffffff" style="stroke-width: 0; fill-opacity: 0;"/><circle cx="747.9999999999836" cy="361.0004806340937" r="2" fill="#ffffff" stroke="#ffffff" style="stroke-width: 0; fill-opacity: 0;"/><circle cx="747.9999999999836" cy="325.00041433973604" r="2" fill="#ffffff" stroke="#ffffff" style="stroke-width: 0; fill-opacity: 0;"/><circle cx="747.9999999999836" cy="289.00034804537825" r="2" fill="#ffffff" stroke="#ffffff" style="stroke-width: 0; fill-opacity: 0;"/><circle cx="747.9999999999836" cy="253.00028175102045" r="2" fill="#ffffff" stroke="#ffffff" style="stroke-width: 0; fill-opacity: 0;"/><circle cx="747.9999999999836" cy="1324.002254008164" r="8" fill="#ffffff" stroke="#008080" style="stroke-width: 2; fill-opacity: 1;"/><circle cx="747.9999999999836" cy="1288.0021877138063" r="8" fill="#ffffff" stroke="#008080" style="stroke-width: 2; fill-opacity: 1;"/><circle cx="747.9999999999836" cy="1252.0021214194485" r="8" fill="#ffffff" stroke="#008080" style="stroke-width: 2; fill-opacity: 1;"/><circle cx="747.9999999999836" cy="1216.0020551250905" r="8" fill="#ffffff" stroke="#008080" style="stroke-width: 2; fill-opacity: 1;"/><circle cx="747.9999999999836" cy="1180.001988830733" r="8" fill="#ffffff" stroke="#008080" style="stroke-width: 2; fill-opacity: 1;"/><circle cx="747.9999999999836" cy="1144.0019225363753" r="8" fill="#ffffff" stroke="#008080" style="stroke-width: 2; fill-opacity: 1;"/><circle cx="747.9999999999836" cy="1108.0018562420173" r="8" fill="#ffffff" stroke="#008080" style="stroke-width: 2; fill-opacity: 1;"/><circle cx="747.9999999999836" cy="1072.0017899476597" r="8" fill="#ffffff" stroke="#008080" style="stroke-width: 2; fill-opacity: 1;"/><circle cx="747.9999999999836" cy="1036.0017236533017" r="8" fill="#ffffff" stroke="#008080" style="stroke-width: 2; fill-opacity: 1;"/><circle cx="747.9999999999836" cy="1000.0016573589442" r="8" fill="#ffffff" stroke="#008080" style="stroke-width: 2; fill-opacity: 1;"/><circle cx="747.9999999999836" cy="964.0015910645864" r="8" fill="#ffffff" stroke="#008080" style="stroke-width: 2; fill-opacity: 1;"/><circle cx="747.9999999999836" cy="928.0015247702286" r="8" fill="#ffffff" stroke="#008080" style="stroke-width: 2; fill-opacity: 1;"/><circle cx="747.9999999999836" cy="892.0014584758708" r="8" fill="#ffffff" stroke="#008080" style="stroke-width: 2; fill-opacity: 1;"/><circle cx="747.9999999999836" cy="856.001392181513" r="8" fill="#ffffff" stroke="#008080" style="stroke-width: 2; fill-opacity: 1;"/><circle cx="747.9999999999836" cy="820.0013258871552" r="8" fill="#ffffff" stroke="#008080" style="stroke-width: 2; fill-opacity: 1;"/><circle cx="747.9999999999836" cy="784.0012595927975" r="8" fill="#ffffff" stroke="#008080" style="stroke-width: 2; fill-opacity: 1;"/><circle cx="747.9999999999836" cy="748.0011932984397" r="8" fill="#ffffff" stroke="#008080" style="stroke-width: 2; fill-opacity: 1;"/><circle cx="747.9999999999836" cy="712.0011270040819" r="8" fill="#ffffff" stroke="#008080" style="stroke-width: 2; fill-opacity: 1;"/><circle cx="747.9999999999836" cy="676.0010607097242" r="8" fill="#ffffff" stroke="#008080" style="stroke-width: 2; fill-opacity: 1;"/><circle cx="747.9999999999836" cy="640.0009944153663" r="8" fill="#ffffff" stroke="#008080" style="stroke-width: 2; fill-opacity: 1;"/><circle cx="747.9999999999836" cy="604.0009281210087" r="8" fill="#ffffff" stroke="#008080" style="stroke-width: 2; fill-opacity: 1;"/><circle cx="747.9999999999836" cy="568.0008618266509" r="8" fill="#ffffff" stroke="#008080" style="stroke-width: 2; fill-opacity: 1;"/><circle cx="747.9999999999836" cy="532.0007955322931" r="8" fill="#ffffff" stroke="#008080" style="stroke-width: 2; fill-opacity: 1;"/><circle cx="747.9999999999836" cy="496.0007292379354" r="8" fill="#ffffff" stroke="#008080" style="stroke-width: 2; fill-opacity: 1;"/><circle cx="747.9999999999836" cy="460.0006629435776" r="8" fill="#ffffff" stroke="#008080" style="stroke-width: 2; fill-opacity: 1;"/><circle cx="747.9999999999836" cy="424.00059664921986" r="8" fill="#ffffff" stroke="#008080" style="stroke-width: 2; fill-opacity: 1;"/><circle cx="747.9999999999836" cy="388.00053035486206" r="8" fill="#ffffff" stroke="#008080" style="stroke-width: 2; fill-opacity: 1;"/><circle cx="747.9999999999836" cy="352.00046406050427" r="8" fill="#ffffff" stroke="#008080" style="stroke-width: 2; fill-opacity: 1;"/><circle cx="747.9999999999836" cy="316.0003977661465" r="8" fill="#ffffff" stroke="#008080" style="stroke-width: 2; fill-opacity: 1;"/><circle cx="747.9999999999836" cy="280.00033147178885" r="8" fill="#ffffff" stroke="#008080" style="stroke-width: 2; fill-opacity: 1;"/><circle cx="747.9999999999836" cy="244.00026517743103" r="8" fill="#ffffff" stroke="#008080" style="stroke-width: 2; fill-opacity: 1;"/><circle cx="747.9999999999836" cy="1324.002254008164" r="5" fill="#ff0000" stroke="#ffa500" style="stroke-width: 0; fill-opacity: 1;"/><circle cx="747.9999999999836" cy="1288.0021877138063" r="5" fill="#ffa500" stroke="#000000" style="stroke-width: 0; fill-opacity: 1;"/><circle cx="747.9999999999836" cy="1216.0020551250905" r="5" fill="#9acd32" stroke="#000000" style="stroke-width: 0; fill-opacity: 1;"/><circle cx="747.9999999999836" cy="1144.0019225363753" r="5" fill="#ffa500" stroke="#000000" style="stroke-width: 0; fill-opacity: 1;"/><circle cx="747.9999999999836" cy="1108.0018562420173" r="5" fill="#9acd32" stroke="#000000" style="stroke-width: 0; fill-opacity: 1;"/><circle cx="747.9999999999836" cy="1036.0017236533017" r="5" fill="#9acd32" stroke="#000000" style="stroke-width: 0; fill-opacity: 1;"/><circle cx="747.9999999999836" cy="928.0015247702286" r="5" fill="#ff0000" stroke="#000000" style="stroke-width: 0; fill-opacity: 1;"/><circle cx="747.9999999999836" cy="820.0013258871552" r="5" fill="#ff0000" stroke="#000000" style="stroke-width: 0; fill-opacity: 1;"/><circle cx="747.9999999999836" cy="748.0011932984397" r="5" fill="#9acd32" stroke="#000000" style="stroke-width: 0; fill-opacity: 1;"/><circle cx="747.9999999999836" cy="640.0009944153663" r="5" fill="#ffa500" stroke="#000000" style="stroke-width: 0; fill-opacity: 1;"/><circle cx="747.9999999999836" cy="532.0007955322931" r="5" fill="#9acd32" stroke="#000000" style="stroke-width: 0; fill-opacity: 1;"/><circle cx="747.9999999999836" cy="496.0007292379354" r="5" fill="#ff0000" stroke="#000000" style="stroke-width: 0; fill-opacity: 1;"/><circle cx="747.9999999999836" cy="388.00053035486206" r="5" fill="#9acd32" stroke="#000000" style="stroke-width: 0; fill-opacity: 1;"/><circle cx="747.9999999999836" cy="316.0003977661465" r="5" fill="#9acd32" stroke="#000000" style="stroke-width: 0; fill-opacity: 1;"/><circle cx="747.9999999999836" cy="280.00033147178885" r="5" fill="#ffa500" stroke="#000000" style="stroke-width: 0; fill-opacity: 1;"/><circle cx="747.9999999999836" cy="244.00026517743103" r="5" fill="#ff0000" stroke="#000000" style="stroke-width: 0; fill-opacity: 1;"/><text x="191.99999999997544" y="1113.0018562420173" fill="#000000" transform="matrix(1,0,0,1,0,0)" style="font-size: 16px; font-family: Roboto, Arial, sans-serif; font-weight: 900; text-anchor: start; letter-spacing: 0em;">各停 停車駅</text><text x="191.99999999997544" y="1149.0019225363753" fill="#000000" transform="matrix(1,0,0,1,0,0)" style="font-size: 16px; font-family: Roboto, Arial, sans-serif; font-weight: 900; text-anchor: start; letter-spacing: 0em;">各停・準急 停車駅</text><text x="191.99999999997544" y="1185.001988830733" fill="#000000" transform="matrix(1,0,0,1,0,0)" style="font-size: 16px; font-family: Roboto, Arial, sans-serif; font-weight: 900; text-anchor: start; letter-spacing: 0em;">各停・準急・急行 停車駅</text><text x="191.99999999997544" y="1221.0020551250905" fill="#000000" transform="matrix(1,0,0,1,0,0)" style="font-size: 16px; font-family: Roboto, Arial, sans-serif; font-weight: 900; text-anchor: start; letter-spacing: 0em;">各停・準急・急行・特急 停車駅</text><text x="191.99999999997544" y="1371.0023203025219" fill="#000000" transform="matrix(1,0,0,1,0,0)" style="font-size: 28px; font-family: Roboto, Arial, sans-serif; font-weight: 900; text-anchor: start; letter-spacing: 0em;">首都圏中央急行</text><text x="191.99999999997544" y="1377.0023534497006" fill="#000000" transform="matrix(1,0,0,1,0,0)" style="font-size: 16px; font-family: Roboto, Arial, sans-serif; font-weight: 900; text-anchor: start; letter-spacing: 0em;">＿＿＿＿＿＿＿＿＿＿＿＿＿</text><text x="215.99999999997544" y="1393.0023865968794" fill="#000000" transform="matrix(1,0,0,1,0,0)" style="font-size: 12px; font-family: Roboto, Arial, sans-serif; font-weight: 900; text-anchor: start; letter-spacing: 0em;">Shutoken Chuo Kyuko</text><text x="722" y="648.0009944153663" fill="#000080" transform="matrix(0.7071,-0.7071,0.7071,0.7071,-245.3228,699.7404)" style="font-size: 10px; font-family: Roboto, Arial, sans-serif; font-weight: 900; text-anchor: end; letter-spacing: 0em;">衛藤</text><text x="722" y="1152.0019225363753" fill="#696969" transform="matrix(0.7071,-0.7071,0.7071,0.7071,-601.7053,847.3589)" style="font-size: 10px; font-family: Roboto, Arial, sans-serif; font-weight: 900; text-anchor: end; letter-spacing: 0em;">控沢</text><text x="640" y="1102.0018230948385" fill="#808080" transform="matrix(1,0,0,1,0,0)" style="font-size: 6px; font-family: Roboto, Arial, sans-serif; font-weight: 900; text-anchor: middle; letter-spacing: 0em;">TR 北彩源線</text><text x="640" y="1372.0023203025219" fill="#808080" transform="matrix(1,0,0,1,0,0)" style="font-size: 6px; font-family: Roboto, Arial, sans-serif; font-weight: 900; text-anchor: middle; letter-spacing: 0em;">TR 西中央線</text><text x="640" y="1408.0023865968794" fill="#808080" transform="matrix(1,0,0,1,0,0)" style="font-size: 6px; font-family: Roboto, Arial, sans-serif; font-weight: 900; text-anchor: middle; letter-spacing: 0em;">TR 川瀬都市線</text><text x="891.9999999999754" y="1286.4949628401632" fill="#ff00ff" transform="matrix(1,0,0,1,0,0)" style="font-size: 6px; font-family: Roboto, Arial, sans-serif; font-weight: 900; text-anchor: middle; letter-spacing: 0em;">氷部鉄道 外都市線</text><text x="891.9999999999754" y="926.4942998965856" fill="#808080" transform="matrix(1,0,0,1,0,0)" style="font-size: 6px; font-family: Roboto, Arial, sans-serif; font-weight: 900; text-anchor: middle; letter-spacing: 0em;">TR 彩源環状線</text><text x="891.9999999999754" y="818.4941010135121" fill="#800050" transform="matrix(1,0,0,1,0,0)" style="font-size: 6px; font-family: Roboto, Arial, sans-serif; font-weight: 900; text-anchor: middle; letter-spacing: 0em;">札磐電鉄 瑠那線</text><text x="891.9999999999754" y="638.4937695417234" fill="#000080" transform="matrix(1,0,0,1,0,0)" style="font-size: 6px; font-family: Roboto, Arial, sans-serif; font-weight: 900; text-anchor: middle; letter-spacing: 0em;">剋奈交通事業 東剋線</text><text x="891.9999999999754" y="220.00019888307324" fill="#808080" transform="matrix(1,0,0,1,0,0)" style="font-size: 6px; font-family: Roboto, Arial, sans-serif; font-weight: 900; text-anchor: middle; letter-spacing: 0em;">TR 結城線</text><text x="759.9999999999836" y="136.00006629435762" fill="#808080" transform="matrix(1,0,0,1,0,0)" style="font-size: 6px; font-family: Roboto, Arial, sans-serif; font-weight: 900; text-anchor: middle; writing-mode: tb; letter-spacing: 0em;">TR 君森線</text><text x="767.9999999999836" y="1341.0022705817535" fill="#696969" transform="matrix(1,0,0,1,0,0)" style="font-size: 10px; font-family: Roboto, Arial, sans-serif; font-weight: 900; text-anchor: start; letter-spacing: 0em;">Sekizu</text><text x="767.9999999999836" y="1305.0022042873957" fill="#696969" transform="matrix(1,0,0,1,0,0)" style="font-size: 10px; font-family: Roboto, Arial, sans-serif; font-weight: 900; text-anchor: start; letter-spacing: 0em;">Chihaya-gami</text><text x="767.9999999999836" y="1269.0021379930376" fill="#696969" transform="matrix(1,0,0,1,0,0)" style="font-size: 10px; font-family: Roboto, Arial, sans-serif; font-weight: 900; text-anchor: start; letter-spacing: 0em;">Chihaya-Yoshida</text><text x="767.9999999999836" y="1233.0020716986803" fill="#696969" transform="matrix(1,0,0,1,0,0)" style="font-size: 10px; font-family: Roboto, Arial, sans-serif; font-weight: 900; text-anchor: start; letter-spacing: 0em;">Asaasuka</text><text x="767.9999999999836" y="1197.0020054043225" fill="#696969" transform="matrix(1,0,0,1,0,0)" style="font-size: 10px; font-family: Roboto, Arial, sans-serif; font-weight: 900; text-anchor: start; letter-spacing: 0em;">Haizawa</text><text x="767.9999999999836" y="1161.0019391099647" fill="#696969" transform="matrix(1,0,0,1,0,0)" style="font-size: 10px; font-family: Roboto, Arial, sans-serif; font-weight: 900; text-anchor: start; letter-spacing: 0em;">Nakakozawa</text><text x="767.9999999999836" y="1125.001872815607" fill="#696969" transform="matrix(1,0,0,1,0,0)" style="font-size: 10px; font-family: Roboto, Arial, sans-serif; font-weight: 900; text-anchor: start; letter-spacing: 0em;">KenO-Oi</text><text x="767.9999999999836" y="1089.001806521249" fill="#696969" transform="matrix(1,0,0,1,0,0)" style="font-size: 10px; font-family: Roboto, Arial, sans-serif; font-weight: 900; text-anchor: start; letter-spacing: 0em;">Kokuna-Sakae</text><text x="767.9999999999836" y="1053.0017402268913" fill="#696969" transform="matrix(1,0,0,1,0,0)" style="font-size: 10px; font-family: Roboto, Arial, sans-serif; font-weight: 900; text-anchor: start; letter-spacing: 0em;">Saya</text><text x="767.9999999999836" y="1017.0016739325335" fill="#696969" transform="matrix(1,0,0,1,0,0)" style="font-size: 10px; font-family: Roboto, Arial, sans-serif; font-weight: 900; text-anchor: start; letter-spacing: 0em;">Sayadaira</text><text x="767.9999999999836" y="981.0016076381758" fill="#696969" transform="matrix(1,0,0,1,0,0)" style="font-size: 10px; font-family: Roboto, Arial, sans-serif; font-weight: 900; text-anchor: start; letter-spacing: 0em;">Banma</text><text x="767.9999999999836" y="945.001541343818" fill="#696969" transform="matrix(1,0,0,1,0,0)" style="font-size: 10px; font-family: Roboto, Arial, sans-serif; font-weight: 900; text-anchor: start; letter-spacing: 0em;">Houodai</text><text x="767.9999999999836" y="909.0014750494602" fill="#696969" transform="matrix(1,0,0,1,0,0)" style="font-size: 10px; font-family: Roboto, Arial, sans-serif; font-weight: 900; text-anchor: start; letter-spacing: 0em;">Teradai</text><text x="767.9999999999836" y="873.0014087551025" fill="#696969" transform="matrix(1,0,0,1,0,0)" style="font-size: 10px; font-family: Roboto, Arial, sans-serif; font-weight: 900; text-anchor: start; letter-spacing: 0em;">Nishi-Koto</text><text x="767.9999999999836" y="837.0013424607448" fill="#696969" transform="matrix(1,0,0,1,0,0)" style="font-size: 10px; font-family: Roboto, Arial, sans-serif; font-weight: 900; text-anchor: start; letter-spacing: 0em;">Aicho</text><text x="767.9999999999836" y="801.0012761663869" fill="#696969" transform="matrix(1,0,0,1,0,0)" style="font-size: 10px; font-family: Roboto, Arial, sans-serif; font-weight: 900; text-anchor: start; letter-spacing: 0em;">Ai-kita</text><text x="767.9999999999836" y="765.0012098720291" fill="#696969" transform="matrix(1,0,0,1,0,0)" style="font-size: 10px; font-family: Roboto, Arial, sans-serif; font-weight: 900; text-anchor: start; letter-spacing: 0em;">Yamanamirai</text><text x="767.9999999999836" y="729.0011435776714" fill="#696969" transform="matrix(1,0,0,1,0,0)" style="font-size: 10px; font-family: Roboto, Arial, sans-serif; font-weight: 900; text-anchor: start; letter-spacing: 0em;">Hiyama</text><text x="767.9999999999836" y="693.0010772833136" fill="#696969" transform="matrix(1,0,0,1,0,0)" style="font-size: 10px; font-family: Roboto, Arial, sans-serif; font-weight: 900; text-anchor: start; letter-spacing: 0em;">Minami-Eto</text><text x="767.9999999999836" y="657.001010988956" fill="#696969" transform="matrix(1,0,0,1,0,0)" style="font-size: 10px; font-family: Roboto, Arial, sans-serif; font-weight: 900; text-anchor: start; letter-spacing: 0em;">Shin-Eto</text><text x="767.9999999999836" y="621.000944694598" fill="#696969" transform="matrix(1,0,0,1,0,0)" style="font-size: 10px; font-family: Roboto, Arial, sans-serif; font-weight: 900; text-anchor: start; letter-spacing: 0em;">Yugo</text><text x="767.9999999999836" y="585.0008784002403" fill="#696969" transform="matrix(1,0,0,1,0,0)" style="font-size: 10px; font-family: Roboto, Arial, sans-serif; font-weight: 900; text-anchor: start; letter-spacing: 0em;">Chiominemitsu</text><text x="767.9999999999836" y="549.0008121058826" fill="#696969" transform="matrix(1,0,0,1,0,0)" style="font-size: 10px; font-family: Roboto, Arial, sans-serif; font-weight: 900; text-anchor: start; letter-spacing: 0em;">Tsutomidai</text><text x="767.9999999999836" y="513.0007458115249" fill="#696969" transform="matrix(1,0,0,1,0,0)" style="font-size: 10px; font-family: Roboto, Arial, sans-serif; font-weight: 900; text-anchor: start; letter-spacing: 0em;">Hokage-Soragaoka</text><text x="767.9999999999836" y="477.00067951716704" fill="#696969" transform="matrix(1,0,0,1,0,0)" style="font-size: 10px; font-family: Roboto, Arial, sans-serif; font-weight: 900; text-anchor: start; letter-spacing: 0em;">Kyokei</text><text x="767.9999999999836" y="441.0006132228093" fill="#696969" transform="matrix(1,0,0,1,0,0)" style="font-size: 10px; font-family: Roboto, Arial, sans-serif; font-weight: 900; text-anchor: start; letter-spacing: 0em;">Shinsakai</text><text x="767.9999999999836" y="405.00054692845146" fill="#696969" transform="matrix(1,0,0,1,0,0)" style="font-size: 10px; font-family: Roboto, Arial, sans-serif; font-weight: 900; text-anchor: start; letter-spacing: 0em;">Kagamiooka</text><text x="767.9999999999836" y="369.0004806340937" fill="#696969" transform="matrix(1,0,0,1,0,0)" style="font-size: 10px; font-family: Roboto, Arial, sans-serif; font-weight: 900; text-anchor: start; letter-spacing: 0em;">Yuzatooki</text><text x="767.9999999999836" y="333.00041433973604" fill="#696969" transform="matrix(1,0,0,1,0,0)" style="font-size: 10px; font-family: Roboto, Arial, sans-serif; font-weight: 900; text-anchor: start; letter-spacing: 0em;">Shin-Yukino</text><text x="767.9999999999836" y="297.00034804537825" fill="#696969" transform="matrix(1,0,0,1,0,0)" style="font-size: 10px; font-family: Roboto, Arial, sans-serif; font-weight: 900; text-anchor: start; letter-spacing: 0em;">Yukinodaimae</text><text x="767.9999999999836" y="261.00028175102045" fill="#696969" transform="matrix(1,0,0,1,0,0)" style="font-size: 10px; font-family: Roboto, Arial, sans-serif; font-weight: 900; text-anchor: start; letter-spacing: 0em;">Yukino</text><text x="767.9999999999836" y="1330.002254008164" fill="#000000" transform="matrix(1,0,0,1,0,0)" style="font-size: 18px; font-family: Roboto, Arial, sans-serif; font-weight: 900; text-anchor: start; letter-spacing: 0em;">晰津</text><text x="767.9999999999836" y="1294.0021877138063" fill="#000000" transform="matrix(1,0,0,1,0,0)" style="font-size: 18px; font-family: Roboto, Arial, sans-serif; font-weight: 900; text-anchor: start; letter-spacing: 0em;">千颯上</text><text x="767.9999999999836" y="1258.0021214194485" fill="#000000" transform="matrix(1,0,0,1,0,0)" style="font-size: 18px; font-family: Roboto, Arial, sans-serif; font-weight: 900; text-anchor: start; letter-spacing: 0em;">千颯吉田</text><text x="767.9999999999836" y="1222.0020551250905" fill="#000000" transform="matrix(1,0,0,1,0,0)" style="font-size: 18px; font-family: Roboto, Arial, sans-serif; font-weight: 900; text-anchor: start; letter-spacing: 0em;">朝飛鳥</text><text x="767.9999999999836" y="1186.001988830733" fill="#000000" transform="matrix(1,0,0,1,0,0)" style="font-size: 18px; font-family: Roboto, Arial, sans-serif; font-weight: 900; text-anchor: start; letter-spacing: 0em;">佩沢</text><text x="767.9999999999836" y="1150.0019225363753" fill="#000000" transform="matrix(1,0,0,1,0,0)" style="font-size: 18px; font-family: Roboto, Arial, sans-serif; font-weight: 900; text-anchor: start; letter-spacing: 0em;">仲子沢</text><text x="767.9999999999836" y="1114.0018562420173" fill="#000000" transform="matrix(1,0,0,1,0,0)" style="font-size: 18px; font-family: Roboto, Arial, sans-serif; font-weight: 900; text-anchor: start; letter-spacing: 0em;">圏央尾井</text><text x="767.9999999999836" y="1078.0017899476597" fill="#000000" transform="matrix(1,0,0,1,0,0)" style="font-size: 18px; font-family: Roboto, Arial, sans-serif; font-weight: 900; text-anchor: start; letter-spacing: 0em;">剋奈栄</text><text x="767.9999999999836" y="1042.0017236533017" fill="#000000" transform="matrix(1,0,0,1,0,0)" style="font-size: 18px; font-family: Roboto, Arial, sans-serif; font-weight: 900; text-anchor: start; letter-spacing: 0em;">沙谷</text><text x="767.9999999999836" y="1006.0016573589442" fill="#000000" transform="matrix(1,0,0,1,0,0)" style="font-size: 18px; font-family: Roboto, Arial, sans-serif; font-weight: 900; text-anchor: start; letter-spacing: 0em;">沙谷平</text><text x="767.9999999999836" y="970.0015910645864" fill="#000000" transform="matrix(1,0,0,1,0,0)" style="font-size: 18px; font-family: Roboto, Arial, sans-serif; font-weight: 900; text-anchor: start; letter-spacing: 0em;">番磨</text><text x="767.9999999999836" y="934.0015247702286" fill="#000000" transform="matrix(1,0,0,1,0,0)" style="font-size: 18px; font-family: Roboto, Arial, sans-serif; font-weight: 900; text-anchor: start; letter-spacing: 0em;">奉央台</text><text x="767.9999999999836" y="898.0014584758708" fill="#000000" transform="matrix(1,0,0,1,0,0)" style="font-size: 18px; font-family: Roboto, Arial, sans-serif; font-weight: 900; text-anchor: start; letter-spacing: 0em;">寺田井</text><text x="767.9999999999836" y="862.001392181513" fill="#000000" transform="matrix(1,0,0,1,0,0)" style="font-size: 18px; font-family: Roboto, Arial, sans-serif; font-weight: 900; text-anchor: start; letter-spacing: 0em;">西交藤</text><text x="767.9999999999836" y="826.0013258871552" fill="#000000" transform="matrix(1,0,0,1,0,0)" style="font-size: 18px; font-family: Roboto, Arial, sans-serif; font-weight: 900; text-anchor: start; letter-spacing: 0em;">相以町</text><text x="767.9999999999836" y="790.0012595927975" fill="#000000" transform="matrix(1,0,0,1,0,0)" style="font-size: 18px; font-family: Roboto, Arial, sans-serif; font-weight: 900; text-anchor: start; letter-spacing: 0em;">相以北</text><text x="767.9999999999836" y="754.0011932984397" fill="#000000" transform="matrix(1,0,0,1,0,0)" style="font-size: 18px; font-family: Roboto, Arial, sans-serif; font-weight: 900; text-anchor: start; letter-spacing: 0em;">山名みらい</text><text x="767.9999999999836" y="718.0011270040819" fill="#000000" transform="matrix(1,0,0,1,0,0)" style="font-size: 18px; font-family: Roboto, Arial, sans-serif; font-weight: 900; text-anchor: start; letter-spacing: 0em;">桧山</text><text x="767.9999999999836" y="682.0010607097242" fill="#000000" transform="matrix(1,0,0,1,0,0)" style="font-size: 18px; font-family: Roboto, Arial, sans-serif; font-weight: 900; text-anchor: start; letter-spacing: 0em;">南衛藤</text><text x="767.9999999999836" y="646.0009944153663" fill="#000000" transform="matrix(1,0,0,1,0,0)" style="font-size: 18px; font-family: Roboto, Arial, sans-serif; font-weight: 900; text-anchor: start; letter-spacing: 0em;">新衛藤</text><text x="767.9999999999836" y="610.0009281210087" fill="#000000" transform="matrix(1,0,0,1,0,0)" style="font-size: 18px; font-family: Roboto, Arial, sans-serif; font-weight: 900; text-anchor: start; letter-spacing: 0em;">侑吾</text><text x="767.9999999999836" y="574.0008618266509" fill="#000000" transform="matrix(1,0,0,1,0,0)" style="font-size: 18px; font-family: Roboto, Arial, sans-serif; font-weight: 900; text-anchor: start; letter-spacing: 0em;">千代峰光</text><text x="767.9999999999836" y="538.0007955322931" fill="#000000" transform="matrix(1,0,0,1,0,0)" style="font-size: 18px; font-family: Roboto, Arial, sans-serif; font-weight: 900; text-anchor: start; letter-spacing: 0em;">務実台</text><text x="767.9999999999836" y="502.0007292379354" fill="#000000" transform="matrix(1,0,0,1,0,0)" style="font-size: 18px; font-family: Roboto, Arial, sans-serif; font-weight: 900; text-anchor: start; letter-spacing: 0em;">保影宙ヶ丘</text><text x="767.9999999999836" y="466.0006629435776" fill="#000000" transform="matrix(1,0,0,1,0,0)" style="font-size: 18px; font-family: Roboto, Arial, sans-serif; font-weight: 900; text-anchor: start; letter-spacing: 0em;">京形</text><text x="767.9999999999836" y="430.00059664921986" fill="#000000" transform="matrix(1,0,0,1,0,0)" style="font-size: 18px; font-family: Roboto, Arial, sans-serif; font-weight: 900; text-anchor: start; letter-spacing: 0em;">新境</text><text x="767.9999999999836" y="394.00053035486206" fill="#000000" transform="matrix(1,0,0,1,0,0)" style="font-size: 18px; font-family: Roboto, Arial, sans-serif; font-weight: 900; text-anchor: start; letter-spacing: 0em;">鏡大岡</text><text x="767.9999999999836" y="358.00046406050427" fill="#000000" transform="matrix(1,0,0,1,0,0)" style="font-size: 18px; font-family: Roboto, Arial, sans-serif; font-weight: 900; text-anchor: start; letter-spacing: 0em;">湯里沖</text><text x="767.9999999999836" y="322.0003977661465" fill="#000000" transform="matrix(1,0,0,1,0,0)" style="font-size: 18px; font-family: Roboto, Arial, sans-serif; font-weight: 900; text-anchor: start; letter-spacing: 0em;">新結城野</text><text x="767.9999999999836" y="286.00033147178885" fill="#000000" transform="matrix(1,0,0,1,0,0)" style="font-size: 18px; font-family: Roboto, Arial, sans-serif; font-weight: 900; text-anchor: start; letter-spacing: 0em;">結城野大前</text><text x="767.9999999999836" y="250.00026517743103" fill="#000000" transform="matrix(1,0,0,1,0,0)" style="font-size: 18px; font-family: Roboto, Arial, sans-serif; font-weight: 900; text-anchor: start; letter-spacing: 0em;">結城野</text></svg>