<svg height="1236.0064984307965" version="1.1" width="1280" xmlns="http://www.w3.org/2000/svg" id="svgSvg" viewBox="0 0 1280 1236.0064984307965" style="width: 1366px; height: 1319.06px;"><desc>Created with Snap</desc><defs/><path d="M8,5 C10,2 10,2 5.67,3.6  C1.8,4.9 1.8,5.1 5.67,6.4 C10,8 10,8 8,5 z" fill="#ffffff" style=""/><path d="M2,5 C0,2 0,2 4.33,3.6  C8.2,4.9 8.2,5.1 4.33,6.4 C0,8 0,8 2,5 z" fill="#ffffff" style=""/><polyline points="271.0143999999309,406.0021244869911,271.0143999999309,424.00224945681407" fill="none" stroke="#ffffff" style="stroke-opacity: 1; stroke-width: 0; stroke-linecap: round; stroke-linejoin: round; marker-start: none; marker-end: none;"/><path d="M8,5 C10,2 10,2 5.67,3.6  C1.8,4.9 1.8,5.1 5.67,6.4 C10,8 10,8 8,5 z" fill="#ffffff" style=""/><path d="M2,5 C0,2 0,2 4.33,3.6  C8.2,4.9 8.2,5.1 4.33,6.4 C0,8 0,8 2,5 z" fill="#ffffff" style=""/><polyline points="351.9999999999345,784.0047488532744,100,784.0047488532744" fill="none" stroke="#ffffff" style="stroke-opacity: 0.9; stroke-width: 0; stroke-linecap: round; stroke-linejoin: round; marker-start: none; marker-end: none;"/><path d="M8,5 C10,2 10,2 5.67,3.6  C1.8,4.9 1.8,5.1 5.67,6.4 C10,8 10,8 8,5 z" fill="#ffffff" style=""/><path d="M2,5 C0,2 0,2 4.33,3.6  C8.2,4.9 8.2,5.1 4.33,6.4 C0,8 0,8 2,5 z" fill="#ffffff" style=""/><polyline points="873.9999999999509,154.000374909469,1071.9999999999345,154.000374909469,1180,154.000374909469" fill="none" stroke="#ffffff" style="stroke-opacity: 0.9; stroke-width: 0; stroke-linecap: round; stroke-linejoin: round; marker-start: none; marker-end: none;"/><path d="M8,5 C10,2 10,2 5.67,3.6  C1.8,4.9 1.8,5.1 5.67,6.4 C10,8 10,8 8,5 z" fill="#000080" style=""/><path d="M2,5 C0,2 0,2 4.33,3.6  C8.2,4.9 8.2,5.1 4.33,6.4 C0,8 0,8 2,5 z" fill="#000080" style=""/><polyline points="387.99999999998363,388.0019995171681,351.9999999999345,388.0019995171681,315.99999999996726,388.0019995171681" fill="none" stroke="#000080" style="stroke-opacity: 0.4; stroke-width: 6; stroke-linecap: round; stroke-linejoin: round; marker-start: none; marker-end: none;"/><path d="M8,5 C10,2 10,2 5.67,3.6  C1.8,4.9 1.8,5.1 5.67,6.4 C10,8 10,8 8,5 z" fill="#d05dce" style=""/><path d="M2,5 C0,2 0,2 4.33,3.6  C8.2,4.9 8.2,5.1 4.33,6.4 C0,8 0,8 2,5 z" fill="#d05dce" style=""/><polyline points="495.99999999996726,388.0019995171681,477.99999999998363,406.0021244869911,477.99999999998363,586.0033741852212,351.9999999999345,640.0037490946903,351.9999999999345,820.0049987929203,621.9999999999345,820.0049987929203,640,838.0051237627432,675.9999999999673,874.0053737023893,711.9999999999345,910.0056236420354,747.9999999999836,946.0058735816814" fill="none" stroke="#d05dce" style="stroke-opacity: 0.9; stroke-width: 6; stroke-linecap: round; stroke-linejoin: round; marker-start: none; marker-end: none;"/><path d="M8,5 C10,2 10,2 5.67,3.6  C1.8,4.9 1.8,5.1 5.67,6.4 C10,8 10,8 8,5 z" fill="#168000" style=""/><path d="M2,5 C0,2 0,2 4.33,3.6  C8.2,4.9 8.2,5.1 4.33,6.4 C0,8 0,8 2,5 z" fill="#168000" style=""/><polyline points="135.99999999996726,1036.0064984307965,171.99999999993452,1000.0062484911505,207.99999999998363,964.0059985515044,243.9999999999509,928.0057486118583,280,892.0054986722123,315.99999999996726,856.0052487325663,351.9999999999345,820.0049987929203,387.99999999998363,784.0047488532744,387.99999999998363,640.0037490946903,513.9999999999509,586.0033741852212,621.9999999999345,532.0029992757522,621.9999999999345,406.0021244869911,640,388.0019995171681,675.9999999999673,352.0017495775221,711.9999999999345,316.001499637876,747.9999999999836,280.0012496982301,783.9999999999509,244.00099975858404,820,208.000749818938,855.9999999999673,172.00049987929194,891.9999999999345,136.00024993964604,927.9999999999836,100" fill="none" stroke="#168000" style="stroke-opacity: 0.9; stroke-width: 6; stroke-linecap: round; stroke-linejoin: round; marker-start: none; marker-end: none;"/><path d="M8,5 C10,2 10,2 5.67,3.6  C1.8,4.9 1.8,5.1 5.67,6.4 C10,8 10,8 8,5 z" fill="#006080" style=""/><path d="M2,5 C0,2 0,2 4.33,3.6  C8.2,4.9 8.2,5.1 4.33,6.4 C0,8 0,8 2,5 z" fill="#006080" style=""/><polyline points="1035.9999999999673,460.00249939646017,1000,460.00249939646017,963.9999999999509,460.00249939646017,927.9999999999836,460.00249939646017,891.9999999999345,460.00249939646017,855.9999999999673,460.00249939646017,820,460.00249939646017,783.9999999999509,460.00249939646017,747.9999999999836,460.00249939646017,711.9999999999345,460.00249939646017,640,388.0019995171681,603.9999999999509,388.0019995171681,567.9999999999836,388.0019995171681,531.9999999999345,388.0019995171681,495.99999999996726,388.0019995171681,460,388.0019995171681,423.9999999999509,388.0019995171681,387.99999999998363,388.0019995171681" fill="none" stroke="#006080" style="stroke-opacity: 0.9; stroke-width: 6; stroke-linecap: round; stroke-linejoin: round; marker-start: none; marker-end: none;"/><path d="M8,5 C10,2 10,2 5.67,3.6  C1.8,4.9 1.8,5.1 5.67,6.4 C10,8 10,8 8,5 z" fill="#ffbf00" style=""/><path d="M2,5 C0,2 0,2 4.33,3.6  C8.2,4.9 8.2,5.1 4.33,6.4 C0,8 0,8 2,5 z" fill="#ffbf00" style=""/><polyline points="640,100,640,136.00024993964604,640,172.00049987929194,640,208.000749818938,640,244.00099975858404,640,280.0012496982301,640,316.001499637876,640,352.0017495775221,640,388.0019995171681,640,622.0036241248672,640,658.0038740645132,640,694.0041240041593,640,730.0043739438053,640,766.0046238834514,640,802.0048738230973,640,838.0051237627432" fill="none" stroke="#ffbf00" style="stroke-opacity: 0.9; stroke-width: 6; stroke-linecap: round; stroke-linejoin: round; marker-start: none; marker-end: none;"/><circle cx="271.0143999999309" cy="406.0021244869911" r="2" fill="#ffffff" stroke="#ffffff" style="stroke-width: 0; fill-opacity: 1;"/><circle cx="271.0143999999309" cy="424.00224945681407" r="2" fill="#ffffff" stroke="#ffffff" style="stroke-width: 0; fill-opacity: 1;"/><circle cx="351.9999999999345" cy="388.0019995171681" r="8" fill="#a691e3" stroke="#ffffff" style="stroke-width: 3; fill-opacity: 1;"/><circle cx="495.99999999996726" cy="388.0019995171681" r="8" fill="#000000" stroke="#ffffff" style="stroke-width: 3; fill-opacity: 1;"/><circle cx="351.9999999999345" cy="640.0037490946903" r="8" fill="#d05dce" stroke="#ffffff" style="stroke-width: 3; fill-opacity: 1;"/><circle cx="351.9999999999345" cy="820.0049987929203" r="8" fill="#000000" stroke="#ffffff" style="stroke-width: 3; fill-opacity: 1;"/><circle cx="640" cy="838.0051237627432" r="8" fill="#000000" stroke="#ffffff" style="stroke-width: 3; fill-opacity: 1;"/><circle cx="675.9999999999673" cy="874.0053737023893" r="8" fill="#d05dce" stroke="#ffffff" style="stroke-width: 3; fill-opacity: 1;"/><circle cx="711.9999999999345" cy="910.0056236420354" r="8" fill="#d05dce" stroke="#ffffff" style="stroke-width: 3; fill-opacity: 1;"/><circle cx="747.9999999999836" cy="946.0058735816814" r="8" fill="#d05dce" stroke="#ffffff" style="stroke-width: 3; fill-opacity: 1;"/><circle cx="135.99999999996726" cy="1036.0064984307965" r="8" fill="#168000" stroke="#ffffff" style="stroke-width: 3; fill-opacity: 1;"/><circle cx="171.99999999993452" cy="1000.0062484911505" r="8" fill="#168000" stroke="#ffffff" style="stroke-width: 3; fill-opacity: 1;"/><circle cx="207.99999999998363" cy="964.0059985515044" r="8" fill="#168000" stroke="#ffffff" style="stroke-width: 3; fill-opacity: 1;"/><circle cx="243.9999999999509" cy="928.0057486118583" r="8" fill="#168000" stroke="#ffffff" style="stroke-width: 3; fill-opacity: 1;"/><circle cx="280" cy="892.0054986722123" r="8" fill="#168000" stroke="#ffffff" style="stroke-width: 3; fill-opacity: 1;"/><circle cx="315.99999999996726" cy="856.0052487325663" r="8" fill="#168000" stroke="#ffffff" style="stroke-width: 3; fill-opacity: 1;"/><circle cx="351.9999999999345" cy="820.0049987929203" r="8" fill="#000000" stroke="#ffffff" style="stroke-width: 3; fill-opacity: 1;"/><circle cx="640" cy="388.0019995171681" r="8" fill="#168000" stroke="#ffffff" style="stroke-width: 3; fill-opacity: 1;"/><circle cx="675.9999999999673" cy="352.0017495775221" r="8" fill="#168000" stroke="#ffffff" style="stroke-width: 3; fill-opacity: 1;"/><circle cx="711.9999999999345" cy="316.001499637876" r="8" fill="#168000" stroke="#ffffff" style="stroke-width: 3; fill-opacity: 1;"/><circle cx="747.9999999999836" cy="280.0012496982301" r="8" fill="#168000" stroke="#ffffff" style="stroke-width: 3; fill-opacity: 1;"/><circle cx="783.9999999999509" cy="244.00099975858404" r="8" fill="#168000" stroke="#ffffff" style="stroke-width: 3; fill-opacity: 1;"/><circle cx="820" cy="208.000749818938" r="8" fill="#168000" stroke="#ffffff" style="stroke-width: 3; fill-opacity: 1;"/><circle cx="855.9999999999673" cy="172.00049987929194" r="8" fill="#168000" stroke="#ffffff" style="stroke-width: 3; fill-opacity: 1;"/><circle cx="891.9999999999345" cy="136.00024993964604" r="8" fill="#168000" stroke="#ffffff" style="stroke-width: 3; fill-opacity: 1;"/><circle cx="927.9999999999836" cy="100" r="8" fill="#168000" stroke="#ffffff" style="stroke-width: 3; fill-opacity: 1;"/><circle cx="1035.9999999999673" cy="460.00249939646017" r="8" fill="#006080" stroke="#ffffff" style="stroke-width: 3; fill-opacity: 1;"/><circle cx="1000" cy="460.00249939646017" r="8" fill="#006080" stroke="#ffffff" style="stroke-width: 3; fill-opacity: 1;"/><circle cx="963.9999999999509" cy="460.00249939646017" r="8" fill="#006080" stroke="#ffffff" style="stroke-width: 3; fill-opacity: 1;"/><circle cx="927.9999999999836" cy="460.00249939646017" r="8" fill="#006080" stroke="#ffffff" style="stroke-width: 3; fill-opacity: 1;"/><circle cx="891.9999999999345" cy="460.00249939646017" r="8" fill="#006080" stroke="#ffffff" style="stroke-width: 3; fill-opacity: 1;"/><circle cx="855.9999999999673" cy="460.00249939646017" r="8" fill="#006080" stroke="#ffffff" style="stroke-width: 3; fill-opacity: 1;"/><circle cx="820" cy="460.00249939646017" r="8" fill="#006080" stroke="#ffffff" style="stroke-width: 3; fill-opacity: 1;"/><circle cx="783.9999999999509" cy="460.00249939646017" r="8" fill="#006080" stroke="#ffffff" style="stroke-width: 3; fill-opacity: 1;"/><circle cx="747.9999999999836" cy="460.00249939646017" r="8" fill="#006080" stroke="#ffffff" style="stroke-width: 3; fill-opacity: 1;"/><circle cx="711.9999999999345" cy="460.00249939646017" r="8" fill="#006080" stroke="#ffffff" style="stroke-width: 3; fill-opacity: 1;"/><circle cx="640" cy="388.0019995171681" r="8" fill="#000000" stroke="#ffffff" style="stroke-width: 3; fill-opacity: 1;"/><circle cx="603.9999999999509" cy="388.0019995171681" r="8" fill="#006080" stroke="#ffffff" style="stroke-width: 3; fill-opacity: 1;"/><circle cx="567.9999999999836" cy="388.0019995171681" r="8" fill="#006080" stroke="#ffffff" style="stroke-width: 3; fill-opacity: 1;"/><circle cx="531.9999999999345" cy="388.0019995171681" r="8" fill="#006080" stroke="#ffffff" style="stroke-width: 3; fill-opacity: 1;"/><circle cx="495.99999999996726" cy="388.0019995171681" r="8" fill="#000000" stroke="#ffffff" style="stroke-width: 3; fill-opacity: 1;"/><circle cx="460" cy="388.0019995171681" r="8" fill="#006080" stroke="#ffffff" style="stroke-width: 3; fill-opacity: 1;"/><circle cx="423.9999999999509" cy="388.0019995171681" r="8" fill="#006080" stroke="#ffffff" style="stroke-width: 3; fill-opacity: 1;"/><circle cx="387.99999999998363" cy="388.0019995171681" r="8" fill="#006080" stroke="#ffffff" style="stroke-width: 3; fill-opacity: 1;"/><circle cx="640" cy="100" r="8" fill="#ffbf00" stroke="#ffffff" style="stroke-width: 3; fill-opacity: 1;"/><circle cx="640" cy="136.00024993964604" r="8" fill="#ffbf00" stroke="#ffffff" style="stroke-width: 3; fill-opacity: 1;"/><circle cx="640" cy="172.00049987929194" r="8" fill="#ffbf00" stroke="#ffffff" style="stroke-width: 3; fill-opacity: 1;"/><circle cx="640" cy="208.000749818938" r="8" fill="#ffbf00" stroke="#ffffff" style="stroke-width: 3; fill-opacity: 1;"/><circle cx="640" cy="244.00099975858404" r="8" fill="#ffbf00" stroke="#ffffff" style="stroke-width: 3; fill-opacity: 1;"/><circle cx="640" cy="280.0012496982301" r="8" fill="#ffbf00" stroke="#ffffff" style="stroke-width: 3; fill-opacity: 1;"/><circle cx="640" cy="316.001499637876" r="8" fill="#ffbf00" stroke="#ffffff" style="stroke-width: 3; fill-opacity: 1;"/><circle cx="640" cy="352.0017495775221" r="8" fill="#ffbf00" stroke="#ffffff" style="stroke-width: 3; fill-opacity: 1;"/><circle cx="640" cy="388.0019995171681" r="8" fill="#000000" stroke="#ffffff" style="stroke-width: 3; fill-opacity: 1;"/><circle cx="640" cy="622.0036241248672" r="8" fill="#ffbf00" stroke="#ffffff" style="stroke-width: 3; fill-opacity: 1;"/><circle cx="640" cy="658.0038740645132" r="8" fill="#ffbf00" stroke="#ffffff" style="stroke-width: 3; fill-opacity: 1;"/><circle cx="640" cy="694.0041240041593" r="8" fill="#ffbf00" stroke="#ffffff" style="stroke-width: 3; fill-opacity: 1;"/><circle cx="640" cy="730.0043739438053" r="8" fill="#ffbf00" stroke="#ffffff" style="stroke-width: 3; fill-opacity: 1;"/><circle cx="640" cy="766.0046238834514" r="8" fill="#ffbf00" stroke="#ffffff" style="stroke-width: 3; fill-opacity: 1;"/><circle cx="640" cy="802.0048738230973" r="8" fill="#ffbf00" stroke="#ffffff" style="stroke-width: 3; fill-opacity: 1;"/><circle cx="640" cy="838.0051237627432" r="8" fill="#000000" stroke="#ffffff" style="stroke-width: 3; fill-opacity: 1;"/><text x="291.0143999999309" y="409.0021244869911" fill="#808080" transform="matrix(1,0,0,1,0,0)" style="font-size: 12px; font-family: Roboto, Arial, sans-serif; font-weight: 900; text-anchor: start; letter-spacing: 0em;">槻真電気鉄道へ</text><text x="291.0143999999309" y="427.00224945681407" fill="#808080" transform="matrix(1,0,0,1,0,0)" style="font-size: 12px; font-family: Roboto, Arial, sans-serif; font-weight: 900; text-anchor: start; letter-spacing: 0em;">直通運転</text><text x="331.9999999999345" y="645.0037490946903" fill="#000000" transform="matrix(1,0,0,1,0,0)" style="font-size: 16px; font-family: Roboto, Arial, sans-serif; font-weight: 900; text-anchor: end; letter-spacing: 0em;">Keiri / 経里</text><text x="331.9999999999345" y="826.0049987929203" fill="#000000" transform="matrix(1,0,0,1,0,0)" style="font-size: 18px; font-family: Roboto, Arial, sans-serif; font-weight: 900; text-anchor: end; letter-spacing: 0em;">Mizotachi-Jinjamae / 溝立神社前</text><text x="655.9999999999673" y="879.0053737023893" fill="#000000" transform="matrix(1,0,0,1,0,0)" style="font-size: 16px; font-family: Roboto, Arial, sans-serif; font-weight: 900; text-anchor: end; letter-spacing: 0em;">Yukiji / 雪地</text><text x="691.9999999999345" y="915.0056236420354" fill="#000000" transform="matrix(1,0,0,1,0,0)" style="font-size: 16px; font-family: Roboto, Arial, sans-serif; font-weight: 900; text-anchor: end; letter-spacing: 0em;">Yukiji-Airport-West / 雪地空港西</text><text x="727.9999999999836" y="951.0058735816814" fill="#000000" transform="matrix(1,0,0,1,0,0)" style="font-size: 16px; font-family: Roboto, Arial, sans-serif; font-weight: 900; text-anchor: end; letter-spacing: 0em;">Yukiji-Airport-East / 雪地空港東</text><text x="115.99999999996726" y="1041.0064984307965" fill="#000000" transform="matrix(1,0,0,1,0,0)" style="font-size: 16px; font-family: Roboto, Arial, sans-serif; font-weight: 900; text-anchor: end; letter-spacing: 0em;">Itake / 伊武</text><text x="151.99999999993452" y="1005.0062484911505" fill="#000000" transform="matrix(1,0,0,1,0,0)" style="font-size: 16px; font-family: Roboto, Arial, sans-serif; font-weight: 900; text-anchor: end; letter-spacing: 0em;">Ronkyōhakuna / 論恭博奈</text><text x="187.99999999998363" y="969.0059985515044" fill="#000000" transform="matrix(1,0,0,1,0,0)" style="font-size: 16px; font-family: Roboto, Arial, sans-serif; font-weight: 900; text-anchor: end; letter-spacing: 0em;">Shano / 斜乃</text><text x="223.9999999999509" y="933.0057486118583" fill="#000000" transform="matrix(1,0,0,1,0,0)" style="font-size: 16px; font-family: Roboto, Arial, sans-serif; font-weight: 900; text-anchor: end; letter-spacing: 0em;">Ryūrō / 琉廊</text><text x="260" y="897.0054986722123" fill="#000000" transform="matrix(1,0,0,1,0,0)" style="font-size: 16px; font-family: Roboto, Arial, sans-serif; font-weight: 900; text-anchor: end; letter-spacing: 0em;">Ryūrō-Kita / 琉廊北</text><text x="295.99999999996726" y="861.0052487325663" fill="#000000" transform="matrix(1,0,0,1,0,0)" style="font-size: 16px; font-family: Roboto, Arial, sans-serif; font-weight: 900; text-anchor: end; letter-spacing: 0em;">Shimo-Mizotachi / 下溝立</text><text x="695.9999999999673" y="357.0017495775221" fill="#000000" transform="matrix(1,0,0,1,0,0)" style="font-size: 16px; font-family: Roboto, Arial, sans-serif; font-weight: 900; text-anchor: start; letter-spacing: 0em;">興仰橋 / Kōgyō-Bashi</text><text x="731.9999999999345" y="321.001499637876" fill="#000000" transform="matrix(1,0,0,1,0,0)" style="font-size: 16px; font-family: Roboto, Arial, sans-serif; font-weight: 900; text-anchor: start; letter-spacing: 0em;">上倉 / Kamikura</text><text x="767.9999999999836" y="285.0012496982301" fill="#000000" transform="matrix(1,0,0,1,0,0)" style="font-size: 16px; font-family: Roboto, Arial, sans-serif; font-weight: 900; text-anchor: start; letter-spacing: 0em;">徳河 / Tokuga</text><text x="803.9999999999509" y="249.00099975858404" fill="#000000" transform="matrix(1,0,0,1,0,0)" style="font-size: 16px; font-family: Roboto, Arial, sans-serif; font-weight: 900; text-anchor: start; letter-spacing: 0em;">岩飛 / Iwatobi</text><text x="840" y="213.000749818938" fill="#000000" transform="matrix(1,0,0,1,0,0)" style="font-size: 16px; font-family: Roboto, Arial, sans-serif; font-weight: 900; text-anchor: start; letter-spacing: 0em;">北岩飛 / Kita-Iwatobi</text><text x="875.9999999999673" y="177.00049987929194" fill="#000000" transform="matrix(1,0,0,1,0,0)" style="font-size: 16px; font-family: Roboto, Arial, sans-serif; font-weight: 900; text-anchor: start; letter-spacing: 0em;">報向寺 / Mukōji</text><text x="911.9999999999345" y="141.00024993964604" fill="#000000" transform="matrix(1,0,0,1,0,0)" style="font-size: 16px; font-family: Roboto, Arial, sans-serif; font-weight: 900; text-anchor: start; letter-spacing: 0em;">国際城報堂大学前 / KokusaiGihōdōDaigakuMae</text><text x="947.9999999999836" y="105" fill="#000000" transform="matrix(1,0,0,1,0,0)" style="font-size: 16px; font-family: Roboto, Arial, sans-serif; font-weight: 900; text-anchor: start; letter-spacing: 0em;">城野中央 / Kino-Chūō</text><text x="1035.9999999999673" y="480.00249939646017" fill="#000000" transform="matrix(1,0,0,1,0,0)" style="font-size: 16px; font-family: Roboto, Arial, sans-serif; font-weight: 900; text-anchor: start; writing-mode: tb; letter-spacing: -0.1em;">発複 / Happuku</text><text x="1000" y="480.00249939646017" fill="#000000" transform="matrix(1,0,0,1,0,0)" style="font-size: 16px; font-family: Roboto, Arial, sans-serif; font-weight: 900; text-anchor: start; writing-mode: tb; letter-spacing: -0.1em;">篠野目 / Shinonome</text><text x="963.9999999999509" y="480.00249939646017" fill="#000000" transform="matrix(1,0,0,1,0,0)" style="font-size: 16px; font-family: Roboto, Arial, sans-serif; font-weight: 900; text-anchor: start; writing-mode: tb; letter-spacing: -0.1em;">篠美音 / Shinomine</text><text x="927.9999999999836" y="480.00249939646017" fill="#000000" transform="matrix(1,0,0,1,0,0)" style="font-size: 16px; font-family: Roboto, Arial, sans-serif; font-weight: 900; text-anchor: start; writing-mode: tb; letter-spacing: -0.1em;">篠大前 / Shinodaimae</text><text x="891.9999999999345" y="480.00249939646017" fill="#000000" transform="matrix(1,0,0,1,0,0)" style="font-size: 16px; font-family: Roboto, Arial, sans-serif; font-weight: 900; text-anchor: start; writing-mode: tb; letter-spacing: -0.1em;">芝 / Shiba</text><text x="855.9999999999673" y="480.00249939646017" fill="#000000" transform="matrix(1,0,0,1,0,0)" style="font-size: 16px; font-family: Roboto, Arial, sans-serif; font-weight: 900; text-anchor: start; writing-mode: tb; letter-spacing: -0.1em;">東色友 / Higashi-Shikiyū</text><text x="820" y="480.00249939646017" fill="#000000" transform="matrix(1,0,0,1,0,0)" style="font-size: 16px; font-family: Roboto, Arial, sans-serif; font-weight: 900; text-anchor: start; writing-mode: tb; letter-spacing: -0.1em;">色友 / Shikiyū</text><text x="783.9999999999509" y="480.00249939646017" fill="#000000" transform="matrix(1,0,0,1,0,0)" style="font-size: 16px; font-family: Roboto, Arial, sans-serif; font-weight: 900; text-anchor: start; writing-mode: tb; letter-spacing: -0.1em;">栖実野 / Sumino</text><text x="747.9999999999836" y="480.00249939646017" fill="#000000" transform="matrix(1,0,0,1,0,0)" style="font-size: 16px; font-family: Roboto, Arial, sans-serif; font-weight: 900; text-anchor: start; writing-mode: tb; letter-spacing: -0.1em;">込沢町 / Komesawachō</text><text x="711.9999999999345" y="480.00249939646017" fill="#000000" transform="matrix(1,0,0,1,0,0)" style="font-size: 16px; font-family: Roboto, Arial, sans-serif; font-weight: 900; text-anchor: start; writing-mode: tb; letter-spacing: -0.1em;">保柚 / Hoyū</text><text x="603.9999999999509" y="408.0019995171681" fill="#000000" transform="matrix(1,0,0,1,0,0)" style="font-size: 16px; font-family: Roboto, Arial, sans-serif; font-weight: 900; text-anchor: start; writing-mode: tb; letter-spacing: -0.1em;">風加 / Fūka</text><text x="567.9999999999836" y="408.0019995171681" fill="#000000" transform="matrix(1,0,0,1,0,0)" style="font-size: 16px; font-family: Roboto, Arial, sans-serif; font-weight: 900; text-anchor: start; writing-mode: tb; letter-spacing: -0.1em;">究名 / Kyūna</text><text x="531.9999999999345" y="408.0019995171681" fill="#000000" transform="matrix(1,0,0,1,0,0)" style="font-size: 16px; font-family: Roboto, Arial, sans-serif; font-weight: 900; text-anchor: start; writing-mode: tb; letter-spacing: -0.1em;">雉堂 / Kizidō</text><text x="495.99999999996726" y="408.0019995171681" fill="#000000" transform="matrix(1,0,0,1,0,0)" style="font-size: 18px; font-family: Roboto, Arial, sans-serif; font-weight: 900; text-anchor: start; writing-mode: tb; letter-spacing: -0.1em;">理操研 / Risōken</text><text x="460" y="408.0019995171681" fill="#000000" transform="matrix(1,0,0,1,0,0)" style="font-size: 16px; font-family: Roboto, Arial, sans-serif; font-weight: 900; text-anchor: start; writing-mode: tb; letter-spacing: -0.1em;">東樟岐 / Higashi-Shōki</text><text x="423.9999999999509" y="408.0019995171681" fill="#000000" transform="matrix(1,0,0,1,0,0)" style="font-size: 16px; font-family: Roboto, Arial, sans-serif; font-weight: 900; text-anchor: start; writing-mode: tb; letter-spacing: -0.1em;">樟岐 / Shōki</text><text x="387.99999999998363" y="408.0019995171681" fill="#000000" transform="matrix(1,0,0,1,0,0)" style="font-size: 16px; font-family: Roboto, Arial, sans-serif; font-weight: 900; text-anchor: start; writing-mode: tb; letter-spacing: -0.1em;">𠮷会 / Yoshie</text><text x="620" y="105" fill="#000000" transform="matrix(1,0,0,1,0,0)" style="font-size: 16px; font-family: Roboto, Arial, sans-serif; font-weight: 900; text-anchor: end; letter-spacing: 0em;">Sakiyarichō / 先槍町</text><text x="620" y="141.00024993964604" fill="#000000" transform="matrix(1,0,0,1,0,0)" style="font-size: 16px; font-family: Roboto, Arial, sans-serif; font-weight: 900; text-anchor: end; letter-spacing: 0em;">Kita-Yarihara / 北槍原</text><text x="620" y="177.00049987929194" fill="#000000" transform="matrix(1,0,0,1,0,0)" style="font-size: 16px; font-family: Roboto, Arial, sans-serif; font-weight: 900; text-anchor: end; letter-spacing: 0em;">Yarihara / 槍原</text><text x="620" y="213.000749818938" fill="#000000" transform="matrix(1,0,0,1,0,0)" style="font-size: 16px; font-family: Roboto, Arial, sans-serif; font-weight: 900; text-anchor: end; letter-spacing: 0em;">Tarui-Shokubutsuen / 垂井植物園</text><text x="620" y="249.00099975858404" fill="#000000" transform="matrix(1,0,0,1,0,0)" style="font-size: 16px; font-family: Roboto, Arial, sans-serif; font-weight: 900; text-anchor: end; letter-spacing: 0em;">Asano / 麻佐乃</text><text x="620" y="285.0012496982301" fill="#000000" transform="matrix(1,0,0,1,0,0)" style="font-size: 16px; font-family: Roboto, Arial, sans-serif; font-weight: 900; text-anchor: end; letter-spacing: 0em;">Tokoya / 床谷</text><text x="620" y="321.001499637876" fill="#000000" transform="matrix(1,0,0,1,0,0)" style="font-size: 16px; font-family: Roboto, Arial, sans-serif; font-weight: 900; text-anchor: end; letter-spacing: 0em;">Minami-Tokoya / 南床谷</text><text x="620" y="357.0017495775221" fill="#000000" transform="matrix(1,0,0,1,0,0)" style="font-size: 16px; font-family: Roboto, Arial, sans-serif; font-weight: 900; text-anchor: end; letter-spacing: 0em;">Suzuhara / 素津原</text><text x="660" y="395.0019995171681" fill="#000000" transform="matrix(1,0,0,1,0,0)" style="font-size: 20px; font-family: Roboto, Arial, sans-serif; font-weight: 900; text-anchor: start; letter-spacing: 0em;">興仰 / Kōgyō</text><text x="620" y="627.0036241248672" fill="#000000" transform="matrix(1,0,0,1,0,0)" style="font-size: 16px; font-family: Roboto, Arial, sans-serif; font-weight: 900; text-anchor: end; letter-spacing: 0em;">Nishi-Kōgyō / 西興仰</text><text x="620" y="663.0038740645132" fill="#000000" transform="matrix(1,0,0,1,0,0)" style="font-size: 16px; font-family: Roboto, Arial, sans-serif; font-weight: 900; text-anchor: end; letter-spacing: 0em;">Sennomaru-Bashi / 千の丸橋</text><text x="620" y="699.0041240041593" fill="#000000" transform="matrix(1,0,0,1,0,0)" style="font-size: 16px; font-family: Roboto, Arial, sans-serif; font-weight: 900; text-anchor: end; letter-spacing: 0em;">Hokuto / 北斗</text><text x="620" y="735.0043739438053" fill="#000000" transform="matrix(1,0,0,1,0,0)" style="font-size: 16px; font-family: Roboto, Arial, sans-serif; font-weight: 900; text-anchor: end; letter-spacing: 0em;">Rino / 理野</text><text x="620" y="771.0046238834514" fill="#000000" transform="matrix(1,0,0,1,0,0)" style="font-size: 16px; font-family: Roboto, Arial, sans-serif; font-weight: 900; text-anchor: end; letter-spacing: 0em;">Rino-Sanchōme / 理野三丁目</text><text x="620" y="807.0048738230973" fill="#000000" transform="matrix(1,0,0,1,0,0)" style="font-size: 16px; font-family: Roboto, Arial, sans-serif; font-weight: 900; text-anchor: end; letter-spacing: 0em;">Kamino / 紙之</text><text x="620" y="844.0051237627432" fill="#000000" transform="matrix(1,0,0,1,0,0)" style="font-size: 18px; font-family: Roboto, Arial, sans-serif; font-weight: 900; text-anchor: end; letter-spacing: 0em;">Fuseba / 伏葉</text></svg>