<svg height="756.7573137435375" version="1.1" width="766.9999999999959" xmlns="http://www.w3.org/2000/svg" id="svgSvg" viewBox="0 0 766.9999999999959 756.7573137435375" style="width: 1366px; height: 1347.77px;"><desc>Created with Snap</desc><defs/><path d="M8,5 C10,2 10,2 5.67,3.6  C1.8,4.9 1.8,5.1 5.67,6.4 C10,8 10,8 8,5 z" fill="#ffffff" style=""/><path d="M2,5 C0,2 0,2 4.33,3.6  C8.2,4.9 8.2,5.1 4.33,6.4 C0,8 0,8 2,5 z" fill="#ffffff" style=""/><polyline points="460,514.0033661252467,460,487.00314659533933" fill="none" stroke="#ffffff" style="stroke-opacity: 1; stroke-width: 6; stroke-linecap: round; stroke-linejoin: round; marker-start: none; marker-end: none;"/><path d="M8,5 C10,2 10,2 5.67,3.6  C1.8,4.9 1.8,5.1 5.67,6.4 C10,8 10,8 8,5 z" fill="#000080" style=""/><path d="M2,5 C0,2 0,2 4.33,3.6  C8.2,4.9 8.2,5.1 4.33,6.4 C0,8 0,8 2,5 z" fill="#000080" style=""/><polyline points="460,541.0035856551542,666.9999999999959,541.0035856551542" fill="none" stroke="#000080" style="stroke-opacity: 0.6; stroke-width: 6; stroke-linecap: round; stroke-linejoin: round; marker-start: none; marker-end: none;"/><path d="M8,5 C10,2 10,2 5.67,3.6  C1.8,4.9 1.8,5.1 5.67,6.4 C10,8 10,8 8,5 z" fill="#ffffff" style=""/><path d="M2,5 C0,2 0,2 4.33,3.6  C8.2,4.9 8.2,5.1 4.33,6.4 C0,8 0,8 2,5 z" fill="#ffffff" style=""/><polyline points="531.9999999999959,100,540.9999999999877,118.00014635327162" fill="none" stroke="#ffffff" style="stroke-opacity: 1; stroke-width: 6; stroke-linecap: round; stroke-linejoin: round; marker-start: none; marker-end: none;"/><path d="M8,5 C10,2 10,2 5.67,3.6  C1.8,4.9 1.8,5.1 5.67,6.4 C10,8 10,8 8,5 z" fill="#006080" style=""/><path d="M2,5 C0,2 0,2 4.33,3.6  C8.2,4.9 8.2,5.1 4.33,6.4 C0,8 0,8 2,5 z" fill="#006080" style=""/><polyline points="495.9999999999877,145.000365883179,513.9999999999918,127.00021952990738,531.9999999999959,109.00007317663577" fill="none" stroke="#006080" style="stroke-opacity: 0.6; stroke-width: 12; stroke-linecap: round; stroke-linejoin: round; marker-start: none; marker-end: none;"/><path d="M8,5 C10,2 10,2 5.67,3.6  C1.8,4.9 1.8,5.1 5.67,6.4 C10,8 10,8 8,5 z" fill="#ffffff" style=""/><path d="M2,5 C0,2 0,2 4.33,3.6  C8.2,4.9 8.2,5.1 4.33,6.4 C0,8 0,8 2,5 z" fill="#ffffff" style=""/><polyline points="495.9999999999877,160.74689391302098,460,196.74718661956416,423.9999999999918,232.74747932610737,387.99999999998363,268.7477720326506,351.9999999999959,304.74806473919375,315.9999999999877,340.74835744573693,280,376.74865015228016,243.99999999999181,412.7489428588234,207.99999999998363,448.7492355653666,171.9999999999959,484.74952827190975,135.99999999998772,520.749820978453,100,556.7573137435375" fill="none" stroke="#ffffff" style="stroke-opacity: 1; stroke-width: 0; stroke-linecap: round; stroke-linejoin: round; marker-start: none; marker-end: none;"/><path d="M8,5 C10,2 10,2 5.67,3.6  C1.8,4.9 1.8,5.1 5.67,6.4 C10,8 10,8 8,5 z" fill="#000080" style=""/><path d="M2,5 C0,2 0,2 4.33,3.6  C8.2,4.9 8.2,5.1 4.33,6.4 C0,8 0,8 2,5 z" fill="#000080" style=""/><polyline points="495.9999999999877,145.000365883179,460,181.00065858972218,423.9999999999918,217.00095129626538,387.99999999998363,253.00124400280862,351.9999999999959,289.00153670935174,315.9999999999877,325.001829415895,280,361.00212212243815,243.99999999999181,397.0024148289814,207.99999999998363,433.00270753552456,171.9999999999959,469.0030002420677,135.99999999998772,505.003292948611,100,541.0035856551542" fill="none" stroke="#000080" style="stroke-opacity: 0.6; stroke-width: 12; stroke-linecap: round; stroke-linejoin: round; marker-start: none; marker-end: none;"/><circle cx="460" cy="514.0033661252467" r="2" fill="#ffffff" stroke="#ffffff" style="stroke-width: 0; fill-opacity: 1;"/><circle cx="460" cy="487.00314659533933" r="2" fill="#ffffff" stroke="#ffffff" style="stroke-width: 0; fill-opacity: 1;"/><circle cx="531.9999999999959" cy="100" r="2" fill="#ffffff" stroke="#ffffff" style="stroke-width: 0; fill-opacity: 1;"/><circle cx="540.9999999999877" cy="118.00014635327162" r="2" fill="#ffffff" stroke="#ffffff" style="stroke-width: 0; fill-opacity: 1;"/><circle cx="513.9999999999918" cy="127.00021952990738" r="2" fill="#ffffff" stroke="#ffffff" style="stroke-width: 5; fill-opacity: 1;"/><circle cx="495.9999999999877" cy="160.74689391302098" r="2" fill="#ffffff" stroke="#000000" style="stroke-width: 0; fill-opacity: 1;"/><circle cx="460" cy="196.74718661956416" r="2" fill="#ffffff" stroke="#000000" style="stroke-width: 0; fill-opacity: 1;"/><circle cx="423.9999999999918" cy="232.74747932610737" r="2" fill="#ffffff" stroke="#000000" style="stroke-width: 0; fill-opacity: 1;"/><circle cx="387.99999999998363" cy="268.7477720326506" r="2" fill="#ffffff" stroke="#000000" style="stroke-width: 0; fill-opacity: 1;"/><circle cx="351.9999999999959" cy="304.74806473919375" r="2" fill="#ffffff" stroke="#000000" style="stroke-width: 0; fill-opacity: 1;"/><circle cx="315.9999999999877" cy="340.74835744573693" r="2" fill="#ffffff" stroke="#000000" style="stroke-width: 0; fill-opacity: 1;"/><circle cx="280" cy="376.74865015228016" r="2" fill="#ffffff" stroke="#000000" style="stroke-width: 0; fill-opacity: 1;"/><circle cx="243.99999999999181" cy="412.7489428588234" r="2" fill="#ffffff" stroke="#000000" style="stroke-width: 0; fill-opacity: 1;"/><circle cx="207.99999999998363" cy="448.7492355653666" r="2" fill="#ffffff" stroke="#000000" style="stroke-width: 0; fill-opacity: 1;"/><circle cx="171.9999999999959" cy="484.74952827190975" r="2" fill="#ffffff" stroke="#000000" style="stroke-width: 0; fill-opacity: 1;"/><circle cx="135.99999999998772" cy="520.749820978453" r="2" fill="#ffffff" stroke="#000000" style="stroke-width: 0; fill-opacity: 1;"/><circle cx="100" cy="556.7573137435375" r="2" fill="#ffffff" stroke="#000000" style="stroke-width: 0; fill-opacity: 1;"/><circle cx="495.9999999999877" cy="145.000365883179" r="2" fill="#ffffff" stroke="#ffffff" style="stroke-width: 5; fill-opacity: 1;"/><circle cx="460" cy="181.00065858972218" r="2" fill="#ffffff" stroke="#ffffff" style="stroke-width: 5; fill-opacity: 1;"/><circle cx="423.9999999999918" cy="217.00095129626538" r="2" fill="#ffffff" stroke="#ffffff" style="stroke-width: 5; fill-opacity: 1;"/><circle cx="387.99999999998363" cy="253.00124400280862" r="2" fill="#ffffff" stroke="#ffffff" style="stroke-width: 5; fill-opacity: 1;"/><circle cx="351.9999999999959" cy="289.00153670935174" r="2" fill="#ffffff" stroke="#ffffff" style="stroke-width: 5; fill-opacity: 1;"/><circle cx="315.9999999999877" cy="325.001829415895" r="2" fill="#ffffff" stroke="#ffffff" style="stroke-width: 5; fill-opacity: 1;"/><circle cx="280" cy="361.00212212243815" r="2" fill="#ffffff" stroke="#ffffff" style="stroke-width: 5; fill-opacity: 1;"/><circle cx="243.99999999999181" cy="397.0024148289814" r="2" fill="#ffffff" stroke="#ffffff" style="stroke-width: 5; fill-opacity: 1;"/><circle cx="207.99999999998363" cy="433.00270753552456" r="2" fill="#ffffff" stroke="#ffffff" style="stroke-width: 5; fill-opacity: 1;"/><circle cx="171.9999999999959" cy="469.0030002420677" r="2" fill="#ffffff" stroke="#ffffff" style="stroke-width: 5; fill-opacity: 1;"/><circle cx="135.99999999998772" cy="505.003292948611" r="2" fill="#ffffff" stroke="#ffffff" style="stroke-width: 5; fill-opacity: 1;"/><circle cx="100" cy="541.0035856551542" r="2" fill="#ffffff" stroke="#ffffff" style="stroke-width: 5; fill-opacity: 1;"/><text x="480" y="525.0033661252467" fill="#000000" transform="matrix(1,0,0,1,0,0)" style="font-size: 28px; font-family: Roboto, Arial, sans-serif; font-weight: 900; text-anchor: start; letter-spacing: 0em;">槻真電気鉄道</text><text x="480" y="492.00314659533933" fill="#000000" transform="matrix(1,0,0,1,0,0)" style="font-size: 16px; font-family: Roboto, Arial, sans-serif; font-weight: 900; text-anchor: start; letter-spacing: 0em;">Tsukima Electric Railway</text><text x="551.9999999999959" y="104" fill="#006080" transform="matrix(1,0,0,1,0,0)" style="font-size: 14px; font-family: Roboto, Arial, sans-serif; font-weight: 900; text-anchor: start; letter-spacing: 0em;">彩源メトロ横南線と</text><text x="560.9999999999877" y="122.00014635327162" fill="#006080" transform="matrix(1,0,0,1,0,0)" style="font-size: 14px; font-family: Roboto, Arial, sans-serif; font-weight: 900; text-anchor: start; letter-spacing: 0em;">直通運転</text><text x="515.9999999999877" y="164.74689391302098" fill="#000000" transform="matrix(1,0,0,1,0,0)" style="font-size: 14px; font-family: Roboto, Arial, sans-serif; font-weight: 900; text-anchor: start; letter-spacing: 0em;">Yoshie</text><text x="480" y="200.74718661956416" fill="#000000" transform="matrix(1,0,0,1,0,0)" style="font-size: 14px; font-family: Roboto, Arial, sans-serif; font-weight: 900; text-anchor: start; letter-spacing: 0em;">Mashihara</text><text x="443.9999999999918" y="236.74747932610737" fill="#000000" transform="matrix(1,0,0,1,0,0)" style="font-size: 14px; font-family: Roboto, Arial, sans-serif; font-weight: 900; text-anchor: start; letter-spacing: 0em;">Fūsetsu-Daigaku-Mae</text><text x="407.99999999998363" y="272.7477720326506" fill="#000000" transform="matrix(1,0,0,1,0,0)" style="font-size: 14px; font-family: Roboto, Arial, sans-serif; font-weight: 900; text-anchor: start; letter-spacing: 0em;">Fūsetsu</text><text x="371.9999999999959" y="308.74806473919375" fill="#000000" transform="matrix(1,0,0,1,0,0)" style="font-size: 14px; font-family: Roboto, Arial, sans-serif; font-weight: 900; text-anchor: start; letter-spacing: 0em;">Kagino</text><text x="335.9999999999877" y="344.74835744573693" fill="#000000" transform="matrix(1,0,0,1,0,0)" style="font-size: 14px; font-family: Roboto, Arial, sans-serif; font-weight: 900; text-anchor: start; letter-spacing: 0em;">Tsukimashi</text><text x="300" y="380.74865015228016" fill="#000000" transform="matrix(1,0,0,1,0,0)" style="font-size: 14px; font-family: Roboto, Arial, sans-serif; font-weight: 900; text-anchor: start; letter-spacing: 0em;">Tsukima-Nishi</text><text x="263.9999999999918" y="416.7489428588234" fill="#000000" transform="matrix(1,0,0,1,0,0)" style="font-size: 14px; font-family: Roboto, Arial, sans-serif; font-weight: 900; text-anchor: start; letter-spacing: 0em;">Hakumei</text><text x="227.99999999998363" y="452.7492355653666" fill="#000000" transform="matrix(1,0,0,1,0,0)" style="font-size: 14px; font-family: Roboto, Arial, sans-serif; font-weight: 900; text-anchor: start; letter-spacing: 0em;">Aiba-Chuo</text><text x="191.9999999999959" y="488.74952827190975" fill="#000000" transform="matrix(1,0,0,1,0,0)" style="font-size: 14px; font-family: Roboto, Arial, sans-serif; font-weight: 900; text-anchor: start; letter-spacing: 0em;">Shin-Aiba</text><text x="155.99999999998772" y="524.749820978453" fill="#000000" transform="matrix(1,0,0,1,0,0)" style="font-size: 14px; font-family: Roboto, Arial, sans-serif; font-weight: 900; text-anchor: start; letter-spacing: 0em;">Rishu</text><text x="120" y="560.7573137435375" fill="#000000" transform="matrix(1,0,0,1,0,0)" style="font-size: 14px; font-family: Roboto, Arial, sans-serif; font-weight: 900; text-anchor: start; letter-spacing: 0em;">Rishu-Takamuradai</text><text x="515.9999999999877" y="151.000365883179" fill="#000000" transform="matrix(1,0,0,1,0,0)" style="font-size: 18px; font-family: Roboto, Arial, sans-serif; font-weight: 900; text-anchor: start; letter-spacing: 0em;">𠮷会</text><text x="480" y="187.00065858972218" fill="#000000" transform="matrix(1,0,0,1,0,0)" style="font-size: 18px; font-family: Roboto, Arial, sans-serif; font-weight: 900; text-anchor: start; letter-spacing: 0em;">摩至原</text><text x="443.9999999999918" y="223.00095129626538" fill="#000000" transform="matrix(1,0,0,1,0,0)" style="font-size: 18px; font-family: Roboto, Arial, sans-serif; font-weight: 900; text-anchor: start; letter-spacing: 0em;">風窃大学前</text><text x="407.99999999998363" y="259.0012440028086" fill="#000000" transform="matrix(1,0,0,1,0,0)" style="font-size: 18px; font-family: Roboto, Arial, sans-serif; font-weight: 900; text-anchor: start; letter-spacing: 0em;">風窃</text><text x="371.9999999999959" y="295.00153670935174" fill="#000000" transform="matrix(1,0,0,1,0,0)" style="font-size: 18px; font-family: Roboto, Arial, sans-serif; font-weight: 900; text-anchor: start; letter-spacing: 0em;">鍵乃</text><text x="335.9999999999877" y="331.001829415895" fill="#000000" transform="matrix(1,0,0,1,0,0)" style="font-size: 18px; font-family: Roboto, Arial, sans-serif; font-weight: 900; text-anchor: start; letter-spacing: 0em;">槻真市</text><text x="300" y="367.00212212243815" fill="#000000" transform="matrix(1,0,0,1,0,0)" style="font-size: 18px; font-family: Roboto, Arial, sans-serif; font-weight: 900; text-anchor: start; letter-spacing: 0em;">槻真西</text><text x="263.9999999999918" y="403.0024148289814" fill="#000000" transform="matrix(1,0,0,1,0,0)" style="font-size: 18px; font-family: Roboto, Arial, sans-serif; font-weight: 900; text-anchor: start; letter-spacing: 0em;">伯明</text><text x="227.99999999998363" y="439.00270753552456" fill="#000000" transform="matrix(1,0,0,1,0,0)" style="font-size: 18px; font-family: Roboto, Arial, sans-serif; font-weight: 900; text-anchor: start; letter-spacing: 0em;">相羽中央</text><text x="191.9999999999959" y="475.0030002420677" fill="#000000" transform="matrix(1,0,0,1,0,0)" style="font-size: 18px; font-family: Roboto, Arial, sans-serif; font-weight: 900; text-anchor: start; letter-spacing: 0em;">新相羽</text><text x="155.99999999998772" y="511.003292948611" fill="#000000" transform="matrix(1,0,0,1,0,0)" style="font-size: 18px; font-family: Roboto, Arial, sans-serif; font-weight: 900; text-anchor: start; letter-spacing: 0em;">莉珠</text><text x="120" y="547.0035856551542" fill="#000000" transform="matrix(1,0,0,1,0,0)" style="font-size: 18px; font-family: Roboto, Arial, sans-serif; font-weight: 900; text-anchor: start; letter-spacing: 0em;">莉珠篁台</text></svg>