<svg version="1.1" viewBox="0.0 0.0 330.0 330.0" fill="none" stroke="none" stroke-linecap="square" stroke-miterlimit="10" xmlns:xlink="http://www.w3.org/1999/xlink" xmlns="http://www.w3.org/2000/svg"><clipPath id="p.0"><path d="m0 0l330.0 0l0 330.0l-330.0 0l0 -330.0z" clip-rule="nonzero"/></clipPath><g clip-path="url(#p.0)"><path fill="#000000" fill-opacity="0.0" d="m0 0l330.0 0l0 330.0l-330.0 0z" fill-rule="evenodd"/><path fill="#000000" fill-opacity="0.0" d="m41.692913 165.0l55.47244 -110.94483l135.66928 0l55.472458 110.94483l-55.472458 110.944824l-135.66928 0z" fill-rule="evenodd"/><path stroke="#4c4c94" stroke-width="16.0" stroke-linejoin="round" stroke-linecap="butt" d="m41.692913 165.0l55.47244 -110.94483l135.66928 0l55.472458 110.94483l-55.472458 110.944824l-135.66928 0z" fill-rule="evenodd"/><path fill="#000000" fill-opacity="0.0" d="m119.09449 43.78478l91.81103 0l0 143.81102l-91.81103 0z" fill-rule="evenodd"/><path fill="#000000" d="m201.82886 151.34477l-16.140625 0l-6.421875 -16.6875l-29.375 0l-6.0625 16.6875l-15.734375 0l28.625 -73.484375l15.6875 0l29.421875 73.484375zm-27.3125 -29.078125l-10.125 -27.265625l-9.9375 27.265625l20.0625 0z" fill-rule="nonzero"/><path fill="#000000" fill-opacity="0.0" d="m100.1811 140.19685l129.63779 0l0 135.74803l-129.63779 0z" fill-rule="evenodd"/><path fill="#000000" d="m157.7436 229.12247l0 12.234375l-46.171883 0q0.75 -6.9375 4.5 -13.140625q3.75 -6.21875 14.812508 -16.484375q8.90625 -8.296875 10.921875 -11.25q2.71875 -4.078125 2.71875 -8.0625q0 -4.40625 -2.375 -6.765625q-2.359375 -2.375 -6.53125 -2.375q-4.125 0 -6.5625 2.484375q-2.4375076 2.484375 -2.8125076 8.25l-13.125 -1.3125q1.171875 -10.875 7.359375 -15.609375q6.1875 -4.734375 15.468758 -4.734375q10.171875 0 15.984375 5.484375q5.8125 5.484375 5.8125 13.640625q0 4.640625 -1.671875 8.84375q-1.65625 4.1875 -5.265625 8.78125q-2.390625 3.046875 -8.625 8.765625q-6.234375 5.71875 -7.90625 7.59375q-1.65625 1.875 -2.6875 3.65625l26.15625 0zm53.53125 -39.65625l-12.75 1.40625q-0.46875 -3.9375 -2.4375 -5.8125q-1.96875 -1.875 -5.109375 -1.875q-4.171875 0 -7.0625 3.75q-2.875 3.75 -3.625 15.609375q4.921875 -5.8125 12.234375 -5.8125q8.25 0 14.125 6.28125q5.890625 6.28125 5.890625 16.21875q0 10.546875 -6.1875 16.921875q-6.1875 6.375 -15.890625 6.375q-10.40625 0 -17.109375 -8.078125q-6.703125 -8.09375 -6.703125 -26.515625q0 -18.890625 6.984375 -27.234375q6.984375 -8.34375 18.140625 -8.34375q7.828125 0 12.953125 4.390625q5.140625 4.375 6.546875 12.71875zm-29.859375 28.734375q0 6.421875 2.953125 9.921875q2.953125 3.484375 6.75 3.484375q3.65625 0 6.09375 -2.859375q2.4375 -2.859375 2.4375 -9.375q0 -6.703125 -2.625 -9.8125q-2.625 -3.125 -6.5625 -3.125q-3.796875 0 -6.421875 2.984375q-2.625 2.96875 -2.625 8.78125z" fill-rule="nonzero"/><path fill="#000000" fill-opacity="0.0" d="m84.11024 35.441006l161.79529 0" fill-rule="evenodd"/><path stroke="#4c4c94" stroke-width="4.0" stroke-linejoin="round" stroke-linecap="butt" d="m84.11024 35.441006l161.79529 0" fill-rule="evenodd"/></g></svg>