<svg version="1.1" viewBox="0.0 0.0 330.0 330.0" fill="none" stroke="none" stroke-linecap="square" stroke-miterlimit="10" xmlns:xlink="http://www.w3.org/1999/xlink" xmlns="http://www.w3.org/2000/svg"><clipPath id="p.0"><path d="m0 0l330.0 0l0 330.0l-330.0 0l0 -330.0z" clip-rule="nonzero"/></clipPath><g clip-path="url(#p.0)"><path fill="#000000" fill-opacity="0.0" d="m0 0l330.0 0l0 330.0l-330.0 0z" fill-rule="evenodd"/><path fill="#000000" fill-opacity="0.0" d="m41.692913 165.0l55.47244 -110.94483l135.66928 0l55.472458 110.94483l-55.472458 110.944824l-135.66928 0z" fill-rule="evenodd"/><path stroke="#ffa500" stroke-width="16.0" stroke-linejoin="round" stroke-linecap="butt" d="m41.692913 165.0l55.47244 -110.94483l135.66928 0l55.472458 110.94483l-55.472458 110.944824l-135.66928 0z" fill-rule="evenodd"/><path fill="#000000" fill-opacity="0.0" d="m119.09449 43.78478l91.81103 0l0 143.81102l-91.81103 0z" fill-rule="evenodd"/><path fill="#000000" d="m131.7976 127.43852l14.4375 -1.40625q1.3125 7.265625 5.296875 10.671875q3.984375 3.40625 10.75 3.40625q7.171875 0 10.796875 -3.03125q3.640625 -3.03125 3.640625 -7.09375q0 -2.59375 -1.53125 -4.421875q-1.53125 -1.84375 -5.34375 -3.1875q-2.609375 -0.90625 -11.875 -3.21875q-11.9375 -2.953125 -16.75 -7.265625q-6.765625 -6.0625 -6.765625 -14.78125q0 -5.609375 3.1875 -10.5q3.1875 -4.890625 9.171875 -7.4375q6.0 -2.5625 14.46875 -2.5625q13.828125 0 20.8125 6.0625q7.0 6.0625 7.359375 16.1875l-14.84375 0.65625q-0.953125 -5.671875 -4.09375 -8.140625q-3.125 -2.484375 -9.390625 -2.484375q-6.46875 0 -10.125 2.65625q-2.359375 1.703125 -2.359375 4.5625q0 2.609375 2.203125 4.453125q2.8125 2.359375 13.640625 4.921875q10.828125 2.546875 16.015625 5.28125q5.1875 2.734375 8.109375 7.46875q2.9375 4.734375 2.9375 11.703125q0 6.3125 -3.515625 11.828125q-3.5 5.515625 -9.921875 8.203125q-6.40625 2.671875 -15.984375 2.671875q-13.9375 0 -21.40625 -6.4375q-7.46875 -6.4375 -8.921875 -18.765625z" fill-rule="nonzero"/><path fill="#000000" fill-opacity="0.0" d="m100.1811 140.19685l129.63779 0l0 135.74803l-129.63779 0z" fill-rule="evenodd"/><path fill="#000000" d="m157.7436 229.12247l0 12.234375l-46.171883 0q0.75 -6.9375 4.5 -13.140625q3.75 -6.21875 14.812508 -16.484375q8.90625 -8.296875 10.921875 -11.25q2.71875 -4.078125 2.71875 -8.0625q0 -4.40625 -2.375 -6.765625q-2.359375 -2.375 -6.53125 -2.375q-4.125 0 -6.5625 2.484375q-2.4375076 2.484375 -2.8125076 8.25l-13.125 -1.3125q1.171875 -10.875 7.359375 -15.609375q6.1875 -4.734375 15.468758 -4.734375q10.171875 0 15.984375 5.484375q5.8125 5.484375 5.8125 13.640625q0 4.640625 -1.671875 8.84375q-1.65625 4.1875 -5.265625 8.78125q-2.390625 3.046875 -8.625 8.765625q-6.234375 5.71875 -7.90625 7.59375q-1.65625 1.875 -2.6875 3.65625l26.15625 0zm31.171875 -56.765625q9.984375 0 15.609375 7.125q6.703125 8.4375 6.703125 27.984375q0 19.5 -6.75 28.03125q-5.578125 7.03125 -15.5625 7.03125q-10.03125 0 -16.171875 -7.703125q-6.140625 -7.71875 -6.140625 -27.5q0 -19.40625 6.75 -27.9375q5.578125 -7.03125 15.5625 -7.03125zm0 10.921875q-2.390625 0 -4.265625 1.53125q-1.875 1.515625 -2.90625 5.453125q-1.359375 5.109375 -1.359375 17.203125q0 12.09375 1.21875 16.625q1.21875 4.515625 3.0625 6.015625q1.859375 1.5 4.25 1.5q2.390625 0 4.265625 -1.515625q1.875 -1.53125 2.90625 -5.46875q1.359375 -5.0625 1.359375 -17.15625q0 -12.09375 -1.21875 -16.609375q-1.21875 -4.53125 -3.078125 -6.046875q-1.84375 -1.53125 -4.234375 -1.53125z" fill-rule="nonzero"/><path fill="#000000" fill-opacity="0.0" d="m19.33071 165.0l64.779526 -129.55899l161.77954 0l64.77951 129.55899l-64.77951 129.55899l-161.77954 0z" fill-rule="evenodd"/><path stroke="#ffa500" stroke-width="4.0" stroke-linejoin="round" stroke-linecap="butt" d="m19.33071 165.0l64.779526 -129.55899l161.77954 0l64.77951 129.55899l-64.77951 129.55899l-161.77954 0z" fill-rule="evenodd"/></g></svg>