<svg version="1.1" viewBox="0.0 0.0 330.0 330.0" fill="none" stroke="none" stroke-linecap="square" stroke-miterlimit="10" xmlns:xlink="http://www.w3.org/1999/xlink" xmlns="http://www.w3.org/2000/svg"><clipPath id="p.0"><path d="m0 0l330.0 0l0 330.0l-330.0 0l0 -330.0z" clip-rule="nonzero"/></clipPath><g clip-path="url(#p.0)"><path fill="#000000" fill-opacity="0.0" d="m0 0l330.0 0l0 330.0l-330.0 0z" fill-rule="evenodd"/><path fill="#000000" fill-opacity="0.0" d="m41.692913 165.0l55.47244 -110.94483l135.66928 0l55.472458 110.94483l-55.472458 110.944824l-135.66928 0z" fill-rule="evenodd"/><path stroke="#4c4c94" stroke-width="16.0" stroke-linejoin="round" stroke-linecap="butt" d="m41.692913 165.0l55.47244 -110.94483l135.66928 0l55.472458 110.94483l-55.472458 110.944824l-135.66928 0z" fill-rule="evenodd"/><path fill="#000000" fill-opacity="0.0" d="m119.09449 43.78478l91.81103 0l0 143.81102l-91.81103 0z" fill-rule="evenodd"/><path fill="#000000" d="m201.82886 151.34477l-16.140625 0l-6.421875 -16.6875l-29.375 0l-6.0625 16.6875l-15.734375 0l28.625 -73.484375l15.6875 0l29.421875 73.484375zm-27.3125 -29.078125l-10.125 -27.265625l-9.9375 27.265625l20.0625 0z" fill-rule="nonzero"/><path fill="#000000" fill-opacity="0.0" d="m100.1811 140.19685l129.63779 0l0 135.74803l-129.63779 0z" fill-rule="evenodd"/><path fill="#000000" d="m135.52486 172.35684q9.984375 0 15.609375 7.125q6.703125 8.4375 6.703125 27.984375q0 19.5 -6.75 28.03125q-5.578125 7.03125 -15.5625 7.03125q-10.031258 0 -16.171883 -7.703125q-6.140625 -7.71875 -6.140625 -27.5q0 -19.40625 6.75 -27.9375q5.578125 -7.03125 15.562508 -7.03125zm0 10.921875q-2.390625 0 -4.265625 1.53125q-1.875 1.515625 -2.90625 5.453125q-1.3593826 5.109375 -1.3593826 17.203125q0 12.09375 1.2187576 16.625q1.21875 4.515625 3.0625 6.015625q1.859375 1.5 4.25 1.5q2.390625 0 4.265625 -1.515625q1.875 -1.53125 2.90625 -5.46875q1.359375 -5.0625 1.359375 -17.15625q0 -12.09375 -1.21875 -16.609375q-1.21875 -4.53125 -3.078125 -6.046875q-1.84375 -1.53125 -4.234375 -1.53125zm42.421875 21.0q-5.109375 -2.15625 -7.4375 -5.921875q-2.3125 -3.78125 -2.3125 -8.28125q0 -7.6875 5.359375 -12.703125q5.375 -5.015625 15.265625 -5.015625q9.796875 0 15.203125 5.015625q5.421875 5.015625 5.421875 12.703125q0 4.78125 -2.484375 8.515625q-2.484375 3.71875 -6.984375 5.6875q5.71875 2.296875 8.6875 6.703125q2.984375 4.40625 2.984375 10.171875q0 9.515625 -6.078125 15.46875q-6.0625 5.953125 -16.140625 5.953125q-9.375 0 -15.609375 -4.921875q-7.359375 -5.8125 -7.359375 -15.9375q0 -5.578125 2.765625 -10.234375q2.765625 -4.671875 8.71875 -7.203125zm2.71875 -13.265625q0 3.9375 2.21875 6.140625q2.234375 2.203125 5.9375 2.203125q3.75 0 6.0 -2.21875q2.25 -2.234375 2.25 -6.171875q0 -3.703125 -2.234375 -5.921875q-2.21875 -2.234375 -5.875 -2.234375q-3.796875 0 -6.046875 2.25q-2.25 2.25 -2.25 5.953125zm-1.21875 29.4375q0 5.4375 2.78125 8.484375q2.796875 3.046875 6.96875 3.046875q4.078125 0 6.75 -2.921875q2.671875 -2.9375 2.671875 -8.46875q0 -4.828125 -2.71875 -7.75q-2.71875 -2.9375 -6.890625 -2.9375q-4.828125 0 -7.203125 3.328125q-2.359375 3.328125 -2.359375 7.21875z" fill-rule="nonzero"/><path fill="#000000" fill-opacity="0.0" d="m84.11024 35.441006l161.79529 0" fill-rule="evenodd"/><path stroke="#4c4c94" stroke-width="4.0" stroke-linejoin="round" stroke-linecap="butt" d="m84.11024 35.441006l161.79529 0" fill-rule="evenodd"/></g></svg>