<svg version="1.1" viewBox="0.0 0.0 330.0 330.0" fill="none" stroke="none" stroke-linecap="square" stroke-miterlimit="10" xmlns:xlink="http://www.w3.org/1999/xlink" xmlns="http://www.w3.org/2000/svg"><clipPath id="p.0"><path d="m0 0l330.0 0l0 330.0l-330.0 0l0 -330.0z" clip-rule="nonzero"/></clipPath><g clip-path="url(#p.0)"><path fill="#000000" fill-opacity="0.0" d="m0 0l330.0 0l0 330.0l-330.0 0z" fill-rule="evenodd"/><path fill="#000000" fill-opacity="0.0" d="m41.692913 165.0l55.47244 -110.94483l135.66928 0l55.472458 110.94483l-55.472458 110.944824l-135.66928 0z" fill-rule="evenodd"/><path stroke="#4c4c94" stroke-width="16.0" stroke-linejoin="round" stroke-linecap="butt" d="m41.692913 165.0l55.47244 -110.94483l135.66928 0l55.472458 110.94483l-55.472458 110.944824l-135.66928 0z" fill-rule="evenodd"/><path fill="#000000" fill-opacity="0.0" d="m119.09449 43.78478l91.81103 0l0 143.81102l-91.81103 0z" fill-rule="evenodd"/><path fill="#000000" d="m201.82886 151.34477l-16.140625 0l-6.421875 -16.6875l-29.375 0l-6.0625 16.6875l-15.734375 0l28.625 -73.484375l15.6875 0l29.421875 73.484375zm-27.3125 -29.078125l-10.125 -27.265625l-9.9375 27.265625l20.0625 0z" fill-rule="nonzero"/><path fill="#000000" fill-opacity="0.0" d="m100.1811 140.19685l129.63779 0l0 135.74803l-129.63779 0z" fill-rule="evenodd"/><path fill="#000000" d="m157.7436 229.12247l0 12.234375l-46.171883 0q0.75 -6.9375 4.5 -13.140625q3.75 -6.21875 14.812508 -16.484375q8.90625 -8.296875 10.921875 -11.25q2.71875 -4.078125 2.71875 -8.0625q0 -4.40625 -2.375 -6.765625q-2.359375 -2.375 -6.53125 -2.375q-4.125 0 -6.5625 2.484375q-2.4375076 2.484375 -2.8125076 8.25l-13.125 -1.3125q1.171875 -10.875 7.359375 -15.609375q6.1875 -4.734375 15.468758 -4.734375q10.171875 0 15.984375 5.484375q5.8125 5.484375 5.8125 13.640625q0 4.640625 -1.671875 8.84375q-1.65625 4.1875 -5.265625 8.78125q-2.390625 3.046875 -8.625 8.765625q-6.234375 5.71875 -7.90625 7.59375q-1.65625 1.875 -2.6875 3.65625l26.15625 0zm31.171875 -56.765625q9.984375 0 15.609375 7.125q6.703125 8.4375 6.703125 27.984375q0 19.5 -6.75 28.03125q-5.578125 7.03125 -15.5625 7.03125q-10.03125 0 -16.171875 -7.703125q-6.140625 -7.71875 -6.140625 -27.5q0 -19.40625 6.75 -27.9375q5.578125 -7.03125 15.5625 -7.03125zm0 10.921875q-2.390625 0 -4.265625 1.53125q-1.875 1.515625 -2.90625 5.453125q-1.359375 5.109375 -1.359375 17.203125q0 12.09375 1.21875 16.625q1.21875 4.515625 3.0625 6.015625q1.859375 1.5 4.25 1.5q2.390625 0 4.265625 -1.515625q1.875 -1.53125 2.90625 -5.46875q1.359375 -5.0625 1.359375 -17.15625q0 -12.09375 -1.21875 -16.609375q-1.21875 -4.53125 -3.078125 -6.046875q-1.84375 -1.53125 -4.234375 -1.53125z" fill-rule="nonzero"/><path fill="#000000" fill-opacity="0.0" d="m84.11024 35.441006l161.79529 0" fill-rule="evenodd"/><path stroke="#4c4c94" stroke-width="4.0" stroke-linejoin="round" stroke-linecap="butt" d="m84.11024 35.441006l161.79529 0" fill-rule="evenodd"/></g></svg>