<svg version="1.1" viewBox="0.0 0.0 330.0 330.0" fill="none" stroke="none" stroke-linecap="square" stroke-miterlimit="10" xmlns:xlink="http://www.w3.org/1999/xlink" xmlns="http://www.w3.org/2000/svg"><clipPath id="p.0"><path d="m0 0l330.0 0l0 330.0l-330.0 0l0 -330.0z" clip-rule="nonzero"/></clipPath><g clip-path="url(#p.0)"><path fill="#000000" fill-opacity="0.0" d="m0 0l330.0 0l0 330.0l-330.0 0z" fill-rule="evenodd"/><path fill="#000000" fill-opacity="0.0" d="m41.692913 165.0l55.47244 -110.94483l135.66928 0l55.472458 110.94483l-55.472458 110.944824l-135.66928 0z" fill-rule="evenodd"/><path stroke="#4c4c94" stroke-width="16.0" stroke-linejoin="round" stroke-linecap="butt" d="m41.692913 165.0l55.47244 -110.94483l135.66928 0l55.472458 110.94483l-55.472458 110.944824l-135.66928 0z" fill-rule="evenodd"/><path fill="#000000" fill-opacity="0.0" d="m119.09449 43.78478l91.81103 0l0 143.81102l-91.81103 0z" fill-rule="evenodd"/><path fill="#000000" d="m201.82886 151.34477l-16.140625 0l-6.421875 -16.6875l-29.375 0l-6.0625 16.6875l-15.734375 0l28.625 -73.484375l15.6875 0l29.421875 73.484375zm-27.3125 -29.078125l-10.125 -27.265625l-9.9375 27.265625l20.0625 0z" fill-rule="nonzero"/><path fill="#000000" fill-opacity="0.0" d="m100.1811 140.19685l129.63779 0l0 135.74803l-129.63779 0z" fill-rule="evenodd"/><path fill="#000000" d="m146.96236 241.35684l-13.171875 0l0 -49.640625q-7.2187576 6.75 -17.015633 9.984375l0 -11.953125q5.15625 -1.6875 11.203125 -6.390625q6.0468826 -4.71875 8.296883 -11.0l10.6875 0l0 69.0zm19.875 -17.671875l13.125 -1.359375q0.5625 4.453125 3.328125 7.0625q2.765625 2.59375 6.375 2.59375q4.125 0 6.984375 -3.34375q2.859375 -3.359375 2.859375 -10.109375q0 -6.328125 -2.84375 -9.484375q-2.828125 -3.171875 -7.375 -3.171875q-5.671875 0 -10.171875 5.015625l-10.6875 -1.546875l6.75 -35.765625l34.828125 0l0 12.328125l-24.84375 0l-2.0625 11.671875q4.40625 -2.203125 9.0 -2.203125q8.765625 0 14.859375 6.375q6.09375 6.375 6.09375 16.546875q0 8.484375 -4.921875 15.140625q-6.703125 9.09375 -18.609375 9.09375q-9.515625 0 -15.515625 -5.109375q-6.0 -5.109375 -7.171875 -13.734375z" fill-rule="nonzero"/><path fill="#000000" fill-opacity="0.0" d="m19.33071 165.0l64.779526 -129.55899l161.77954 0l64.77951 129.55899l-64.77951 129.55899l-161.77954 0z" fill-rule="evenodd"/><path stroke="#4c4c94" stroke-width="4.0" stroke-linejoin="round" stroke-linecap="butt" d="m19.33071 165.0l64.779526 -129.55899l161.77954 0l64.77951 129.55899l-64.77951 129.55899l-161.77954 0z" fill-rule="evenodd"/></g></svg>