<svg version="1.1" viewBox="0.0 0.0 330.0 330.0" fill="none" stroke="none" stroke-linecap="square" stroke-miterlimit="10" xmlns:xlink="http://www.w3.org/1999/xlink" xmlns="http://www.w3.org/2000/svg"><clipPath id="p.0"><path d="m0 0l330.0 0l0 330.0l-330.0 0l0 -330.0z" clip-rule="nonzero"/></clipPath><g clip-path="url(#p.0)"><path fill="#000000" fill-opacity="0.0" d="m0 0l330.0 0l0 330.0l-330.0 0z" fill-rule="evenodd"/><path fill="#000000" fill-opacity="0.0" d="m41.692913 165.0l55.47244 -110.94483l135.66928 0l55.472458 110.94483l-55.472458 110.944824l-135.66928 0z" fill-rule="evenodd"/><path stroke="#4c4c94" stroke-width="16.0" stroke-linejoin="round" stroke-linecap="butt" d="m41.692913 165.0l55.47244 -110.94483l135.66928 0l55.472458 110.94483l-55.472458 110.944824l-135.66928 0z" fill-rule="evenodd"/><path fill="#000000" fill-opacity="0.0" d="m119.09449 43.78478l91.81103 0l0 143.81102l-91.81103 0z" fill-rule="evenodd"/><path fill="#000000" d="m201.82886 151.34477l-16.140625 0l-6.421875 -16.6875l-29.375 0l-6.0625 16.6875l-15.734375 0l28.625 -73.484375l15.6875 0l29.421875 73.484375zm-27.3125 -29.078125l-10.125 -27.265625l-9.9375 27.265625l20.0625 0z" fill-rule="nonzero"/><path fill="#000000" fill-opacity="0.0" d="m100.1811 140.19685l129.63779 0l0 135.74803l-129.63779 0z" fill-rule="evenodd"/><path fill="#000000" d="m112.790474 223.12247l12.75 -1.546875q0.609375 4.875 3.2812576 7.453125q2.671875 2.578125 6.46875 2.578125q4.078125 0 6.859375 -3.09375q2.796875 -3.09375 2.796875 -8.34375q0 -4.96875 -2.671875 -7.875q-2.671875 -2.90625 -6.515625 -2.90625q-2.53125 0 -6.046875 0.984375l1.453125 -10.734375q5.34375 0.140625 8.15625 -2.3125q2.8125 -2.46875 2.8125 -6.546875q0 -3.46875 -2.0625 -5.53125q-2.0625 -2.0625 -5.484375 -2.0625q-3.375 0 -5.765625 2.34375q-2.3906326 2.34375 -2.9062576 6.84375l-12.140625 -2.0625q1.265625 -6.234375 3.8125 -9.953125q2.5625 -3.734375 7.125 -5.859375q4.5781326 -2.140625 10.250008 -2.140625q9.703125 0 15.5625 6.1875q4.828125 5.0625 4.828125 11.4375q0 9.046875 -9.890625 14.4375q5.90625 1.265625 9.4375 5.671875q3.546875 4.40625 3.546875 10.640625q0 9.046875 -6.609375 15.421875q-6.609375 6.375 -16.453125 6.375q-9.328133 0 -15.468758 -5.359375q-6.140625 -5.375 -7.125 -14.046875zm54.046883 0.5625l13.125 -1.359375q0.5625 4.453125 3.328125 7.0625q2.765625 2.59375 6.375 2.59375q4.125 0 6.984375 -3.34375q2.859375 -3.359375 2.859375 -10.109375q0 -6.328125 -2.84375 -9.484375q-2.828125 -3.171875 -7.375 -3.171875q-5.671875 0 -10.171875 5.015625l-10.6875 -1.546875l6.75 -35.765625l34.828125 0l0 12.328125l-24.84375 0l-2.0625 11.671875q4.40625 -2.203125 9.0 -2.203125q8.765625 0 14.859375 6.375q6.09375 6.375 6.09375 16.546875q0 8.484375 -4.921875 15.140625q-6.703125 9.09375 -18.609375 9.09375q-9.515625 0 -15.515625 -5.109375q-6.0 -5.109375 -7.171875 -13.734375z" fill-rule="nonzero"/><path fill="#000000" fill-opacity="0.0" d="m19.33071 165.0l64.779526 -129.55899l161.77954 0l64.77951 129.55899l-64.77951 129.55899l-161.77954 0z" fill-rule="evenodd"/><path stroke="#4c4c94" stroke-width="4.0" stroke-linejoin="round" stroke-linecap="butt" d="m19.33071 165.0l64.779526 -129.55899l161.77954 0l64.77951 129.55899l-64.77951 129.55899l-161.77954 0z" fill-rule="evenodd"/></g></svg>