<svg version="1.1" viewBox="0.0 0.0 330.0 330.0" fill="none" stroke="none" stroke-linecap="square" stroke-miterlimit="10" xmlns:xlink="http://www.w3.org/1999/xlink" xmlns="http://www.w3.org/2000/svg"><clipPath id="p.0"><path d="m0 0l330.0 0l0 330.0l-330.0 0l0 -330.0z" clip-rule="nonzero"/></clipPath><g clip-path="url(#p.0)"><path fill="#000000" fill-opacity="0.0" d="m0 0l330.0 0l0 330.0l-330.0 0z" fill-rule="evenodd"/><path fill="#000000" fill-opacity="0.0" d="m41.692913 165.0l55.47244 -110.94483l135.66928 0l55.472458 110.94483l-55.472458 110.944824l-135.66928 0z" fill-rule="evenodd"/><path stroke="#ff0000" stroke-width="16.0" stroke-linejoin="round" stroke-linecap="butt" d="m41.692913 165.0l55.47244 -110.94483l135.66928 0l55.472458 110.94483l-55.472458 110.944824l-135.66928 0z" fill-rule="evenodd"/><path fill="#000000" fill-opacity="0.0" d="m119.09449 43.78478l91.81103 0l0 143.81102l-91.81103 0z" fill-rule="evenodd"/><path fill="#000000" d="m154.8601 151.34477l0 -30.921875l-26.921867 -42.5625l17.406242 0l17.28125 29.078125l16.953125 -29.078125l17.09375 0l-27.03125 42.65625l0 30.828125l-14.78125 0z" fill-rule="nonzero"/><path fill="#000000" fill-opacity="0.0" d="m100.1811 140.19685l129.63779 0l0 135.74803l-129.63779 0z" fill-rule="evenodd"/><path fill="#000000" d="m146.96236 241.35684l-13.171875 0l0 -49.640625q-7.2187576 6.75 -17.015633 9.984375l0 -11.953125q5.15625 -1.6875 11.203125 -6.390625q6.0468826 -4.71875 8.296883 -11.0l10.6875 0l0 69.0zm19.96875 -15.890625l12.75 -1.40625q0.46875 3.890625 2.4375 5.765625q1.96875 1.875 5.203125 1.875q4.078125 0 6.9375 -3.75q2.859375 -3.75 3.65625 -15.5625q-4.96875 5.765625 -12.421875 5.765625q-8.109375 0 -14.0 -6.25q-5.875 -6.265625 -5.875 -16.296875q0 -10.453125 6.203125 -16.84375q6.21875 -6.40625 15.828125 -6.40625q10.453125 0 17.15625 8.09375q6.703125 8.078125 6.703125 26.59375q0 18.84375 -6.984375 27.1875q-6.984375 8.34375 -18.1875 8.34375q-8.0625 0 -13.03125 -4.28125q-4.96875 -4.296875 -6.375 -12.828125zm29.8125 -28.78125q0 -6.375 -2.9375 -9.890625q-2.921875 -3.515625 -6.765625 -3.515625q-3.65625 0 -6.078125 2.890625q-2.40625 2.875 -2.40625 9.4375q0 6.65625 2.625 9.78125q2.625 3.109375 6.5625 3.109375q3.796875 0 6.390625 -3.0q2.609375 -3.0 2.609375 -8.8125z" fill-rule="nonzero"/></g></svg>