<svg version="1.1" viewBox="0.0 0.0 330.0 330.0" fill="none" stroke="none" stroke-linecap="square" stroke-miterlimit="10" xmlns:xlink="http://www.w3.org/1999/xlink" xmlns="http://www.w3.org/2000/svg"><clipPath id="p.0"><path d="m0 0l330.0 0l0 330.0l-330.0 0l0 -330.0z" clip-rule="nonzero"/></clipPath><g clip-path="url(#p.0)"><path fill="#000000" fill-opacity="0.0" d="m0 0l330.0 0l0 330.0l-330.0 0z" fill-rule="evenodd"/><path fill="#000000" fill-opacity="0.0" d="m41.692913 165.0l55.47244 -110.94483l135.66928 0l55.472458 110.94483l-55.472458 110.944824l-135.66928 0z" fill-rule="evenodd"/><path stroke="#ffa500" stroke-width="16.0" stroke-linejoin="round" stroke-linecap="butt" d="m41.692913 165.0l55.47244 -110.94483l135.66928 0l55.472458 110.94483l-55.472458 110.944824l-135.66928 0z" fill-rule="evenodd"/><path fill="#000000" fill-opacity="0.0" d="m119.09449 43.78478l91.81103 0l0 143.81102l-91.81103 0z" fill-rule="evenodd"/><path fill="#000000" d="m131.7976 127.43852l14.4375 -1.40625q1.3125 7.265625 5.296875 10.671875q3.984375 3.40625 10.75 3.40625q7.171875 0 10.796875 -3.03125q3.640625 -3.03125 3.640625 -7.09375q0 -2.59375 -1.53125 -4.421875q-1.53125 -1.84375 -5.34375 -3.1875q-2.609375 -0.90625 -11.875 -3.21875q-11.9375 -2.953125 -16.75 -7.265625q-6.765625 -6.0625 -6.765625 -14.78125q0 -5.609375 3.1875 -10.5q3.1875 -4.890625 9.171875 -7.4375q6.0 -2.5625 14.46875 -2.5625q13.828125 0 20.8125 6.0625q7.0 6.0625 7.359375 16.1875l-14.84375 0.65625q-0.953125 -5.671875 -4.09375 -8.140625q-3.125 -2.484375 -9.390625 -2.484375q-6.46875 0 -10.125 2.65625q-2.359375 1.703125 -2.359375 4.5625q0 2.609375 2.203125 4.453125q2.8125 2.359375 13.640625 4.921875q10.828125 2.546875 16.015625 5.28125q5.1875 2.734375 8.109375 7.46875q2.9375 4.734375 2.9375 11.703125q0 6.3125 -3.515625 11.828125q-3.5 5.515625 -9.921875 8.203125q-6.40625 2.671875 -15.984375 2.671875q-13.9375 0 -21.40625 -6.4375q-7.46875 -6.4375 -8.921875 -18.765625z" fill-rule="nonzero"/><path fill="#000000" fill-opacity="0.0" d="m100.1811 140.19685l129.63779 0l0 135.74803l-129.63779 0z" fill-rule="evenodd"/><path fill="#000000" d="m146.96236 241.35684l-13.171875 0l0 -49.640625q-7.2187576 6.75 -17.015633 9.984375l0 -11.953125q5.15625 -1.6875 11.203125 -6.390625q6.0468826 -4.71875 8.296883 -11.0l10.6875 0l0 69.0zm30.984375 -37.078125q-5.109375 -2.15625 -7.4375 -5.921875q-2.3125 -3.78125 -2.3125 -8.28125q0 -7.6875 5.359375 -12.703125q5.375 -5.015625 15.265625 -5.015625q9.796875 0 15.203125 5.015625q5.421875 5.015625 5.421875 12.703125q0 4.78125 -2.484375 8.515625q-2.484375 3.71875 -6.984375 5.6875q5.71875 2.296875 8.6875 6.703125q2.984375 4.40625 2.984375 10.171875q0 9.515625 -6.078125 15.46875q-6.0625 5.953125 -16.140625 5.953125q-9.375 0 -15.609375 -4.921875q-7.359375 -5.8125 -7.359375 -15.9375q0 -5.578125 2.765625 -10.234375q2.765625 -4.671875 8.71875 -7.203125zm2.71875 -13.265625q0 3.9375 2.21875 6.140625q2.234375 2.203125 5.9375 2.203125q3.75 0 6.0 -2.21875q2.25 -2.234375 2.25 -6.171875q0 -3.703125 -2.234375 -5.921875q-2.21875 -2.234375 -5.875 -2.234375q-3.796875 0 -6.046875 2.25q-2.25 2.25 -2.25 5.953125zm-1.21875 29.4375q0 5.4375 2.78125 8.484375q2.796875 3.046875 6.96875 3.046875q4.078125 0 6.75 -2.921875q2.671875 -2.9375 2.671875 -8.46875q0 -4.828125 -2.71875 -7.75q-2.71875 -2.9375 -6.890625 -2.9375q-4.828125 0 -7.203125 3.328125q-2.359375 3.328125 -2.359375 7.21875z" fill-rule="nonzero"/></g></svg>