<svg version="1.1" viewBox="0.0 0.0 330.0 330.0" fill="none" stroke="none" stroke-linecap="square" stroke-miterlimit="10" xmlns:xlink="http://www.w3.org/1999/xlink" xmlns="http://www.w3.org/2000/svg"><clipPath id="p.0"><path d="m0 0l330.0 0l0 330.0l-330.0 0l0 -330.0z" clip-rule="nonzero"/></clipPath><g clip-path="url(#p.0)"><path fill="#000000" fill-opacity="0.0" d="m0 0l330.0 0l0 330.0l-330.0 0z" fill-rule="evenodd"/><path fill="#000000" fill-opacity="0.0" d="m41.692913 165.0l55.47244 -110.94483l135.66928 0l55.472458 110.94483l-55.472458 110.944824l-135.66928 0z" fill-rule="evenodd"/><path stroke="#ff0000" stroke-width="16.0" stroke-linejoin="round" stroke-linecap="butt" d="m41.692913 165.0l55.47244 -110.94483l135.66928 0l55.472458 110.94483l-55.472458 110.944824l-135.66928 0z" fill-rule="evenodd"/><path fill="#000000" fill-opacity="0.0" d="m119.09449 43.78478l91.81103 0l0 143.81102l-91.81103 0z" fill-rule="evenodd"/><path fill="#000000" d="m154.8601 151.34477l0 -30.921875l-26.921867 -42.5625l17.406242 0l17.28125 29.078125l16.953125 -29.078125l17.09375 0l-27.03125 42.65625l0 30.828125l-14.78125 0z" fill-rule="nonzero"/><path fill="#000000" fill-opacity="0.0" d="m100.1811 140.19685l129.63779 0l0 135.74803l-129.63779 0z" fill-rule="evenodd"/><path fill="#000000" d="m146.96236 241.35684l-13.171875 0l0 -49.640625q-7.2187576 6.75 -17.015633 9.984375l0 -11.953125q5.15625 -1.6875 11.203125 -6.390625q6.0468826 -4.71875 8.296883 -11.0l10.6875 0l0 69.0zm45.515625 0l0 -13.828125l-28.125 0l0 -11.53125l29.8125 -43.640625l11.0625 0l0 43.59375l8.53125 0l0 11.578125l-8.53125 0l0 13.828125l-12.75 0zm0 -25.40625l0 -23.484375l-15.796875 23.484375l15.796875 0z" fill-rule="nonzero"/><path fill="#000000" fill-opacity="0.0" d="m16.467192 165.0l64.779526 -129.55899l161.77953 0l64.77954 129.55899l-64.77954 129.55899l-161.77953 0z" fill-rule="evenodd"/><path stroke="#ff0000" stroke-width="4.0" stroke-linejoin="round" stroke-linecap="butt" d="m16.467192 165.0l64.779526 -129.55899l161.77953 0l64.77954 129.55899l-64.77954 129.55899l-161.77953 0z" fill-rule="evenodd"/></g></svg>