<svg version="1.1" viewBox="0.0 0.0 330.0 330.0" fill="none" stroke="none" stroke-linecap="square" stroke-miterlimit="10" xmlns:xlink="http://www.w3.org/1999/xlink" xmlns="http://www.w3.org/2000/svg"><clipPath id="p.0"><path d="m0 0l330.0 0l0 330.0l-330.0 0l0 -330.0z" clip-rule="nonzero"/></clipPath><g clip-path="url(#p.0)"><path fill="#000000" fill-opacity="0.0" d="m0 0l330.0 0l0 330.0l-330.0 0z" fill-rule="evenodd"/><path fill="#000000" fill-opacity="0.0" d="m41.692913 165.0l55.47244 -110.94483l135.66928 0l55.472458 110.94483l-55.472458 110.944824l-135.66928 0z" fill-rule="evenodd"/><path stroke="#ffa500" stroke-width="16.0" stroke-linejoin="round" stroke-linecap="butt" d="m41.692913 165.0l55.47244 -110.94483l135.66928 0l55.472458 110.94483l-55.472458 110.944824l-135.66928 0z" fill-rule="evenodd"/><path fill="#000000" fill-opacity="0.0" d="m119.09449 43.78478l91.81103 0l0 143.81102l-91.81103 0z" fill-rule="evenodd"/><path fill="#000000" d="m131.7976 127.43852l14.4375 -1.40625q1.3125 7.265625 5.296875 10.671875q3.984375 3.40625 10.75 3.40625q7.171875 0 10.796875 -3.03125q3.640625 -3.03125 3.640625 -7.09375q0 -2.59375 -1.53125 -4.421875q-1.53125 -1.84375 -5.34375 -3.1875q-2.609375 -0.90625 -11.875 -3.21875q-11.9375 -2.953125 -16.75 -7.265625q-6.765625 -6.0625 -6.765625 -14.78125q0 -5.609375 3.1875 -10.5q3.1875 -4.890625 9.171875 -7.4375q6.0 -2.5625 14.46875 -2.5625q13.828125 0 20.8125 6.0625q7.0 6.0625 7.359375 16.1875l-14.84375 0.65625q-0.953125 -5.671875 -4.09375 -8.140625q-3.125 -2.484375 -9.390625 -2.484375q-6.46875 0 -10.125 2.65625q-2.359375 1.703125 -2.359375 4.5625q0 2.609375 2.203125 4.453125q2.8125 2.359375 13.640625 4.921875q10.828125 2.546875 16.015625 5.28125q5.1875 2.734375 8.109375 7.46875q2.9375 4.734375 2.9375 11.703125q0 6.3125 -3.515625 11.828125q-3.5 5.515625 -9.921875 8.203125q-6.40625 2.671875 -15.984375 2.671875q-13.9375 0 -21.40625 -6.4375q-7.46875 -6.4375 -8.921875 -18.765625z" fill-rule="nonzero"/><path fill="#000000" fill-opacity="0.0" d="m100.1811 140.19685l129.63779 0l0 135.74803l-129.63779 0z" fill-rule="evenodd"/><path fill="#000000" d="m146.96236 241.35684l-13.171875 0l0 -49.640625q-7.2187576 6.75 -17.015633 9.984375l0 -11.953125q5.15625 -1.6875 11.203125 -6.390625q6.0468826 -4.71875 8.296883 -11.0l10.6875 0l0 69.0zm19.21875 -18.234375l12.75 -1.546875q0.609375 4.875 3.28125 7.453125q2.671875 2.578125 6.46875 2.578125q4.078125 0 6.859375 -3.09375q2.796875 -3.09375 2.796875 -8.34375q0 -4.96875 -2.671875 -7.875q-2.671875 -2.90625 -6.515625 -2.90625q-2.53125 0 -6.046875 0.984375l1.453125 -10.734375q5.34375 0.140625 8.15625 -2.3125q2.8125 -2.46875 2.8125 -6.546875q0 -3.46875 -2.0625 -5.53125q-2.0625 -2.0625 -5.484375 -2.0625q-3.375 0 -5.765625 2.34375q-2.390625 2.34375 -2.90625 6.84375l-12.140625 -2.0625q1.265625 -6.234375 3.8125 -9.953125q2.5625 -3.734375 7.125 -5.859375q4.578125 -2.140625 10.25 -2.140625q9.703125 0 15.5625 6.1875q4.828125 5.0625 4.828125 11.4375q0 9.046875 -9.890625 14.4375q5.90625 1.265625 9.4375 5.671875q3.546875 4.40625 3.546875 10.640625q0 9.046875 -6.609375 15.421875q-6.609375 6.375 -16.453125 6.375q-9.328125 0 -15.46875 -5.359375q-6.140625 -5.375 -7.125 -14.046875z" fill-rule="nonzero"/><path fill="#000000" fill-opacity="0.0" d="m84.11024 35.441006l161.79529 0" fill-rule="evenodd"/><path stroke="#ffa500" stroke-width="4.0" stroke-linejoin="round" stroke-linecap="butt" d="m84.11024 35.441006l161.79529 0" fill-rule="evenodd"/></g></svg>