<svg version="1.1" viewBox="0.0 0.0 330.0 330.0" fill="none" stroke="none" stroke-linecap="square" stroke-miterlimit="10" xmlns:xlink="http://www.w3.org/1999/xlink" xmlns="http://www.w3.org/2000/svg"><clipPath id="p.0"><path d="m0 0l330.0 0l0 330.0l-330.0 0l0 -330.0z" clip-rule="nonzero"/></clipPath><g clip-path="url(#p.0)"><path fill="#000000" fill-opacity="0.0" d="m0 0l330.0 0l0 330.0l-330.0 0z" fill-rule="evenodd"/><path fill="#000000" fill-opacity="0.0" d="m41.692913 165.0l55.47244 -110.94483l135.66928 0l55.472458 110.94483l-55.472458 110.944824l-135.66928 0z" fill-rule="evenodd"/><path stroke="#ff0000" stroke-width="16.0" stroke-linejoin="round" stroke-linecap="butt" d="m41.692913 165.0l55.47244 -110.94483l135.66928 0l55.472458 110.94483l-55.472458 110.944824l-135.66928 0z" fill-rule="evenodd"/><path fill="#000000" fill-opacity="0.0" d="m119.09449 43.78478l91.81103 0l0 143.81102l-91.81103 0z" fill-rule="evenodd"/><path fill="#000000" d="m154.8601 151.34477l0 -30.921875l-26.921867 -42.5625l17.406242 0l17.28125 29.078125l16.953125 -29.078125l17.09375 0l-27.03125 42.65625l0 30.828125l-14.78125 0z" fill-rule="nonzero"/><path fill="#000000" fill-opacity="0.0" d="m100.1811 140.19685l129.63779 0l0 135.74803l-129.63779 0z" fill-rule="evenodd"/><path fill="#000000" d="m146.96236 241.35684l-13.171875 0l0 -49.640625q-7.2187576 6.75 -17.015633 9.984375l0 -11.953125q5.15625 -1.6875 11.203125 -6.390625q6.0468826 -4.71875 8.296883 -11.0l10.6875 0l0 69.0zm64.171875 -12.234375l0 12.234375l-46.171875 0q0.75 -6.9375 4.5 -13.140625q3.75 -6.21875 14.8125 -16.484375q8.90625 -8.296875 10.921875 -11.25q2.71875 -4.078125 2.71875 -8.0625q0 -4.40625 -2.375 -6.765625q-2.359375 -2.375 -6.53125 -2.375q-4.125 0 -6.5625 2.484375q-2.4375 2.484375 -2.8125 8.25l-13.125 -1.3125q1.171875 -10.875 7.359375 -15.609375q6.1875 -4.734375 15.46875 -4.734375q10.171875 0 15.984375 5.484375q5.8125 5.484375 5.8125 13.640625q0 4.640625 -1.671875 8.84375q-1.65625 4.1875 -5.265625 8.78125q-2.390625 3.046875 -8.625 8.765625q-6.234375 5.71875 -7.90625 7.59375q-1.65625 1.875 -2.6875 3.65625l26.15625 0z" fill-rule="nonzero"/></g></svg>