<svg version="1.1" viewBox="0.0 0.0 330.0 330.0" fill="none" stroke="none" stroke-linecap="square" stroke-miterlimit="10" xmlns:xlink="http://www.w3.org/1999/xlink" xmlns="http://www.w3.org/2000/svg"><clipPath id="p.0"><path d="m0 0l330.0 0l0 330.0l-330.0 0l0 -330.0z" clip-rule="nonzero"/></clipPath><g clip-path="url(#p.0)"><path fill="#000000" fill-opacity="0.0" d="m0 0l330.0 0l0 330.0l-330.0 0z" fill-rule="evenodd"/><path fill="#000000" fill-opacity="0.0" d="m41.692913 165.0l55.47244 -110.94483l135.66928 0l55.472458 110.94483l-55.472458 110.944824l-135.66928 0z" fill-rule="evenodd"/><path stroke="#ad00ad" stroke-width="16.0" stroke-linejoin="round" stroke-linecap="butt" d="m41.692913 165.0l55.47244 -110.94483l135.66928 0l55.472458 110.94483l-55.472458 110.944824l-135.66928 0z" fill-rule="evenodd"/><path fill="#000000" fill-opacity="0.0" d="m119.09449 43.78478l91.81103 0l0 143.81102l-91.81103 0z" fill-rule="evenodd"/><path fill="#000000" d="m135.65698 151.34477l0 -73.484375l50.375 0l0 12.4375l-35.53125 0l0 17.390625l30.671875 0l0 12.421875l-30.671875 0l0 31.234375l-14.84375 0z" fill-rule="nonzero"/><path fill="#000000" fill-opacity="0.0" d="m100.1811 140.19685l129.63779 0l0 135.74803l-129.63779 0z" fill-rule="evenodd"/><path fill="#000000" d="m146.96236 241.35684l-13.171875 0l0 -49.640625q-7.2187576 6.75 -17.015633 9.984375l0 -11.953125q5.15625 -1.6875 11.203125 -6.390625q6.0468826 -4.71875 8.296883 -11.0l10.6875 0l0 69.0zm48.09375 0l-13.171875 0l0 -49.640625q-7.21875 6.75 -17.015625 9.984375l0 -11.953125q5.15625 -1.6875 11.203125 -6.390625q6.046875 -4.71875 8.296875 -11.0l10.6875 0l0 69.0z" fill-rule="nonzero"/></g></svg>