<svg version="1.1" viewBox="0.0 0.0 330.0 330.0" fill="none" stroke="none" stroke-linecap="square" stroke-miterlimit="10" xmlns:xlink="http://www.w3.org/1999/xlink" xmlns="http://www.w3.org/2000/svg"><clipPath id="p.0"><path d="m0 0l330.0 0l0 330.0l-330.0 0l0 -330.0z" clip-rule="nonzero"/></clipPath><g clip-path="url(#p.0)"><path fill="#000000" fill-opacity="0.0" d="m0 0l330.0 0l0 330.0l-330.0 0z" fill-rule="evenodd"/><path fill="#000000" fill-opacity="0.0" d="m41.692913 165.0l55.47244 -110.94483l135.66928 0l55.472458 110.94483l-55.472458 110.944824l-135.66928 0z" fill-rule="evenodd"/><path stroke="#ff0000" stroke-width="16.0" stroke-linejoin="round" stroke-linecap="butt" d="m41.692913 165.0l55.47244 -110.94483l135.66928 0l55.472458 110.94483l-55.472458 110.944824l-135.66928 0z" fill-rule="evenodd"/><path fill="#000000" fill-opacity="0.0" d="m119.09449 43.78478l91.81103 0l0 143.81102l-91.81103 0z" fill-rule="evenodd"/><path fill="#000000" d="m154.8601 151.34477l0 -30.921875l-26.921867 -42.5625l17.406242 0l17.28125 29.078125l16.953125 -29.078125l17.09375 0l-27.03125 42.65625l0 30.828125l-14.78125 0z" fill-rule="nonzero"/><path fill="#000000" fill-opacity="0.0" d="m100.1811 140.19685l129.63779 0l0 135.74803l-129.63779 0z" fill-rule="evenodd"/><path fill="#000000" d="m135.52486 172.35684q9.984375 0 15.609375 7.125q6.703125 8.4375 6.703125 27.984375q0 19.5 -6.75 28.03125q-5.578125 7.03125 -15.5625 7.03125q-10.031258 0 -16.171883 -7.703125q-6.140625 -7.71875 -6.140625 -27.5q0 -19.40625 6.75 -27.9375q5.578125 -7.03125 15.562508 -7.03125zm0 10.921875q-2.390625 0 -4.265625 1.53125q-1.875 1.515625 -2.90625 5.453125q-1.3593826 5.109375 -1.3593826 17.203125q0 12.09375 1.2187576 16.625q1.21875 4.515625 3.0625 6.015625q1.859375 1.5 4.25 1.5q2.390625 0 4.265625 -1.515625q1.875 -1.53125 2.90625 -5.46875q1.359375 -5.0625 1.359375 -17.15625q0 -12.09375 -1.21875 -16.609375q-1.21875 -4.53125 -3.078125 -6.046875q-1.84375 -1.53125 -4.234375 -1.53125zm30.65625 39.84375l12.75 -1.546875q0.609375 4.875 3.28125 7.453125q2.671875 2.578125 6.46875 2.578125q4.078125 0 6.859375 -3.09375q2.796875 -3.09375 2.796875 -8.34375q0 -4.96875 -2.671875 -7.875q-2.671875 -2.90625 -6.515625 -2.90625q-2.53125 0 -6.046875 0.984375l1.453125 -10.734375q5.34375 0.140625 8.15625 -2.3125q2.8125 -2.46875 2.8125 -6.546875q0 -3.46875 -2.0625 -5.53125q-2.0625 -2.0625 -5.484375 -2.0625q-3.375 0 -5.765625 2.34375q-2.390625 2.34375 -2.90625 6.84375l-12.140625 -2.0625q1.265625 -6.234375 3.8125 -9.953125q2.5625 -3.734375 7.125 -5.859375q4.578125 -2.140625 10.25 -2.140625q9.703125 0 15.5625 6.1875q4.828125 5.0625 4.828125 11.4375q0 9.046875 -9.890625 14.4375q5.90625 1.265625 9.4375 5.671875q3.546875 4.40625 3.546875 10.640625q0 9.046875 -6.609375 15.421875q-6.609375 6.375 -16.453125 6.375q-9.328125 0 -15.46875 -5.359375q-6.140625 -5.375 -7.125 -14.046875z" fill-rule="nonzero"/><path fill="#000000" fill-opacity="0.0" d="m84.11024 35.441006l161.79529 0" fill-rule="evenodd"/><path stroke="#ff0000" stroke-width="4.0" stroke-linejoin="round" stroke-linecap="butt" d="m84.11024 35.441006l161.79529 0" fill-rule="evenodd"/></g></svg>