<svg version="1.1" viewBox="0.0 0.0 330.0 330.0" fill="none" stroke="none" stroke-linecap="square" stroke-miterlimit="10" xmlns:xlink="http://www.w3.org/1999/xlink" xmlns="http://www.w3.org/2000/svg"><clipPath id="p.0"><path d="m0 0l330.0 0l0 330.0l-330.0 0l0 -330.0z" clip-rule="nonzero"/></clipPath><g clip-path="url(#p.0)"><path fill="#000000" fill-opacity="0.0" d="m0 0l330.0 0l0 330.0l-330.0 0z" fill-rule="evenodd"/><path fill="#000000" fill-opacity="0.0" d="m41.692913 165.0l55.47244 -110.94483l135.66928 0l55.472458 110.94483l-55.472458 110.944824l-135.66928 0z" fill-rule="evenodd"/><path stroke="#ad00ad" stroke-width="16.0" stroke-linejoin="round" stroke-linecap="butt" d="m41.692913 165.0l55.47244 -110.94483l135.66928 0l55.472458 110.94483l-55.472458 110.944824l-135.66928 0z" fill-rule="evenodd"/><path fill="#000000" fill-opacity="0.0" d="m119.09449 43.78478l91.81103 0l0 143.81102l-91.81103 0z" fill-rule="evenodd"/><path fill="#000000" d="m135.65698 151.34477l0 -73.484375l50.375 0l0 12.4375l-35.53125 0l0 17.390625l30.671875 0l0 12.421875l-30.671875 0l0 31.234375l-14.84375 0z" fill-rule="nonzero"/><path fill="#000000" fill-opacity="0.0" d="m100.1811 140.19685l129.63779 0l0 135.74803l-129.63779 0z" fill-rule="evenodd"/><path fill="#000000" d="m135.52486 172.35684q9.984375 0 15.609375 7.125q6.703125 8.4375 6.703125 27.984375q0 19.5 -6.75 28.03125q-5.578125 7.03125 -15.5625 7.03125q-10.031258 0 -16.171883 -7.703125q-6.140625 -7.71875 -6.140625 -27.5q0 -19.40625 6.75 -27.9375q5.578125 -7.03125 15.562508 -7.03125zm0 10.921875q-2.390625 0 -4.265625 1.53125q-1.875 1.515625 -2.90625 5.453125q-1.3593826 5.109375 -1.3593826 17.203125q0 12.09375 1.2187576 16.625q1.21875 4.515625 3.0625 6.015625q1.859375 1.5 4.25 1.5q2.390625 0 4.265625 -1.515625q1.875 -1.53125 2.90625 -5.46875q1.359375 -5.0625 1.359375 -17.15625q0 -12.09375 -1.21875 -16.609375q-1.21875 -4.53125 -3.078125 -6.046875q-1.84375 -1.53125 -4.234375 -1.53125zm31.125 2.53125l0 -12.234375l45.046875 0l0 9.5625q-5.578125 5.484375 -11.34375 15.75q-5.765625 10.265625 -8.796875 21.828125q-3.015625 11.546875 -2.96875 20.640625l-12.703125 0q0.328125 -14.25 5.875 -29.0625q5.5625 -14.8125 14.84375 -26.484375l-29.953125 0z" fill-rule="nonzero"/></g></svg>