<svg height="714.0043640841661" version="1.1" width="686.0000000000082" xmlns="http://www.w3.org/2000/svg" id="svgSvg" viewBox="-75.4 0 754.6000000000091 785.4048004925828" style="width: 1366px; height: 1421.78px;"><desc>Created with Snap</desc><defs><marker viewBox="0 0 10 10" markerWidth="10" markerHeight="10" orient="auto" refX="5" refY="5" id="markerSlc0mt7o58a" markerUnits="strokeWidth"><path d="M2,5 C0,2 0,2 4.33,3.6  C8.2,4.9 8.2,5.1 4.33,6.4 C0,8 0,8 2,5 z" fill="#bb2ebd" style=""/></marker></defs><path d="M8,5 C10,2 10,2 5.67,3.6  C1.8,4.9 1.8,5.1 5.67,6.4 C10,8 10,8 8,5 z" fill="#ffffff" style=""/><path d="M2,5 C0,2 0,2 4.33,3.6  C8.2,4.9 8.2,5.1 4.33,6.4 C0,8 0,8 2,5 z" fill="#ffffff" style=""/><polyline points="568.0000000000041,343.0025615276627,586.0000000000082,316.002276913478,586.0000000000082,289.0019922992932,568.0000000000041,262.0017076851085,568.0000000000041,235.00142307092375,568.0000000000041,208.00113845673897,568.0000000000041,181.00085384255425" fill="none" stroke="#ffffff" style="stroke-opacity: 0; stroke-width: 0; stroke-linecap: round; stroke-linejoin: round; marker-start: none; marker-end: none;"/><path d="M8,5 C10,2 10,2 5.67,3.6  C1.8,4.9 1.8,5.1 5.67,6.4 C10,8 10,8 8,5 z" fill="#ffffff" style=""/><path d="M2,5 C0,2 0,2 4.33,3.6  C8.2,4.9 8.2,5.1 4.33,6.4 C0,8 0,8 2,5 z" fill="#ffffff" style=""/><polyline points="154.00000000001228,496.00417434137626,181.00000000000819,496.00417434137626,208.0000000000041,460.0037948557966,235,460.0037948557966,262.00000000001637,478.0039845985865,289.0000000000123,460.0037948557966,316.0000000000082,460.0037948557966,343.0000000000041,460.0037948557966,370,514.0043640841661,397.00000000001637,406.0032256274271,424.0000000000123,442.0036051130068,451.0000000000082,406.0032256274271,478.0000000000041,424.00341537021694,505,406.0032256274271,532.0000000000164,442.0036051130068,559.0000000000123,406.0032256274271" fill="none" stroke="#ffffff" style="stroke-opacity: 0; stroke-width: 0; stroke-linecap: round; stroke-linejoin: round; marker-start: none; marker-end: none;"/><path d="M8,5 C10,2 10,2 5.67,3.6  C1.8,4.9 1.8,5.1 5.67,6.4 C10,8 10,8 8,5 z" fill="#ffffff" style=""/><path d="M2,5 C0,2 0,2 4.33,3.6  C8.2,4.9 8.2,5.1 4.33,6.4 C0,8 0,8 2,5 z" fill="#ffffff" style=""/><polyline points="280,208.00113845673897,280,235.00142307092375,262.00000000001637,262.0017076851085,262.00000000001637,289.0019922992932,280,316.002276913478,262.00000000001637,343.0025615276627,280,370.0028461418475" fill="none" stroke="#ffffff" style="stroke-opacity: 0; stroke-width: 0; stroke-linecap: round; stroke-linejoin: round; marker-start: none; marker-end: none;"/><path d="M8,5 C10,2 10,2 5.67,3.6  C1.8,4.9 1.8,5.1 5.67,6.4 C10,8 10,8 8,5 z" fill="#ffffff" style=""/><path d="M2,5 C0,2 0,2 4.33,3.6  C8.2,4.9 8.2,5.1 4.33,6.4 C0,8 0,8 2,5 z" fill="#ffffff" style=""/><polyline points="352.00000000001637,109.00009487139488,352.00000000001637,145.00047435697456" fill="none" stroke="#ffffff" style="stroke-opacity: 0; stroke-width: 0; stroke-linecap: round; stroke-linejoin: round; marker-start: none; marker-end: none;"/><path d="M8,5 C10,2 10,2 5.67,3.6  C1.8,4.9 1.8,5.1 5.67,6.4 C10,8 10,8 8,5 z" fill="#000000" style=""/><path d="M2,5 C0,2 0,2 4.33,3.6  C8.2,4.9 8.2,5.1 4.33,6.4 C0,8 0,8 2,5 z" fill="#000000" style=""/><polyline points="343.0000000000041,154.00056922836947,271.0000000000082,100" fill="none" stroke="#000000" style="stroke-opacity: 0.9; stroke-width: 6; stroke-linecap: round; stroke-linejoin: round; marker-start: none; marker-end: none;"/><path d="M8,5 C10,2 10,2 5.67,3.6  C1.8,4.9 1.8,5.1 5.67,6.4 C10,8 10,8 8,5 z" fill="#0e670e" style=""/><path d="M2,5 C0,2 0,2 4.33,3.6  C8.2,4.9 8.2,5.1 4.33,6.4 C0,8 0,8 2,5 z" fill="#0e670e" style=""/><polyline points="280,127.00028461418474,271.0000000000082,154.00056922836947,325,154.00056922836947" fill="none" stroke="#0e670e" style="stroke-opacity: 0.9; stroke-width: 6; stroke-linecap: round; stroke-linejoin: round; marker-start: none; marker-end: none;"/><path d="M8,5 C10,2 10,2 5.67,3.6  C1.8,4.9 1.8,5.1 5.67,6.4 C10,8 10,8 8,5 z" fill="#0e670e" style=""/><path d="M2,5 C0,2 0,2 4.33,3.6  C8.2,4.9 8.2,5.1 4.33,6.4 C0,8 0,8 2,5 z" fill="#0e670e" style=""/><polyline points="289.0000000000123,100,343.0000000000041,100,334.0000000000123,127.00028461418474" fill="none" stroke="#0e670e" style="stroke-opacity: 0.9; stroke-width: 6; stroke-linecap: round; stroke-linejoin: round; marker-start: none; marker-end: none;"/><path d="M8,5 C10,2 10,2 5.67,3.6  C1.8,4.9 1.8,5.1 5.67,6.4 C10,8 10,8 8,5 z" fill="#11c561" style=""/><path d="M2,5 C0,2 0,2 4.33,3.6  C8.2,4.9 8.2,5.1 4.33,6.4 C0,8 0,8 2,5 z" fill="#11c561" style=""/><polyline points="532.0000000000164,370.0028461418475,532.0000000000164,343.0025615276627,532.0000000000164,316.002276913478,532.0000000000164,289.0019922992932,532.0000000000164,262.0017076851085,532.0000000000164,235.00142307092375,532.0000000000164,208.00113845673897,532.0000000000164,181.00085384255425" fill="none" stroke="#11c561" style="stroke-opacity: 0.9; stroke-width: 6; stroke-linecap: round; stroke-linejoin: round; marker-start: none; marker-end: none;"/><path d="M8,5 C10,2 10,2 5.67,3.6  C1.8,4.9 1.8,5.1 5.67,6.4 C10,8 10,8 8,5 z" fill="#bb2ebd" style=""/><polyline points="559.0000000000123,370.0028461418475,532.0000000000164,370.0028461418475,505,370.0028461418475,478.0000000000041,370.0028461418475,451.0000000000082,370.0028461418475,424.0000000000123,370.0028461418475,397.00000000001637,370.0028461418475,370,370.0028461418475,343.0000000000041,370.0028461418475,316.0000000000082,370.0028461418475,316.0000000000082,406.0032256274271,289.0000000000123,406.0032256274271,262.00000000001637,406.0032256274271,235,406.0032256274271,208.0000000000041,406.0032256274271,181.00000000000819,406.0032256274271,154.00000000001228,406.0032256274271,100,406.0032256274271" fill="none" stroke="#bb2ebd" style="stroke-opacity: 0.9; stroke-width: 6; stroke-linecap: round; stroke-linejoin: round; marker-start: none; marker-end: url(&quot;#markerSlc0mt7o58a&quot;);"/><path d="M8,5 C10,2 10,2 5.67,3.6  C1.8,4.9 1.8,5.1 5.67,6.4 C10,8 10,8 8,5 z" fill="#000080" style=""/><path d="M2,5 C0,2 0,2 4.33,3.6  C8.2,4.9 8.2,5.1 4.33,6.4 C0,8 0,8 2,5 z" fill="#000080" style=""/><polyline points="316.0000000000082,208.00113845673897,316.0000000000082,235.00142307092375,316.0000000000082,262.0017076851085,316.0000000000082,289.0019922992932,316.0000000000082,316.002276913478,316.0000000000082,343.0025615276627,316.0000000000082,370.0028461418475" fill="none" stroke="#000080" style="stroke-opacity: 0.9; stroke-width: 6; stroke-linecap: round; stroke-linejoin: round; marker-start: none; marker-end: none;"/><circle cx="568.0000000000041" cy="343.0025615276627" r="2" fill="#ffffff" stroke="#ffffff" style="stroke-width: 0; fill-opacity: 0;"/><circle cx="586.0000000000082" cy="316.002276913478" r="2" fill="#ffffff" stroke="#ffffff" style="stroke-width: 0; fill-opacity: 0;"/><circle cx="586.0000000000082" cy="289.0019922992932" r="2" fill="#ffffff" stroke="#ffffff" style="stroke-width: 0; fill-opacity: 0;"/><circle cx="568.0000000000041" cy="262.0017076851085" r="2" fill="#ffffff" stroke="#ffffff" style="stroke-width: 0; fill-opacity: 0;"/><circle cx="568.0000000000041" cy="235.00142307092375" r="2" fill="#ffffff" stroke="#ffffff" style="stroke-width: 0; fill-opacity: 0;"/><circle cx="568.0000000000041" cy="208.00113845673897" r="2" fill="#ffffff" stroke="#ffffff" style="stroke-width: 0; fill-opacity: 0;"/><circle cx="568.0000000000041" cy="181.00085384255425" r="2" fill="#ffffff" stroke="#ffffff" style="stroke-width: 0; fill-opacity: 0;"/><circle cx="154.00000000001228" cy="496.00417434137626" r="2" fill="#ffffff" stroke="#ffffff" style="stroke-width: 0; fill-opacity: 0;"/><circle cx="181.00000000000819" cy="496.00417434137626" r="2" fill="#ffffff" stroke="#ffffff" style="stroke-width: 0; fill-opacity: 0;"/><circle cx="208.0000000000041" cy="460.0037948557966" r="2" fill="#ffffff" stroke="#ffffff" style="stroke-width: 0; fill-opacity: 0;"/><circle cx="235" cy="460.0037948557966" r="2" fill="#ffffff" stroke="#ffffff" style="stroke-width: 0; fill-opacity: 0;"/><circle cx="262.00000000001637" cy="478.0039845985865" r="2" fill="#ffffff" stroke="#ffffff" style="stroke-width: 0; fill-opacity: 0;"/><circle cx="289.0000000000123" cy="460.0037948557966" r="2" fill="#ffffff" stroke="#ffffff" style="stroke-width: 0; fill-opacity: 0;"/><circle cx="316.0000000000082" cy="460.0037948557966" r="2" fill="#ffffff" stroke="#ffffff" style="stroke-width: 0; fill-opacity: 0;"/><circle cx="343.0000000000041" cy="460.0037948557966" r="2" fill="#ffffff" stroke="#ffffff" style="stroke-width: 0; fill-opacity: 0;"/><circle cx="370" cy="514.0043640841661" r="2" fill="#ffffff" stroke="#ffffff" style="stroke-width: 0; fill-opacity: 0;"/><circle cx="397.00000000001637" cy="406.0032256274271" r="2" fill="#ffffff" stroke="#ffffff" style="stroke-width: 0; fill-opacity: 0;"/><circle cx="424.0000000000123" cy="442.0036051130068" r="2" fill="#ffffff" stroke="#ffffff" style="stroke-width: 0; fill-opacity: 0;"/><circle cx="451.0000000000082" cy="406.0032256274271" r="2" fill="#ffffff" stroke="#ffffff" style="stroke-width: 0; fill-opacity: 0;"/><circle cx="478.0000000000041" cy="424.00341537021694" r="2" fill="#ffffff" stroke="#ffffff" style="stroke-width: 0; fill-opacity: 0;"/><circle cx="505" cy="406.0032256274271" r="2" fill="#ffffff" stroke="#ffffff" style="stroke-width: 0; fill-opacity: 0;"/><circle cx="532.0000000000164" cy="442.0036051130068" r="2" fill="#ffffff" stroke="#ffffff" style="stroke-width: 0; fill-opacity: 0;"/><circle cx="559.0000000000123" cy="406.0032256274271" r="2" fill="#ffffff" stroke="#ffffff" style="stroke-width: 0; fill-opacity: 0;"/><circle cx="280" cy="208.00113845673897" r="2" fill="#ffffff" stroke="#ffffff" style="stroke-width: 0; fill-opacity: 0;"/><circle cx="280" cy="235.00142307092375" r="2" fill="#ffffff" stroke="#ffffff" style="stroke-width: 0; fill-opacity: 0;"/><circle cx="262.00000000001637" cy="262.0017076851085" r="2" fill="#ffffff" stroke="#ffffff" style="stroke-width: 0; fill-opacity: 0;"/><circle cx="262.00000000001637" cy="289.0019922992932" r="2" fill="#ffffff" stroke="#ffffff" style="stroke-width: 0; fill-opacity: 0;"/><circle cx="280" cy="316.002276913478" r="2" fill="#ffffff" stroke="#ffffff" style="stroke-width: 0; fill-opacity: 0;"/><circle cx="262.00000000001637" cy="343.0025615276627" r="2" fill="#ffffff" stroke="#ffffff" style="stroke-width: 0; fill-opacity: 0;"/><circle cx="280" cy="370.0028461418475" r="2" fill="#ffffff" stroke="#ffffff" style="stroke-width: 0; fill-opacity: 0;"/><circle cx="352.00000000001637" cy="109.00009487139488" r="2" fill="#ffffff" stroke="#ffffff" style="stroke-width: 0; fill-opacity: 0;"/><circle cx="352.00000000001637" cy="145.00047435697456" r="2" fill="#ffffff" stroke="#ffffff" style="stroke-width: 0; fill-opacity: 0;"/><rect x="524.0000000000164" y="362.0028461418475" width="16" height="16" fill="#ffffff" stroke="#000000" transform="matrix(1,0,0,1,0,0)" style="stroke-width: 4; fill-opacity: 1;"/><rect x="524.0000000000164" y="335.0025615276627" width="16" height="16" fill="#ffffff" stroke="#256f3e" transform="matrix(1,0,0,1,0,0)" style="stroke-width: 4; fill-opacity: 1;"/><rect x="524.0000000000164" y="308.002276913478" width="16" height="16" fill="#ffffff" stroke="#256f3e" transform="matrix(1,0,0,1,0,0)" style="stroke-width: 4; fill-opacity: 1;"/><rect x="524.0000000000164" y="281.0019922992932" width="16" height="16" fill="#ffffff" stroke="#256f3e" transform="matrix(1,0,0,1,0,0)" style="stroke-width: 4; fill-opacity: 1;"/><rect x="524.0000000000164" y="254.0017076851085" width="16" height="16" fill="#ffffff" stroke="#256f3e" transform="matrix(1,0,0,1,0,0)" style="stroke-width: 4; fill-opacity: 1;"/><rect x="524.0000000000164" y="227.00142307092375" width="16" height="16" fill="#ffffff" stroke="#256f3e" transform="matrix(1,0,0,1,0,0)" style="stroke-width: 4; fill-opacity: 1;"/><rect x="524.0000000000164" y="200.00113845673897" width="16" height="16" fill="#ffffff" stroke="#256f3e" transform="matrix(1,0,0,1,0,0)" style="stroke-width: 4; fill-opacity: 1;"/><rect x="524.0000000000164" y="173.00085384255425" width="16" height="16" fill="#ffffff" stroke="#256f3e" transform="matrix(1,0,0,1,0,0)" style="stroke-width: 4; fill-opacity: 1;"/><rect x="551.0000000000123" y="362.0028461418475" width="16" height="16" fill="#ffffff" stroke="#c73d85" transform="matrix(1,0,0,1,0,0)" style="stroke-width: 4; fill-opacity: 1;"/><rect x="524.0000000000164" y="362.0028461418475" width="16" height="16" fill="#ffffff" stroke="#000000" transform="matrix(1,0,0,1,0,0)" style="stroke-width: 4; fill-opacity: 1;"/><rect x="497" y="362.0028461418475" width="16" height="16" fill="#ffffff" stroke="#c73d85" transform="matrix(1,0,0,1,0,0)" style="stroke-width: 4; fill-opacity: 1;"/><rect x="470.0000000000041" y="362.0028461418475" width="16" height="16" fill="#ffffff" stroke="#c73d85" transform="matrix(1,0,0,1,0,0)" style="stroke-width: 4; fill-opacity: 1;"/><rect x="443.0000000000082" y="362.0028461418475" width="16" height="16" fill="#ffffff" stroke="#c73d85" transform="matrix(1,0,0,1,0,0)" style="stroke-width: 4; fill-opacity: 1;"/><rect x="416.0000000000123" y="362.0028461418475" width="16" height="16" fill="#ffffff" stroke="#c73d85" transform="matrix(1,0,0,1,0,0)" style="stroke-width: 4; fill-opacity: 1;"/><rect x="389.00000000001637" y="362.0028461418475" width="16" height="16" fill="#ffffff" stroke="#c73d85" transform="matrix(1,0,0,1,0,0)" style="stroke-width: 4; fill-opacity: 1;"/><rect x="362" y="362.0028461418475" width="16" height="16" fill="#ffffff" stroke="#c73d85" transform="matrix(1,0,0,1,0,0)" style="stroke-width: 4; fill-opacity: 1;"/><rect x="335.0000000000041" y="362.0028461418475" width="16" height="16" fill="#ffffff" stroke="#c73d85" transform="matrix(1,0,0,1,0,0)" style="stroke-width: 4; fill-opacity: 1;"/><rect x="308.0000000000082" y="362.0028461418475" width="16" height="16" fill="#ffffff" stroke="#000000" transform="matrix(1,0,0,1,0,0)" style="stroke-width: 4; fill-opacity: 1;"/><rect x="308.0000000000082" y="398.0032256274271" width="16" height="16" fill="#ffffff" stroke="#c73d85" transform="matrix(1,0,0,1,0,0)" style="stroke-width: 4; fill-opacity: 1;"/><rect x="281.0000000000123" y="398.0032256274271" width="16" height="16" fill="#ffffff" stroke="#c73d85" transform="matrix(1,0,0,1,0,0)" style="stroke-width: 4; fill-opacity: 1;"/><rect x="254.00000000001637" y="398.0032256274271" width="16" height="16" fill="#ffffff" stroke="#c73d85" transform="matrix(1,0,0,1,0,0)" style="stroke-width: 4; fill-opacity: 1;"/><rect x="227" y="398.0032256274271" width="16" height="16" fill="#ffffff" stroke="#c73d85" transform="matrix(1,0,0,1,0,0)" style="stroke-width: 4; fill-opacity: 1;"/><rect x="200.0000000000041" y="398.0032256274271" width="16" height="16" fill="#ffffff" stroke="#c73d85" transform="matrix(1,0,0,1,0,0)" style="stroke-width: 4; fill-opacity: 1;"/><rect x="173.00000000000819" y="398.0032256274271" width="16" height="16" fill="#ffffff" stroke="#c73d85" transform="matrix(1,0,0,1,0,0)" style="stroke-width: 4; fill-opacity: 1;"/><rect x="146.00000000001228" y="398.0032256274271" width="16" height="16" fill="#ffffff" stroke="#c73d85" transform="matrix(1,0,0,1,0,0)" style="stroke-width: 4; fill-opacity: 1;"/><rect x="98" y="404.0032256274271" width="4" height="4" fill="#ffffff" stroke="#ffffff" transform="matrix(1,0,0,1,0,0)" style="stroke-width: 0; fill-opacity: 0;"/><rect x="308.0000000000082" y="200.00113845673897" width="16" height="16" fill="#ffffff" stroke="#7411ee" transform="matrix(1,0,0,1,0,0)" style="stroke-width: 4; fill-opacity: 1;"/><rect x="308.0000000000082" y="227.00142307092375" width="16" height="16" fill="#ffffff" stroke="#7411ee" transform="matrix(1,0,0,1,0,0)" style="stroke-width: 4; fill-opacity: 1;"/><rect x="308.0000000000082" y="254.0017076851085" width="16" height="16" fill="#ffffff" stroke="#7411ee" transform="matrix(1,0,0,1,0,0)" style="stroke-width: 4; fill-opacity: 1;"/><rect x="308.0000000000082" y="281.0019922992932" width="16" height="16" fill="#ffffff" stroke="#7411ee" transform="matrix(1,0,0,1,0,0)" style="stroke-width: 4; fill-opacity: 1;"/><rect x="308.0000000000082" y="308.002276913478" width="16" height="16" fill="#ffffff" stroke="#7411ee" transform="matrix(1,0,0,1,0,0)" style="stroke-width: 4; fill-opacity: 1;"/><rect x="308.0000000000082" y="335.0025615276627" width="16" height="16" fill="#ffffff" stroke="#7411ee" transform="matrix(1,0,0,1,0,0)" style="stroke-width: 4; fill-opacity: 1;"/><rect x="308.0000000000082" y="362.0028461418475" width="16" height="16" fill="#ffffff" stroke="#000000" transform="matrix(1,0,0,1,0,0)" style="stroke-width: 4; fill-opacity: 1;"/><text x="588.0000000000041" y="346.0025615276627" fill="#000000" transform="matrix(1,0,0,1,0,0)" style="font-size: 12px; font-family: Roboto, Arial, sans-serif; font-weight: 900; text-anchor: start; letter-spacing: 0em;">〔ふみぶくろ〕</text><text x="606.0000000000082" y="319.002276913478" fill="#000000" transform="matrix(1,0,0,1,0,0)" style="font-size: 12px; font-family: Roboto, Arial, sans-serif; font-weight: 900; text-anchor: start; letter-spacing: 0em;">〔あずま〕</text><text x="606.0000000000082" y="292.0019922992932" fill="#000000" transform="matrix(1,0,0,1,0,0)" style="font-size: 12px; font-family: Roboto, Arial, sans-serif; font-weight: 900; text-anchor: start; letter-spacing: 0em;">〔ひろぎし〕</text><text x="588.0000000000041" y="265.0017076851085" fill="#000000" transform="matrix(1,0,0,1,0,0)" style="font-size: 12px; font-family: Roboto, Arial, sans-serif; font-weight: 900; text-anchor: start; letter-spacing: 0em;">〔そらかげ〕</text><text x="588.0000000000041" y="238.00142307092375" fill="#000000" transform="matrix(1,0,0,1,0,0)" style="font-size: 12px; font-family: Roboto, Arial, sans-serif; font-weight: 900; text-anchor: start; letter-spacing: 0em;">〔ひしおう〕</text><text x="588.0000000000041" y="211.00113845673897" fill="#000000" transform="matrix(1,0,0,1,0,0)" style="font-size: 12px; font-family: Roboto, Arial, sans-serif; font-weight: 900; text-anchor: start; letter-spacing: 0em;">〔こき〕</text><text x="588.0000000000041" y="184.00085384255425" fill="#000000" transform="matrix(1,0,0,1,0,0)" style="font-size: 12px; font-family: Roboto, Arial, sans-serif; font-weight: 900; text-anchor: start; letter-spacing: 0em;">〔たかはく〕</text><text x="154.00000000001228" y="516.0041743413763" fill="#000000" transform="matrix(1,0,0,1,0,0)" style="font-size: 14px; font-family: Roboto, Arial, sans-serif; font-weight: 900; text-anchor: start; writing-mode: tb; letter-spacing: -0.1em;">〔ゆきじくうこうひがし〕</text><text x="181.00000000000819" y="516.0041743413763" fill="#000000" transform="matrix(1,0,0,1,0,0)" style="font-size: 14px; font-family: Roboto, Arial, sans-serif; font-weight: 900; text-anchor: start; writing-mode: tb; letter-spacing: -0.1em;">〔ゆきじくこうにし〕</text><text x="208.0000000000041" y="480.0037948557966" fill="#000000" transform="matrix(1,0,0,1,0,0)" style="font-size: 14px; font-family: Roboto, Arial, sans-serif; font-weight: 900; text-anchor: start; writing-mode: tb; letter-spacing: -0.1em;">〔ともはらもん〕</text><text x="235" y="480.0037948557966" fill="#000000" transform="matrix(1,0,0,1,0,0)" style="font-size: 14px; font-family: Roboto, Arial, sans-serif; font-weight: 900; text-anchor: start; writing-mode: tb; letter-spacing: -0.1em;">〔かんぶがわ〕</text><text x="262.00000000001637" y="498.0039845985865" fill="#000000" transform="matrix(1,0,0,1,0,0)" style="font-size: 14px; font-family: Roboto, Arial, sans-serif; font-weight: 900; text-anchor: start; writing-mode: tb; letter-spacing: -0.1em;">〔いんだこうえん〕</text><text x="289.0000000000123" y="480.0037948557966" fill="#000000" transform="matrix(1,0,0,1,0,0)" style="font-size: 14px; font-family: Roboto, Arial, sans-serif; font-weight: 900; text-anchor: start; writing-mode: tb; letter-spacing: -0.1em;">〔そうふがわ〕</text><text x="316.0000000000082" y="480.0037948557966" fill="#000000" transform="matrix(1,0,0,1,0,0)" style="font-size: 14px; font-family: Roboto, Arial, sans-serif; font-weight: 900; text-anchor: start; writing-mode: tb; letter-spacing: -0.1em;">〔にしやどかわ〕</text><text x="343.0000000000041" y="480.0037948557966" fill="#000000" transform="matrix(1,0,0,1,0,0)" style="font-size: 14px; font-family: Roboto, Arial, sans-serif; font-weight: 900; text-anchor: start; writing-mode: tb; letter-spacing: -0.1em;">〔とりつやどかわだい〕</text><text x="370" y="534.0043640841661" fill="#000000" transform="matrix(1,0,0,1,0,0)" style="font-size: 14px; font-family: Roboto, Arial, sans-serif; font-weight: 900; text-anchor: start; writing-mode: tb; letter-spacing: -0.1em;">〔ほくとテレスクエア〕</text><text x="397.00000000001637" y="426.0032256274271" fill="#000000" transform="matrix(1,0,0,1,0,0)" style="font-size: 14px; font-family: Roboto, Arial, sans-serif; font-weight: 900; text-anchor: start; writing-mode: tb; letter-spacing: -0.1em;">〔せいさ〕</text><text x="424.0000000000123" y="462.0036051130068" fill="#000000" transform="matrix(1,0,0,1,0,0)" style="font-size: 14px; font-family: Roboto, Arial, sans-serif; font-weight: 900; text-anchor: start; writing-mode: tb; letter-spacing: -0.1em;">〔せいさほんちょう〕</text><text x="451.0000000000082" y="426.0032256274271" fill="#000000" transform="matrix(1,0,0,1,0,0)" style="font-size: 14px; font-family: Roboto, Arial, sans-serif; font-weight: 900; text-anchor: start; writing-mode: tb; letter-spacing: -0.1em;">〔とがの〕</text><text x="478.0000000000041" y="444.00341537021694" fill="#000000" transform="matrix(1,0,0,1,0,0)" style="font-size: 14px; font-family: Roboto, Arial, sans-serif; font-weight: 900; text-anchor: start; writing-mode: tb; letter-spacing: -0.1em;">〔みきたな〕</text><text x="505" y="426.0032256274271" fill="#000000" transform="matrix(1,0,0,1,0,0)" style="font-size: 14px; font-family: Roboto, Arial, sans-serif; font-weight: 900; text-anchor: start; writing-mode: tb; letter-spacing: -0.1em;">〔いわしろ〕</text><text x="532.0000000000164" y="462.0036051130068" fill="#000000" transform="matrix(1,0,0,1,0,0)" style="font-size: 14px; font-family: Roboto, Arial, sans-serif; font-weight: 900; text-anchor: start; writing-mode: tb; letter-spacing: -0.1em;">〔やどかわいしくら〕</text><text x="559.0000000000123" y="426.0032256274271" fill="#000000" transform="matrix(1,0,0,1,0,0)" style="font-size: 14px; font-family: Roboto, Arial, sans-serif; font-weight: 900; text-anchor: start; writing-mode: tb; letter-spacing: -0.1em;">〔とうそう〕</text><text x="260" y="212.00113845673897" fill="#000000" transform="matrix(1,0,0,1,0,0)" style="font-size: 14px; font-family: Roboto, Arial, sans-serif; font-weight: 900; text-anchor: end; letter-spacing: 0em;">〔なかも〕</text><text x="260" y="239.00142307092375" fill="#000000" transform="matrix(1,0,0,1,0,0)" style="font-size: 14px; font-family: Roboto, Arial, sans-serif; font-weight: 900; text-anchor: end; letter-spacing: 0em;">〔なかざと〕</text><text x="242.00000000001637" y="266.0017076851085" fill="#000000" transform="matrix(1,0,0,1,0,0)" style="font-size: 14px; font-family: Roboto, Arial, sans-serif; font-weight: 900; text-anchor: end; letter-spacing: 0em;">〔うようざか〕</text><text x="242.00000000001637" y="293.0019922992932" fill="#000000" transform="matrix(1,0,0,1,0,0)" style="font-size: 14px; font-family: Roboto, Arial, sans-serif; font-weight: 900; text-anchor: end; letter-spacing: 0em;">〔きんどうちょう〕</text><text x="260" y="320.002276913478" fill="#000000" transform="matrix(1,0,0,1,0,0)" style="font-size: 14px; font-family: Roboto, Arial, sans-serif; font-weight: 900; text-anchor: end; letter-spacing: 0em;">〔もりたて〕</text><text x="242.00000000001637" y="347.0025615276627" fill="#000000" transform="matrix(1,0,0,1,0,0)" style="font-size: 14px; font-family: Roboto, Arial, sans-serif; font-weight: 900; text-anchor: end; letter-spacing: 0em;">〔やどかわきた〕</text><text x="260" y="374.0028461418475" fill="#000000" transform="matrix(1,0,0,1,0,0)" style="font-size: 14px; font-family: Roboto, Arial, sans-serif; font-weight: 900; text-anchor: end; letter-spacing: 0em;">〔やどかわ〕</text><text x="372.00000000001637" y="124.00009487139488" fill="#000000" transform="matrix(1,0,0,1,0,0)" style="font-size: 36px; font-family: Roboto, Arial, sans-serif; font-weight: 900; text-anchor: start; letter-spacing: 0em;">宿川高速鉄道</text><text x="372.00000000001637" y="151.00047435697456" fill="#000000" transform="matrix(1,0,0,1,0,0)" style="font-size: 18px; font-family: Roboto, Arial, sans-serif; font-weight: 900; text-anchor: start; letter-spacing: 0em;">YADOKAWA RAPID RAILWAY</text><text x="552.0000000000164" y="349.0025615276627" fill="#000000" transform="matrix(1,0,0,1,0,0)" style="font-size: 18px; font-family: Roboto, Arial, sans-serif; font-weight: 900; text-anchor: start; letter-spacing: 0em;">文袋</text><text x="552.0000000000164" y="322.002276913478" fill="#000000" transform="matrix(1,0,0,1,0,0)" style="font-size: 18px; font-family: Roboto, Arial, sans-serif; font-weight: 900; text-anchor: start; letter-spacing: 0em;">吾津妻</text><text x="552.0000000000164" y="295.0019922992932" fill="#000000" transform="matrix(1,0,0,1,0,0)" style="font-size: 18px; font-family: Roboto, Arial, sans-serif; font-weight: 900; text-anchor: start; letter-spacing: 0em;">宏城市</text><text x="552.0000000000164" y="268.0017076851085" fill="#000000" transform="matrix(1,0,0,1,0,0)" style="font-size: 18px; font-family: Roboto, Arial, sans-serif; font-weight: 900; text-anchor: start; letter-spacing: 0em;">宙蔭</text><text x="552.0000000000164" y="241.00142307092375" fill="#000000" transform="matrix(1,0,0,1,0,0)" style="font-size: 18px; font-family: Roboto, Arial, sans-serif; font-weight: 900; text-anchor: start; letter-spacing: 0em;">菱凰</text><text x="552.0000000000164" y="214.00113845673897" fill="#000000" transform="matrix(1,0,0,1,0,0)" style="font-size: 18px; font-family: Roboto, Arial, sans-serif; font-weight: 900; text-anchor: start; letter-spacing: 0em;">鼓樹</text><text x="552.0000000000164" y="187.00085384255425" fill="#000000" transform="matrix(1,0,0,1,0,0)" style="font-size: 18px; font-family: Roboto, Arial, sans-serif; font-weight: 900; text-anchor: start; letter-spacing: 0em;">岳博</text><text x="559.0000000000123" y="390.0028461418475" fill="#000000" transform="matrix(1,0,0,1,0,0)" style="font-size: 18px; font-family: Roboto, Arial, sans-serif; font-weight: 900; text-anchor: start; writing-mode: tb; letter-spacing: -0.1em;">透操</text><text x="532.0000000000164" y="390.0028461418475" fill="#000000" transform="matrix(1,0,0,1,0,0)" style="font-size: 18px; font-family: Roboto, Arial, sans-serif; font-weight: 900; text-anchor: start; writing-mode: tb; letter-spacing: -0.1em;">宿川石蔵</text><text x="505" y="390.0028461418475" fill="#000000" transform="matrix(1,0,0,1,0,0)" style="font-size: 18px; font-family: Roboto, Arial, sans-serif; font-weight: 900; text-anchor: start; writing-mode: tb; letter-spacing: -0.1em;">岩白</text><text x="478.0000000000041" y="390.0028461418475" fill="#000000" transform="matrix(1,0,0,1,0,0)" style="font-size: 18px; font-family: Roboto, Arial, sans-serif; font-weight: 900; text-anchor: start; writing-mode: tb; letter-spacing: -0.1em;">幹田奈</text><text x="451.0000000000082" y="390.0028461418475" fill="#000000" transform="matrix(1,0,0,1,0,0)" style="font-size: 18px; font-family: Roboto, Arial, sans-serif; font-weight: 900; text-anchor: start; writing-mode: tb; letter-spacing: -0.1em;">咎野</text><text x="424.0000000000123" y="390.0028461418475" fill="#000000" transform="matrix(1,0,0,1,0,0)" style="font-size: 18px; font-family: Roboto, Arial, sans-serif; font-weight: 900; text-anchor: start; writing-mode: tb; letter-spacing: -0.1em;">星瑳本町</text><text x="397.00000000001637" y="390.0028461418475" fill="#000000" transform="matrix(1,0,0,1,0,0)" style="font-size: 18px; font-family: Roboto, Arial, sans-serif; font-weight: 900; text-anchor: start; writing-mode: tb; letter-spacing: -0.1em;">星瑳</text><text x="370" y="390.0028461418475" fill="#000000" transform="matrix(1,0,0,1,0,0)" style="font-size: 18px; font-family: Roboto, Arial, sans-serif; font-weight: 900; text-anchor: start; writing-mode: tb; letter-spacing: -0.1em;">北斗テレスクエア</text><text x="343.0000000000041" y="390.0028461418475" fill="#000000" transform="matrix(1,0,0,1,0,0)" style="font-size: 18px; font-family: Roboto, Arial, sans-serif; font-weight: 900; text-anchor: start; writing-mode: tb; letter-spacing: -0.1em;">都立宿川大</text><text x="316.0000000000082" y="426.0032256274271" fill="#000000" transform="matrix(1,0,0,1,0,0)" style="font-size: 18px; font-family: Roboto, Arial, sans-serif; font-weight: 900; text-anchor: start; writing-mode: tb; letter-spacing: -0.1em;">西宿川</text><text x="289.0000000000123" y="426.0032256274271" fill="#000000" transform="matrix(1,0,0,1,0,0)" style="font-size: 18px; font-family: Roboto, Arial, sans-serif; font-weight: 900; text-anchor: start; writing-mode: tb; letter-spacing: -0.1em;">創布島</text><text x="262.00000000001637" y="426.0032256274271" fill="#000000" transform="matrix(1,0,0,1,0,0)" style="font-size: 18px; font-family: Roboto, Arial, sans-serif; font-weight: 900; text-anchor: start; writing-mode: tb; letter-spacing: -0.1em;">員田公園</text><text x="235" y="426.0032256274271" fill="#000000" transform="matrix(1,0,0,1,0,0)" style="font-size: 18px; font-family: Roboto, Arial, sans-serif; font-weight: 900; text-anchor: start; writing-mode: tb; letter-spacing: -0.1em;">瞰分川</text><text x="208.0000000000041" y="426.0032256274271" fill="#000000" transform="matrix(1,0,0,1,0,0)" style="font-size: 18px; font-family: Roboto, Arial, sans-serif; font-weight: 900; text-anchor: start; writing-mode: tb; letter-spacing: -0.1em;">友原門</text><text x="181.00000000000819" y="426.0032256274271" fill="#000000" transform="matrix(1,0,0,1,0,0)" style="font-size: 18px; font-family: Roboto, Arial, sans-serif; font-weight: 900; text-anchor: start; writing-mode: tb; letter-spacing: -0.1em;">雪地空港西</text><text x="154.00000000001228" y="426.0032256274271" fill="#000000" transform="matrix(1,0,0,1,0,0)" style="font-size: 18px; font-family: Roboto, Arial, sans-serif; font-weight: 900; text-anchor: start; writing-mode: tb; letter-spacing: -0.1em;">雪地空港東</text><text x="92" y="410.0032256274271" fill="#000000" transform="matrix(1,0,0,1,0,0)" style="font-size: 14px; font-family: Roboto, Arial, sans-serif; font-weight: 900; text-anchor: end; letter-spacing: 0em;">彩源メトロ 空港線へ直通</text><text x="296.0000000000082" y="214.00113845673897" fill="#000000" transform="matrix(1,0,0,1,0,0)" style="font-size: 18px; font-family: Roboto, Arial, sans-serif; font-weight: 900; text-anchor: end; letter-spacing: 0em;">朋羚</text><text x="296.0000000000082" y="241.00142307092375" fill="#000000" transform="matrix(1,0,0,1,0,0)" style="font-size: 18px; font-family: Roboto, Arial, sans-serif; font-weight: 900; text-anchor: end; letter-spacing: 0em;">朋里</text><text x="296.0000000000082" y="268.0017076851085" fill="#000000" transform="matrix(1,0,0,1,0,0)" style="font-size: 18px; font-family: Roboto, Arial, sans-serif; font-weight: 900; text-anchor: end; letter-spacing: 0em;">羽陽坂</text><text x="296.0000000000082" y="295.0019922992932" fill="#000000" transform="matrix(1,0,0,1,0,0)" style="font-size: 18px; font-family: Roboto, Arial, sans-serif; font-weight: 900; text-anchor: end; letter-spacing: 0em;">錦動町</text><text x="296.0000000000082" y="322.002276913478" fill="#000000" transform="matrix(1,0,0,1,0,0)" style="font-size: 18px; font-family: Roboto, Arial, sans-serif; font-weight: 900; text-anchor: end; letter-spacing: 0em;">森立</text><text x="296.0000000000082" y="349.0025615276627" fill="#000000" transform="matrix(1,0,0,1,0,0)" style="font-size: 18px; font-family: Roboto, Arial, sans-serif; font-weight: 900; text-anchor: end; letter-spacing: 0em;">宿川北</text><text x="296.0000000000082" y="376.0028461418475" fill="#000000" transform="matrix(1,0,0,1,0,0)" style="font-size: 18px; font-family: Roboto, Arial, sans-serif; font-weight: 900; text-anchor: end; letter-spacing: 0em;">宿川</text></svg>