<svg height="570.0002291575689" version="1.1" width="578.0000000000041" xmlns="http://www.w3.org/2000/svg" id="svgSvg" viewBox="76.9 0 769.3180000000056 758.6703050087244" style="width: 1366px; height: 1347.1px;"><desc>Created with Snap</desc><defs/><path d="M8,5 C10,2 10,2 5.67,3.6  C1.8,4.9 1.8,5.1 5.67,6.4 C10,8 10,8 8,5 z" fill="#ffffff" style=""/><path d="M2,5 C0,2 0,2 4.33,3.6  C8.2,4.9 8.2,5.1 4.33,6.4 C0,8 0,8 2,5 z" fill="#ffffff" style=""/><polyline points="478.0000000000041,100,478.0000000000041,127.00002291575689,478.0000000000041,154.00004583151377,478.0000000000041,181.00006874727066,478.0000000000041,208.00009166302755,478.0000000000041,235.00011457878446,478.0000000000041,262.0001374945414,478.0000000000041,289.00016041029824,478.0000000000041,316.0001833260551,478.0000000000041,343.00020624181207,478.0000000000041,370.0002291575689" fill="none" stroke="#ffffff" style="stroke-opacity: 0; stroke-width: 0; stroke-linecap: round; stroke-linejoin: round; marker-start: none; marker-end: none;"/><path d="M8,5 C10,2 10,2 5.67,3.6  C1.8,4.9 1.8,5.1 5.67,6.4 C10,8 10,8 8,5 z" fill="#ffffff" style=""/><path d="M2,5 C0,2 0,2 4.33,3.6  C8.2,4.9 8.2,5.1 4.33,6.4 C0,8 0,8 2,5 z" fill="#ffffff" style=""/><polyline points="478.0000000000041,100,478.0000000000041,127.00002291575689,478.0000000000041,154.00004583151377,478.0000000000041,181.00006874727066,478.0000000000041,208.00009166302755,478.0000000000041,235.00011457878446,478.0000000000041,262.0001374945414,478.0000000000041,289.00016041029824,478.0000000000041,316.0001833260551,478.0000000000041,343.00020624181207,478.0000000000041,370.0002291575689" fill="none" stroke="#ffffff" style="stroke-opacity: 0; stroke-width: 0; stroke-linecap: round; stroke-linejoin: round; marker-start: none; marker-end: none;"/><path d="M8,5 C10,2 10,2 5.67,3.6  C1.8,4.9 1.8,5.1 5.67,6.4 C10,8 10,8 8,5 z" fill="#ffffff" style=""/><path d="M2,5 C0,2 0,2 4.33,3.6  C8.2,4.9 8.2,5.1 4.33,6.4 C0,8 0,8 2,5 z" fill="#ffffff" style=""/><polyline points="235,217.0000993016132,235,199.00008402444195" fill="none" stroke="#ffffff" style="stroke-opacity: 0; stroke-width: 0; stroke-linecap: round; stroke-linejoin: round; marker-start: none; marker-end: none;"/><path d="M8,5 C10,2 10,2 5.67,3.6  C1.8,4.9 1.8,5.1 5.67,6.4 C10,8 10,8 8,5 z" fill="#863ce2" style=""/><path d="M2,5 C0,2 0,2 4.33,3.6  C8.2,4.9 8.2,5.1 4.33,6.4 C0,8 0,8 2,5 z" fill="#863ce2" style=""/><polyline points="100,190.0000763858563,100,226.0001069401988,100,208.00009166302755,163.0000000000041,226.0001069401988,100,208.00009166302755,154.00000000001228,190.0000763858563,163.0000000000041,226.0001069401988,171.9999999999959,190.0000763858563,181.00000000000819,226.0001069401988,190,190.0000763858563,244.00000000001228,208.00009166302755,181.00000000000819,226.0001069401988,244.00000000001228,208.00009166302755,244.00000000001228,190.0000763858563,244.00000000001228,226.0001069401988" fill="none" stroke="#863ce2" style="stroke-opacity: 0.9; stroke-width: 6; stroke-linecap: round; stroke-linejoin: round; marker-start: none; marker-end: none;"/><path d="M8,5 C10,2 10,2 5.67,3.6  C1.8,4.9 1.8,5.1 5.67,6.4 C10,8 10,8 8,5 z" fill="#ff1493" style=""/><path d="M2,5 C0,2 0,2 4.33,3.6  C8.2,4.9 8.2,5.1 4.33,6.4 C0,8 0,8 2,5 z" fill="#ff1493" style=""/><polyline points="415,100,415,154.00004583151377,415,235.00011457878446,415,370.0002291575689" fill="none" stroke="#ff1493" style="stroke-opacity: 0.9; stroke-width: 14; stroke-linecap: round; stroke-linejoin: round; marker-start: none; marker-end: none;"/><path d="M8,5 C10,2 10,2 5.67,3.6  C1.8,4.9 1.8,5.1 5.67,6.4 C10,8 10,8 8,5 z" fill="#ff0000" style=""/><path d="M2,5 C0,2 0,2 4.33,3.6  C8.2,4.9 8.2,5.1 4.33,6.4 C0,8 0,8 2,5 z" fill="#ff0000" style=""/><polyline points="433.0000000000041,100,433.0000000000041,154.00004583151377,433.0000000000041,208.00009166302755,433.0000000000041,235.00011457878446,433.0000000000041,343.00020624181207,433.0000000000041,370.0002291575689" fill="none" stroke="#ff0000" style="stroke-opacity: 0.9; stroke-width: 14; stroke-linecap: round; stroke-linejoin: round; marker-start: none; marker-end: none;"/><path d="M8,5 C10,2 10,2 5.67,3.6  C1.8,4.9 1.8,5.1 5.67,6.4 C10,8 10,8 8,5 z" fill="#e8b311" style=""/><path d="M2,5 C0,2 0,2 4.33,3.6  C8.2,4.9 8.2,5.1 4.33,6.4 C0,8 0,8 2,5 z" fill="#e8b311" style=""/><polyline points="451.0000000000082,100,451.0000000000082,127.00002291575689,451.0000000000082,154.00004583151377,451.0000000000082,181.00006874727066,451.0000000000082,208.00009166302755,451.0000000000082,235.00011457878446,451.0000000000082,262.0001374945414,451.0000000000082,289.00016041029824,451.0000000000082,316.0001833260551,451.0000000000082,343.00020624181207,451.0000000000082,370.0002291575689" fill="none" stroke="#e8b311" style="stroke-opacity: 0.9; stroke-width: 14; stroke-linecap: round; stroke-linejoin: round; marker-start: none; marker-end: none;"/><circle cx="478.0000000000041" cy="100" r="2" fill="#ffffff" stroke="#ffffff" style="stroke-width: 0; fill-opacity: 0;"/><circle cx="478.0000000000041" cy="127.00002291575689" r="2" fill="#ffffff" stroke="#ffffff" style="stroke-width: 0; fill-opacity: 0;"/><circle cx="478.0000000000041" cy="154.00004583151377" r="2" fill="#ffffff" stroke="#ffffff" style="stroke-width: 0; fill-opacity: 0;"/><circle cx="478.0000000000041" cy="181.00006874727066" r="2" fill="#ffffff" stroke="#ffffff" style="stroke-width: 0; fill-opacity: 0;"/><circle cx="478.0000000000041" cy="208.00009166302755" r="2" fill="#ffffff" stroke="#ffffff" style="stroke-width: 0; fill-opacity: 0;"/><circle cx="478.0000000000041" cy="235.00011457878446" r="2" fill="#ffffff" stroke="#ffffff" style="stroke-width: 0; fill-opacity: 0;"/><circle cx="478.0000000000041" cy="262.0001374945414" r="2" fill="#ffffff" stroke="#ffffff" style="stroke-width: 0; fill-opacity: 0;"/><circle cx="478.0000000000041" cy="289.00016041029824" r="2" fill="#ffffff" stroke="#ffffff" style="stroke-width: 0; fill-opacity: 0;"/><circle cx="478.0000000000041" cy="316.0001833260551" r="2" fill="#ffffff" stroke="#ffffff" style="stroke-width: 0; fill-opacity: 0;"/><circle cx="478.0000000000041" cy="343.00020624181207" r="2" fill="#ffffff" stroke="#ffffff" style="stroke-width: 0; fill-opacity: 0;"/><circle cx="478.0000000000041" cy="370.0002291575689" r="2" fill="#ffffff" stroke="#ffffff" style="stroke-width: 0; fill-opacity: 0;"/><rect x="466.0000000000041" y="88" width="24" height="24" fill="#ffffff" stroke="#ffa500" transform="matrix(1,0,0,1,0,0)" style="stroke-width: 2; fill-opacity: 1;"/><rect x="466.0000000000041" y="115.00002291575689" width="24" height="24" fill="#ffffff" stroke="#ffa500" transform="matrix(1,0,0,1,0,0)" style="stroke-width: 2; fill-opacity: 1;"/><rect x="466.0000000000041" y="142.00004583151377" width="24" height="24" fill="#ffffff" stroke="#ffa500" transform="matrix(1,0,0,1,0,0)" style="stroke-width: 2; fill-opacity: 1;"/><rect x="466.0000000000041" y="169.00006874727066" width="24" height="24" fill="#ffffff" stroke="#ffa500" transform="matrix(1,0,0,1,0,0)" style="stroke-width: 2; fill-opacity: 1;"/><rect x="466.0000000000041" y="196.00009166302755" width="24" height="24" fill="#ffffff" stroke="#ffa500" transform="matrix(1,0,0,1,0,0)" style="stroke-width: 2; fill-opacity: 1;"/><rect x="466.0000000000041" y="223.00011457878446" width="24" height="24" fill="#ffffff" stroke="#ffa500" transform="matrix(1,0,0,1,0,0)" style="stroke-width: 2; fill-opacity: 1;"/><rect x="466.0000000000041" y="250.00013749454138" width="24" height="24" fill="#ffffff" stroke="#ffa500" transform="matrix(1,0,0,1,0,0)" style="stroke-width: 2; fill-opacity: 1;"/><rect x="466.0000000000041" y="277.00016041029824" width="24" height="24" fill="#ffffff" stroke="#ffa500" transform="matrix(1,0,0,1,0,0)" style="stroke-width: 2; fill-opacity: 1;"/><rect x="466.0000000000041" y="304.0001833260551" width="24" height="24" fill="#ffffff" stroke="#ffa500" transform="matrix(1,0,0,1,0,0)" style="stroke-width: 2; fill-opacity: 1;"/><rect x="466.0000000000041" y="331.00020624181207" width="24" height="24" fill="#ffffff" stroke="#ffa500" transform="matrix(1,0,0,1,0,0)" style="stroke-width: 2; fill-opacity: 1;"/><rect x="466.0000000000041" y="358.0002291575689" width="24" height="24" fill="#ffffff" stroke="#ffa500" transform="matrix(1,0,0,1,0,0)" style="stroke-width: 2; fill-opacity: 1;"/><circle cx="235" cy="217.0000993016132" r="2" fill="#ffffff" stroke="#ffffff" style="stroke-width: 0; fill-opacity: 0;"/><circle cx="235" cy="199.00008402444195" r="2" fill="#ffffff" stroke="#ffffff" style="stroke-width: 0; fill-opacity: 0;"/><circle cx="415" cy="100" r="4" fill="#ffffff" stroke="#000000" style="stroke-width: 0; fill-opacity: 1;"/><circle cx="415" cy="154.00004583151377" r="4" fill="#ffffff" stroke="#000000" style="stroke-width: 0; fill-opacity: 1;"/><circle cx="415" cy="235.00011457878446" r="4" fill="#ffffff" stroke="#000000" style="stroke-width: 0; fill-opacity: 1;"/><circle cx="415" cy="370.0002291575689" r="4" fill="#ffffff" stroke="#000000" style="stroke-width: 0; fill-opacity: 1;"/><circle cx="433.0000000000041" cy="100" r="4" fill="#ffffff" stroke="#ff0000" style="stroke-width: 0; fill-opacity: 1;"/><circle cx="433.0000000000041" cy="154.00004583151377" r="4" fill="#ffffff" stroke="#ff0000" style="stroke-width: 0; fill-opacity: 1;"/><circle cx="433.0000000000041" cy="208.00009166302755" r="4" fill="#ffffff" stroke="#ff0000" style="stroke-width: 0; fill-opacity: 1;"/><circle cx="433.0000000000041" cy="235.00011457878446" r="4" fill="#ffffff" stroke="#ff0000" style="stroke-width: 0; fill-opacity: 1;"/><circle cx="433.0000000000041" cy="343.00020624181207" r="4" fill="#ffffff" stroke="#ff0000" style="stroke-width: 0; fill-opacity: 1;"/><circle cx="433.0000000000041" cy="370.0002291575689" r="4" fill="#ffffff" stroke="#ff0000" style="stroke-width: 0; fill-opacity: 1;"/><circle cx="451.0000000000082" cy="100" r="4" fill="#ffffff" stroke="#000000" style="stroke-width: 0; fill-opacity: 1;"/><circle cx="451.0000000000082" cy="127.00002291575689" r="4" fill="#ffffff" stroke="#000000" style="stroke-width: 0; fill-opacity: 1;"/><circle cx="451.0000000000082" cy="154.00004583151377" r="4" fill="#ffffff" stroke="#000000" style="stroke-width: 0; fill-opacity: 1;"/><circle cx="451.0000000000082" cy="181.00006874727066" r="4" fill="#ffffff" stroke="#000000" style="stroke-width: 0; fill-opacity: 1;"/><circle cx="451.0000000000082" cy="208.00009166302755" r="4" fill="#ffffff" stroke="#000000" style="stroke-width: 0; fill-opacity: 1;"/><circle cx="451.0000000000082" cy="235.00011457878446" r="4" fill="#ffffff" stroke="#000000" style="stroke-width: 0; fill-opacity: 1;"/><circle cx="451.0000000000082" cy="262.0001374945414" r="4" fill="#ffffff" stroke="#000000" style="stroke-width: 0; fill-opacity: 1;"/><circle cx="451.0000000000082" cy="289.00016041029824" r="4" fill="#ffffff" stroke="#000000" style="stroke-width: 0; fill-opacity: 1;"/><circle cx="451.0000000000082" cy="316.0001833260551" r="4" fill="#ffffff" stroke="#000000" style="stroke-width: 0; fill-opacity: 1;"/><circle cx="451.0000000000082" cy="343.00020624181207" r="4" fill="#ffffff" stroke="#000000" style="stroke-width: 0; fill-opacity: 1;"/><circle cx="451.0000000000082" cy="370.0002291575689" r="4" fill="#ffffff" stroke="#000000" style="stroke-width: 0; fill-opacity: 1;"/><text x="478.0000000000041" y="108" fill="#000000" transform="matrix(1,0,0,1,0,0)" style="font-size: 10px; font-family: Roboto, Arial, sans-serif; font-weight: 900; text-anchor: middle; letter-spacing: 0em;">01</text><text x="478.0000000000041" y="135.0000229157569" fill="#000000" transform="matrix(1,0,0,1,0,0)" style="font-size: 10px; font-family: Roboto, Arial, sans-serif; font-weight: 900; text-anchor: middle; letter-spacing: 0em;">02</text><text x="478.0000000000041" y="162.00004583151377" fill="#000000" transform="matrix(1,0,0,1,0,0)" style="font-size: 10px; font-family: Roboto, Arial, sans-serif; font-weight: 900; text-anchor: middle; letter-spacing: 0em;">03</text><text x="478.0000000000041" y="189.00006874727066" fill="#000000" transform="matrix(1,0,0,1,0,0)" style="font-size: 10px; font-family: Roboto, Arial, sans-serif; font-weight: 900; text-anchor: middle; letter-spacing: 0em;">04</text><text x="478.0000000000041" y="216.00009166302755" fill="#000000" transform="matrix(1,0,0,1,0,0)" style="font-size: 10px; font-family: Roboto, Arial, sans-serif; font-weight: 900; text-anchor: middle; letter-spacing: 0em;">05</text><text x="478.0000000000041" y="243.00011457878446" fill="#000000" transform="matrix(1,0,0,1,0,0)" style="font-size: 10px; font-family: Roboto, Arial, sans-serif; font-weight: 900; text-anchor: middle; letter-spacing: 0em;">06</text><text x="478.0000000000041" y="270.0001374945414" fill="#000000" transform="matrix(1,0,0,1,0,0)" style="font-size: 10px; font-family: Roboto, Arial, sans-serif; font-weight: 900; text-anchor: middle; letter-spacing: 0em;">07</text><text x="478.0000000000041" y="297.00016041029824" fill="#000000" transform="matrix(1,0,0,1,0,0)" style="font-size: 10px; font-family: Roboto, Arial, sans-serif; font-weight: 900; text-anchor: middle; letter-spacing: 0em;">08</text><text x="478.0000000000041" y="324.0001833260551" fill="#000000" transform="matrix(1,0,0,1,0,0)" style="font-size: 10px; font-family: Roboto, Arial, sans-serif; font-weight: 900; text-anchor: middle; letter-spacing: 0em;">09</text><text x="478.0000000000041" y="351.00020624181207" fill="#000000" transform="matrix(1,0,0,1,0,0)" style="font-size: 10px; font-family: Roboto, Arial, sans-serif; font-weight: 900; text-anchor: middle; letter-spacing: 0em;">10</text><text x="478.0000000000041" y="378.0002291575689" fill="#000000" transform="matrix(1,0,0,1,0,0)" style="font-size: 10px; font-family: Roboto, Arial, sans-serif; font-weight: 900; text-anchor: middle; letter-spacing: 0em;">11</text><text x="478.0000000000041" y="96" fill="#000000" transform="matrix(1,0,0,1,0,0)" style="font-size: 10px; font-family: Roboto, Arial, sans-serif; font-weight: 900; text-anchor: middle; letter-spacing: 0em;">KM</text><text x="478.0000000000041" y="123.00002291575689" fill="#000000" transform="matrix(1,0,0,1,0,0)" style="font-size: 10px; font-family: Roboto, Arial, sans-serif; font-weight: 900; text-anchor: middle; letter-spacing: 0em;">KM</text><text x="478.0000000000041" y="150.00004583151377" fill="#000000" transform="matrix(1,0,0,1,0,0)" style="font-size: 10px; font-family: Roboto, Arial, sans-serif; font-weight: 900; text-anchor: middle; letter-spacing: 0em;">KM</text><text x="478.0000000000041" y="177.00006874727066" fill="#000000" transform="matrix(1,0,0,1,0,0)" style="font-size: 10px; font-family: Roboto, Arial, sans-serif; font-weight: 900; text-anchor: middle; letter-spacing: 0em;">KM</text><text x="478.0000000000041" y="204.00009166302755" fill="#000000" transform="matrix(1,0,0,1,0,0)" style="font-size: 10px; font-family: Roboto, Arial, sans-serif; font-weight: 900; text-anchor: middle; letter-spacing: 0em;">KM</text><text x="478.0000000000041" y="231.00011457878446" fill="#000000" transform="matrix(1,0,0,1,0,0)" style="font-size: 10px; font-family: Roboto, Arial, sans-serif; font-weight: 900; text-anchor: middle; letter-spacing: 0em;">KM</text><text x="478.0000000000041" y="258.0001374945414" fill="#000000" transform="matrix(1,0,0,1,0,0)" style="font-size: 10px; font-family: Roboto, Arial, sans-serif; font-weight: 900; text-anchor: middle; letter-spacing: 0em;">KM</text><text x="478.0000000000041" y="285.00016041029824" fill="#000000" transform="matrix(1,0,0,1,0,0)" style="font-size: 10px; font-family: Roboto, Arial, sans-serif; font-weight: 900; text-anchor: middle; letter-spacing: 0em;">KM</text><text x="478.0000000000041" y="312.0001833260551" fill="#000000" transform="matrix(1,0,0,1,0,0)" style="font-size: 10px; font-family: Roboto, Arial, sans-serif; font-weight: 900; text-anchor: middle; letter-spacing: 0em;">KM</text><text x="478.0000000000041" y="339.00020624181207" fill="#000000" transform="matrix(1,0,0,1,0,0)" style="font-size: 10px; font-family: Roboto, Arial, sans-serif; font-weight: 900; text-anchor: middle; letter-spacing: 0em;">KM</text><text x="478.0000000000041" y="366.0002291575689" fill="#000000" transform="matrix(1,0,0,1,0,0)" style="font-size: 10px; font-family: Roboto, Arial, sans-serif; font-weight: 900; text-anchor: middle; letter-spacing: 0em;">KM</text><text x="255" y="224.0000993016132" fill="#000000" transform="matrix(1,0,0,1,0,0)" style="font-size: 20px; font-family: Roboto, Arial, sans-serif; font-weight: 900; text-anchor: start; letter-spacing: 0em;">叶涌モノレール</text><text x="255" y="204.00008402444195" fill="#000000" transform="matrix(1,0,0,1,0,0)" style="font-size: 16px; font-family: Roboto, Arial, sans-serif; font-weight: 900; text-anchor: start; letter-spacing: 0em;">Kawaki Monorail</text><text x="501.0000000000082" y="106" fill="#ff1900" transform="matrix(1,0,0,1,0,0)" style="font-size: 18px; font-family: Roboto, Arial, sans-serif; font-weight: 900; text-anchor: start; letter-spacing: 0em;">峰斗苑 / Minetoen</text><text x="501.0000000000082" y="133.0000229157569" fill="#ff1900" transform="matrix(1,0,0,1,0,0)" style="font-size: 18px; font-family: Roboto, Arial, sans-serif; font-weight: 900; text-anchor: start; letter-spacing: 0em;">千歳台 / Chitosedai</text><text x="501.0000000000082" y="160.00004583151377" fill="#ff1900" transform="matrix(1,0,0,1,0,0)" style="font-size: 18px; font-family: Roboto, Arial, sans-serif; font-weight: 900; text-anchor: start; letter-spacing: 0em;">叶涌 / Kawaki</text><text x="501.0000000000082" y="187.00006874727066" fill="#ff1900" transform="matrix(1,0,0,1,0,0)" style="font-size: 18px; font-family: Roboto, Arial, sans-serif; font-weight: 900; text-anchor: start; letter-spacing: 0em;">南叶涌 / Minami-Kawaki</text><text x="501.0000000000082" y="214.00009166302755" fill="#ff1900" transform="matrix(1,0,0,1,0,0)" style="font-size: 18px; font-family: Roboto, Arial, sans-serif; font-weight: 900; text-anchor: start; letter-spacing: 0em;">雫大叶涌未来 / NadaiKawakiMirai</text><text x="501.0000000000082" y="241.00011457878446" fill="#ff1900" transform="matrix(1,0,0,1,0,0)" style="font-size: 18px; font-family: Roboto, Arial, sans-serif; font-weight: 900; text-anchor: start; letter-spacing: 0em;">久遠 / Kuon</text><text x="501.0000000000082" y="268.0001374945414" fill="#ff1900" transform="matrix(1,0,0,1,0,0)" style="font-size: 18px; font-family: Roboto, Arial, sans-serif; font-weight: 900; text-anchor: start; letter-spacing: 0em;">工座 / kōza</text><text x="501.0000000000082" y="295.00016041029824" fill="#ff1900" transform="matrix(1,0,0,1,0,0)" style="font-size: 18px; font-family: Roboto, Arial, sans-serif; font-weight: 900; text-anchor: start; letter-spacing: 0em;">鷺名丘 / Saginaoka</text><text x="501.0000000000082" y="322.0001833260551" fill="#ff1900" transform="matrix(1,0,0,1,0,0)" style="font-size: 18px; font-family: Roboto, Arial, sans-serif; font-weight: 900; text-anchor: start; letter-spacing: 0em;">広寿 / Kōju</text><text x="501.0000000000082" y="349.00020624181207" fill="#ff1900" transform="matrix(1,0,0,1,0,0)" style="font-size: 18px; font-family: Roboto, Arial, sans-serif; font-weight: 900; text-anchor: start; letter-spacing: 0em;">雫城大学 / Shizukugi-daigaku</text><text x="501.0000000000082" y="376.0002291575689" fill="#ff1900" transform="matrix(1,0,0,1,0,0)" style="font-size: 18px; font-family: Roboto, Arial, sans-serif; font-weight: 900; text-anchor: start; letter-spacing: 0em;">星奈 / Seina</text></svg>