<svg height="1074.0086225085945" version="1.1" width="1153.9999999999918" xmlns="http://www.w3.org/2000/svg" id="svgSvg" viewBox="0 0 1269.399999999991 1181.409484759454" style="width: 1366px; height: 1271.33px;"><desc>Created with Snap</desc><defs/><path d="M8,5 C10,2 10,2 5.67,3.6  C1.8,4.9 1.8,5.1 5.67,6.4 C10,8 10,8 8,5 z" fill="#ffffff" style=""/><path d="M2,5 C0,2 0,2 4.33,3.6  C8.2,4.9 8.2,5.1 4.33,6.4 C0,8 0,8 2,5 z" fill="#ffffff" style=""/><polyline points="802.0000000000164,784.007619891316,1053.9999999999918,784.007619891316" fill="none" stroke="#ffffff" style="stroke-opacity: 0; stroke-width: 0; stroke-linecap: round; stroke-linejoin: round; marker-start: none; marker-end: none;"/><path d="M8,5 C10,2 10,2 5.67,3.6  C1.8,4.9 1.8,5.1 5.67,6.4 C10,8 10,8 8,5 z" fill="#ffffff" style=""/><path d="M2,5 C0,2 0,2 4.33,3.6  C8.2,4.9 8.2,5.1 4.33,6.4 C0,8 0,8 2,5 z" fill="#ffffff" style=""/><polyline points="910,316.0024062814682,910,136.00040104691138" fill="none" stroke="#ffffff" style="stroke-opacity: 0; stroke-width: 0; stroke-linecap: round; stroke-linejoin: round; marker-start: none; marker-end: none;"/><path d="M8,5 C10,2 10,2 5.67,3.6  C1.8,4.9 1.8,5.1 5.67,6.4 C10,8 10,8 8,5 z" fill="#ffffff" style=""/><path d="M2,5 C0,2 0,2 4.33,3.6  C8.2,4.9 8.2,5.1 4.33,6.4 C0,8 0,8 2,5 z" fill="#ffffff" style=""/><polyline points="788.50719999999,532.0048125629365,788.50719999999,550.0050130863922" fill="none" stroke="#ffffff" style="stroke-opacity: 0; stroke-width: 0; stroke-linecap: round; stroke-linejoin: round; marker-start: none; marker-end: none;"/><path d="M8,5 C10,2 10,2 5.67,3.6  C1.8,4.9 1.8,5.1 5.67,6.4 C10,8 10,8 8,5 z" fill="#0000ff" style=""/><path d="M2,5 C0,2 0,2 4.33,3.6  C8.2,4.9 8.2,5.1 4.33,6.4 C0,8 0,8 2,5 z" fill="#0000ff" style=""/><polyline points="657.9999999999836,496.00441151602513,676.0000000000082,568.0052136098478,693.9999999999918,496.00441151602513,712.0000000000164,568.0052136098478,730,496.00441151602513,730,568.0052136098478,730,496.00441151602513,783.9999999999918,568.0052136098478,783.9999999999918,496.00441151602513" fill="none" stroke="#0000ff" style="stroke-opacity: 0.9; stroke-width: 6; stroke-linecap: round; stroke-linejoin: round; marker-start: none; marker-end: none;"/><path d="M8,5 C10,2 10,2 5.67,3.6  C1.8,4.9 1.8,5.1 5.67,6.4 C10,8 10,8 8,5 z" fill="#000000" style=""/><path d="M2,5 C0,2 0,2 4.33,3.6  C8.2,4.9 8.2,5.1 4.33,6.4 C0,8 0,8 2,5 z" fill="#000000" style=""/><polyline points="856.0000000000082,424.0036094222024,783.9999999999918,424.0036094222024,730,496.00441151602513,730,568.0052136098478,693.9999999999918,622.005815180215" fill="none" stroke="#000000" style="stroke-opacity: 0.9; stroke-width: 6; stroke-linecap: round; stroke-linejoin: round; marker-start: none; marker-end: none;"/><path d="M8,5 C10,2 10,2 5.67,3.6  C1.8,4.9 1.8,5.1 5.67,6.4 C10,8 10,8 8,5 z" fill="#2a2a5a" style=""/><path d="M2,5 C0,2 0,2 4.33,3.6  C8.2,4.9 8.2,5.1 4.33,6.4 C0,8 0,8 2,5 z" fill="#2a2a5a" style=""/><polyline points="892.0000000000164,334.0026068049239,927.9999999999836,334.0026068049239" fill="none" stroke="#2a2a5a" style="stroke-opacity: 0.7; stroke-width: 6; stroke-linecap: round; stroke-linejoin: round; marker-start: none; marker-end: none;"/><path d="M8,5 C10,2 10,2 5.67,3.6  C1.8,4.9 1.8,5.1 5.67,6.4 C10,8 10,8 8,5 z" fill="#b6b61b" style=""/><path d="M2,5 C0,2 0,2 4.33,3.6  C8.2,4.9 8.2,5.1 4.33,6.4 C0,8 0,8 2,5 z" fill="#b6b61b" style=""/><polyline points="892.0000000000164,334.0026068049239,982.0000000000164,244.00160418764548,982.0000000000164,208.00120314073413,982.0000000000164,172.00080209382276,982.0000000000164,136.00040104691138,982.0000000000164,100" fill="none" stroke="#b6b61b" style="stroke-opacity: 0.9; stroke-width: 6; stroke-linecap: round; stroke-linejoin: round; marker-start: none; marker-end: none;"/><path d="M8,5 C10,2 10,2 5.67,3.6  C1.8,4.9 1.8,5.1 5.67,6.4 C10,8 10,8 8,5 z" fill="#199f19" style=""/><path d="M2,5 C0,2 0,2 4.33,3.6  C8.2,4.9 8.2,5.1 4.33,6.4 C0,8 0,8 2,5 z" fill="#199f19" style=""/><polyline points="496.0000000000082,730.007018320949,460,730.007018320949,423.9999999999918,730.007018320949,387.99999999998363,730.007018320949,352.00000000001637,730.007018320949,316.0000000000082,730.007018320949,280,730.007018320949,243.99999999999181,730.007018320949,207.99999999998363,730.007018320949,172.00000000001637,730.007018320949,136.00000000000819,730.007018320949,100,730.007018320949" fill="none" stroke="#199f19" style="stroke-opacity: 0.9; stroke-width: 6; stroke-linecap: round; stroke-linejoin: round; marker-start: none; marker-end: none;"/><path d="M8,5 C10,2 10,2 5.67,3.6  C1.8,4.9 1.8,5.1 5.67,6.4 C10,8 10,8 8,5 z" fill="#db1f1f" style=""/><path d="M2,5 C0,2 0,2 4.33,3.6  C8.2,4.9 8.2,5.1 4.33,6.4 C0,8 0,8 2,5 z" fill="#db1f1f" style=""/><polyline points="496.0000000000082,334.0026068049239,496.0000000000082,370.00300785183526,496.0000000000082,406.00340889874667,496.0000000000082,442.003809945658,496.0000000000082,478.0042109925694,496.0000000000082,514.0046120394809,496.0000000000082,550.0050130863922,496.0000000000082,586.0054141333036,496.0000000000082,622.005815180215,496.0000000000082,658.0062162271263,496.0000000000082,694.0066172740376,496.0000000000082,730.007018320949,496.0000000000082,766.0074193678604,496.0000000000082,802.0078204147719,496.0000000000082,838.008221461683,496.0000000000082,874.0086225085945" fill="none" stroke="#db1f1f" style="stroke-opacity: 0.9; stroke-width: 6; stroke-linecap: round; stroke-linejoin: round; marker-start: none; marker-end: none;"/><path d="M8,5 C10,2 10,2 5.67,3.6  C1.8,4.9 1.8,5.1 5.67,6.4 C10,8 10,8 8,5 z" fill="#2a2a5a" style=""/><path d="M2,5 C0,2 0,2 4.33,3.6  C8.2,4.9 8.2,5.1 4.33,6.4 C0,8 0,8 2,5 z" fill="#2a2a5a" style=""/><polyline points="387.99999999998363,334.0026068049239,423.9999999999918,334.0026068049239,460,334.0026068049239,496.0000000000082,334.0026068049239,532.0000000000164,334.0026068049239,567.9999999999836,334.0026068049239,603.9999999999918,334.0026068049239,640,334.0026068049239,676.0000000000082,334.0026068049239,712.0000000000164,334.0026068049239,747.9999999999836,334.0026068049239,783.9999999999918,334.0026068049239,820,334.0026068049239,856.0000000000082,334.0026068049239,892.0000000000164,334.0026068049239" fill="none" stroke="#2a2a5a" style="stroke-opacity: 0.9; stroke-width: 6; stroke-linecap: round; stroke-linejoin: round; marker-start: none; marker-end: none;"/><circle cx="788.50719999999" cy="532.0048125629365" r="2" fill="#ffffff" stroke="#ffffff" style="stroke-width: 0; fill-opacity: 1;"/><circle cx="788.50719999999" cy="550.0050130863922" r="2" fill="#ffffff" stroke="#ffffff" style="stroke-width: 0; fill-opacity: 1;"/><circle cx="927.9999999999836" cy="334.0026068049239" r="2" fill="#ffffff" stroke="#6464a6" style="stroke-width: 0; fill-opacity: 0;"/><rect x="886.0000000000164" y="328.0026068049239" width="12" height="12" fill="#ffffff" stroke="#b6b61b" transform="matrix(1,0,0,1,0,0)" style="stroke-width: 3; fill-opacity: 1;"/><rect x="976.0000000000164" y="238.00160418764548" width="12" height="12" fill="#ffffff" stroke="#b6b61b" transform="matrix(1,0,0,1,0,0)" style="stroke-width: 3; fill-opacity: 1;"/><rect x="976.0000000000164" y="202.00120314073413" width="12" height="12" fill="#ffffff" stroke="#b6b61b" transform="matrix(1,0,0,1,0,0)" style="stroke-width: 3; fill-opacity: 1;"/><rect x="976.0000000000164" y="166.00080209382276" width="12" height="12" fill="#ffffff" stroke="#b6b61b" transform="matrix(1,0,0,1,0,0)" style="stroke-width: 3; fill-opacity: 1;"/><rect x="976.0000000000164" y="130.00040104691138" width="12" height="12" fill="#ffffff" stroke="#b6b61b" transform="matrix(1,0,0,1,0,0)" style="stroke-width: 3; fill-opacity: 1;"/><rect x="976.0000000000164" y="94" width="12" height="12" fill="#ffffff" stroke="#b6b61b" transform="matrix(1,0,0,1,0,0)" style="stroke-width: 3; fill-opacity: 1;"/><rect x="454" y="724.007018320949" width="12" height="12" fill="#ffffff" stroke="#199f19" transform="matrix(1,0,0,1,0,0)" style="stroke-width: 3; fill-opacity: 1;"/><rect x="417.9999999999918" y="724.007018320949" width="12" height="12" fill="#ffffff" stroke="#199f19" transform="matrix(1,0,0,1,0,0)" style="stroke-width: 3; fill-opacity: 1;"/><rect x="381.99999999998363" y="724.007018320949" width="12" height="12" fill="#ffffff" stroke="#199f19" transform="matrix(1,0,0,1,0,0)" style="stroke-width: 3; fill-opacity: 1;"/><rect x="346.00000000001637" y="724.007018320949" width="12" height="12" fill="#ffffff" stroke="#199f19" transform="matrix(1,0,0,1,0,0)" style="stroke-width: 3; fill-opacity: 1;"/><rect x="310.0000000000082" y="724.007018320949" width="12" height="12" fill="#ffffff" stroke="#199f19" transform="matrix(1,0,0,1,0,0)" style="stroke-width: 3; fill-opacity: 1;"/><rect x="274" y="724.007018320949" width="12" height="12" fill="#ffffff" stroke="#199f19" transform="matrix(1,0,0,1,0,0)" style="stroke-width: 3; fill-opacity: 1;"/><rect x="237.99999999999181" y="724.007018320949" width="12" height="12" fill="#ffffff" stroke="#199f19" transform="matrix(1,0,0,1,0,0)" style="stroke-width: 3; fill-opacity: 1;"/><rect x="201.99999999998363" y="724.007018320949" width="12" height="12" fill="#ffffff" stroke="#199f19" transform="matrix(1,0,0,1,0,0)" style="stroke-width: 3; fill-opacity: 1;"/><rect x="166.00000000001637" y="724.007018320949" width="12" height="12" fill="#ffffff" stroke="#199f19" transform="matrix(1,0,0,1,0,0)" style="stroke-width: 3; fill-opacity: 1;"/><rect x="130.00000000000819" y="724.007018320949" width="12" height="12" fill="#ffffff" stroke="#199f19" transform="matrix(1,0,0,1,0,0)" style="stroke-width: 3; fill-opacity: 1;"/><rect x="94" y="724.007018320949" width="12" height="12" fill="#ffffff" stroke="#199f19" transform="matrix(1,0,0,1,0,0)" style="stroke-width: 3; fill-opacity: 1;"/><rect x="490.0000000000082" y="364.00300785183526" width="12" height="12" fill="#ffffff" stroke="#db1f1f" transform="matrix(1,0,0,1,0,0)" style="stroke-width: 3; fill-opacity: 1;"/><rect x="490.0000000000082" y="400.00340889874667" width="12" height="12" fill="#ffffff" stroke="#db1f1f" transform="matrix(1,0,0,1,0,0)" style="stroke-width: 3; fill-opacity: 1;"/><rect x="490.0000000000082" y="436.003809945658" width="12" height="12" fill="#ffffff" stroke="#db1f1f" transform="matrix(1,0,0,1,0,0)" style="stroke-width: 3; fill-opacity: 1;"/><rect x="490.0000000000082" y="472.0042109925694" width="12" height="12" fill="#ffffff" stroke="#db1f1f" transform="matrix(1,0,0,1,0,0)" style="stroke-width: 3; fill-opacity: 1;"/><rect x="490.0000000000082" y="508.0046120394809" width="12" height="12" fill="#ffffff" stroke="#db1f1f" transform="matrix(1,0,0,1,0,0)" style="stroke-width: 3; fill-opacity: 1;"/><rect x="490.0000000000082" y="544.0050130863922" width="12" height="12" fill="#ffffff" stroke="#db1f1f" transform="matrix(1,0,0,1,0,0)" style="stroke-width: 3; fill-opacity: 1;"/><rect x="490.0000000000082" y="580.0054141333036" width="12" height="12" fill="#ffffff" stroke="#db1f1f" transform="matrix(1,0,0,1,0,0)" style="stroke-width: 3; fill-opacity: 1;"/><rect x="490.0000000000082" y="616.005815180215" width="12" height="12" fill="#ffffff" stroke="#db1f1f" transform="matrix(1,0,0,1,0,0)" style="stroke-width: 3; fill-opacity: 1;"/><rect x="490.0000000000082" y="652.0062162271263" width="12" height="12" fill="#ffffff" stroke="#db1f1f" transform="matrix(1,0,0,1,0,0)" style="stroke-width: 3; fill-opacity: 1;"/><rect x="490.0000000000082" y="688.0066172740376" width="12" height="12" fill="#ffffff" stroke="#db1f1f" transform="matrix(1,0,0,1,0,0)" style="stroke-width: 3; fill-opacity: 1;"/><rect x="490.0000000000082" y="724.007018320949" width="12" height="12" fill="#ffffff" stroke="#db1f1f" transform="matrix(1,0,0,1,0,0)" style="stroke-width: 3; fill-opacity: 1;"/><rect x="490.0000000000082" y="760.0074193678604" width="12" height="12" fill="#ffffff" stroke="#db1f1f" transform="matrix(1,0,0,1,0,0)" style="stroke-width: 3; fill-opacity: 1;"/><rect x="490.0000000000082" y="796.0078204147719" width="12" height="12" fill="#ffffff" stroke="#db1f1f" transform="matrix(1,0,0,1,0,0)" style="stroke-width: 3; fill-opacity: 1;"/><rect x="490.0000000000082" y="832.008221461683" width="12" height="12" fill="#ffffff" stroke="#db1f1f" transform="matrix(1,0,0,1,0,0)" style="stroke-width: 3; fill-opacity: 1;"/><rect x="490.0000000000082" y="868.0086225085945" width="12" height="12" fill="#ffffff" stroke="#db1f1f" transform="matrix(1,0,0,1,0,0)" style="stroke-width: 3; fill-opacity: 1;"/><rect x="381.99999999998363" y="328.0026068049239" width="12" height="12" fill="#ffffff" stroke="#2a2a5a" transform="matrix(1,0,0,1,0,0)" style="stroke-width: 3; fill-opacity: 1;"/><rect x="417.9999999999918" y="328.0026068049239" width="12" height="12" fill="#ffffff" stroke="#2a2a5a" transform="matrix(1,0,0,1,0,0)" style="stroke-width: 3; fill-opacity: 1;"/><rect x="454" y="328.0026068049239" width="12" height="12" fill="#ffffff" stroke="#2a2a5a" transform="matrix(1,0,0,1,0,0)" style="stroke-width: 3; fill-opacity: 1;"/><rect x="490.0000000000082" y="328.0026068049239" width="12" height="12" fill="#ffffff" stroke="#2a2a5a" transform="matrix(1,0,0,1,0,0)" style="stroke-width: 3; fill-opacity: 1;"/><rect x="526.0000000000164" y="328.0026068049239" width="12" height="12" fill="#ffffff" stroke="#2a2a5a" transform="matrix(1,0,0,1,0,0)" style="stroke-width: 3; fill-opacity: 1;"/><rect x="561.9999999999836" y="328.0026068049239" width="12" height="12" fill="#ffffff" stroke="#2a2a5a" transform="matrix(1,0,0,1,0,0)" style="stroke-width: 3; fill-opacity: 1;"/><rect x="597.9999999999918" y="328.0026068049239" width="12" height="12" fill="#ffffff" stroke="#2a2a5a" transform="matrix(1,0,0,1,0,0)" style="stroke-width: 3; fill-opacity: 1;"/><rect x="634" y="328.0026068049239" width="12" height="12" fill="#ffffff" stroke="#2a2a5a" transform="matrix(1,0,0,1,0,0)" style="stroke-width: 3; fill-opacity: 1;"/><rect x="670.0000000000082" y="328.0026068049239" width="12" height="12" fill="#ffffff" stroke="#2a2a5a" transform="matrix(1,0,0,1,0,0)" style="stroke-width: 3; fill-opacity: 1;"/><rect x="706.0000000000164" y="328.0026068049239" width="12" height="12" fill="#ffffff" stroke="#2a2a5a" transform="matrix(1,0,0,1,0,0)" style="stroke-width: 3; fill-opacity: 1;"/><rect x="741.9999999999836" y="328.0026068049239" width="12" height="12" fill="#ffffff" stroke="#2a2a5a" transform="matrix(1,0,0,1,0,0)" style="stroke-width: 3; fill-opacity: 1;"/><rect x="777.9999999999918" y="328.0026068049239" width="12" height="12" fill="#ffffff" stroke="#2a2a5a" transform="matrix(1,0,0,1,0,0)" style="stroke-width: 3; fill-opacity: 1;"/><rect x="814" y="328.0026068049239" width="12" height="12" fill="#ffffff" stroke="#2a2a5a" transform="matrix(1,0,0,1,0,0)" style="stroke-width: 3; fill-opacity: 1;"/><rect x="850.0000000000082" y="328.0026068049239" width="12" height="12" fill="#ffffff" stroke="#2a2a5a" transform="matrix(1,0,0,1,0,0)" style="stroke-width: 3; fill-opacity: 1;"/><rect x="886.0000000000164" y="328.0026068049239" width="12" height="12" fill="#ffffff" stroke="#2a2a5a" transform="matrix(1,0,0,1,0,0)" style="stroke-width: 3; fill-opacity: 1;"/><text x="808.50719999999" y="538.0048125629365" fill="#000000" transform="matrix(1,0,0,1,0,0)" style="font-size: 18px; font-family: Roboto, Arial, sans-serif; font-weight: 900; text-anchor: start; letter-spacing: 0em;">区境ネットワーク</text><text x="808.50719999999" y="556.0050130863922" fill="#000000" transform="matrix(1,0,0,1,0,0)" style="font-size: 18px; font-family: Roboto, Arial, sans-serif; font-weight: 900; text-anchor: start; letter-spacing: 0em;">Kuzakai Network</text><text x="935.9999999999836" y="338.0026068049239" fill="#6464a6" transform="matrix(1,0,0,1,0,0)" style="font-size: 14px; font-family: Roboto, Arial, sans-serif; font-weight: 900; text-anchor: start; letter-spacing: 0em;">TR彗城線へ直通</text><text x="1002.0000000000164" y="250.00160418764548" fill="#000000" transform="matrix(1,0,0,1,0,0)" style="font-size: 18px; font-family: Roboto, Arial, sans-serif; font-weight: 900; text-anchor: start; letter-spacing: 0em;">北城公園 Kitashiro-Kōen</text><text x="1002.0000000000164" y="214.00120314073413" fill="#000000" transform="matrix(1,0,0,1,0,0)" style="font-size: 18px; font-family: Roboto, Arial, sans-serif; font-weight: 900; text-anchor: start; letter-spacing: 0em;">上城野 Kami-Kino</text><text x="1002.0000000000164" y="178.00080209382276" fill="#000000" transform="matrix(1,0,0,1,0,0)" style="font-size: 18px; font-family: Roboto, Arial, sans-serif; font-weight: 900; text-anchor: start; letter-spacing: 0em;">日和髙崎 Hiyoritakasaki</text><text x="1002.0000000000164" y="142.00040104691138" fill="#000000" transform="matrix(1,0,0,1,0,0)" style="font-size: 18px; font-family: Roboto, Arial, sans-serif; font-weight: 900; text-anchor: start; letter-spacing: 0em;">離小野 Riono</text><text x="1002.0000000000164" y="106" fill="#000000" transform="matrix(1,0,0,1,0,0)" style="font-size: 18px; font-family: Roboto, Arial, sans-serif; font-weight: 900; text-anchor: start; letter-spacing: 0em;">宗映山 Soueisan</text><text x="460" y="710.007018320949" fill="#000000" transform="matrix(1,0,0,1,0,0)" style="font-size: 18px; font-family: Roboto, Arial, sans-serif; font-weight: 900; text-anchor: end; writing-mode: tb; letter-spacing: -0.1em;">Ritto 立砥</text><text x="423.9999999999918" y="710.007018320949" fill="#000000" transform="matrix(1,0,0,1,0,0)" style="font-size: 18px; font-family: Roboto, Arial, sans-serif; font-weight: 900; text-anchor: end; writing-mode: tb; letter-spacing: -0.1em;">Nishigoku 西石</text><text x="387.99999999998363" y="710.007018320949" fill="#000000" transform="matrix(1,0,0,1,0,0)" style="font-size: 18px; font-family: Roboto, Arial, sans-serif; font-weight: 900; text-anchor: end; writing-mode: tb; letter-spacing: -0.1em;">Kami-Nagao 上長尾</text><text x="352.00000000001637" y="710.007018320949" fill="#000000" transform="matrix(1,0,0,1,0,0)" style="font-size: 18px; font-family: Roboto, Arial, sans-serif; font-weight: 900; text-anchor: end; writing-mode: tb; letter-spacing: -0.1em;">Nagaosato 長尾里</text><text x="316.0000000000082" y="710.007018320949" fill="#000000" transform="matrix(1,0,0,1,0,0)" style="font-size: 18px; font-family: Roboto, Arial, sans-serif; font-weight: 900; text-anchor: end; writing-mode: tb; letter-spacing: -0.1em;">Kagesumidai 影紺台</text><text x="280" y="710.007018320949" fill="#000000" transform="matrix(1,0,0,1,0,0)" style="font-size: 18px; font-family: Roboto, Arial, sans-serif; font-weight: 900; text-anchor: end; writing-mode: tb; letter-spacing: -0.1em;">Kōnohara 河野原</text><text x="243.99999999999181" y="710.007018320949" fill="#000000" transform="matrix(1,0,0,1,0,0)" style="font-size: 18px; font-family: Roboto, Arial, sans-serif; font-weight: 900; text-anchor: end; writing-mode: tb; letter-spacing: -0.1em;">Hōya 方椰</text><text x="207.99999999998363" y="710.007018320949" fill="#000000" transform="matrix(1,0,0,1,0,0)" style="font-size: 18px; font-family: Roboto, Arial, sans-serif; font-weight: 900; text-anchor: end; writing-mode: tb; letter-spacing: -0.1em;">Nishi-Hōya 西方椰</text><text x="172.00000000001637" y="710.007018320949" fill="#000000" transform="matrix(1,0,0,1,0,0)" style="font-size: 18px; font-family: Roboto, Arial, sans-serif; font-weight: 900; text-anchor: end; writing-mode: tb; letter-spacing: -0.1em;">Huridome 振留</text><text x="136.00000000000819" y="710.007018320949" fill="#000000" transform="matrix(1,0,0,1,0,0)" style="font-size: 18px; font-family: Roboto, Arial, sans-serif; font-weight: 900; text-anchor: end; writing-mode: tb; letter-spacing: -0.1em;">Kawabata-Kita 川端北</text><text x="100" y="710.007018320949" fill="#000000" transform="matrix(1,0,0,1,0,0)" style="font-size: 18px; font-family: Roboto, Arial, sans-serif; font-weight: 900; text-anchor: end; writing-mode: tb; letter-spacing: -0.1em;">Kawaki 叶涌</text><text x="516.0000000000082" y="376.00300785183526" fill="#000000" transform="matrix(1,0,0,1,0,0)" style="font-size: 18px; font-family: Roboto, Arial, sans-serif; font-weight: 900; text-anchor: start; letter-spacing: 0em;">甲斐岡 Kaioka</text><text x="516.0000000000082" y="412.00340889874667" fill="#000000" transform="matrix(1,0,0,1,0,0)" style="font-size: 18px; font-family: Roboto, Arial, sans-serif; font-weight: 900; text-anchor: start; letter-spacing: 0em;">沖田 Okita</text><text x="516.0000000000082" y="448.003809945658" fill="#000000" transform="matrix(1,0,0,1,0,0)" style="font-size: 18px; font-family: Roboto, Arial, sans-serif; font-weight: 900; text-anchor: start; letter-spacing: 0em;">沖田本町 Okita-Honchō</text><text x="516.0000000000082" y="484.0042109925694" fill="#000000" transform="matrix(1,0,0,1,0,0)" style="font-size: 18px; font-family: Roboto, Arial, sans-serif; font-weight: 900; text-anchor: start; letter-spacing: 0em;">室佐乃 Murosano</text><text x="516.0000000000082" y="520.0046120394809" fill="#000000" transform="matrix(1,0,0,1,0,0)" style="font-size: 18px; font-family: Roboto, Arial, sans-serif; font-weight: 900; text-anchor: start; letter-spacing: 0em;">静波 Shizunami</text><text x="516.0000000000082" y="556.0050130863922" fill="#000000" transform="matrix(1,0,0,1,0,0)" style="font-size: 18px; font-family: Roboto, Arial, sans-serif; font-weight: 900; text-anchor: start; letter-spacing: 0em;">小矢町 Koyachō</text><text x="516.0000000000082" y="592.0054141333036" fill="#000000" transform="matrix(1,0,0,1,0,0)" style="font-size: 18px; font-family: Roboto, Arial, sans-serif; font-weight: 900; text-anchor: start; letter-spacing: 0em;">元小矢 Moto-Koya</text><text x="516.0000000000082" y="628.005815180215" fill="#000000" transform="matrix(1,0,0,1,0,0)" style="font-size: 18px; font-family: Roboto, Arial, sans-serif; font-weight: 900; text-anchor: start; letter-spacing: 0em;">封原 Tozihara</text><text x="516.0000000000082" y="664.0062162271263" fill="#000000" transform="matrix(1,0,0,1,0,0)" style="font-size: 18px; font-family: Roboto, Arial, sans-serif; font-weight: 900; text-anchor: start; letter-spacing: 0em;">沿戸 Ento</text><text x="516.0000000000082" y="700.0066172740376" fill="#000000" transform="matrix(1,0,0,1,0,0)" style="font-size: 18px; font-family: Roboto, Arial, sans-serif; font-weight: 900; text-anchor: start; letter-spacing: 0em;">栖実野北 Sumino-Kita</text><text x="516.0000000000082" y="736.007018320949" fill="#000000" transform="matrix(1,0,0,1,0,0)" style="font-size: 18px; font-family: Roboto, Arial, sans-serif; font-weight: 900; text-anchor: start; letter-spacing: 0em;">栖実野 Sumino</text><text x="516.0000000000082" y="772.0074193678604" fill="#000000" transform="matrix(1,0,0,1,0,0)" style="font-size: 18px; font-family: Roboto, Arial, sans-serif; font-weight: 900; text-anchor: start; letter-spacing: 0em;">椎名 Shīna</text><text x="516.0000000000082" y="808.0078204147719" fill="#000000" transform="matrix(1,0,0,1,0,0)" style="font-size: 18px; font-family: Roboto, Arial, sans-serif; font-weight: 900; text-anchor: start; letter-spacing: 0em;">南椎名 Minami-Shīna</text><text x="516.0000000000082" y="844.008221461683" fill="#000000" transform="matrix(1,0,0,1,0,0)" style="font-size: 18px; font-family: Roboto, Arial, sans-serif; font-weight: 900; text-anchor: start; letter-spacing: 0em;">鞍付 Kuratsuke</text><text x="516.0000000000082" y="880.0086225085945" fill="#000000" transform="matrix(1,0,0,1,0,0)" style="font-size: 18px; font-family: Roboto, Arial, sans-serif; font-weight: 900; text-anchor: start; letter-spacing: 0em;">新朋羚 Shin-Nakamo</text><text x="387.99999999998363" y="314.0026068049239" fill="#000000" transform="matrix(1,0,0,1,0,0)" style="font-size: 18px; font-family: Roboto, Arial, sans-serif; font-weight: 900; text-anchor: end; writing-mode: tb; letter-spacing: -0.1em;">Tanjin 短神</text><text x="423.9999999999918" y="314.0026068049239" fill="#000000" transform="matrix(1,0,0,1,0,0)" style="font-size: 18px; font-family: Roboto, Arial, sans-serif; font-weight: 900; text-anchor: end; writing-mode: tb; letter-spacing: -0.1em;">Tsujiyama 辻山</text><text x="460" y="314.0026068049239" fill="#000000" transform="matrix(1,0,0,1,0,0)" style="font-size: 18px; font-family: Roboto, Arial, sans-serif; font-weight: 900; text-anchor: end; writing-mode: tb; letter-spacing: -0.1em;">Minami-Inui 南乾</text><text x="496.0000000000082" y="314.0026068049239" fill="#000000" transform="matrix(1,0,0,1,0,0)" style="font-size: 18px; font-family: Roboto, Arial, sans-serif; font-weight: 900; text-anchor: end; writing-mode: tb; letter-spacing: -0.1em;">Yarihara 槍原</text><text x="532.0000000000164" y="314.0026068049239" fill="#000000" transform="matrix(1,0,0,1,0,0)" style="font-size: 18px; font-family: Roboto, Arial, sans-serif; font-weight: 900; text-anchor: end; writing-mode: tb; letter-spacing: -0.1em;">Minami-Yarihara 南槍原</text><text x="567.9999999999836" y="314.0026068049239" fill="#000000" transform="matrix(1,0,0,1,0,0)" style="font-size: 18px; font-family: Roboto, Arial, sans-serif; font-weight: 900; text-anchor: end; writing-mode: tb; letter-spacing: -0.1em;">Sakaebata 栄端</text><text x="603.9999999999918" y="314.0026068049239" fill="#000000" transform="matrix(1,0,0,1,0,0)" style="font-size: 18px; font-family: Roboto, Arial, sans-serif; font-weight: 900; text-anchor: end; writing-mode: tb; letter-spacing: -0.1em;">Nakai-Kōen 中伊公園</text><text x="640" y="314.0026068049239" fill="#000000" transform="matrix(1,0,0,1,0,0)" style="font-size: 18px; font-family: Roboto, Arial, sans-serif; font-weight: 900; text-anchor: end; writing-mode: tb; letter-spacing: -0.1em;">Nakai 中伊</text><text x="676.0000000000082" y="314.0026068049239" fill="#000000" transform="matrix(1,0,0,1,0,0)" style="font-size: 18px; font-family: Roboto, Arial, sans-serif; font-weight: 900; text-anchor: end; writing-mode: tb; letter-spacing: -0.1em;">Inoyori 井野寄</text><text x="712.0000000000164" y="314.0026068049239" fill="#000000" transform="matrix(1,0,0,1,0,0)" style="font-size: 18px; font-family: Roboto, Arial, sans-serif; font-weight: 900; text-anchor: end; writing-mode: tb; letter-spacing: -0.1em;">Meiki 芽域</text><text x="747.9999999999836" y="314.0026068049239" fill="#000000" transform="matrix(1,0,0,1,0,0)" style="font-size: 18px; font-family: Roboto, Arial, sans-serif; font-weight: 900; text-anchor: end; writing-mode: tb; letter-spacing: -0.1em;">Kita-Meiki 北芽域</text><text x="783.9999999999918" y="314.0026068049239" fill="#000000" transform="matrix(1,0,0,1,0,0)" style="font-size: 18px; font-family: Roboto, Arial, sans-serif; font-weight: 900; text-anchor: end; writing-mode: tb; letter-spacing: -0.1em;">Mukōji 報向寺</text><text x="820" y="314.0026068049239" fill="#000000" transform="matrix(1,0,0,1,0,0)" style="font-size: 18px; font-family: Roboto, Arial, sans-serif; font-weight: 900; text-anchor: end; writing-mode: tb; letter-spacing: -0.1em;">Hosato-Kihou 保里城報</text><text x="856.0000000000082" y="314.0026068049239" fill="#000000" transform="matrix(1,0,0,1,0,0)" style="font-size: 18px; font-family: Roboto, Arial, sans-serif; font-weight: 900; text-anchor: end; writing-mode: tb; letter-spacing: -0.1em;">Kino-Nishi 城野西</text><text x="892.0000000000164" y="314.0026068049239" fill="#000000" transform="matrix(1,0,0,1,0,0)" style="font-size: 18px; font-family: Roboto, Arial, sans-serif; font-weight: 900; text-anchor: end; writing-mode: tb; letter-spacing: -0.1em;">Kino-Chuō 城野中央</text></svg>