<svg height="1644.986675859494" version="1.1" width="2143.999999999992" xmlns="http://www.w3.org/2000/svg" id="svgSvg" viewBox="0 0 2143.999999999992 1644.986675859494" style="width: 1366px; height: 1087.68px;"><desc>Created with Snap</desc><defs/><path d="M8,5 C10,2 10,2 5.67,3.6  C1.8,4.9 1.8,5.1 5.67,6.4 C10,8 10,8 8,5 z" fill="#ffffff" style=""/><path d="M2,5 C0,2 0,2 4.33,3.6  C8.2,4.9 8.2,5.1 4.33,6.4 C0,8 0,8 2,5 z" fill="#ffffff" style=""/><polyline points="657.9999999999836,100,657.9999999999836,324.16444597658494,657.9999999999836,510.9681509570698,657.9999999999836,809.8540789258444,657.9999999999836,959.2970429102292,657.9999999999836,1295.5437118751038,496.0000000000082,1426.3063053614412,387.99999999998363,1426.3063053614412,207.99999999998363,1426.3063053614412,100,1426.3063053614412,1000,398.88592796877464,1252.0000000000164,398.88592796877464,1396.0000000000082,398.88592796877464,1792.0000000000164,398.88592796877464,2043.9999999999918,398.88592796877464" fill="none" stroke="#ffffff" style="stroke-opacity: 0; stroke-width: 6; stroke-linecap: round; stroke-linejoin: round; marker-start: none; marker-end: none;"/><path d="M8,5 C10,2 10,2 5.67,3.6  C1.8,4.9 1.8,5.1 5.67,6.4 C10,8 10,8 8,5 z" fill="#ff0000" style=""/><path d="M2,5 C0,2 0,2 4.33,3.6  C8.2,4.9 8.2,5.1 4.33,6.4 C0,8 0,8 2,5 z" fill="#ff0000" style=""/><polyline points="640,1295.5437118751038,496.0000000000082,1444.986675859494,387.99999999998363,1444.986675859494,207.99999999998363,1444.986675859494,100,1444.986675859494" fill="none" stroke="#ff0000" style="stroke-opacity: 1; stroke-width: 6; stroke-linecap: round; stroke-linejoin: round; marker-start: none; marker-end: none;"/><path d="M8,5 C10,2 10,2 5.67,3.6  C1.8,4.9 1.8,5.1 5.67,6.4 C10,8 10,8 8,5 z" fill="#808080" style=""/><path d="M2,5 C0,2 0,2 4.33,3.6  C8.2,4.9 8.2,5.1 4.33,6.4 C0,8 0,8 2,5 z" fill="#808080" style=""/><polyline points="603.9999999999918,1295.5437118751038,496.0000000000082,1407.6259348633937,460,1407.6259348633937,423.9999999999918,1407.6259348633937,387.99999999998363,1407.6259348633937,352.00000000001637,1407.6259348633937,316.0000000000082,1407.6259348633937,280,1407.6259348633937,244.00000000003274,1407.6259348633937,207.99999999998363,1407.6259348633937,172.00000000001637,1407.6259348633937,135.99999999996726,1407.6259348633937,100,1407.6259348633937" fill="none" stroke="#808080" style="stroke-opacity: 1; stroke-width: 6; stroke-linecap: round; stroke-linejoin: round; marker-start: none; marker-end: none;"/><path d="M8,5 C10,2 10,2 5.67,3.6  C1.8,4.9 1.8,5.1 5.67,6.4 C10,8 10,8 8,5 z" fill="#008000" style=""/><path d="M2,5 C0,2 0,2 4.33,3.6  C8.2,4.9 8.2,5.1 4.33,6.4 C0,8 0,8 2,5 z" fill="#008000" style=""/><polyline points="712.0000000000164,324.16444597658494,856.0000000000082,361.5251869726798,1000,361.5251869726798,1072.0000000000164,361.5251869726798,1252.0000000000164,361.5251869726798,1396.0000000000082,361.5251869726798,1792.0000000000164,361.5251869726798,2043.9999999999918,361.5251869726798" fill="none" stroke="#008000" style="stroke-opacity: 1; stroke-width: 6; stroke-linecap: round; stroke-linejoin: round; marker-start: none; marker-end: none;"/><path d="M8,5 C10,2 10,2 5.67,3.6  C1.8,4.9 1.8,5.1 5.67,6.4 C10,8 10,8 8,5 z" fill="#ff0000" style=""/><path d="M2,5 C0,2 0,2 4.33,3.6  C8.2,4.9 8.2,5.1 4.33,6.4 C0,8 0,8 2,5 z" fill="#ff0000" style=""/><polyline points="640,324.16444597658494,856.0000000000082,398.88592796877464,1000,398.88592796877464,1072.0000000000164,398.88592796877464,1143.9999999999918,398.88592796877464,1252.0000000000164,398.88592796877464,1360,398.88592796877464,1396.0000000000082,398.88592796877464,1467.9999999999836,398.88592796877464,1540,398.88592796877464,1683.9999999999918,398.88592796877464,1792.0000000000164,398.88592796877464,1863.9999999999918,398.88592796877464,1900,398.88592796877464,2007.9999999999836,398.88592796877464,2043.9999999999918,398.88592796877464" fill="none" stroke="#ff0000" style="stroke-opacity: 1; stroke-width: 6; stroke-linecap: round; stroke-linejoin: round; marker-start: none; marker-end: none;"/><path d="M8,5 C10,2 10,2 5.67,3.6  C1.8,4.9 1.8,5.1 5.67,6.4 C10,8 10,8 8,5 z" fill="#808080" style=""/><path d="M2,5 C0,2 0,2 4.33,3.6  C8.2,4.9 8.2,5.1 4.33,6.4 C0,8 0,8 2,5 z" fill="#808080" style=""/><polyline points="603.9999999999918,324.16444597658494,856.0000000000082,436.2466689648748,963.9999999999918,436.2466689648748,1000,436.2466689648748,1036.0000000000082,436.2466689648748,1072.0000000000164,436.2466689648748,1107.9999999999836,436.2466689648748,1143.9999999999918,436.2466689648748,1180,436.2466689648748,1216.0000000000082,436.2466689648748,1252.0000000000164,436.2466689648748,1287.9999999999836,436.2466689648748,1323.9999999999918,436.2466689648748,1360,436.2466689648748,1396.0000000000082,436.2466689648748,1432.0000000000164,436.2466689648748,1467.9999999999836,436.2466689648748,1503.9999999999918,436.2466689648748,1540,436.2466689648748,1576.0000000000082,436.2466689648748,1612.0000000000164,436.2466689648748,1647.9999999999836,436.2466689648748,1683.9999999999918,436.2466689648748,1720,436.2466689648748,1756.0000000000082,436.2466689648748,1792.0000000000164,436.2466689648748,1827.9999999999836,436.2466689648748,1863.9999999999918,436.2466689648748,1900,436.2466689648748,1936.0000000000082,436.2466689648748,1972.0000000000164,436.2466689648748,2007.9999999999836,436.2466689648748,2043.9999999999918,436.2466689648748" fill="none" stroke="#808080" style="stroke-opacity: 1; stroke-width: 6; stroke-linecap: round; stroke-linejoin: round; marker-start: none; marker-end: none;"/><path d="M8,5 C10,2 10,2 5.67,3.6  C1.8,4.9 1.8,5.1 5.67,6.4 C10,8 10,8 8,5 z" fill="#008000" style=""/><path d="M2,5 C0,2 0,2 4.33,3.6  C8.2,4.9 8.2,5.1 4.33,6.4 C0,8 0,8 2,5 z" fill="#008000" style=""/><polyline points="712.0000000000164,100,712.0000000000164,324.16444597658494,712.0000000000164,510.9681509570698,712.0000000000164,809.8540789258444,712.0000000000164,959.2970429102292,712.0000000000164,1295.5437118751038" fill="none" stroke="#008000" style="stroke-opacity: 1; stroke-width: 6; stroke-linecap: round; stroke-linejoin: round; marker-start: none; marker-end: none;"/><path d="M8,5 C10,2 10,2 5.67,3.6  C1.8,4.9 1.8,5.1 5.67,6.4 C10,8 10,8 8,5 z" fill="#ffa500" style=""/><path d="M2,5 C0,2 0,2 4.33,3.6  C8.2,4.9 8.2,5.1 4.33,6.4 C0,8 0,8 2,5 z" fill="#ffa500" style=""/><polyline points="676.0000000000082,100,676.0000000000082,212.08222298828983,676.0000000000082,324.16444597658494,676.0000000000082,398.88592796877464,676.0000000000082,510.9681509570698,676.0000000000082,660.4111149414545,676.0000000000082,809.8540789258444,676.0000000000082,884.5755609180394,676.0000000000082,921.9363019141342,676.0000000000082,959.2970429102292,676.0000000000082,996.6577839063292,676.0000000000082,1146.1007478907138,676.0000000000082,1295.5437118751038" fill="none" stroke="#ffa500" style="stroke-opacity: 1; stroke-width: 6; stroke-linecap: round; stroke-linejoin: round; marker-start: none; marker-end: none;"/><path d="M8,5 C10,2 10,2 5.67,3.6  C1.8,4.9 1.8,5.1 5.67,6.4 C10,8 10,8 8,5 z" fill="#ff0000" style=""/><path d="M2,5 C0,2 0,2 4.33,3.6  C8.2,4.9 8.2,5.1 4.33,6.4 C0,8 0,8 2,5 z" fill="#ff0000" style=""/><polyline points="640,100,640,212.08222298828983,640,286.8037049804848,640,324.16444597658494,640,436.2466689648748,640,510.9681509570698,640,585.6896329492595,640,660.4111149414545,640,697.7718559375546,640,809.8540789258444,640,847.2148199219392,640,884.5755609180394,640,921.9363019141342,640,959.2970429102292,640,1034.0185249024241,640,1146.1007478907138,640,1220.822229882909,640,1295.5437118751038" fill="none" stroke="#ff0000" style="stroke-opacity: 1; stroke-width: 6; stroke-linecap: round; stroke-linejoin: round; marker-start: none; marker-end: none;"/><path d="M8,5 C10,2 10,2 5.67,3.6  C1.8,4.9 1.8,5.1 5.67,6.4 C10,8 10,8 8,5 z" fill="#808080" style=""/><path d="M2,5 C0,2 0,2 4.33,3.6  C8.2,4.9 8.2,5.1 4.33,6.4 C0,8 0,8 2,5 z" fill="#808080" style=""/><polyline points="603.9999999999918,100,603.9999999999918,137.36074099610016,603.9999999999918,174.72148199219498,603.9999999999918,212.08222298828983,603.9999999999918,249.44296398439,603.9999999999918,286.8037049804848,603.9999999999918,324.16444597658494,603.9999999999918,361.5251869726798,603.9999999999918,398.88592796877464,603.9999999999918,436.2466689648748,603.9999999999918,473.6074099609696,603.9999999999918,510.9681509570698,603.9999999999918,548.3288919531647,603.9999999999918,585.6896329492595,603.9999999999918,623.0503739453596,603.9999999999918,660.4111149414545,603.9999999999918,697.7718559375546,603.9999999999918,735.1325969336494,603.9999999999918,772.4933379297443,603.9999999999918,809.8540789258444,603.9999999999918,847.2148199219392,603.9999999999918,884.5755609180394,603.9999999999918,921.9363019141342,603.9999999999918,959.2970429102292,603.9999999999918,996.6577839063292,603.9999999999918,1034.0185249024241,603.9999999999918,1071.3792658985242,603.9999999999918,1108.740006894619,603.9999999999918,1146.1007478907138,603.9999999999918,1183.461488886814,603.9999999999918,1220.822229882909,603.9999999999918,1258.1829708790092,603.9999999999918,1295.5437118751038" fill="none" stroke="#808080" style="stroke-opacity: 1; stroke-width: 6; stroke-linecap: round; stroke-linejoin: round; marker-start: none; marker-end: none;"/><path d="M645.9999999999836,100v-54a12,12,0,1,1,24,0v 54v 54a12,12,0,1,1,-24,0v-54z" fill="#ffffff" stroke="#000000" transform="matrix(0,1,-1,0,758,-558)" style="stroke-width: 3; fill-opacity: 1;"/><path d="M645.9999999999836,324.16444597658494v-54a12,12,0,1,1,24,0v 54v 54a12,12,0,1,1,-24,0v-54z" fill="#ffffff" stroke="#000000" transform="matrix(0,1,-1,0,982.1644,-333.8356)" style="stroke-width: 3; fill-opacity: 1;"/><path d="M645.9999999999836,510.9681509570698v-54a12,12,0,1,1,24,0v 54v 54a12,12,0,1,1,-24,0v-54z" fill="#ffffff" stroke="#000000" transform="matrix(0,1,-1,0,1168.9682,-147.0318)" style="stroke-width: 3; fill-opacity: 1;"/><path d="M645.9999999999836,809.8540789258444v-54a12,12,0,1,1,24,0v 54v 54a12,12,0,1,1,-24,0v-54z" fill="#ffffff" stroke="#000000" transform="matrix(0,1,-1,0,1467.8541,151.8541)" style="stroke-width: 3; fill-opacity: 1;"/><path d="M645.9999999999836,959.2970429102292v-54a12,12,0,1,1,24,0v 54v 54a12,12,0,1,1,-24,0v-54z" fill="#ffffff" stroke="#000000" transform="matrix(0,1,-1,0,1617.297,301.297)" style="stroke-width: 3; fill-opacity: 1;"/><path d="M645.9999999999836,1295.5437118751038v-54a12,12,0,1,1,24,0v 54v 54a12,12,0,1,1,-24,0v-54z" fill="#ffffff" stroke="#000000" transform="matrix(0,1,-1,0,1953.5437,637.5437)" style="stroke-width: 3; fill-opacity: 1;"/><path d="M484.0000000000082,1426.3063053614412v-18a12,12,0,1,1,24,0v 18v 18a12,12,0,1,1,-24,0v-18z" fill="#ffffff" stroke="#000000" transform="matrix(1,0,0,1,0,0)" style="stroke-width: 3; fill-opacity: 1;"/><path d="M375.99999999998363,1426.3063053614412v-18a12,12,0,1,1,24,0v 18v 18a12,12,0,1,1,-24,0v-18z" fill="#ffffff" stroke="#000000" transform="matrix(1,0,0,1,0,0)" style="stroke-width: 3; fill-opacity: 1;"/><path d="M195.99999999998363,1426.3063053614412v-18a12,12,0,1,1,24,0v 18v 18a12,12,0,1,1,-24,0v-18z" fill="#ffffff" stroke="#000000" transform="matrix(1,0,0,1,0,0)" style="stroke-width: 3; fill-opacity: 1;"/><path d="M88,1426.3063053614412v-18a12,12,0,1,1,24,0v 18v 18a12,12,0,1,1,-24,0v-18z" fill="#ffffff" stroke="#000000" transform="matrix(1,0,0,1,0,0)" style="stroke-width: 3; fill-opacity: 1;"/><path d="M988,398.88592796877464v-36a12,12,0,1,1,24,0v 36v 36a12,12,0,1,1,-24,0v-36z" fill="#ffffff" stroke="#000000" transform="matrix(1,0,0,1,0,0)" style="stroke-width: 3; fill-opacity: 1;"/><path d="M1240.0000000000164,398.88592796877464v-36a12,12,0,1,1,24,0v 36v 36a12,12,0,1,1,-24,0v-36z" fill="#ffffff" stroke="#000000" transform="matrix(1,0,0,1,0,0)" style="stroke-width: 3; fill-opacity: 1;"/><path d="M1384.0000000000082,398.88592796877464v-36a12,12,0,1,1,24,0v 36v 36a12,12,0,1,1,-24,0v-36z" fill="#ffffff" stroke="#000000" transform="matrix(1,0,0,1,0,0)" style="stroke-width: 3; fill-opacity: 1;"/><path d="M1780.0000000000164,398.88592796877464v-36a12,12,0,1,1,24,0v 36v 36a12,12,0,1,1,-24,0v-36z" fill="#ffffff" stroke="#000000" transform="matrix(1,0,0,1,0,0)" style="stroke-width: 3; fill-opacity: 1;"/><path d="M2031.9999999999918,398.88592796877464v-36a12,12,0,1,1,24,0v 36v 36a12,12,0,1,1,-24,0v-36z" fill="#ffffff" stroke="#000000" transform="matrix(1,0,0,1,0,0)" style="stroke-width: 3; fill-opacity: 1;"/><circle cx="640" cy="1295.5437118751038" r="6" fill="#ffffff" stroke="#ff0000" style="stroke-width: 3; fill-opacity: 1;"/><circle cx="496.0000000000082" cy="1444.986675859494" r="6" fill="#ffffff" stroke="#ff0000" style="stroke-width: 3; fill-opacity: 1;"/><circle cx="387.99999999998363" cy="1444.986675859494" r="6" fill="#ffffff" stroke="#ff0000" style="stroke-width: 3; fill-opacity: 1;"/><circle cx="207.99999999998363" cy="1444.986675859494" r="6" fill="#ffffff" stroke="#ff0000" style="stroke-width: 3; fill-opacity: 1;"/><circle cx="100" cy="1444.986675859494" r="6" fill="#ffffff" stroke="#ff0000" style="stroke-width: 3; fill-opacity: 1;"/><circle cx="603.9999999999918" cy="1295.5437118751038" r="6" fill="#ffffff" stroke="#808080" style="stroke-width: 3; fill-opacity: 1;"/><circle cx="496.0000000000082" cy="1407.6259348633937" r="6" fill="#ffffff" stroke="#808080" style="stroke-width: 3; fill-opacity: 1;"/><circle cx="460" cy="1407.6259348633937" r="6" fill="#ffffff" stroke="#808080" style="stroke-width: 3; fill-opacity: 1;"/><circle cx="423.9999999999918" cy="1407.6259348633937" r="6" fill="#ffffff" stroke="#808080" style="stroke-width: 3; fill-opacity: 1;"/><circle cx="387.99999999998363" cy="1407.6259348633937" r="6" fill="#ffffff" stroke="#808080" style="stroke-width: 3; fill-opacity: 1;"/><circle cx="352.00000000001637" cy="1407.6259348633937" r="6" fill="#ffffff" stroke="#808080" style="stroke-width: 3; fill-opacity: 1;"/><circle cx="316.0000000000082" cy="1407.6259348633937" r="6" fill="#ffffff" stroke="#808080" style="stroke-width: 3; fill-opacity: 1;"/><circle cx="280" cy="1407.6259348633937" r="6" fill="#ffffff" stroke="#808080" style="stroke-width: 3; fill-opacity: 1;"/><circle cx="244.00000000003274" cy="1407.6259348633937" r="6" fill="#ffffff" stroke="#808080" style="stroke-width: 3; fill-opacity: 1;"/><circle cx="207.99999999998363" cy="1407.6259348633937" r="6" fill="#ffffff" stroke="#808080" style="stroke-width: 3; fill-opacity: 1;"/><circle cx="172.00000000001637" cy="1407.6259348633937" r="6" fill="#ffffff" stroke="#808080" style="stroke-width: 3; fill-opacity: 1;"/><circle cx="135.99999999996726" cy="1407.6259348633937" r="6" fill="#ffffff" stroke="#808080" style="stroke-width: 3; fill-opacity: 1;"/><circle cx="100" cy="1407.6259348633937" r="6" fill="#ffffff" stroke="#808080" style="stroke-width: 3; fill-opacity: 1;"/><circle cx="712.0000000000164" cy="324.16444597658494" r="6" fill="#ffffff" stroke="#008000" style="stroke-width: 3; fill-opacity: 1;"/><circle cx="1000" cy="361.5251869726798" r="6" fill="#ffffff" stroke="#008000" style="stroke-width: 3; fill-opacity: 1;"/><circle cx="1252.0000000000164" cy="361.5251869726798" r="6" fill="#ffffff" stroke="#008000" style="stroke-width: 3; fill-opacity: 1;"/><circle cx="1396.0000000000082" cy="361.5251869726798" r="6" fill="#ffffff" stroke="#008000" style="stroke-width: 3; fill-opacity: 1;"/><circle cx="1792.0000000000164" cy="361.5251869726798" r="6" fill="#ffffff" stroke="#008000" style="stroke-width: 3; fill-opacity: 1;"/><circle cx="2043.9999999999918" cy="361.5251869726798" r="6" fill="#ffffff" stroke="#008000" style="stroke-width: 3; fill-opacity: 1;"/><circle cx="640" cy="324.16444597658494" r="6" fill="#ffffff" stroke="#ff0000" style="stroke-width: 3; fill-opacity: 1;"/><circle cx="1000" cy="398.88592796877464" r="6" fill="#ffffff" stroke="#ff0000" style="stroke-width: 3; fill-opacity: 1;"/><circle cx="1072.0000000000164" cy="398.88592796877464" r="6" fill="#ffffff" stroke="#ff0000" style="stroke-width: 3; fill-opacity: 1;"/><circle cx="1143.9999999999918" cy="398.88592796877464" r="6" fill="#ffffff" stroke="#ff0000" style="stroke-width: 3; fill-opacity: 1;"/><circle cx="1252.0000000000164" cy="398.88592796877464" r="6" fill="#ffffff" stroke="#ff0000" style="stroke-width: 3; fill-opacity: 1;"/><circle cx="1360" cy="398.88592796877464" r="6" fill="#ffffff" stroke="#ff0000" style="stroke-width: 3; fill-opacity: 1;"/><circle cx="1396.0000000000082" cy="398.88592796877464" r="6" fill="#ffffff" stroke="#ff0000" style="stroke-width: 3; fill-opacity: 1;"/><circle cx="1467.9999999999836" cy="398.88592796877464" r="6" fill="#ffffff" stroke="#ff0000" style="stroke-width: 3; fill-opacity: 1;"/><circle cx="1540" cy="398.88592796877464" r="6" fill="#ffffff" stroke="#ff0000" style="stroke-width: 3; fill-opacity: 1;"/><circle cx="1683.9999999999918" cy="398.88592796877464" r="6" fill="#ffffff" stroke="#ff0000" style="stroke-width: 3; fill-opacity: 1;"/><circle cx="1792.0000000000164" cy="398.88592796877464" r="6" fill="#ffffff" stroke="#ff0000" style="stroke-width: 3; fill-opacity: 1;"/><circle cx="1863.9999999999918" cy="398.88592796877464" r="6" fill="#ffffff" stroke="#ff0000" style="stroke-width: 3; fill-opacity: 1;"/><circle cx="1900" cy="398.88592796877464" r="6" fill="#ffffff" stroke="#ff0000" style="stroke-width: 3; fill-opacity: 1;"/><circle cx="2007.9999999999836" cy="398.88592796877464" r="6" fill="#ffffff" stroke="#ff0000" style="stroke-width: 3; fill-opacity: 1;"/><circle cx="2043.9999999999918" cy="398.88592796877464" r="6" fill="#ffffff" stroke="#ff0000" style="stroke-width: 3; fill-opacity: 1;"/><circle cx="603.9999999999918" cy="324.16444597658494" r="6" fill="#ffffff" stroke="#808080" style="stroke-width: 3; fill-opacity: 1;"/><circle cx="963.9999999999918" cy="436.2466689648748" r="6" fill="#ffffff" stroke="#808080" style="stroke-width: 3; fill-opacity: 1;"/><circle cx="1000" cy="436.2466689648748" r="6" fill="#ffffff" stroke="#808080" style="stroke-width: 3; fill-opacity: 1;"/><circle cx="1036.0000000000082" cy="436.2466689648748" r="6" fill="#ffffff" stroke="#808080" style="stroke-width: 3; fill-opacity: 1;"/><circle cx="1072.0000000000164" cy="436.2466689648748" r="6" fill="#ffffff" stroke="#808080" style="stroke-width: 3; fill-opacity: 1;"/><circle cx="1107.9999999999836" cy="436.2466689648748" r="6" fill="#ffffff" stroke="#808080" style="stroke-width: 3; fill-opacity: 1;"/><circle cx="1143.9999999999918" cy="436.2466689648748" r="6" fill="#ffffff" stroke="#808080" style="stroke-width: 3; fill-opacity: 1;"/><circle cx="1180" cy="436.2466689648748" r="6" fill="#ffffff" stroke="#808080" style="stroke-width: 3; fill-opacity: 1;"/><circle cx="1216.0000000000082" cy="436.2466689648748" r="6" fill="#ffffff" stroke="#808080" style="stroke-width: 3; fill-opacity: 1;"/><circle cx="1252.0000000000164" cy="436.2466689648748" r="6" fill="#ffffff" stroke="#808080" style="stroke-width: 3; fill-opacity: 1;"/><circle cx="1287.9999999999836" cy="436.2466689648748" r="6" fill="#ffffff" stroke="#808080" style="stroke-width: 3; fill-opacity: 1;"/><circle cx="1323.9999999999918" cy="436.2466689648748" r="6" fill="#ffffff" stroke="#808080" style="stroke-width: 3; fill-opacity: 1;"/><circle cx="1360" cy="436.2466689648748" r="6" fill="#ffffff" stroke="#808080" style="stroke-width: 3; fill-opacity: 1;"/><circle cx="1396.0000000000082" cy="436.2466689648748" r="6" fill="#ffffff" stroke="#808080" style="stroke-width: 3; fill-opacity: 1;"/><circle cx="1432.0000000000164" cy="436.2466689648748" r="6" fill="#ffffff" stroke="#808080" style="stroke-width: 3; fill-opacity: 1;"/><circle cx="1467.9999999999836" cy="436.2466689648748" r="6" fill="#ffffff" stroke="#808080" style="stroke-width: 3; fill-opacity: 1;"/><circle cx="1503.9999999999918" cy="436.2466689648748" r="6" fill="#ffffff" stroke="#808080" style="stroke-width: 3; fill-opacity: 1;"/><circle cx="1540" cy="436.2466689648748" r="6" fill="#ffffff" stroke="#808080" style="stroke-width: 3; fill-opacity: 1;"/><circle cx="1576.0000000000082" cy="436.2466689648748" r="6" fill="#ffffff" stroke="#808080" style="stroke-width: 3; fill-opacity: 1;"/><circle cx="1612.0000000000164" cy="436.2466689648748" r="6" fill="#ffffff" stroke="#808080" style="stroke-width: 3; fill-opacity: 1;"/><circle cx="1647.9999999999836" cy="436.2466689648748" r="6" fill="#ffffff" stroke="#808080" style="stroke-width: 3; fill-opacity: 1;"/><circle cx="1683.9999999999918" cy="436.2466689648748" r="6" fill="#ffffff" stroke="#808080" style="stroke-width: 3; fill-opacity: 1;"/><circle cx="1720" cy="436.2466689648748" r="6" fill="#ffffff" stroke="#808080" style="stroke-width: 3; fill-opacity: 1;"/><circle cx="1756.0000000000082" cy="436.2466689648748" r="6" fill="#ffffff" stroke="#808080" style="stroke-width: 3; fill-opacity: 1;"/><circle cx="1792.0000000000164" cy="436.2466689648748" r="6" fill="#ffffff" stroke="#808080" style="stroke-width: 3; fill-opacity: 1;"/><circle cx="1827.9999999999836" cy="436.2466689648748" r="6" fill="#ffffff" stroke="#808080" style="stroke-width: 3; fill-opacity: 1;"/><circle cx="1863.9999999999918" cy="436.2466689648748" r="6" fill="#ffffff" stroke="#808080" style="stroke-width: 3; fill-opacity: 1;"/><circle cx="1900" cy="436.2466689648748" r="6" fill="#ffffff" stroke="#808080" style="stroke-width: 3; fill-opacity: 1;"/><circle cx="1936.0000000000082" cy="436.2466689648748" r="6" fill="#ffffff" stroke="#808080" style="stroke-width: 3; fill-opacity: 1;"/><circle cx="1972.0000000000164" cy="436.2466689648748" r="6" fill="#ffffff" stroke="#808080" style="stroke-width: 3; fill-opacity: 1;"/><circle cx="2007.9999999999836" cy="436.2466689648748" r="6" fill="#ffffff" stroke="#808080" style="stroke-width: 3; fill-opacity: 1;"/><circle cx="2043.9999999999918" cy="436.2466689648748" r="6" fill="#ffffff" stroke="#808080" style="stroke-width: 3; fill-opacity: 1;"/><circle cx="712.0000000000164" cy="100" r="6" fill="#ffffff" stroke="#008000" style="stroke-width: 3; fill-opacity: 1;"/><circle cx="712.0000000000164" cy="324.16444597658494" r="6" fill="#ffffff" stroke="#008000" style="stroke-width: 3; fill-opacity: 1;"/><circle cx="712.0000000000164" cy="510.9681509570698" r="6" fill="#ffffff" stroke="#008000" style="stroke-width: 3; fill-opacity: 1;"/><circle cx="712.0000000000164" cy="809.8540789258444" r="6" fill="#ffffff" stroke="#008000" style="stroke-width: 3; fill-opacity: 1;"/><circle cx="712.0000000000164" cy="959.2970429102292" r="6" fill="#ffffff" stroke="#008000" style="stroke-width: 3; fill-opacity: 1;"/><circle cx="712.0000000000164" cy="1295.5437118751038" r="6" fill="#ffffff" stroke="#008000" style="stroke-width: 3; fill-opacity: 1;"/><circle cx="676.0000000000082" cy="100" r="6" fill="#ffffff" stroke="#ffa500" style="stroke-width: 3; fill-opacity: 1;"/><circle cx="676.0000000000082" cy="212.08222298828983" r="6" fill="#ffffff" stroke="#ffa500" style="stroke-width: 3; fill-opacity: 1;"/><circle cx="676.0000000000082" cy="324.16444597658494" r="6" fill="#ffffff" stroke="#ffa500" style="stroke-width: 3; fill-opacity: 1;"/><circle cx="676.0000000000082" cy="398.88592796877464" r="6" fill="#ffffff" stroke="#ffa500" style="stroke-width: 3; fill-opacity: 1;"/><circle cx="676.0000000000082" cy="510.9681509570698" r="6" fill="#ffffff" stroke="#ffa500" style="stroke-width: 3; fill-opacity: 1;"/><circle cx="676.0000000000082" cy="660.4111149414545" r="6" fill="#ffffff" stroke="#ffa500" style="stroke-width: 3; fill-opacity: 1;"/><circle cx="676.0000000000082" cy="809.8540789258444" r="6" fill="#ffffff" stroke="#ffa500" style="stroke-width: 3; fill-opacity: 1;"/><circle cx="676.0000000000082" cy="921.9363019141342" r="6" fill="#ffffff" stroke="#ffa500" style="stroke-width: 3; fill-opacity: 1;"/><circle cx="676.0000000000082" cy="959.2970429102292" r="6" fill="#ffffff" stroke="#ffa500" style="stroke-width: 3; fill-opacity: 1;"/><circle cx="676.0000000000082" cy="996.6577839063292" r="6" fill="#ffffff" stroke="#ffa500" style="stroke-width: 3; fill-opacity: 1;"/><circle cx="676.0000000000082" cy="1146.1007478907138" r="6" fill="#ffffff" stroke="#ffa500" style="stroke-width: 3; fill-opacity: 1;"/><circle cx="676.0000000000082" cy="1295.5437118751038" r="6" fill="#ffffff" stroke="#ffa500" style="stroke-width: 3; fill-opacity: 1;"/><circle cx="640" cy="100" r="6" fill="#ffffff" stroke="#ff0000" style="stroke-width: 3; fill-opacity: 1;"/><circle cx="640" cy="212.08222298828983" r="6" fill="#ffffff" stroke="#ff0000" style="stroke-width: 3; fill-opacity: 1;"/><circle cx="640" cy="286.8037049804848" r="6" fill="#ffffff" stroke="#ff0000" style="stroke-width: 3; fill-opacity: 1;"/><circle cx="640" cy="324.16444597658494" r="6" fill="#ffffff" stroke="#ff0000" style="stroke-width: 3; fill-opacity: 1;"/><circle cx="640" cy="436.2466689648748" r="6" fill="#ffffff" stroke="#ff0000" style="stroke-width: 3; fill-opacity: 1;"/><circle cx="640" cy="510.9681509570698" r="6" fill="#ffffff" stroke="#ff0000" style="stroke-width: 3; fill-opacity: 1;"/><circle cx="640" cy="585.6896329492595" r="6" fill="#ffffff" stroke="#ff0000" style="stroke-width: 3; fill-opacity: 1;"/><circle cx="640" cy="660.4111149414545" r="6" fill="#ffffff" stroke="#ff0000" style="stroke-width: 3; fill-opacity: 1;"/><circle cx="640" cy="697.7718559375546" r="6" fill="#ffffff" stroke="#ff0000" style="stroke-width: 3; fill-opacity: 1;"/><circle cx="640" cy="809.8540789258444" r="6" fill="#ffffff" stroke="#ff0000" style="stroke-width: 3; fill-opacity: 1;"/><circle cx="640" cy="847.2148199219392" r="6" fill="#ffffff" stroke="#ff0000" style="stroke-width: 3; fill-opacity: 1;"/><circle cx="640" cy="884.5755609180394" r="6" fill="#ffffff" stroke="#ff0000" style="stroke-width: 3; fill-opacity: 1;"/><circle cx="640" cy="959.2970429102292" r="6" fill="#ffffff" stroke="#ff0000" style="stroke-width: 3; fill-opacity: 1;"/><circle cx="640" cy="1034.0185249024241" r="6" fill="#ffffff" stroke="#ff0000" style="stroke-width: 3; fill-opacity: 1;"/><circle cx="640" cy="1146.1007478907138" r="6" fill="#ffffff" stroke="#ff0000" style="stroke-width: 3; fill-opacity: 1;"/><circle cx="640" cy="1220.822229882909" r="6" fill="#ffffff" stroke="#ff0000" style="stroke-width: 3; fill-opacity: 1;"/><circle cx="640" cy="1295.5437118751038" r="6" fill="#ffffff" stroke="#ff0000" style="stroke-width: 3; fill-opacity: 1;"/><circle cx="603.9999999999918" cy="100" r="6" fill="#ffffff" stroke="#808080" style="stroke-width: 3; fill-opacity: 1;"/><circle cx="603.9999999999918" cy="137.36074099610016" r="6" fill="#ffffff" stroke="#808080" style="stroke-width: 3; fill-opacity: 1;"/><circle cx="603.9999999999918" cy="174.72148199219498" r="6" fill="#ffffff" stroke="#808080" style="stroke-width: 3; fill-opacity: 1;"/><circle cx="603.9999999999918" cy="212.08222298828983" r="6" fill="#ffffff" stroke="#808080" style="stroke-width: 3; fill-opacity: 1;"/><circle cx="603.9999999999918" cy="249.44296398439" r="6" fill="#ffffff" stroke="#808080" style="stroke-width: 3; fill-opacity: 1;"/><circle cx="603.9999999999918" cy="286.8037049804848" r="6" fill="#ffffff" stroke="#808080" style="stroke-width: 3; fill-opacity: 1;"/><circle cx="603.9999999999918" cy="324.16444597658494" r="6" fill="#ffffff" stroke="#808080" style="stroke-width: 3; fill-opacity: 1;"/><circle cx="603.9999999999918" cy="361.5251869726798" r="6" fill="#ffffff" stroke="#808080" style="stroke-width: 3; fill-opacity: 1;"/><circle cx="603.9999999999918" cy="398.88592796877464" r="6" fill="#ffffff" stroke="#808080" style="stroke-width: 3; fill-opacity: 1;"/><circle cx="603.9999999999918" cy="436.2466689648748" r="6" fill="#ffffff" stroke="#808080" style="stroke-width: 3; fill-opacity: 1;"/><circle cx="603.9999999999918" cy="473.6074099609696" r="6" fill="#ffffff" stroke="#808080" style="stroke-width: 3; fill-opacity: 1;"/><circle cx="603.9999999999918" cy="510.9681509570698" r="6" fill="#ffffff" stroke="#808080" style="stroke-width: 3; fill-opacity: 1;"/><circle cx="603.9999999999918" cy="548.3288919531647" r="6" fill="#ffffff" stroke="#808080" style="stroke-width: 3; fill-opacity: 1;"/><circle cx="603.9999999999918" cy="585.6896329492595" r="6" fill="#ffffff" stroke="#808080" style="stroke-width: 3; fill-opacity: 1;"/><circle cx="603.9999999999918" cy="623.0503739453596" r="6" fill="#ffffff" stroke="#808080" style="stroke-width: 3; fill-opacity: 1;"/><circle cx="603.9999999999918" cy="660.4111149414545" r="6" fill="#ffffff" stroke="#808080" style="stroke-width: 3; fill-opacity: 1;"/><circle cx="603.9999999999918" cy="697.7718559375546" r="6" fill="#ffffff" stroke="#808080" style="stroke-width: 3; fill-opacity: 1;"/><circle cx="603.9999999999918" cy="735.1325969336494" r="6" fill="#ffffff" stroke="#808080" style="stroke-width: 3; fill-opacity: 1;"/><circle cx="603.9999999999918" cy="772.4933379297443" r="6" fill="#ffffff" stroke="#808080" style="stroke-width: 3; fill-opacity: 1;"/><circle cx="603.9999999999918" cy="809.8540789258444" r="6" fill="#ffffff" stroke="#808080" style="stroke-width: 3; fill-opacity: 1;"/><circle cx="603.9999999999918" cy="847.2148199219392" r="6" fill="#ffffff" stroke="#808080" style="stroke-width: 3; fill-opacity: 1;"/><circle cx="603.9999999999918" cy="884.5755609180394" r="6" fill="#ffffff" stroke="#808080" style="stroke-width: 3; fill-opacity: 1;"/><circle cx="603.9999999999918" cy="921.9363019141342" r="6" fill="#ffffff" stroke="#808080" style="stroke-width: 3; fill-opacity: 1;"/><circle cx="603.9999999999918" cy="959.2970429102292" r="6" fill="#ffffff" stroke="#808080" style="stroke-width: 3; fill-opacity: 1;"/><circle cx="603.9999999999918" cy="996.6577839063292" r="6" fill="#ffffff" stroke="#808080" style="stroke-width: 3; fill-opacity: 1;"/><circle cx="603.9999999999918" cy="1034.0185249024241" r="6" fill="#ffffff" stroke="#808080" style="stroke-width: 3; fill-opacity: 1;"/><circle cx="603.9999999999918" cy="1071.3792658985242" r="6" fill="#ffffff" stroke="#808080" style="stroke-width: 3; fill-opacity: 1;"/><circle cx="603.9999999999918" cy="1108.740006894619" r="6" fill="#ffffff" stroke="#808080" style="stroke-width: 3; fill-opacity: 1;"/><circle cx="603.9999999999918" cy="1146.1007478907138" r="6" fill="#ffffff" stroke="#808080" style="stroke-width: 3; fill-opacity: 1;"/><circle cx="603.9999999999918" cy="1183.461488886814" r="6" fill="#ffffff" stroke="#808080" style="stroke-width: 3; fill-opacity: 1;"/><circle cx="603.9999999999918" cy="1220.822229882909" r="6" fill="#ffffff" stroke="#808080" style="stroke-width: 3; fill-opacity: 1;"/><circle cx="603.9999999999918" cy="1258.1829708790092" r="6" fill="#ffffff" stroke="#808080" style="stroke-width: 3; fill-opacity: 1;"/><circle cx="603.9999999999918" cy="1295.5437118751038" r="6" fill="#ffffff" stroke="#808080" style="stroke-width: 3; fill-opacity: 1;"/><text x="496.0000000000082" y="1463.6259348633937" fill="#000000" transform="matrix(1,0,0,1,0,0)" style="font-size: 18px; font-family: Roboto, Arial, sans-serif; font-weight: 900; text-anchor: start; writing-mode: tb; letter-spacing: -0.1em;">芝原西喩渡 Shibahara-nishi-yuwata</text><text x="460" y="1463.6259348633937" fill="#000000" transform="matrix(1,0,0,1,0,0)" style="font-size: 18px; font-family: Roboto, Arial, sans-serif; font-weight: 900; text-anchor: start; writing-mode: tb; letter-spacing: -0.1em;">今堀 Imahori</text><text x="423.9999999999918" y="1463.6259348633937" fill="#000000" transform="matrix(1,0,0,1,0,0)" style="font-size: 18px; font-family: Roboto, Arial, sans-serif; font-weight: 900; text-anchor: start; writing-mode: tb; letter-spacing: -0.1em;">上神南 Kami-kōnan</text><text x="387.99999999998363" y="1463.6259348633937" fill="#000000" transform="matrix(1,0,0,1,0,0)" style="font-size: 18px; font-family: Roboto, Arial, sans-serif; font-weight: 900; text-anchor: start; writing-mode: tb; letter-spacing: -0.1em;">神南 Kōnan</text><text x="352.00000000001637" y="1463.6259348633937" fill="#000000" transform="matrix(1,0,0,1,0,0)" style="font-size: 18px; font-family: Roboto, Arial, sans-serif; font-weight: 900; text-anchor: start; writing-mode: tb; letter-spacing: -0.1em;">陸浦 Rikuura</text><text x="316.0000000000082" y="1463.6259348633937" fill="#000000" transform="matrix(1,0,0,1,0,0)" style="font-size: 18px; font-family: Roboto, Arial, sans-serif; font-weight: 900; text-anchor: start; writing-mode: tb; letter-spacing: -0.1em;">内吉 Uchiyoshi</text><text x="280" y="1463.6259348633937" fill="#000000" transform="matrix(1,0,0,1,0,0)" style="font-size: 18px; font-family: Roboto, Arial, sans-serif; font-weight: 900; text-anchor: start; writing-mode: tb; letter-spacing: -0.1em;">西ケ谷 Nishigaya</text><text x="244.00000000003274" y="1463.6259348633937" fill="#000000" transform="matrix(1,0,0,1,0,0)" style="font-size: 18px; font-family: Roboto, Arial, sans-serif; font-weight: 900; text-anchor: start; writing-mode: tb; letter-spacing: -0.1em;">米路 Yonemichi</text><text x="207.99999999998363" y="1463.6259348633937" fill="#000000" transform="matrix(1,0,0,1,0,0)" style="font-size: 18px; font-family: Roboto, Arial, sans-serif; font-weight: 900; text-anchor: start; writing-mode: tb; letter-spacing: -0.1em;">蜜焼 Mitsuyaki</text><text x="172.00000000001637" y="1463.6259348633937" fill="#000000" transform="matrix(1,0,0,1,0,0)" style="font-size: 18px; font-family: Roboto, Arial, sans-serif; font-weight: 900; text-anchor: start; writing-mode: tb; letter-spacing: -0.1em;">大月ヶ原 Ōtsukigahara</text><text x="135.99999999996726" y="1463.6259348633937" fill="#000000" transform="matrix(1,0,0,1,0,0)" style="font-size: 18px; font-family: Roboto, Arial, sans-serif; font-weight: 900; text-anchor: start; writing-mode: tb; letter-spacing: -0.1em;">葉加瀬 Hakase</text><text x="100" y="1463.6259348633937" fill="#000000" transform="matrix(1,0,0,1,0,0)" style="font-size: 18px; font-family: Roboto, Arial, sans-serif; font-weight: 900; text-anchor: start; writing-mode: tb; letter-spacing: -0.1em;">藤五行 Tōgogyo</text><text x="963.9999999999918" y="456.2466689648748" fill="#000000" transform="matrix(1,0,0,1,0,0)" style="font-size: 18px; font-family: Roboto, Arial, sans-serif; font-weight: 900; text-anchor: start; writing-mode: tb; letter-spacing: -0.1em;">岐丘 Gioka</text><text x="1000" y="456.2466689648748" fill="#000000" transform="matrix(1,0,0,1,0,0)" style="font-size: 18px; font-family: Roboto, Arial, sans-serif; font-weight: 900; text-anchor: start; writing-mode: tb; letter-spacing: -0.1em;">芝原宏城橘 Shibahara-hirogitachibana</text><text x="1036.0000000000082" y="456.2466689648748" fill="#000000" transform="matrix(1,0,0,1,0,0)" style="font-size: 18px; font-family: Roboto, Arial, sans-serif; font-weight: 900; text-anchor: start; writing-mode: tb; letter-spacing: -0.1em;">赤沼 Akanuma</text><text x="1072.0000000000164" y="456.2466689648748" fill="#000000" transform="matrix(1,0,0,1,0,0)" style="font-size: 18px; font-family: Roboto, Arial, sans-serif; font-weight: 900; text-anchor: start; writing-mode: tb; letter-spacing: -0.1em;">件ノ葉 Kennoha</text><text x="1107.9999999999836" y="456.2466689648748" fill="#000000" transform="matrix(1,0,0,1,0,0)" style="font-size: 18px; font-family: Roboto, Arial, sans-serif; font-weight: 900; text-anchor: start; writing-mode: tb; letter-spacing: -0.1em;">梶山町 Kaziyamachō</text><text x="1143.9999999999918" y="456.2466689648748" fill="#000000" transform="matrix(1,0,0,1,0,0)" style="font-size: 18px; font-family: Roboto, Arial, sans-serif; font-weight: 900; text-anchor: start; writing-mode: tb; letter-spacing: -0.1em;">市奈 Ichina</text><text x="1180" y="456.2466689648748" fill="#000000" transform="matrix(1,0,0,1,0,0)" style="font-size: 18px; font-family: Roboto, Arial, sans-serif; font-weight: 900; text-anchor: start; writing-mode: tb; letter-spacing: -0.1em;">東市奈 Higashi-ichina</text><text x="1216.0000000000082" y="456.2466689648748" fill="#000000" transform="matrix(1,0,0,1,0,0)" style="font-size: 18px; font-family: Roboto, Arial, sans-serif; font-weight: 900; text-anchor: start; writing-mode: tb; letter-spacing: -0.1em;">新吾田 Shin-agata</text><text x="1252.0000000000164" y="456.2466689648748" fill="#000000" transform="matrix(1,0,0,1,0,0)" style="font-size: 18px; font-family: Roboto, Arial, sans-serif; font-weight: 900; text-anchor: start; writing-mode: tb; letter-spacing: -0.1em;">塚越 Tsukakoshi</text><text x="1287.9999999999836" y="456.2466689648748" fill="#000000" transform="matrix(1,0,0,1,0,0)" style="font-size: 18px; font-family: Roboto, Arial, sans-serif; font-weight: 900; text-anchor: start; writing-mode: tb; letter-spacing: -0.1em;">野田口 Nodaguchi</text><text x="1323.9999999999918" y="456.2466689648748" fill="#000000" transform="matrix(1,0,0,1,0,0)" style="font-size: 18px; font-family: Roboto, Arial, sans-serif; font-weight: 900; text-anchor: start; writing-mode: tb; letter-spacing: -0.1em;">北塚越 Kita-tsukkoshi</text><text x="1360" y="456.2466689648748" fill="#000000" transform="matrix(1,0,0,1,0,0)" style="font-size: 18px; font-family: Roboto, Arial, sans-serif; font-weight: 900; text-anchor: start; writing-mode: tb; letter-spacing: -0.1em;">嶋内台 Shimauchidai</text><text x="1396.0000000000082" y="456.2466689648748" fill="#000000" transform="matrix(1,0,0,1,0,0)" style="font-size: 18px; font-family: Roboto, Arial, sans-serif; font-weight: 900; text-anchor: start; writing-mode: tb; letter-spacing: -0.1em;">賀具宮 Kagumiya</text><text x="1432.0000000000164" y="456.2466689648748" fill="#000000" transform="matrix(1,0,0,1,0,0)" style="font-size: 18px; font-family: Roboto, Arial, sans-serif; font-weight: 900; text-anchor: start; writing-mode: tb; letter-spacing: -0.1em;">上長井 Kami-nagai</text><text x="1467.9999999999836" y="456.2466689648748" fill="#000000" transform="matrix(1,0,0,1,0,0)" style="font-size: 18px; font-family: Roboto, Arial, sans-serif; font-weight: 900; text-anchor: start; writing-mode: tb; letter-spacing: -0.1em;">陶垣 Suegaki</text><text x="1503.9999999999918" y="456.2466689648748" fill="#000000" transform="matrix(1,0,0,1,0,0)" style="font-size: 18px; font-family: Roboto, Arial, sans-serif; font-weight: 900; text-anchor: start; writing-mode: tb; letter-spacing: -0.1em;">下長井 Shimo-nagai</text><text x="1540" y="456.2466689648748" fill="#000000" transform="matrix(1,0,0,1,0,0)" style="font-size: 18px; font-family: Roboto, Arial, sans-serif; font-weight: 900; text-anchor: start; writing-mode: tb; letter-spacing: -0.1em;">田呉 Tago</text><text x="1576.0000000000082" y="456.2466689648748" fill="#000000" transform="matrix(1,0,0,1,0,0)" style="font-size: 18px; font-family: Roboto, Arial, sans-serif; font-weight: 900; text-anchor: start; writing-mode: tb; letter-spacing: -0.1em;">先浜 Sakihama</text><text x="1612.0000000000164" y="456.2466689648748" fill="#000000" transform="matrix(1,0,0,1,0,0)" style="font-size: 18px; font-family: Roboto, Arial, sans-serif; font-weight: 900; text-anchor: start; writing-mode: tb; letter-spacing: -0.1em;">風八木 Kazeyagi</text><text x="1647.9999999999836" y="456.2466689648748" fill="#000000" transform="matrix(1,0,0,1,0,0)" style="font-size: 18px; font-family: Roboto, Arial, sans-serif; font-weight: 900; text-anchor: start; writing-mode: tb; letter-spacing: -0.1em;">醒口 Sameguchi</text><text x="1683.9999999999918" y="456.2466689648748" fill="#000000" transform="matrix(1,0,0,1,0,0)" style="font-size: 18px; font-family: Roboto, Arial, sans-serif; font-weight: 900; text-anchor: start; writing-mode: tb; letter-spacing: -0.1em;">室草 Murokusa</text><text x="1720" y="456.2466689648748" fill="#000000" transform="matrix(1,0,0,1,0,0)" style="font-size: 18px; font-family: Roboto, Arial, sans-serif; font-weight: 900; text-anchor: start; writing-mode: tb; letter-spacing: -0.1em;">室草大師前 Murokusadaishimae</text><text x="1756.0000000000082" y="456.2466689648748" fill="#000000" transform="matrix(1,0,0,1,0,0)" style="font-size: 18px; font-family: Roboto, Arial, sans-serif; font-weight: 900; text-anchor: start; writing-mode: tb; letter-spacing: -0.1em;">中磁 Nakaji</text><text x="1792.0000000000164" y="456.2466689648748" fill="#000000" transform="matrix(1,0,0,1,0,0)" style="font-size: 18px; font-family: Roboto, Arial, sans-serif; font-weight: 900; text-anchor: start; writing-mode: tb; letter-spacing: -0.1em;">南彗観測 Nansuikansoku</text><text x="1827.9999999999836" y="456.2466689648748" fill="#000000" transform="matrix(1,0,0,1,0,0)" style="font-size: 18px; font-family: Roboto, Arial, sans-serif; font-weight: 900; text-anchor: start; writing-mode: tb; letter-spacing: -0.1em;">水尾山北 Mizuoyama-kita</text><text x="1863.9999999999918" y="456.2466689648748" fill="#000000" transform="matrix(1,0,0,1,0,0)" style="font-size: 18px; font-family: Roboto, Arial, sans-serif; font-weight: 900; text-anchor: start; writing-mode: tb; letter-spacing: -0.1em;">塚対 Tsukatsui</text><text x="1900" y="456.2466689648748" fill="#000000" transform="matrix(1,0,0,1,0,0)" style="font-size: 18px; font-family: Roboto, Arial, sans-serif; font-weight: 900; text-anchor: start; writing-mode: tb; letter-spacing: -0.1em;">艇原 Teihara</text><text x="1936.0000000000082" y="456.2466689648748" fill="#000000" transform="matrix(1,0,0,1,0,0)" style="font-size: 18px; font-family: Roboto, Arial, sans-serif; font-weight: 900; text-anchor: start; writing-mode: tb; letter-spacing: -0.1em;">上桜 Kami-Sakura</text><text x="1972.0000000000164" y="456.2466689648748" fill="#000000" transform="matrix(1,0,0,1,0,0)" style="font-size: 18px; font-family: Roboto, Arial, sans-serif; font-weight: 900; text-anchor: start; writing-mode: tb; letter-spacing: -0.1em;">庭譜 Niwafu</text><text x="2007.9999999999836" y="456.2466689648748" fill="#000000" transform="matrix(1,0,0,1,0,0)" style="font-size: 18px; font-family: Roboto, Arial, sans-serif; font-weight: 900; text-anchor: start; writing-mode: tb; letter-spacing: -0.1em;">息柚野 Sokuyuno</text><text x="2043.9999999999918" y="456.2466689648748" fill="#000000" transform="matrix(1,0,0,1,0,0)" style="font-size: 18px; font-family: Roboto, Arial, sans-serif; font-weight: 900; text-anchor: start; writing-mode: tb; letter-spacing: -0.1em;">新彗属幌 Shin-Suizokuhoro</text><text x="583.9999999999918" y="106" fill="#000000" transform="matrix(1,0,0,1,0,0)" style="font-size: 18px; font-family: Roboto, Arial, sans-serif; font-weight: 900; text-anchor: end; letter-spacing: 0em;">Shibahara-nakamo 芝原朋羚</text><text x="583.9999999999918" y="143.36074099610016" fill="#000000" transform="matrix(1,0,0,1,0,0)" style="font-size: 18px; font-family: Roboto, Arial, sans-serif; font-weight: 900; text-anchor: end; letter-spacing: 0em;">Nakamo-minami 朋羚南</text><text x="583.9999999999918" y="180.72148199219498" fill="#000000" transform="matrix(1,0,0,1,0,0)" style="font-size: 18px; font-family: Roboto, Arial, sans-serif; font-weight: 900; text-anchor: end; letter-spacing: 0em;">Suino 穂野</text><text x="583.9999999999918" y="218.08222298828983" fill="#000000" transform="matrix(1,0,0,1,0,0)" style="font-size: 18px; font-family: Roboto, Arial, sans-serif; font-weight: 900; text-anchor: end; letter-spacing: 0em;">Akihaya  秋早</text><text x="583.9999999999918" y="255.44296398439" fill="#000000" transform="matrix(1,0,0,1,0,0)" style="font-size: 18px; font-family: Roboto, Arial, sans-serif; font-weight: 900; text-anchor: end; letter-spacing: 0em;">Minami-hirogi 南宏城</text><text x="583.9999999999918" y="292.8037049804848" fill="#000000" transform="matrix(1,0,0,1,0,0)" style="font-size: 18px; font-family: Roboto, Arial, sans-serif; font-weight: 900; text-anchor: end; letter-spacing: 0em;">Shibahara-sorakage 芝原宙蔭</text><text x="583.9999999999918" y="330.16444597658494" fill="#000000" transform="matrix(1,0,0,1,0,0)" style="font-size: 18px; font-family: Roboto, Arial, sans-serif; font-weight: 900; text-anchor: end; letter-spacing: 0em;">Shibahara-hirogishi 芝原宏城市</text><text x="583.9999999999918" y="367.5251869726798" fill="#000000" transform="matrix(1,0,0,1,0,0)" style="font-size: 18px; font-family: Roboto, Arial, sans-serif; font-weight: 900; text-anchor: end; letter-spacing: 0em;">Okukoshi 奥越</text><text x="583.9999999999918" y="404.88592796877464" fill="#000000" transform="matrix(1,0,0,1,0,0)" style="font-size: 18px; font-family: Roboto, Arial, sans-serif; font-weight: 900; text-anchor: end; letter-spacing: 0em;">Reihoku 伶北</text><text x="583.9999999999918" y="442.2466689648748" fill="#000000" transform="matrix(1,0,0,1,0,0)" style="font-size: 18px; font-family: Roboto, Arial, sans-serif; font-weight: 900; text-anchor: end; letter-spacing: 0em;">Kamakari 鎌刈</text><text x="583.9999999999918" y="479.6074099609696" fill="#000000" transform="matrix(1,0,0,1,0,0)" style="font-size: 18px; font-family: Roboto, Arial, sans-serif; font-weight: 900; text-anchor: end; letter-spacing: 0em;">Kasshōkuri 括尚繰</text><text x="583.9999999999918" y="516.9681509570698" fill="#000000" transform="matrix(1,0,0,1,0,0)" style="font-size: 18px; font-family: Roboto, Arial, sans-serif; font-weight: 900; text-anchor: end; letter-spacing: 0em;">Kyōmaai 凶麻相</text><text x="583.9999999999918" y="554.3288919531647" fill="#000000" transform="matrix(1,0,0,1,0,0)" style="font-size: 18px; font-family: Roboto, Arial, sans-serif; font-weight: 900; text-anchor: end; letter-spacing: 0em;">Isoya 磯谷</text><text x="583.9999999999918" y="591.6896329492595" fill="#000000" transform="matrix(1,0,0,1,0,0)" style="font-size: 18px; font-family: Roboto, Arial, sans-serif; font-weight: 900; text-anchor: end; letter-spacing: 0em;">hamachō-chūō 浜町中央</text><text x="583.9999999999918" y="629.0503739453596" fill="#000000" transform="matrix(1,0,0,1,0,0)" style="font-size: 18px; font-family: Roboto, Arial, sans-serif; font-weight: 900; text-anchor: end; letter-spacing: 0em;">Onohama 小野浜</text><text x="583.9999999999918" y="666.4111149414545" fill="#000000" transform="matrix(1,0,0,1,0,0)" style="font-size: 18px; font-family: Roboto, Arial, sans-serif; font-weight: 900; text-anchor: end; letter-spacing: 0em;">Umizoihara 海沿原</text><text x="583.9999999999918" y="703.7718559375546" fill="#000000" transform="matrix(1,0,0,1,0,0)" style="font-size: 18px; font-family: Roboto, Arial, sans-serif; font-weight: 900; text-anchor: end; letter-spacing: 0em;">Umisaki-shi 海埼市</text><text x="583.9999999999918" y="741.1325969336494" fill="#000000" transform="matrix(1,0,0,1,0,0)" style="font-size: 18px; font-family: Roboto, Arial, sans-serif; font-weight: 900; text-anchor: end; letter-spacing: 0em;">Higashi-umisaki 東海埼</text><text x="583.9999999999918" y="778.4933379297443" fill="#000000" transform="matrix(1,0,0,1,0,0)" style="font-size: 18px; font-family: Roboto, Arial, sans-serif; font-weight: 900; text-anchor: end; letter-spacing: 0em;">Takumiya 匠矢</text><text x="583.9999999999918" y="815.8540789258444" fill="#000000" transform="matrix(1,0,0,1,0,0)" style="font-size: 18px; font-family: Roboto, Arial, sans-serif; font-weight: 900; text-anchor: end; letter-spacing: 0em;">keikyū 競笈</text><text x="583.9999999999918" y="853.2148199219392" fill="#000000" transform="matrix(1,0,0,1,0,0)" style="font-size: 18px; font-family: Roboto, Arial, sans-serif; font-weight: 900; text-anchor: end; letter-spacing: 0em;">Uchii-jima 内居島</text><text x="583.9999999999918" y="890.5755609180394" fill="#000000" transform="matrix(1,0,0,1,0,0)" style="font-size: 18px; font-family: Roboto, Arial, sans-serif; font-weight: 900; text-anchor: end; letter-spacing: 0em;">Nijijutsu 虹述</text><text x="583.9999999999918" y="927.9363019141342" fill="#000000" transform="matrix(1,0,0,1,0,0)" style="font-size: 18px; font-family: Roboto, Arial, sans-serif; font-weight: 900; text-anchor: end; letter-spacing: 0em;">Yuhoku 喩北</text><text x="583.9999999999918" y="965.2970429102292" fill="#000000" transform="matrix(1,0,0,1,0,0)" style="font-size: 18px; font-family: Roboto, Arial, sans-serif; font-weight: 900; text-anchor: end; letter-spacing: 0em;">YuhokugakuenToshi 喩北学園都市</text><text x="583.9999999999918" y="1002.6577839063292" fill="#000000" transform="matrix(1,0,0,1,0,0)" style="font-size: 18px; font-family: Roboto, Arial, sans-serif; font-weight: 900; text-anchor: end; letter-spacing: 0em;">YuwatakaiyōDai 喩渡海洋大</text><text x="583.9999999999918" y="1040.0185249024241" fill="#000000" transform="matrix(1,0,0,1,0,0)" style="font-size: 18px; font-family: Roboto, Arial, sans-serif; font-weight: 900; text-anchor: end; letter-spacing: 0em;">Yoshiharido 義張戸</text><text x="583.9999999999918" y="1077.3792658985242" fill="#000000" transform="matrix(1,0,0,1,0,0)" style="font-size: 18px; font-family: Roboto, Arial, sans-serif; font-weight: 900; text-anchor: end; letter-spacing: 0em;">Funayama 舩山</text><text x="583.9999999999918" y="1114.740006894619" fill="#000000" transform="matrix(1,0,0,1,0,0)" style="font-size: 18px; font-family: Roboto, Arial, sans-serif; font-weight: 900; text-anchor: end; letter-spacing: 0em;">Nofuri 乃降</text><text x="583.9999999999918" y="1152.1007478907138" fill="#000000" transform="matrix(1,0,0,1,0,0)" style="font-size: 18px; font-family: Roboto, Arial, sans-serif; font-weight: 900; text-anchor: end; letter-spacing: 0em;">Sense 洗瀬</text><text x="583.9999999999918" y="1189.461488886814" fill="#000000" transform="matrix(1,0,0,1,0,0)" style="font-size: 18px; font-family: Roboto, Arial, sans-serif; font-weight: 900; text-anchor: end; letter-spacing: 0em;">Tonofuse 殿伏</text><text x="583.9999999999918" y="1226.822229882909" fill="#000000" transform="matrix(1,0,0,1,0,0)" style="font-size: 18px; font-family: Roboto, Arial, sans-serif; font-weight: 900; text-anchor: end; letter-spacing: 0em;">Asagi 朝義</text><text x="583.9999999999918" y="1264.1829708790092" fill="#000000" transform="matrix(1,0,0,1,0,0)" style="font-size: 18px; font-family: Roboto, Arial, sans-serif; font-weight: 900; text-anchor: end; letter-spacing: 0em;">Uwanari-Bashi 嫐橋</text><text x="583.9999999999918" y="1301.5437118751038" fill="#000000" transform="matrix(1,0,0,1,0,0)" style="font-size: 18px; font-family: Roboto, Arial, sans-serif; font-weight: 900; text-anchor: end; letter-spacing: 0em;">Yuwata 喩渡</text></svg>
