<svg height="462.0001640914106" version="1.1" width="920" xmlns="http://www.w3.org/2000/svg" id="svgSvg" viewBox="0 -138.2 920 462.0001640914106" style="width: 1366px; height: 685.971px;"><desc>Created with Snap</desc><defs/><path d="M8,5 C10,2 10,2 5.67,3.6  C1.8,4.9 1.8,5.1 5.67,6.4 C10,8 10,8 8,5 z" fill="#ffffff" style=""/><path d="M2,5 C0,2 0,2 4.33,3.6  C8.2,4.9 8.2,5.1 4.33,6.4 C0,8 0,8 2,5 z" fill="#ffffff" style=""/><polyline points="181.00000000000819,239.50734130822988,194.5071999999982,262.0001640914106" fill="none" stroke="#ffffff" style="stroke-opacity: 0; stroke-width: 0; stroke-linecap: round; stroke-linejoin: round; marker-start: none; marker-end: none;"/><path d="M8,5 C10,2 10,2 5.67,3.6  C1.8,4.9 1.8,5.1 5.67,6.4 C10,8 10,8 8,5 z" fill="#ffffff" style=""/><path d="M2,5 C0,2 0,2 4.33,3.6  C8.2,4.9 8.2,5.1 4.33,6.4 C0,8 0,8 2,5 z" fill="#ffffff" style=""/><polyline points="244.00000000003274,208.00010939427375,244.00000000003274,208.00010939427375,298.00000000002456,226.00012762665273" fill="none" stroke="#ffffff" style="stroke-opacity: 0; stroke-width: 0; stroke-linecap: round; stroke-linejoin: round; marker-start: none; marker-end: none;"/><path d="M8,5 C10,2 10,2 5.67,3.6  C1.8,4.9 1.8,5.1 5.67,6.4 C10,8 10,8 8,5 z" fill="#ffffff" style=""/><path d="M2,5 C0,2 0,2 4.33,3.6  C8.2,4.9 8.2,5.1 4.33,6.4 C0,8 0,8 2,5 z" fill="#ffffff" style=""/><polyline points="100,100,172.00000000001637,100,244.00000000003274,100,316.0000000000082,100,388.00000000002456,100,460,100,532.0000000000164,100,604.0000000000327,100,676.0000000000082,100,748.0000000000246,100,820,100" fill="none" stroke="#ffffff" style="stroke-opacity: 0; stroke-width: 0; stroke-linecap: round; stroke-linejoin: round; marker-start: none; marker-end: none;"/><path d="M8,5 C10,2 10,2 5.67,3.6  C1.8,4.9 1.8,5.1 5.67,6.4 C10,8 10,8 8,5 z" fill="#ffffff" style=""/><path d="M2,5 C0,2 0,2 4.33,3.6  C8.2,4.9 8.2,5.1 4.33,6.4 C0,8 0,8 2,5 z" fill="#ffffff" style=""/><polyline points="100,100,172.00000000001637,100,244.00000000003274,100,316.0000000000082,100,388.00000000002456,100,460,100,532.0000000000164,100,604.0000000000327,100,676.0000000000082,100,748.0000000000246,100,820,100" fill="none" stroke="#ffffff" style="stroke-opacity: 0; stroke-width: 0; stroke-linecap: round; stroke-linejoin: round; marker-start: none; marker-end: none;"/><path d="M8,5 C10,2 10,2 5.67,3.6  C1.8,4.9 1.8,5.1 5.67,6.4 C10,8 10,8 8,5 z" fill="#483d8b" style=""/><path d="M2,5 C0,2 0,2 4.33,3.6  C8.2,4.9 8.2,5.1 4.33,6.4 C0,8 0,8 2,5 z" fill="#483d8b" style=""/><polyline points="100,100,172.00000000001637,100,244.00000000003274,100,316.0000000000082,100,388.00000000002456,100,460,100,532.0000000000164,100,604.0000000000327,100,676.0000000000082,100,748.0000000000246,100,820,100" fill="none" stroke="#483d8b" style="stroke-opacity: 1; stroke-width: 6; stroke-linecap: round; stroke-linejoin: round; marker-start: none; marker-end: none;"/><circle cx="181.00000000000819" cy="239.50734130822988" r="2" fill="#ffffff" stroke="#ffffff" style="stroke-width: 0; fill-opacity: 1;"/><circle cx="194.5071999999982" cy="262.0001640914106" r="2" fill="#ffffff" stroke="#ffffff" style="stroke-width: 0; fill-opacity: 1;"/><circle cx="244.00000000003274" cy="208.00010939427375" r="2" fill="#ffffff" stroke="#ffffff" style="stroke-width: 0; fill-opacity: 1;"/><circle cx="244.00000000003274" cy="208.00010939427375" r="2" fill="#ffffff" stroke="#ffffff" style="stroke-width: 0; fill-opacity: 1;"/><circle cx="298.00000000002456" cy="226.00012762665273" r="2" fill="#ffffff" stroke="#ffffff" style="stroke-width: 0; fill-opacity: 1;"/><circle cx="100" cy="100" r="2" fill="#ffffff" stroke="#ffffff" style="stroke-width: 0; fill-opacity: 1;"/><circle cx="172.00000000001637" cy="100" r="2" fill="#ffffff" stroke="#ffffff" style="stroke-width: 0; fill-opacity: 1;"/><circle cx="244.00000000003274" cy="100" r="2" fill="#ffffff" stroke="#ffffff" style="stroke-width: 0; fill-opacity: 1;"/><circle cx="316.0000000000082" cy="100" r="2" fill="#ffffff" stroke="#ffffff" style="stroke-width: 0; fill-opacity: 1;"/><circle cx="388.00000000002456" cy="100" r="2" fill="#ffffff" stroke="#ffffff" style="stroke-width: 0; fill-opacity: 1;"/><circle cx="460" cy="100" r="2" fill="#ffffff" stroke="#ffffff" style="stroke-width: 0; fill-opacity: 1;"/><circle cx="532.0000000000164" cy="100" r="2" fill="#ffffff" stroke="#ffffff" style="stroke-width: 0; fill-opacity: 1;"/><circle cx="604.0000000000327" cy="100" r="2" fill="#ffffff" stroke="#ffffff" style="stroke-width: 0; fill-opacity: 1;"/><circle cx="676.0000000000082" cy="100" r="2" fill="#ffffff" stroke="#ffffff" style="stroke-width: 0; fill-opacity: 1;"/><circle cx="748.0000000000246" cy="100" r="2" fill="#ffffff" stroke="#ffffff" style="stroke-width: 0; fill-opacity: 1;"/><circle cx="820" cy="100" r="2" fill="#ffffff" stroke="#ffffff" style="stroke-width: 0; fill-opacity: 1;"/><circle cx="100" cy="100" r="2" fill="#ffffff" stroke="#000000" style="stroke-width: 0; fill-opacity: 1;"/><circle cx="172.00000000001637" cy="100" r="2" fill="#ffffff" stroke="#000000" style="stroke-width: 0; fill-opacity: 1;"/><circle cx="244.00000000003274" cy="100" r="2" fill="#ffffff" stroke="#000000" style="stroke-width: 0; fill-opacity: 1;"/><circle cx="316.0000000000082" cy="100" r="2" fill="#ffffff" stroke="#000000" style="stroke-width: 0; fill-opacity: 1;"/><circle cx="388.00000000002456" cy="100" r="2" fill="#ffffff" stroke="#000000" style="stroke-width: 0; fill-opacity: 1;"/><circle cx="460" cy="100" r="2" fill="#ffffff" stroke="#000000" style="stroke-width: 0; fill-opacity: 1;"/><circle cx="532.0000000000164" cy="100" r="2" fill="#ffffff" stroke="#000000" style="stroke-width: 0; fill-opacity: 1;"/><circle cx="604.0000000000327" cy="100" r="2" fill="#ffffff" stroke="#000000" style="stroke-width: 0; fill-opacity: 1;"/><circle cx="676.0000000000082" cy="100" r="2" fill="#ffffff" stroke="#000000" style="stroke-width: 0; fill-opacity: 1;"/><circle cx="748.0000000000246" cy="100" r="2" fill="#ffffff" stroke="#000000" style="stroke-width: 0; fill-opacity: 1;"/><circle cx="820" cy="100" r="2" fill="#ffffff" stroke="#000000" style="stroke-width: 0; fill-opacity: 1;"/><circle cx="100" cy="100" r="16" fill="#ffffff" stroke="#483d8b" style="stroke-width: 2; fill-opacity: 1;"/><circle cx="172.00000000001637" cy="100" r="16" fill="#ffffff" stroke="#483d8b" style="stroke-width: 2; fill-opacity: 1;"/><circle cx="244.00000000003274" cy="100" r="16" fill="#ffffff" stroke="#483d8b" style="stroke-width: 2; fill-opacity: 1;"/><circle cx="316.0000000000082" cy="100" r="16" fill="#ffffff" stroke="#483d8b" style="stroke-width: 2; fill-opacity: 1;"/><circle cx="388.00000000002456" cy="100" r="16" fill="#ffffff" stroke="#483d8b" style="stroke-width: 2; fill-opacity: 1;"/><circle cx="460" cy="100" r="16" fill="#ffffff" stroke="#483d8b" style="stroke-width: 2; fill-opacity: 1;"/><circle cx="532.0000000000164" cy="100" r="16" fill="#ffffff" stroke="#483d8b" style="stroke-width: 2; fill-opacity: 1;"/><circle cx="604.0000000000327" cy="100" r="16" fill="#ffffff" stroke="#483d8b" style="stroke-width: 2; fill-opacity: 1;"/><circle cx="676.0000000000082" cy="100" r="16" fill="#ffffff" stroke="#483d8b" style="stroke-width: 2; fill-opacity: 1;"/><circle cx="748.0000000000246" cy="100" r="16" fill="#ffffff" stroke="#483d8b" style="stroke-width: 2; fill-opacity: 1;"/><circle cx="820" cy="100" r="16" fill="#ffffff" stroke="#483d8b" style="stroke-width: 2; fill-opacity: 1;"/><text x="201.00000000000819" y="245.50734130822988" fill="#000000" transform="matrix(1,0,0,1,0,0)" style="font-size: 18px; font-family: Roboto, Arial, sans-serif; font-weight: 900; text-anchor: start; letter-spacing: 0em;">_________________________________</text><text x="214.5071999999982" y="267.0001640914106" fill="#483d8b" transform="matrix(1,0,0,1,0,0)" style="font-size: 16px; font-family: Roboto, Arial, sans-serif; font-weight: 900; text-anchor: start; letter-spacing: 0em;">Yuhoku Academic city Railway</text><text x="244.00000000003274" y="225.00010939427375" fill="#483d8b" transform="matrix(1,0,0,1,0,0)" style="font-size: 40px; font-family: Roboto, Arial, sans-serif; font-weight: 900; text-anchor: middle; letter-spacing: 0em;">■</text><text x="244.00000000003274" y="221.00010939427375" fill="#ffffff" transform="matrix(1,0,0,1,0,0)" style="font-size: 32px; font-family: Roboto, Arial, sans-serif; font-weight: 900; text-anchor: middle; letter-spacing: 0em;">喩</text><text x="276.00000000002456" y="241.00012762665273" fill="#483d8b" transform="matrix(1,0,0,1,0,0)" style="font-size: 36px; font-family: Roboto, Arial, sans-serif; font-weight: 900; text-anchor: start; letter-spacing: 0em;">北学園都市鉄道</text><text x="118" y="74" fill="#2f4f4f" transform="matrix(1,0,0,1,0,0)" style="font-size: 10px; font-family: Roboto, Arial, sans-serif; font-weight: 900; text-anchor: end; writing-mode: tb; letter-spacing: -0.1em;">Yuhoku</text><text x="190.00000000001637" y="74" fill="#2f4f4f" transform="matrix(1,0,0,1,0,0)" style="font-size: 10px; font-family: Roboto, Arial, sans-serif; font-weight: 900; text-anchor: end; writing-mode: tb; letter-spacing: -0.1em;">Mototaga</text><text x="262.00000000003274" y="50" fill="#2f4f4f" transform="matrix(1,0,0,1,0,0)" style="font-size: 10px; font-family: Roboto, Arial, sans-serif; font-weight: 900; text-anchor: end; writing-mode: tb; letter-spacing: -0.1em;">Kyoei〔Eifukudaimae〕</text><text x="334.0000000000082" y="68" fill="#2f4f4f" transform="matrix(1,0,0,1,0,0)" style="font-size: 10px; font-family: Roboto, Arial, sans-serif; font-weight: 900; text-anchor: end; writing-mode: tb; letter-spacing: -0.1em;">YuhokuGakuentoshi</text><text x="406.00000000002456" y="56" fill="#2f4f4f" transform="matrix(1,0,0,1,0,0)" style="font-size: 10px; font-family: Roboto, Arial, sans-serif; font-weight: 900; text-anchor: end; writing-mode: tb; letter-spacing: -0.1em;">Kanaezaki〔Shitoadaimae〕</text><text x="478" y="26" fill="#2f4f4f" transform="matrix(1,0,0,1,0,0)" style="font-size: 10px; font-family: Roboto, Arial, sans-serif; font-weight: 900; text-anchor: end; writing-mode: tb; letter-spacing: -0.1em;">Shimoyuhoku-Building</text><text x="550.0000000000164" y="62" fill="#2f4f4f" transform="matrix(1,0,0,1,0,0)" style="font-size: 10px; font-family: Roboto, Arial, sans-serif; font-weight: 900; text-anchor: end; writing-mode: tb; letter-spacing: -0.1em;">Yuwatakaiyodai</text><text x="622.0000000000327" y="74" fill="#2f4f4f" transform="matrix(1,0,0,1,0,0)" style="font-size: 10px; font-family: Roboto, Arial, sans-serif; font-weight: 900; text-anchor: end; writing-mode: tb; letter-spacing: -0.1em;">Shosen</text><text x="694.0000000000082" y="74" fill="#2f4f4f" transform="matrix(1,0,0,1,0,0)" style="font-size: 10px; font-family: Roboto, Arial, sans-serif; font-weight: 900; text-anchor: end; writing-mode: tb; letter-spacing: -0.1em;">Utaikakuhara</text><text x="766.0000000000246" y="68" fill="#2f4f4f" transform="matrix(1,0,0,1,0,0)" style="font-size: 10px; font-family: Roboto, Arial, sans-serif; font-weight: 900; text-anchor: end; writing-mode: tb; letter-spacing: -0.1em;">Shogikaikammae</text><text x="838" y="68" fill="#2f4f4f" transform="matrix(1,0,0,1,0,0)" style="font-size: 10px; font-family: Roboto, Arial, sans-serif; font-weight: 900; text-anchor: end; writing-mode: tb; letter-spacing: -0.1em;">Kugeyano</text><text x="100" y="103" fill="#483d8b" transform="matrix(1,0,0,1,0,0)" style="font-size: 12px; font-family: Roboto, Arial, sans-serif; font-weight: 900; text-anchor: middle; letter-spacing: 0em;">YH01</text><text x="172.00000000001637" y="103" fill="#483d8b" transform="matrix(1,0,0,1,0,0)" style="font-size: 12px; font-family: Roboto, Arial, sans-serif; font-weight: 900; text-anchor: middle; letter-spacing: 0em;">YH02</text><text x="244.00000000003274" y="103" fill="#483d8b" transform="matrix(1,0,0,1,0,0)" style="font-size: 12px; font-family: Roboto, Arial, sans-serif; font-weight: 900; text-anchor: middle; letter-spacing: 0em;">YH03</text><text x="316.0000000000082" y="103" fill="#483d8b" transform="matrix(1,0,0,1,0,0)" style="font-size: 12px; font-family: Roboto, Arial, sans-serif; font-weight: 900; text-anchor: middle; letter-spacing: 0em;">YH04</text><text x="388.00000000002456" y="103" fill="#483d8b" transform="matrix(1,0,0,1,0,0)" style="font-size: 12px; font-family: Roboto, Arial, sans-serif; font-weight: 900; text-anchor: middle; letter-spacing: 0em;">YH05</text><text x="460" y="103" fill="#483d8b" transform="matrix(1,0,0,1,0,0)" style="font-size: 12px; font-family: Roboto, Arial, sans-serif; font-weight: 900; text-anchor: middle; letter-spacing: 0em;">YH06</text><text x="532.0000000000164" y="103" fill="#483d8b" transform="matrix(1,0,0,1,0,0)" style="font-size: 12px; font-family: Roboto, Arial, sans-serif; font-weight: 900; text-anchor: middle; letter-spacing: 0em;">YH07</text><text x="604.0000000000327" y="103" fill="#483d8b" transform="matrix(1,0,0,1,0,0)" style="font-size: 12px; font-family: Roboto, Arial, sans-serif; font-weight: 900; text-anchor: middle; letter-spacing: 0em;">YH08</text><text x="676.0000000000082" y="103" fill="#483d8b" transform="matrix(1,0,0,1,0,0)" style="font-size: 12px; font-family: Roboto, Arial, sans-serif; font-weight: 900; text-anchor: middle; letter-spacing: 0em;">YH09</text><text x="748.0000000000246" y="103" fill="#483d8b" transform="matrix(1,0,0,1,0,0)" style="font-size: 12px; font-family: Roboto, Arial, sans-serif; font-weight: 900; text-anchor: middle; letter-spacing: 0em;">YH10</text><text x="820" y="103" fill="#483d8b" transform="matrix(1,0,0,1,0,0)" style="font-size: 12px; font-family: Roboto, Arial, sans-serif; font-weight: 900; text-anchor: middle; letter-spacing: 0em;">YH11</text><text x="100" y="74" fill="#000000" transform="matrix(1,0,0,1,0,0)" style="font-size: 18px; font-family: Roboto, Arial, sans-serif; font-weight: 900; text-anchor: end; writing-mode: tb; letter-spacing: -0.1em;">喩北</text><text x="172.00000000001637" y="74" fill="#000000" transform="matrix(1,0,0,1,0,0)" style="font-size: 18px; font-family: Roboto, Arial, sans-serif; font-weight: 900; text-anchor: end; writing-mode: tb; letter-spacing: -0.1em;">元箍</text><text x="244.00000000003274" y="80" fill="#000000" transform="matrix(1,0,0,1,0,0)" style="font-size: 18px; font-family: Roboto, Arial, sans-serif; font-weight: 900; text-anchor: end; writing-mode: tb; letter-spacing: -0.1em;">教永〔鋭副大前〕</text><text x="316.0000000000082" y="74" fill="#000000" transform="matrix(1,0,0,1,0,0)" style="font-size: 18px; font-family: Roboto, Arial, sans-serif; font-weight: 900; text-anchor: end; writing-mode: tb; letter-spacing: -0.1em;">喩北学園都市</text><text x="388.00000000002456" y="80" fill="#000000" transform="matrix(1,0,0,1,0,0)" style="font-size: 18px; font-family: Roboto, Arial, sans-serif; font-weight: 900; text-anchor: end; writing-mode: tb; letter-spacing: -0.1em;">鼎崎〔仕等阿大前〕</text><text x="460" y="74" fill="#000000" transform="matrix(1,0,0,1,0,0)" style="font-size: 18px; font-family: Roboto, Arial, sans-serif; font-weight: 900; text-anchor: end; writing-mode: tb; letter-spacing: -0.1em;">下喩北ビルディング</text><text x="532.0000000000164" y="74" fill="#000000" transform="matrix(1,0,0,1,0,0)" style="font-size: 18px; font-family: Roboto, Arial, sans-serif; font-weight: 900; text-anchor: end; writing-mode: tb; letter-spacing: -0.1em;">喩渡海洋大</text><text x="604.0000000000327" y="74" fill="#000000" transform="matrix(1,0,0,1,0,0)" style="font-size: 18px; font-family: Roboto, Arial, sans-serif; font-weight: 900; text-anchor: end; writing-mode: tb; letter-spacing: -0.1em;">訟仙</text><text x="676.0000000000082" y="74" fill="#000000" transform="matrix(1,0,0,1,0,0)" style="font-size: 18px; font-family: Roboto, Arial, sans-serif; font-weight: 900; text-anchor: end; writing-mode: tb; letter-spacing: -0.1em;">謳格原</text><text x="748.0000000000246" y="74" fill="#000000" transform="matrix(1,0,0,1,0,0)" style="font-size: 18px; font-family: Roboto, Arial, sans-serif; font-weight: 900; text-anchor: end; writing-mode: tb; letter-spacing: -0.1em;">将棋会館前</text><text x="820" y="74" fill="#000000" transform="matrix(1,0,0,1,0,0)" style="font-size: 18px; font-family: Roboto, Arial, sans-serif; font-weight: 900; text-anchor: end; writing-mode: tb; letter-spacing: -0.1em;">鵠矢野</text></svg>
