<svg height="624.0000599868195" version="1.1" width="920" xmlns="http://www.w3.org/2000/svg" id="svgSvg" viewBox="0 0 920 624.0000599868195" style="width: 1366px; height: 926.505px;"><desc>Created with Snap</desc><defs/><path d="M8,5 C10,2 10,2 5.67,3.6  C1.8,4.9 1.8,5.1 5.67,6.4 C10,8 10,8 8,5 z" fill="#ffffff" style=""/><path d="M2,5 C0,2 0,2 4.33,3.6  C8.2,4.9 8.2,5.1 4.33,6.4 C0,8 0,8 2,5 z" fill="#ffffff" style=""/><polyline points="820,244.0000266608087,765.9999999999673,244.0000266608087,712.0000000000164,244.0000266608087,657.9999999999836,244.0000266608087,603.9999999999509,244.0000266608087,550,244.0000266608087,495.99999999996726,244.0000266608087,442.00000000001637,244.0000266608087,387.99999999998363,244.0000266608087,333.9999999999509,244.0000266608087,280,244.0000266608087,225.99999999996726,244.0000266608087,172.00000000001637,244.0000266608087,117.99999999998363,244.0000266608087,117.99999999998363,424.0000599868195,172.00000000001637,424.0000599868195,225.99999999996726,424.0000599868195,280,424.0000599868195,333.9999999999509,424.0000599868195,387.99999999998363,424.0000599868195,442.00000000001637,424.0000599868195,603.9999999999509,100,657.9999999999836,100,712.0000000000164,100" fill="none" stroke="#ffffff" style="stroke-opacity: 0; stroke-width: 0; stroke-linecap: round; stroke-linejoin: round; marker-start: none; marker-end: none;"/><path d="M8,5 C10,2 10,2 5.67,3.6  C1.8,4.9 1.8,5.1 5.67,6.4 C10,8 10,8 8,5 z" fill="#ffffff" style=""/><path d="M2,5 C0,2 0,2 4.33,3.6  C8.2,4.9 8.2,5.1 4.33,6.4 C0,8 0,8 2,5 z" fill="#ffffff" style=""/><polyline points="477.99999999998363,234.9856249918421,532.0000000000164,234.9856249918421" fill="none" stroke="#ffffff" style="stroke-opacity: 1; stroke-width: 6; stroke-linecap: round; stroke-linejoin: round; marker-start: none; marker-end: none;"/><path d="M8,5 C10,2 10,2 5.67,3.6  C1.8,4.9 1.8,5.1 5.67,6.4 C10,8 10,8 8,5 z" fill="#ffa500" style=""/><path d="M2,5 C0,2 0,2 4.33,3.6  C8.2,4.9 8.2,5.1 4.33,6.4 C0,8 0,8 2,5 z" fill="#ffa500" style=""/><polyline points="693.9999999999509,100,640,100,585.9999999999673,100,550,100,550,226.0000233282076,460,226.0000233282076,460,424.0000599868195,423.9999999999509,424.0000599868195,370,424.0000599868195,315.99999999996726,424.0000599868195,262.00000000001637,424.0000599868195,207.99999999998363,424.0000599868195,153.9999999999509,424.0000599868195,100,424.0000599868195" fill="none" stroke="#ffa500" style="stroke-opacity: 1; stroke-width: 14; stroke-linecap: round; stroke-linejoin: round; marker-start: none; marker-end: none;"/><path d="M8,5 C10,2 10,2 5.67,3.6  C1.8,4.9 1.8,5.1 5.67,6.4 C10,8 10,8 8,5 z" fill="#4169e1" style=""/><path d="M2,5 C0,2 0,2 4.33,3.6  C8.2,4.9 8.2,5.1 4.33,6.4 C0,8 0,8 2,5 z" fill="#4169e1" style=""/><polyline points="100,244.0000266608087,153.9999999999509,244.0000266608087,207.99999999998363,244.0000266608087,262.00000000001637,244.0000266608087,315.99999999996726,244.0000266608087,370,244.0000266608087,423.9999999999509,244.0000266608087,477.99999999998363,244.0000266608087,532.0000000000164,244.0000266608087,585.9999999999673,244.0000266608087,640,244.0000266608087,693.9999999999509,244.0000266608087,747.9999999999836,244.0000266608087,802.0000000000164,244.0000266608087" fill="none" stroke="#4169e1" style="stroke-opacity: 1; stroke-width: 14; stroke-linecap: round; stroke-linejoin: round; marker-start: none; marker-end: none;"/><circle cx="820" cy="244.0000266608087" r="2" fill="#ffffff" stroke="#ffffff" style="stroke-width: 0; fill-opacity: 0;"/><circle cx="765.9999999999673" cy="244.0000266608087" r="2" fill="#ffffff" stroke="#ffffff" style="stroke-width: 0; fill-opacity: 0;"/><circle cx="712.0000000000164" cy="244.0000266608087" r="2" fill="#ffffff" stroke="#ffffff" style="stroke-width: 0; fill-opacity: 0;"/><circle cx="657.9999999999836" cy="244.0000266608087" r="2" fill="#ffffff" stroke="#ffffff" style="stroke-width: 0; fill-opacity: 0;"/><circle cx="603.9999999999509" cy="244.0000266608087" r="2" fill="#ffffff" stroke="#ffffff" style="stroke-width: 0; fill-opacity: 0;"/><circle cx="550" cy="244.0000266608087" r="2" fill="#ffffff" stroke="#ffffff" style="stroke-width: 0; fill-opacity: 0;"/><circle cx="495.99999999996726" cy="244.0000266608087" r="2" fill="#ffffff" stroke="#ffffff" style="stroke-width: 0; fill-opacity: 0;"/><circle cx="442.00000000001637" cy="244.0000266608087" r="2" fill="#ffffff" stroke="#ffffff" style="stroke-width: 0; fill-opacity: 0;"/><circle cx="387.99999999998363" cy="244.0000266608087" r="2" fill="#ffffff" stroke="#ffffff" style="stroke-width: 0; fill-opacity: 0;"/><circle cx="333.9999999999509" cy="244.0000266608087" r="2" fill="#ffffff" stroke="#ffffff" style="stroke-width: 0; fill-opacity: 0;"/><circle cx="280" cy="244.0000266608087" r="2" fill="#ffffff" stroke="#ffffff" style="stroke-width: 0; fill-opacity: 0;"/><circle cx="225.99999999996726" cy="244.0000266608087" r="2" fill="#ffffff" stroke="#ffffff" style="stroke-width: 0; fill-opacity: 0;"/><circle cx="172.00000000001637" cy="244.0000266608087" r="2" fill="#ffffff" stroke="#ffffff" style="stroke-width: 0; fill-opacity: 0;"/><circle cx="117.99999999998363" cy="244.0000266608087" r="2" fill="#ffffff" stroke="#ffffff" style="stroke-width: 0; fill-opacity: 0;"/><circle cx="117.99999999998363" cy="424.0000599868195" r="2" fill="#ffffff" stroke="#ffffff" style="stroke-width: 0; fill-opacity: 0;"/><circle cx="172.00000000001637" cy="424.0000599868195" r="2" fill="#ffffff" stroke="#ffffff" style="stroke-width: 0; fill-opacity: 0;"/><circle cx="225.99999999996726" cy="424.0000599868195" r="2" fill="#ffffff" stroke="#ffffff" style="stroke-width: 0; fill-opacity: 0;"/><circle cx="280" cy="424.0000599868195" r="2" fill="#ffffff" stroke="#ffffff" style="stroke-width: 0; fill-opacity: 0;"/><circle cx="333.9999999999509" cy="424.0000599868195" r="2" fill="#ffffff" stroke="#ffffff" style="stroke-width: 0; fill-opacity: 0;"/><circle cx="387.99999999998363" cy="424.0000599868195" r="2" fill="#ffffff" stroke="#ffffff" style="stroke-width: 0; fill-opacity: 0;"/><circle cx="442.00000000001637" cy="424.0000599868195" r="2" fill="#ffffff" stroke="#ffffff" style="stroke-width: 0; fill-opacity: 0;"/><circle cx="603.9999999999509" cy="100" r="2" fill="#ffffff" stroke="#ffffff" style="stroke-width: 0; fill-opacity: 0;"/><circle cx="657.9999999999836" cy="100" r="2" fill="#ffffff" stroke="#ffffff" style="stroke-width: 0; fill-opacity: 0;"/><circle cx="712.0000000000164" cy="100" r="2" fill="#ffffff" stroke="#ffffff" style="stroke-width: 0; fill-opacity: 0;"/><circle cx="477.99999999998363" cy="234.9856249918421" r="10" fill="#ffffff" stroke="#ffffff" style="stroke-width: 0; fill-opacity: 1;"/><circle cx="532.0000000000164" cy="234.9856249918421" r="10" fill="#ffffff" stroke="#ffffff" style="stroke-width: 0; fill-opacity: 1;"/><circle cx="693.9999999999509" cy="100" r="12" fill="#ffffff" stroke="#ffa500" style="stroke-width: 3; fill-opacity: 1;"/><circle cx="640" cy="100" r="12" fill="#ffffff" stroke="#ffa500" style="stroke-width: 3; fill-opacity: 1;"/><circle cx="585.9999999999673" cy="100" r="12" fill="#ffffff" stroke="#ffa500" style="stroke-width: 3; fill-opacity: 1;"/><circle cx="423.9999999999509" cy="424.0000599868195" r="12" fill="#ffffff" stroke="#ffa500" style="stroke-width: 3; fill-opacity: 1;"/><circle cx="370" cy="424.0000599868195" r="12" fill="#ffffff" stroke="#ffa500" style="stroke-width: 3; fill-opacity: 1;"/><circle cx="315.99999999996726" cy="424.0000599868195" r="12" fill="#ffffff" stroke="#ffa500" style="stroke-width: 3; fill-opacity: 1;"/><circle cx="262.00000000001637" cy="424.0000599868195" r="12" fill="#ffffff" stroke="#ffa500" style="stroke-width: 3; fill-opacity: 1;"/><circle cx="207.99999999998363" cy="424.0000599868195" r="12" fill="#ffffff" stroke="#ffa500" style="stroke-width: 3; fill-opacity: 1;"/><circle cx="153.9999999999509" cy="424.0000599868195" r="12" fill="#ffffff" stroke="#ffa500" style="stroke-width: 3; fill-opacity: 1;"/><circle cx="100" cy="424.0000599868195" r="12" fill="#ffffff" stroke="#ffa500" style="stroke-width: 3; fill-opacity: 1;"/><circle cx="100" cy="244.0000266608087" r="12" fill="#ffffff" stroke="#4169e1" style="stroke-width: 3; fill-opacity: 1;"/><circle cx="153.9999999999509" cy="244.0000266608087" r="12" fill="#ffffff" stroke="#4169e1" style="stroke-width: 3; fill-opacity: 1;"/><circle cx="207.99999999998363" cy="244.0000266608087" r="12" fill="#ffffff" stroke="#4169e1" style="stroke-width: 3; fill-opacity: 1;"/><circle cx="262.00000000001637" cy="244.0000266608087" r="12" fill="#ffffff" stroke="#4169e1" style="stroke-width: 3; fill-opacity: 1;"/><circle cx="315.99999999996726" cy="244.0000266608087" r="12" fill="#ffffff" stroke="#4169e1" style="stroke-width: 3; fill-opacity: 1;"/><circle cx="370" cy="244.0000266608087" r="12" fill="#ffffff" stroke="#4169e1" style="stroke-width: 3; fill-opacity: 1;"/><circle cx="423.9999999999509" cy="244.0000266608087" r="12" fill="#ffffff" stroke="#4169e1" style="stroke-width: 3; fill-opacity: 1;"/><circle cx="477.99999999998363" cy="244.0000266608087" r="2" fill="#ffffff" stroke="#ffffff" style="stroke-width: 0; fill-opacity: 0;"/><circle cx="532.0000000000164" cy="244.0000266608087" r="2" fill="#ffffff" stroke="#ffffff" style="stroke-width: 0; fill-opacity: 0;"/><circle cx="585.9999999999673" cy="244.0000266608087" r="12" fill="#ffffff" stroke="#4169e1" style="stroke-width: 3; fill-opacity: 1;"/><circle cx="640" cy="244.0000266608087" r="12" fill="#ffffff" stroke="#4169e1" style="stroke-width: 3; fill-opacity: 1;"/><circle cx="693.9999999999509" cy="244.0000266608087" r="12" fill="#ffffff" stroke="#4169e1" style="stroke-width: 3; fill-opacity: 1;"/><circle cx="747.9999999999836" cy="244.0000266608087" r="12" fill="#ffffff" stroke="#4169e1" style="stroke-width: 3; fill-opacity: 1;"/><circle cx="802.0000000000164" cy="244.0000266608087" r="12" fill="#ffffff" stroke="#4169e1" style="stroke-width: 3; fill-opacity: 1;"/><text x="820" y="264.00002666080866" fill="#000000" transform="matrix(1,0,0,1,0,0)" style="font-size: 8px; font-family: Roboto, Arial, sans-serif; font-weight: 900; text-anchor: start; writing-mode: tb; letter-spacing: -0.1em;">Fujisano</text><text x="765.9999999999673" y="264.00002666080866" fill="#000000" transform="matrix(1,0,0,1,0,0)" style="font-size: 8px; font-family: Roboto, Arial, sans-serif; font-weight: 900; text-anchor: start; writing-mode: tb; letter-spacing: -0.1em;">Shin-Takeuchi</text><text x="712.0000000000164" y="264.00002666080866" fill="#000000" transform="matrix(1,0,0,1,0,0)" style="font-size: 8px; font-family: Roboto, Arial, sans-serif; font-weight: 900; text-anchor: start; writing-mode: tb; letter-spacing: -0.1em;">Kita-shin-Takeuchi</text><text x="657.9999999999836" y="264.00002666080866" fill="#000000" transform="matrix(1,0,0,1,0,0)" style="font-size: 8px; font-family: Roboto, Arial, sans-serif; font-weight: 900; text-anchor: start; writing-mode: tb; letter-spacing: -0.1em;">Ruinakyū</text><text x="603.9999999999509" y="264.00002666080866" fill="#000000" transform="matrix(1,0,0,1,0,0)" style="font-size: 8px; font-family: Roboto, Arial, sans-serif; font-weight: 900; text-anchor: start; writing-mode: tb; letter-spacing: -0.1em;">Kyūdaimae</text><text x="550" y="264.00002666080866" fill="#000000" transform="matrix(1,0,0,1,0,0)" style="font-size: 8px; font-family: Roboto, Arial, sans-serif; font-weight: 900; text-anchor: start; writing-mode: tb; letter-spacing: -0.1em;">Rujōzaka</text><text x="495.99999999996726" y="264.00002666080866" fill="#000000" transform="matrix(1,0,0,1,0,0)" style="font-size: 8px; font-family: Roboto, Arial, sans-serif; font-weight: 900; text-anchor: start; writing-mode: tb; letter-spacing: -0.1em;">Kimori-icchome</text><text x="442.00000000001637" y="264.00002666080866" fill="#000000" transform="matrix(1,0,0,1,0,0)" style="font-size: 8px; font-family: Roboto, Arial, sans-serif; font-weight: 900; text-anchor: start; writing-mode: tb; letter-spacing: -0.1em;">Nisikyū</text><text x="387.99999999998363" y="264.00002666080866" fill="#000000" transform="matrix(1,0,0,1,0,0)" style="font-size: 8px; font-family: Roboto, Arial, sans-serif; font-weight: 900; text-anchor: start; writing-mode: tb; letter-spacing: -0.1em;">Kaino-hachiban</text><text x="333.9999999999509" y="264.00002666080866" fill="#000000" transform="matrix(1,0,0,1,0,0)" style="font-size: 8px; font-family: Roboto, Arial, sans-serif; font-weight: 900; text-anchor: start; writing-mode: tb; letter-spacing: -0.1em;">Houkoudai</text><text x="280" y="264.00002666080866" fill="#000000" transform="matrix(1,0,0,1,0,0)" style="font-size: 8px; font-family: Roboto, Arial, sans-serif; font-weight: 900; text-anchor: start; writing-mode: tb; letter-spacing: -0.1em;">Nakaike-Kabunohara</text><text x="225.99999999996726" y="264.00002666080866" fill="#000000" transform="matrix(1,0,0,1,0,0)" style="font-size: 8px; font-family: Roboto, Arial, sans-serif; font-weight: 900; text-anchor: start; writing-mode: tb; letter-spacing: -0.1em;">Kimi</text><text x="172.00000000001637" y="264.00002666080866" fill="#000000" transform="matrix(1,0,0,1,0,0)" style="font-size: 8px; font-family: Roboto, Arial, sans-serif; font-weight: 900; text-anchor: start; writing-mode: tb; letter-spacing: -0.1em;">Shin-Kuma</text><text x="117.99999999998363" y="264.00002666080866" fill="#000000" transform="matrix(1,0,0,1,0,0)" style="font-size: 8px; font-family: Roboto, Arial, sans-serif; font-weight: 900; text-anchor: start; writing-mode: tb; letter-spacing: -0.1em;">Hon-Kuma</text><text x="117.99999999998363" y="444.0000599868195" fill="#000000" transform="matrix(1,0,0,1,0,0)" style="font-size: 8px; font-family: Roboto, Arial, sans-serif; font-weight: 900; text-anchor: start; writing-mode: tb; letter-spacing: -0.1em;">Junno</text><text x="172.00000000001637" y="444.0000599868195" fill="#000000" transform="matrix(1,0,0,1,0,0)" style="font-size: 8px; font-family: Roboto, Arial, sans-serif; font-weight: 900; text-anchor: start; writing-mode: tb; letter-spacing: -0.1em;">Oda</text><text x="225.99999999996726" y="444.0000599868195" fill="#000000" transform="matrix(1,0,0,1,0,0)" style="font-size: 8px; font-family: Roboto, Arial, sans-serif; font-weight: 900; text-anchor: start; writing-mode: tb; letter-spacing: -0.1em;">Kami-Yubai</text><text x="280" y="444.0000599868195" fill="#000000" transform="matrix(1,0,0,1,0,0)" style="font-size: 8px; font-family: Roboto, Arial, sans-serif; font-weight: 900; text-anchor: start; writing-mode: tb; letter-spacing: -0.1em;">Yubai</text><text x="333.9999999999509" y="444.0000599868195" fill="#000000" transform="matrix(1,0,0,1,0,0)" style="font-size: 8px; font-family: Roboto, Arial, sans-serif; font-weight: 900; text-anchor: start; writing-mode: tb; letter-spacing: -0.1em;">Horihashi</text><text x="387.99999999998363" y="444.0000599868195" fill="#000000" transform="matrix(1,0,0,1,0,0)" style="font-size: 8px; font-family: Roboto, Arial, sans-serif; font-weight: 900; text-anchor: start; writing-mode: tb; letter-spacing: -0.1em;">Yōgao</text><text x="442.00000000001637" y="444.0000599868195" fill="#000000" transform="matrix(1,0,0,1,0,0)" style="font-size: 8px; font-family: Roboto, Arial, sans-serif; font-weight: 900; text-anchor: start; writing-mode: tb; letter-spacing: -0.1em;">Kokudō-Kimori</text><text x="603.9999999999509" y="120" fill="#000000" transform="matrix(1,0,0,1,0,0)" style="font-size: 8px; font-family: Roboto, Arial, sans-serif; font-weight: 900; text-anchor: start; writing-mode: tb; letter-spacing: -0.1em;">Satoi</text><text x="657.9999999999836" y="120" fill="#000000" transform="matrix(1,0,0,1,0,0)" style="font-size: 8px; font-family: Roboto, Arial, sans-serif; font-weight: 900; text-anchor: start; writing-mode: tb; letter-spacing: -0.1em;">Sakura-gobanchō</text><text x="712.0000000000164" y="120" fill="#000000" transform="matrix(1,0,0,1,0,0)" style="font-size: 8px; font-family: Roboto, Arial, sans-serif; font-weight: 900; text-anchor: start; writing-mode: tb; letter-spacing: -0.1em;">Ōshōdō</text><text x="693.9999999999509" y="120" fill="#000000" transform="matrix(1,0,0,1,0,0)" style="font-size: 18px; font-family: Roboto, Arial, sans-serif; font-weight: 900; text-anchor: start; writing-mode: tb; letter-spacing: -0.1em;">櫻翔堂</text><text x="640" y="120" fill="#000000" transform="matrix(1,0,0,1,0,0)" style="font-size: 18px; font-family: Roboto, Arial, sans-serif; font-weight: 900; text-anchor: start; writing-mode: tb; letter-spacing: -0.1em;">櫻五番町</text><text x="585.9999999999673" y="120" fill="#000000" transform="matrix(1,0,0,1,0,0)" style="font-size: 18px; font-family: Roboto, Arial, sans-serif; font-weight: 900; text-anchor: start; writing-mode: tb; letter-spacing: -0.1em;">里井</text><text x="423.9999999999509" y="444.0000599868195" fill="#000000" transform="matrix(1,0,0,1,0,0)" style="font-size: 18px; font-family: Roboto, Arial, sans-serif; font-weight: 900; text-anchor: start; writing-mode: tb; letter-spacing: -0.1em;">国道棋守</text><text x="370" y="444.0000599868195" fill="#000000" transform="matrix(1,0,0,1,0,0)" style="font-size: 18px; font-family: Roboto, Arial, sans-serif; font-weight: 900; text-anchor: start; writing-mode: tb; letter-spacing: -0.1em;">容が尾</text><text x="315.99999999996726" y="444.0000599868195" fill="#000000" transform="matrix(1,0,0,1,0,0)" style="font-size: 18px; font-family: Roboto, Arial, sans-serif; font-weight: 900; text-anchor: start; writing-mode: tb; letter-spacing: -0.1em;">堀橋</text><text x="262.00000000001637" y="444.0000599868195" fill="#000000" transform="matrix(1,0,0,1,0,0)" style="font-size: 18px; font-family: Roboto, Arial, sans-serif; font-weight: 900; text-anchor: start; writing-mode: tb; letter-spacing: -0.1em;">諭倍</text><text x="207.99999999998363" y="444.0000599868195" fill="#000000" transform="matrix(1,0,0,1,0,0)" style="font-size: 18px; font-family: Roboto, Arial, sans-serif; font-weight: 900; text-anchor: start; writing-mode: tb; letter-spacing: -0.1em;">上諭倍</text><text x="153.9999999999509" y="444.0000599868195" fill="#000000" transform="matrix(1,0,0,1,0,0)" style="font-size: 18px; font-family: Roboto, Arial, sans-serif; font-weight: 900; text-anchor: start; writing-mode: tb; letter-spacing: -0.1em;">於田</text><text x="100" y="444.0000599868195" fill="#000000" transform="matrix(1,0,0,1,0,0)" style="font-size: 18px; font-family: Roboto, Arial, sans-serif; font-weight: 900; text-anchor: start; writing-mode: tb; letter-spacing: -0.1em;">准野</text><text x="100" y="264.00002666080866" fill="#000000" transform="matrix(1,0,0,1,0,0)" style="font-size: 18px; font-family: Roboto, Arial, sans-serif; font-weight: 900; text-anchor: start; writing-mode: tb; letter-spacing: -0.1em;">本玖麻</text><text x="153.9999999999509" y="264.00002666080866" fill="#000000" transform="matrix(1,0,0,1,0,0)" style="font-size: 18px; font-family: Roboto, Arial, sans-serif; font-weight: 900; text-anchor: start; writing-mode: tb; letter-spacing: -0.1em;">新玖麻</text><text x="207.99999999998363" y="264.00002666080866" fill="#000000" transform="matrix(1,0,0,1,0,0)" style="font-size: 18px; font-family: Roboto, Arial, sans-serif; font-weight: 900; text-anchor: start; writing-mode: tb; letter-spacing: -0.1em;">綺実</text><text x="262.00000000001637" y="264.00002666080866" fill="#000000" transform="matrix(1,0,0,1,0,0)" style="font-size: 18px; font-family: Roboto, Arial, sans-serif; font-weight: 900; text-anchor: start; writing-mode: tb; letter-spacing: -0.1em;">中池株の原</text><text x="315.99999999996726" y="264.00002666080866" fill="#000000" transform="matrix(1,0,0,1,0,0)" style="font-size: 18px; font-family: Roboto, Arial, sans-serif; font-weight: 900; text-anchor: start; writing-mode: tb; letter-spacing: -0.1em;">彷徨台</text><text x="370" y="264.00002666080866" fill="#000000" transform="matrix(1,0,0,1,0,0)" style="font-size: 18px; font-family: Roboto, Arial, sans-serif; font-weight: 900; text-anchor: start; writing-mode: tb; letter-spacing: -0.1em;">皆野八番</text><text x="423.9999999999509" y="264.00002666080866" fill="#000000" transform="matrix(1,0,0,1,0,0)" style="font-size: 18px; font-family: Roboto, Arial, sans-serif; font-weight: 900; text-anchor: start; writing-mode: tb; letter-spacing: -0.1em;">西玖</text><text x="477.99999999998363" y="264.00002666080866" fill="#000000" transform="matrix(1,0,0,1,0,0)" style="font-size: 18px; font-family: Roboto, Arial, sans-serif; font-weight: 900; text-anchor: start; writing-mode: tb; letter-spacing: -0.1em;">棋守一丁目</text><text x="532.0000000000164" y="264.00002666080866" fill="#000000" transform="matrix(1,0,0,1,0,0)" style="font-size: 18px; font-family: Roboto, Arial, sans-serif; font-weight: 900; text-anchor: start; writing-mode: tb; letter-spacing: -0.1em;">瑠条坂</text><text x="585.9999999999673" y="264.00002666080866" fill="#000000" transform="matrix(1,0,0,1,0,0)" style="font-size: 18px; font-family: Roboto, Arial, sans-serif; font-weight: 900; text-anchor: start; writing-mode: tb; letter-spacing: -0.1em;">玖大前</text><text x="640" y="264.00002666080866" fill="#000000" transform="matrix(1,0,0,1,0,0)" style="font-size: 18px; font-family: Roboto, Arial, sans-serif; font-weight: 900; text-anchor: start; writing-mode: tb; letter-spacing: -0.1em;">星稲玖</text><text x="693.9999999999509" y="264.00002666080866" fill="#000000" transform="matrix(1,0,0,1,0,0)" style="font-size: 18px; font-family: Roboto, Arial, sans-serif; font-weight: 900; text-anchor: start; writing-mode: tb; letter-spacing: -0.1em;">北新竹内</text><text x="747.9999999999836" y="264.00002666080866" fill="#000000" transform="matrix(1,0,0,1,0,0)" style="font-size: 18px; font-family: Roboto, Arial, sans-serif; font-weight: 900; text-anchor: start; writing-mode: tb; letter-spacing: -0.1em;">新竹内</text><text x="802.0000000000164" y="264.00002666080866" fill="#000000" transform="matrix(1,0,0,1,0,0)" style="font-size: 18px; font-family: Roboto, Arial, sans-serif; font-weight: 900; text-anchor: start; writing-mode: tb; letter-spacing: -0.1em;">藤佐野</text></svg>
