<svg height="1245.018520077472" version="1.1" width="753.4927999999854" xmlns="http://www.w3.org/2000/svg" id="svgSvg" viewBox="0 0 753.4927999999854 1245.018520077472" style="width: 1366px; height: 2257.13px;"><desc>Created with Snap</desc><defs/><path d="M8,5 C10,2 10,2 5.67,3.6  C1.8,4.9 1.8,5.1 5.67,6.4 C10,8 10,8 8,5 z" fill="#2f4f4f" style=""/><path d="M2,5 C0,2 0,2 4.33,3.6  C8.2,4.9 8.2,5.1 4.33,6.4 C0,8 0,8 2,5 z" fill="#2f4f4f" style=""/><polyline points="653.4927999999854,1004.5105262187607,322.73919999997815,1002.2640821938908" fill="none" stroke="#2f4f4f" style="stroke-opacity: 1; stroke-width: 6; stroke-linecap: butt; marker-start: none; marker-end: none;"/><polyline points="653.4927999999854,1004.5105262187607,322.73919999997815,1002.2640821938908" fill="none" stroke="#ffffff" style="stroke-opacity: 0.5; stroke-width: 4.8; stroke-linecap: butt;"/><path d="M8,5 C10,2 10,2 5.67,3.6  C1.8,4.9 1.8,5.1 5.67,6.4 C10,8 10,8 8,5 z" fill="#ffffff" style=""/><path d="M2,5 C0,2 0,2 4.33,3.6  C8.2,4.9 8.2,5.1 4.33,6.4 C0,8 0,8 2,5 z" fill="#ffffff" style=""/><polyline points="365.4928000000018,964.01693264226,401.49279999996907,964.01693264226,365.4928000000018,1018.0179909324012" fill="none" stroke="#ffffff" style="stroke-opacity: 0; stroke-width: 0; stroke-linecap: round; stroke-linejoin: round; marker-start: none; marker-end: none;"/><path d="M8,5 C10,2 10,2 5.67,3.6  C1.8,4.9 1.8,5.1 5.67,6.4 C10,8 10,8 8,5 z" fill="#ffffff" style=""/><path d="M2,5 C0,2 0,2 4.33,3.6  C8.2,4.9 8.2,5.1 4.33,6.4 C0,8 0,8 2,5 z" fill="#ffffff" style=""/><polyline points="185.4928000000018,109.00017638169018,185.4928000000018,145.00088190845105,185.4928000000018,181.0015874352119,185.4928000000018,217.00229296197278,185.4928000000018,253.00299848873348,185.4928000000018,289.00370401549435,185.4928000000018,325.0044095422552,185.4928000000018,361.00511506901614,185.4928000000018,397.005820595777,185.4928000000018,433.00652612253765,185.4928000000018,469.0072316492985,185.4928000000018,505.0079371760594,185.4928000000018,541.0086427028202,185.4928000000018,577.0093482295811,185.4928000000018,613.0100537563418,185.4928000000018,649.0107592831027,185.4928000000018,685.0114648098636,185.4928000000018,721.0121703366244,185.4928000000018,757.0128758633853,185.4928000000018,793.0135813901461,185.4928000000018,829.0142869169069,185.4928000000018,865.0149924436678,185.4928000000018,901.0156979704286,185.4928000000018,937.0164034971896" fill="none" stroke="#ffffff" style="stroke-opacity: 0; stroke-width: 0; stroke-linecap: round; stroke-linejoin: round; marker-start: none; marker-end: none;"/><path d="M8,5 C10,2 10,2 5.67,3.6  C1.8,4.9 1.8,5.1 5.67,6.4 C10,8 10,8 8,5 z" fill="#ffffff" style=""/><path d="M2,5 C0,2 0,2 4.33,3.6  C8.2,4.9 8.2,5.1 4.33,6.4 C0,8 0,8 2,5 z" fill="#ffffff" style=""/><polyline points="185.4928000000018,977.50999707369,185.4928000000018,995.5103498370703,185.4928000000018,1013.5107026004508,185.4928000000018,1031.5110553638315,149.49279999999362,977.50999707369,149.49279999999362,995.5103498370703,149.49279999999362,1013.5107026004508,149.49279999999362,1031.5110553638315,113.49279999998544,986.5101734553804,113.49279999998544,1022.5108789821411" fill="none" stroke="#ffffff" style="stroke-opacity: 1; stroke-width: 6; stroke-linecap: round; stroke-linejoin: round; marker-start: none; marker-end: none;"/><path d="M8,5 C10,2 10,2 5.67,3.6  C1.8,4.9 1.8,5.1 5.67,6.4 C10,8 10,8 8,5 z"/><path d="M2,5 C0,2 0,2 4.33,3.6  C8.2,4.9 8.2,5.1 4.33,6.4 C0,8 0,8 2,5 z"/><polygon points="126.99999999997544,964.01693264226,100,964.01693264226,100,1045.018520077472,126.99999999997544,1045.018520077472" fill="#ff4500" stroke="#ff4500" style="fill-opacity: 0.8; stroke-opacity: 0.8; stroke-width: 0; stroke-linecap: round; stroke-linejoin: round;"/><path d="M8,5 C10,2 10,2 5.67,3.6  C1.8,4.9 1.8,5.1 5.67,6.4 C10,8 10,8 8,5 z"/><path d="M2,5 C0,2 0,2 4.33,3.6  C8.2,4.9 8.2,5.1 4.33,6.4 C0,8 0,8 2,5 z"/><polygon points="135.99999999996726,964.01693264226,162.99999999998363,964.01693264226,162.99999999998363,1045.018520077472,135.99999999996726,1045.018520077472,135.99999999996726,964.01693264226" fill="#588d70" stroke="#588d70" style="fill-opacity: 0.8; stroke-opacity: 0.8; stroke-width: 0; stroke-linecap: round; stroke-linejoin: round;"/><path d="M8,5 C10,2 10,2 5.67,3.6  C1.8,4.9 1.8,5.1 5.67,6.4 C10,8 10,8 8,5 z"/><path d="M2,5 C0,2 0,2 4.33,3.6  C8.2,4.9 8.2,5.1 4.33,6.4 C0,8 0,8 2,5 z"/><polygon points="171.99999999997544,964.01693264226,198.99999999999181,964.01693264226,198.99999999999181,1045.018520077472,171.99999999997544,1045.018520077472,171.99999999997544,964.01693264226" fill="#4169e1" stroke="#4169e1" style="fill-opacity: 0.8; stroke-opacity: 0.8; stroke-width: 0; stroke-linecap: round; stroke-linejoin: round;"/><path d="M8,5 C10,2 10,2 5.67,3.6  C1.8,4.9 1.8,5.1 5.67,6.4 C10,8 10,8 8,5 z" fill="#ff4500" style=""/><path d="M2,5 C0,2 0,2 4.33,3.6  C8.2,4.9 8.2,5.1 4.33,6.4 C0,8 0,8 2,5 z" fill="#ff4500" style=""/><polyline points="113.49279999998544,964.01693264226,113.49279999998544,100,113.49279999998544,316.00423316056504,113.49279999998544,460.00705526760834,113.49279999998544,568.0091718478908,113.49279999998544,712.0119939549342,113.49279999998544,928.0162271154991" fill="none" stroke="#ff4500" style="stroke-opacity: 0.8; stroke-width: 6; stroke-linecap: round; stroke-linejoin: round; marker-start: none; marker-end: none;"/><path d="M8,5 C10,2 10,2 5.67,3.6  C1.8,4.9 1.8,5.1 5.67,6.4 C10,8 10,8 8,5 z" fill="#588d70" style=""/><path d="M2,5 C0,2 0,2 4.33,3.6  C8.2,4.9 8.2,5.1 4.33,6.4 C0,8 0,8 2,5 z" fill="#588d70" style=""/><polyline points="149.49279999999362,928.0162271154991,149.49279999999362,820.0141105352167,149.49279999999362,712.0119939549342,149.49279999999362,640.0105829014126,149.49279999999362,568.0091718478908,149.49279999999362,496.00776079436923,149.49279999999362,460.00705526760834,149.49279999999362,352.0049386873259,149.49279999999362,316.00423316056504,149.49279999999362,208.00211658028246,149.49279999999362,172.00141105352174,149.49279999999362,100,149.49279999999362,964.01693264226" fill="none" stroke="#588d70" style="stroke-opacity: 0.8; stroke-width: 6; stroke-linecap: round; stroke-linejoin: round; marker-start: none; marker-end: none;"/><path d="M8,5 C10,2 10,2 5.67,3.6  C1.8,4.9 1.8,5.1 5.67,6.4 C10,8 10,8 8,5 z" fill="#4169e1" style=""/><path d="M2,5 C0,2 0,2 4.33,3.6  C8.2,4.9 8.2,5.1 4.33,6.4 C0,8 0,8 2,5 z" fill="#4169e1" style=""/><polyline points="185.4928000000018,964.01693264226,185.4928000000018,100,185.4928000000018,136.00070552676087,185.4928000000018,172.00141105352174,185.4928000000018,208.00211658028246,185.4928000000018,244.00282210704333,185.4928000000018,280.0035276338042,185.4928000000018,316.00423316056504,185.4928000000018,352.0049386873259,185.4928000000018,388.00564421408666,185.4928000000018,424.00634974084744,185.4928000000018,460.00705526760834,185.4928000000018,496.00776079436923,185.4928000000018,532.0084663211301,185.4928000000018,568.0091718478908,185.4928000000018,604.0098773746516,185.4928000000018,640.0105829014126,185.4928000000018,676.0112884281734,185.4928000000018,712.0119939549342,185.4928000000018,748.012699481695,185.4928000000018,784.0134050084558,185.4928000000018,820.0141105352167,185.4928000000018,856.0148160619775,185.4928000000018,892.0155215887385,185.4928000000018,928.0162271154991" fill="none" stroke="#4169e1" style="stroke-opacity: 0.8; stroke-width: 6; stroke-linecap: round; stroke-linejoin: round; marker-start: none; marker-end: none;"/><circle cx="365.4928000000018" cy="964.01693264226" r="32" fill="#ffffff" stroke="#2f4f4f" style="stroke-width: 3; fill-opacity: 1;"/><circle cx="401.49279999996907" cy="964.01693264226" r="2" fill="#ffffff" stroke="#ffffff" style="stroke-width: 0; fill-opacity: 0;"/><circle cx="365.4928000000018" cy="1018.0179909324012" r="2" fill="#ffffff" stroke="#ffffff" style="stroke-width: 0; fill-opacity: 0;"/><circle cx="185.4928000000018" cy="109.00017638169018" r="2" fill="#ffffff" stroke="#ffffff" style="stroke-width: 0; fill-opacity: 0;"/><circle cx="185.4928000000018" cy="145.00088190845105" r="2" fill="#ffffff" stroke="#ffffff" style="stroke-width: 0; fill-opacity: 0;"/><circle cx="185.4928000000018" cy="181.0015874352119" r="2" fill="#ffffff" stroke="#ffffff" style="stroke-width: 0; fill-opacity: 0;"/><circle cx="185.4928000000018" cy="217.00229296197278" r="2" fill="#ffffff" stroke="#ffffff" style="stroke-width: 0; fill-opacity: 0;"/><circle cx="185.4928000000018" cy="253.00299848873348" r="2" fill="#ffffff" stroke="#ffffff" style="stroke-width: 0; fill-opacity: 0;"/><circle cx="185.4928000000018" cy="289.00370401549435" r="2" fill="#ffffff" stroke="#ffffff" style="stroke-width: 0; fill-opacity: 0;"/><circle cx="185.4928000000018" cy="325.0044095422552" r="2" fill="#ffffff" stroke="#ffffff" style="stroke-width: 0; fill-opacity: 0;"/><circle cx="185.4928000000018" cy="361.00511506901614" r="2" fill="#ffffff" stroke="#ffffff" style="stroke-width: 0; fill-opacity: 0;"/><circle cx="185.4928000000018" cy="397.005820595777" r="2" fill="#ffffff" stroke="#ffffff" style="stroke-width: 0; fill-opacity: 0;"/><circle cx="185.4928000000018" cy="433.00652612253765" r="2" fill="#ffffff" stroke="#ffffff" style="stroke-width: 0; fill-opacity: 0;"/><circle cx="185.4928000000018" cy="469.0072316492985" r="2" fill="#ffffff" stroke="#ffffff" style="stroke-width: 0; fill-opacity: 0;"/><circle cx="185.4928000000018" cy="505.0079371760594" r="2" fill="#ffffff" stroke="#ffffff" style="stroke-width: 0; fill-opacity: 0;"/><circle cx="185.4928000000018" cy="541.0086427028202" r="2" fill="#ffffff" stroke="#ffffff" style="stroke-width: 0; fill-opacity: 0;"/><circle cx="185.4928000000018" cy="577.0093482295811" r="2" fill="#ffffff" stroke="#ffffff" style="stroke-width: 0; fill-opacity: 0;"/><circle cx="185.4928000000018" cy="613.0100537563418" r="2" fill="#ffffff" stroke="#ffffff" style="stroke-width: 0; fill-opacity: 0;"/><circle cx="185.4928000000018" cy="649.0107592831027" r="2" fill="#ffffff" stroke="#ffffff" style="stroke-width: 0; fill-opacity: 0;"/><circle cx="185.4928000000018" cy="685.0114648098636" r="2" fill="#ffffff" stroke="#ffffff" style="stroke-width: 0; fill-opacity: 0;"/><circle cx="185.4928000000018" cy="721.0121703366244" r="2" fill="#ffffff" stroke="#ffffff" style="stroke-width: 0; fill-opacity: 0;"/><circle cx="185.4928000000018" cy="757.0128758633853" r="2" fill="#ffffff" stroke="#ffffff" style="stroke-width: 0; fill-opacity: 0;"/><circle cx="185.4928000000018" cy="793.0135813901461" r="2" fill="#ffffff" stroke="#ffffff" style="stroke-width: 0; fill-opacity: 0;"/><circle cx="185.4928000000018" cy="829.0142869169069" r="2" fill="#ffffff" stroke="#ffffff" style="stroke-width: 0; fill-opacity: 0;"/><circle cx="185.4928000000018" cy="865.0149924436678" r="2" fill="#ffffff" stroke="#ffffff" style="stroke-width: 0; fill-opacity: 0;"/><circle cx="185.4928000000018" cy="901.0156979704286" r="2" fill="#ffffff" stroke="#ffffff" style="stroke-width: 0; fill-opacity: 0;"/><circle cx="185.4928000000018" cy="937.0164034971896" r="2" fill="#ffffff" stroke="#ffffff" style="stroke-width: 0; fill-opacity: 0;"/><circle cx="185.4928000000018" cy="977.50999707369" r="2" fill="#ffffff" stroke="#ffffff" style="stroke-width: 0; fill-opacity: 0;"/><circle cx="185.4928000000018" cy="995.5103498370703" r="2" fill="#ffffff" stroke="#ffffff" style="stroke-width: 0; fill-opacity: 0;"/><circle cx="185.4928000000018" cy="1013.5107026004508" r="2" fill="#ffffff" stroke="#ffffff" style="stroke-width: 0; fill-opacity: 0;"/><circle cx="185.4928000000018" cy="1031.5110553638315" r="2" fill="#ffffff" stroke="#ffffff" style="stroke-width: 0; fill-opacity: 0;"/><circle cx="149.49279999999362" cy="977.50999707369" r="2" fill="#ffffff" stroke="#ffffff" style="stroke-width: 0; fill-opacity: 0;"/><circle cx="149.49279999999362" cy="995.5103498370703" r="2" fill="#ffffff" stroke="#ffffff" style="stroke-width: 0; fill-opacity: 0;"/><circle cx="149.49279999999362" cy="1013.5107026004508" r="2" fill="#ffffff" stroke="#ffffff" style="stroke-width: 0; fill-opacity: 0;"/><circle cx="149.49279999999362" cy="1031.5110553638315" r="2" fill="#ffffff" stroke="#ffffff" style="stroke-width: 0; fill-opacity: 0;"/><circle cx="113.49279999998544" cy="986.5101734553804" r="2" fill="#ffffff" stroke="#ffffff" style="stroke-width: 0; fill-opacity: 0;"/><circle cx="113.49279999998544" cy="1022.5108789821411" r="2" fill="#ffffff" stroke="#ffffff" style="stroke-width: 0; fill-opacity: 0;"/><rect x="105.49279999998544" y="92" width="16" height="16" fill="#ffffff" stroke="#ff4500" transform="matrix(1,0,0,1,0,0)" style="stroke-width: 1; fill-opacity: 1;"/><rect x="105.49279999998544" y="308.00423316056504" width="16" height="16" fill="#ffffff" stroke="#ff4500" transform="matrix(1,0,0,1,0,0)" style="stroke-width: 1; fill-opacity: 1;"/><rect x="105.49279999998544" y="452.00705526760834" width="16" height="16" fill="#ffffff" stroke="#ff4500" transform="matrix(1,0,0,1,0,0)" style="stroke-width: 1; fill-opacity: 1;"/><rect x="105.49279999998544" y="560.0091718478908" width="16" height="16" fill="#ffffff" stroke="#ff4500" transform="matrix(1,0,0,1,0,0)" style="stroke-width: 1; fill-opacity: 1;"/><rect x="105.49279999998544" y="704.0119939549342" width="16" height="16" fill="#ffffff" stroke="#ff4500" transform="matrix(1,0,0,1,0,0)" style="stroke-width: 1; fill-opacity: 1;"/><rect x="105.49279999998544" y="920.0162271154991" width="16" height="16" fill="#ffffff" stroke="#ff4500" transform="matrix(1,0,0,1,0,0)" style="stroke-width: 1; fill-opacity: 1;"/><rect x="141.49279999999362" y="920.0162271154991" width="16" height="16" fill="#ffffff" stroke="#588d70" transform="matrix(1,0,0,1,0,0)" style="stroke-width: 1; fill-opacity: 1;"/><rect x="141.49279999999362" y="812.0141105352167" width="16" height="16" fill="#ffffff" stroke="#588d70" transform="matrix(1,0,0,1,0,0)" style="stroke-width: 1; fill-opacity: 1;"/><rect x="141.49279999999362" y="704.0119939549342" width="16" height="16" fill="#ffffff" stroke="#588d70" transform="matrix(1,0,0,1,0,0)" style="stroke-width: 1; fill-opacity: 1;"/><rect x="141.49279999999362" y="632.0105829014126" width="16" height="16" fill="#ffffff" stroke="#588d70" transform="matrix(1,0,0,1,0,0)" style="stroke-width: 1; fill-opacity: 1;"/><rect x="141.49279999999362" y="560.0091718478908" width="16" height="16" fill="#ffffff" stroke="#588d70" transform="matrix(1,0,0,1,0,0)" style="stroke-width: 1; fill-opacity: 1;"/><rect x="141.49279999999362" y="488.00776079436923" width="16" height="16" fill="#ffffff" stroke="#588d70" transform="matrix(1,0,0,1,0,0)" style="stroke-width: 1; fill-opacity: 1;"/><rect x="141.49279999999362" y="452.00705526760834" width="16" height="16" fill="#ffffff" stroke="#588d70" transform="matrix(1,0,0,1,0,0)" style="stroke-width: 1; fill-opacity: 1;"/><rect x="141.49279999999362" y="344.0049386873259" width="16" height="16" fill="#ffffff" stroke="#588d70" transform="matrix(1,0,0,1,0,0)" style="stroke-width: 1; fill-opacity: 1;"/><rect x="141.49279999999362" y="308.00423316056504" width="16" height="16" fill="#ffffff" stroke="#588d70" transform="matrix(1,0,0,1,0,0)" style="stroke-width: 1; fill-opacity: 1;"/><rect x="141.49279999999362" y="200.00211658028246" width="16" height="16" fill="#ffffff" stroke="#588d70" transform="matrix(1,0,0,1,0,0)" style="stroke-width: 1; fill-opacity: 1;"/><rect x="141.49279999999362" y="164.00141105352174" width="16" height="16" fill="#ffffff" stroke="#588d70" transform="matrix(1,0,0,1,0,0)" style="stroke-width: 1; fill-opacity: 1;"/><rect x="141.49279999999362" y="92" width="16" height="16" fill="#ffffff" stroke="#588d70" transform="matrix(1,0,0,1,0,0)" style="stroke-width: 1; fill-opacity: 1;"/><rect x="177.4928000000018" y="92" width="16" height="16" fill="#ffffff" stroke="#4169e1" transform="matrix(1,0,0,1,0,0)" style="stroke-width: 1; fill-opacity: 1;"/><rect x="177.4928000000018" y="128.00070552676087" width="16" height="16" fill="#ffffff" stroke="#4169e1" transform="matrix(1,0,0,1,0,0)" style="stroke-width: 1; fill-opacity: 1;"/><rect x="177.4928000000018" y="164.00141105352174" width="16" height="16" fill="#ffffff" stroke="#4169e1" transform="matrix(1,0,0,1,0,0)" style="stroke-width: 1; fill-opacity: 1;"/><rect x="177.4928000000018" y="200.00211658028246" width="16" height="16" fill="#ffffff" stroke="#4169e1" transform="matrix(1,0,0,1,0,0)" style="stroke-width: 1; fill-opacity: 1;"/><rect x="177.4928000000018" y="236.00282210704333" width="16" height="16" fill="#ffffff" stroke="#4169e1" transform="matrix(1,0,0,1,0,0)" style="stroke-width: 1; fill-opacity: 1;"/><rect x="177.4928000000018" y="272.0035276338042" width="16" height="16" fill="#ffffff" stroke="#4169e1" transform="matrix(1,0,0,1,0,0)" style="stroke-width: 1; fill-opacity: 1;"/><rect x="177.4928000000018" y="308.00423316056504" width="16" height="16" fill="#ffffff" stroke="#4169e1" transform="matrix(1,0,0,1,0,0)" style="stroke-width: 1; fill-opacity: 1;"/><rect x="177.4928000000018" y="344.0049386873259" width="16" height="16" fill="#ffffff" stroke="#4169e1" transform="matrix(1,0,0,1,0,0)" style="stroke-width: 1; fill-opacity: 1;"/><rect x="177.4928000000018" y="380.00564421408666" width="16" height="16" fill="#ffffff" stroke="#4169e1" transform="matrix(1,0,0,1,0,0)" style="stroke-width: 1; fill-opacity: 1;"/><rect x="177.4928000000018" y="416.00634974084744" width="16" height="16" fill="#ffffff" stroke="#4169e1" transform="matrix(1,0,0,1,0,0)" style="stroke-width: 1; fill-opacity: 1;"/><rect x="177.4928000000018" y="452.00705526760834" width="16" height="16" fill="#ffffff" stroke="#4169e1" transform="matrix(1,0,0,1,0,0)" style="stroke-width: 1; fill-opacity: 1;"/><rect x="177.4928000000018" y="488.00776079436923" width="16" height="16" fill="#ffffff" stroke="#4169e1" transform="matrix(1,0,0,1,0,0)" style="stroke-width: 1; fill-opacity: 1;"/><rect x="177.4928000000018" y="524.0084663211301" width="16" height="16" fill="#ffffff" stroke="#4169e1" transform="matrix(1,0,0,1,0,0)" style="stroke-width: 1; fill-opacity: 1;"/><rect x="177.4928000000018" y="560.0091718478908" width="16" height="16" fill="#ffffff" stroke="#4169e1" transform="matrix(1,0,0,1,0,0)" style="stroke-width: 1; fill-opacity: 1;"/><rect x="177.4928000000018" y="596.0098773746516" width="16" height="16" fill="#ffffff" stroke="#4169e1" transform="matrix(1,0,0,1,0,0)" style="stroke-width: 1; fill-opacity: 1;"/><rect x="177.4928000000018" y="632.0105829014126" width="16" height="16" fill="#ffffff" stroke="#4169e1" transform="matrix(1,0,0,1,0,0)" style="stroke-width: 1; fill-opacity: 1;"/><rect x="177.4928000000018" y="668.0112884281734" width="16" height="16" fill="#ffffff" stroke="#4169e1" transform="matrix(1,0,0,1,0,0)" style="stroke-width: 1; fill-opacity: 1;"/><rect x="177.4928000000018" y="704.0119939549342" width="16" height="16" fill="#ffffff" stroke="#4169e1" transform="matrix(1,0,0,1,0,0)" style="stroke-width: 1; fill-opacity: 1;"/><rect x="177.4928000000018" y="740.012699481695" width="16" height="16" fill="#ffffff" stroke="#4169e1" transform="matrix(1,0,0,1,0,0)" style="stroke-width: 1; fill-opacity: 1;"/><rect x="177.4928000000018" y="776.0134050084558" width="16" height="16" fill="#ffffff" stroke="#4169e1" transform="matrix(1,0,0,1,0,0)" style="stroke-width: 1; fill-opacity: 1;"/><rect x="177.4928000000018" y="812.0141105352167" width="16" height="16" fill="#ffffff" stroke="#4169e1" transform="matrix(1,0,0,1,0,0)" style="stroke-width: 1; fill-opacity: 1;"/><rect x="177.4928000000018" y="848.0148160619775" width="16" height="16" fill="#ffffff" stroke="#4169e1" transform="matrix(1,0,0,1,0,0)" style="stroke-width: 1; fill-opacity: 1;"/><rect x="177.4928000000018" y="884.0155215887385" width="16" height="16" fill="#ffffff" stroke="#4169e1" transform="matrix(1,0,0,1,0,0)" style="stroke-width: 1; fill-opacity: 1;"/><rect x="177.4928000000018" y="920.0162271154991" width="16" height="16" fill="#ffffff" stroke="#4169e1" transform="matrix(1,0,0,1,0,0)" style="stroke-width: 1; fill-opacity: 1;"/><text x="365.4928000000018" y="981.01693264226" fill="#2f4f4f" transform="matrix(1,0,0,1,0,0)" style="font-size: 40px; font-family: Roboto, Arial, sans-serif; font-weight: 900; text-anchor: middle; letter-spacing: 0em;">RK</text><text x="403.49279999996907" y="981.01693264226" fill="#2f4f4f" transform="matrix(1,0,0,1,0,0)" style="font-size: 40px; font-family: Roboto, Arial, sans-serif; font-weight: 900; text-anchor: start; letter-spacing: 0em;">玖麻ライン</text><text x="349.4928000000018" y="1025.017990932401" fill="#2f4f4f" transform="matrix(1,0,0,1,0,0)" style="font-size: 20px; font-family: Roboto, Arial, sans-serif; font-weight: 900; text-anchor: start; letter-spacing: 0em;">RK Kuma Line</text><text x="205.4928000000018" y="118.00017638169018" fill="#373937" transform="matrix(1,0,0,1,0,0)" style="font-size: 12px; font-family: Roboto, Arial, sans-serif; font-weight: 900; text-anchor: start; letter-spacing: 0em;">Ruinakyū</text><text x="205.4928000000018" y="154.00088190845105" fill="#373937" transform="matrix(1,0,0,1,0,0)" style="font-size: 12px; font-family: Roboto, Arial, sans-serif; font-weight: 900; text-anchor: start; letter-spacing: 0em;">Hirakawabori</text><text x="205.4928000000018" y="190.0015874352119" fill="#373937" transform="matrix(1,0,0,1,0,0)" style="font-size: 12px; font-family: Roboto, Arial, sans-serif; font-weight: 900; text-anchor: start; letter-spacing: 0em;">Shūsei</text><text x="205.4928000000018" y="226.00229296197278" fill="#373937" transform="matrix(1,0,0,1,0,0)" style="font-size: 12px; font-family: Roboto, Arial, sans-serif; font-weight: 900; text-anchor: start; letter-spacing: 0em;">Guntazu</text><text x="205.4928000000018" y="262.0029984887335" fill="#373937" transform="matrix(1,0,0,1,0,0)" style="font-size: 12px; font-family: Roboto, Arial, sans-serif; font-weight: 900; text-anchor: start; letter-spacing: 0em;">Todome</text><text x="205.4928000000018" y="298.00370401549435" fill="#373937" transform="matrix(1,0,0,1,0,0)" style="font-size: 12px; font-family: Roboto, Arial, sans-serif; font-weight: 900; text-anchor: start; letter-spacing: 0em;">Homarezaki</text><text x="205.4928000000018" y="334.0044095422552" fill="#373937" transform="matrix(1,0,0,1,0,0)" style="font-size: 12px; font-family: Roboto, Arial, sans-serif; font-weight: 900; text-anchor: start; letter-spacing: 0em;">Kuma</text><text x="205.4928000000018" y="370.00511506901614" fill="#373937" transform="matrix(1,0,0,1,0,0)" style="font-size: 12px; font-family: Roboto, Arial, sans-serif; font-weight: 900; text-anchor: start; letter-spacing: 0em;">Hon-Kuma</text><text x="205.4928000000018" y="406.005820595777" fill="#373937" transform="matrix(1,0,0,1,0,0)" style="font-size: 12px; font-family: Roboto, Arial, sans-serif; font-weight: 900; text-anchor: start; letter-spacing: 0em;">Nishi-Kuma</text><text x="205.4928000000018" y="442.00652612253765" fill="#373937" transform="matrix(1,0,0,1,0,0)" style="font-size: 12px; font-family: Roboto, Arial, sans-serif; font-weight: 900; text-anchor: start; letter-spacing: 0em;">Higashi-Hibiki</text><text x="205.4928000000018" y="478.0072316492985" fill="#373937" transform="matrix(1,0,0,1,0,0)" style="font-size: 12px; font-family: Roboto, Arial, sans-serif; font-weight: 900; text-anchor: start; letter-spacing: 0em;">Hibiki</text><text x="205.4928000000018" y="514.0079371760594" fill="#373937" transform="matrix(1,0,0,1,0,0)" style="font-size: 12px; font-family: Roboto, Arial, sans-serif; font-weight: 900; text-anchor: start; letter-spacing: 0em;">Anneihara</text><text x="205.4928000000018" y="550.0086427028202" fill="#373937" transform="matrix(1,0,0,1,0,0)" style="font-size: 12px; font-family: Roboto, Arial, sans-serif; font-weight: 900; text-anchor: start; letter-spacing: 0em;">Hanyō</text><text x="205.4928000000018" y="586.0093482295811" fill="#373937" transform="matrix(1,0,0,1,0,0)" style="font-size: 12px; font-family: Roboto, Arial, sans-serif; font-weight: 900; text-anchor: start; letter-spacing: 0em;">Satsuritsu</text><text x="205.4928000000018" y="622.0100537563418" fill="#373937" transform="matrix(1,0,0,1,0,0)" style="font-size: 12px; font-family: Roboto, Arial, sans-serif; font-weight: 900; text-anchor: start; letter-spacing: 0em;">Nishi-Satsuritsu</text><text x="205.4928000000018" y="658.0107592831027" fill="#373937" transform="matrix(1,0,0,1,0,0)" style="font-size: 12px; font-family: Roboto, Arial, sans-serif; font-weight: 900; text-anchor: start; letter-spacing: 0em;">Sawake</text><text x="205.4928000000018" y="694.0114648098636" fill="#373937" transform="matrix(1,0,0,1,0,0)" style="font-size: 12px; font-family: Roboto, Arial, sans-serif; font-weight: 900; text-anchor: start; letter-spacing: 0em;">Shin-Tōnai</text><text x="205.4928000000018" y="730.0121703366244" fill="#373937" transform="matrix(1,0,0,1,0,0)" style="font-size: 12px; font-family: Roboto, Arial, sans-serif; font-weight: 900; text-anchor: start; letter-spacing: 0em;">Watarai-Futamata</text><text x="205.4928000000018" y="766.0128758633853" fill="#373937" transform="matrix(1,0,0,1,0,0)" style="font-size: 12px; font-family: Roboto, Arial, sans-serif; font-weight: 900; text-anchor: start; letter-spacing: 0em;">Minanuma</text><text x="205.4928000000018" y="802.0135813901461" fill="#373937" transform="matrix(1,0,0,1,0,0)" style="font-size: 12px; font-family: Roboto, Arial, sans-serif; font-weight: 900; text-anchor: start; letter-spacing: 0em;">Tsuchiya</text><text x="205.4928000000018" y="838.0142869169069" fill="#373937" transform="matrix(1,0,0,1,0,0)" style="font-size: 12px; font-family: Roboto, Arial, sans-serif; font-weight: 900; text-anchor: start; letter-spacing: 0em;">Kuidamizuho</text><text x="205.4928000000018" y="874.0149924436678" fill="#373937" transform="matrix(1,0,0,1,0,0)" style="font-size: 12px; font-family: Roboto, Arial, sans-serif; font-weight: 900; text-anchor: start; letter-spacing: 0em;">Tomishigawa</text><text x="205.4928000000018" y="910.0156979704286" fill="#373937" transform="matrix(1,0,0,1,0,0)" style="font-size: 12px; font-family: Roboto, Arial, sans-serif; font-weight: 900; text-anchor: start; letter-spacing: 0em;">Matsurino</text><text x="205.4928000000018" y="946.0164034971896" fill="#373937" transform="matrix(1,0,0,1,0,0)" style="font-size: 12px; font-family: Roboto, Arial, sans-serif; font-weight: 900; text-anchor: start; letter-spacing: 0em;">Etō</text><text x="185.4928000000018" y="982.50999707369" fill="#ffffff" transform="matrix(1,0,0,1,0,0)" style="font-size: 16px; font-family: Roboto, Arial, sans-serif; font-weight: 900; text-anchor: middle; letter-spacing: 0em;">各</text><text x="185.4928000000018" y="1000.5103498370703" fill="#ffffff" transform="matrix(1,0,0,1,0,0)" style="font-size: 16px; font-family: Roboto, Arial, sans-serif; font-weight: 900; text-anchor: middle; letter-spacing: 0em;">駅</text><text x="185.4928000000018" y="1018.5107026004508" fill="#ffffff" transform="matrix(1,0,0,1,0,0)" style="font-size: 16px; font-family: Roboto, Arial, sans-serif; font-weight: 900; text-anchor: middle; letter-spacing: 0em;">停</text><text x="185.4928000000018" y="1036.5110553638315" fill="#ffffff" transform="matrix(1,0,0,1,0,0)" style="font-size: 16px; font-family: Roboto, Arial, sans-serif; font-weight: 900; text-anchor: middle; letter-spacing: 0em;">車</text><text x="149.49279999999362" y="982.50999707369" fill="#ffffff" transform="matrix(1,0,0,1,0,0)" style="font-size: 16px; font-family: Roboto, Arial, sans-serif; font-weight: 900; text-anchor: middle; letter-spacing: 0em;">区</text><text x="149.49279999999362" y="1000.5103498370703" fill="#ffffff" transform="matrix(1,0,0,1,0,0)" style="font-size: 16px; font-family: Roboto, Arial, sans-serif; font-weight: 900; text-anchor: middle; letter-spacing: 0em;">間</text><text x="149.49279999999362" y="1018.5107026004508" fill="#ffffff" transform="matrix(1,0,0,1,0,0)" style="font-size: 16px; font-family: Roboto, Arial, sans-serif; font-weight: 900; text-anchor: middle; letter-spacing: 0em;">快</text><text x="149.49279999999362" y="1036.5110553638315" fill="#ffffff" transform="matrix(1,0,0,1,0,0)" style="font-size: 16px; font-family: Roboto, Arial, sans-serif; font-weight: 900; text-anchor: middle; letter-spacing: 0em;">速</text><text x="113.49279999998544" y="991.5101734553804" fill="#ffffff" transform="matrix(1,0,0,1,0,0)" style="font-size: 16px; font-family: Roboto, Arial, sans-serif; font-weight: 900; text-anchor: middle; letter-spacing: 0em;">快</text><text x="113.49279999998544" y="1027.510878982141" fill="#ffffff" transform="matrix(1,0,0,1,0,0)" style="font-size: 16px; font-family: Roboto, Arial, sans-serif; font-weight: 900; text-anchor: middle; letter-spacing: 0em;">速</text><text x="205.4928000000018" y="105" fill="#000000" transform="matrix(1,0,0,1,0,0)" style="font-size: 16px; font-family: Roboto, Arial, sans-serif; font-weight: 900; text-anchor: start; letter-spacing: 0em;">星稲玖</text><text x="205.4928000000018" y="141.00070552676087" fill="#000000" transform="matrix(1,0,0,1,0,0)" style="font-size: 16px; font-family: Roboto, Arial, sans-serif; font-weight: 900; text-anchor: start; letter-spacing: 0em;">平川堀</text><text x="205.4928000000018" y="177.00141105352174" fill="#000000" transform="matrix(1,0,0,1,0,0)" style="font-size: 16px; font-family: Roboto, Arial, sans-serif; font-weight: 900; text-anchor: start; letter-spacing: 0em;">秀誠</text><text x="205.4928000000018" y="213.00211658028246" fill="#000000" transform="matrix(1,0,0,1,0,0)" style="font-size: 16px; font-family: Roboto, Arial, sans-serif; font-weight: 900; text-anchor: start; letter-spacing: 0em;">郡田津</text><text x="205.4928000000018" y="249.00282210704333" fill="#000000" transform="matrix(1,0,0,1,0,0)" style="font-size: 16px; font-family: Roboto, Arial, sans-serif; font-weight: 900; text-anchor: start; letter-spacing: 0em;">戸止</text><text x="205.4928000000018" y="285.0035276338042" fill="#000000" transform="matrix(1,0,0,1,0,0)" style="font-size: 16px; font-family: Roboto, Arial, sans-serif; font-weight: 900; text-anchor: start; letter-spacing: 0em;">誉崎</text><text x="205.4928000000018" y="321.00423316056504" fill="#000000" transform="matrix(1,0,0,1,0,0)" style="font-size: 16px; font-family: Roboto, Arial, sans-serif; font-weight: 900; text-anchor: start; letter-spacing: 0em;">玖麻</text><text x="205.4928000000018" y="357.0049386873259" fill="#000000" transform="matrix(1,0,0,1,0,0)" style="font-size: 16px; font-family: Roboto, Arial, sans-serif; font-weight: 900; text-anchor: start; letter-spacing: 0em;">本玖麻</text><text x="205.4928000000018" y="393.00564421408666" fill="#000000" transform="matrix(1,0,0,1,0,0)" style="font-size: 16px; font-family: Roboto, Arial, sans-serif; font-weight: 900; text-anchor: start; letter-spacing: 0em;">西玖麻</text><text x="205.4928000000018" y="429.00634974084744" fill="#000000" transform="matrix(1,0,0,1,0,0)" style="font-size: 16px; font-family: Roboto, Arial, sans-serif; font-weight: 900; text-anchor: start; letter-spacing: 0em;">東響</text><text x="205.4928000000018" y="465.00705526760834" fill="#000000" transform="matrix(1,0,0,1,0,0)" style="font-size: 16px; font-family: Roboto, Arial, sans-serif; font-weight: 900; text-anchor: start; letter-spacing: 0em;">響</text><text x="205.4928000000018" y="501.00776079436923" fill="#000000" transform="matrix(1,0,0,1,0,0)" style="font-size: 16px; font-family: Roboto, Arial, sans-serif; font-weight: 900; text-anchor: start; letter-spacing: 0em;">安寧原</text><text x="205.4928000000018" y="537.0084663211301" fill="#000000" transform="matrix(1,0,0,1,0,0)" style="font-size: 16px; font-family: Roboto, Arial, sans-serif; font-weight: 900; text-anchor: start; letter-spacing: 0em;">半用</text><text x="205.4928000000018" y="573.0091718478908" fill="#000000" transform="matrix(1,0,0,1,0,0)" style="font-size: 16px; font-family: Roboto, Arial, sans-serif; font-weight: 900; text-anchor: start; letter-spacing: 0em;">札立</text><text x="205.4928000000018" y="609.0098773746516" fill="#000000" transform="matrix(1,0,0,1,0,0)" style="font-size: 16px; font-family: Roboto, Arial, sans-serif; font-weight: 900; text-anchor: start; letter-spacing: 0em;">西札立</text><text x="205.4928000000018" y="645.0105829014126" fill="#000000" transform="matrix(1,0,0,1,0,0)" style="font-size: 16px; font-family: Roboto, Arial, sans-serif; font-weight: 900; text-anchor: start; letter-spacing: 0em;">茶分</text><text x="205.4928000000018" y="681.0112884281734" fill="#000000" transform="matrix(1,0,0,1,0,0)" style="font-size: 16px; font-family: Roboto, Arial, sans-serif; font-weight: 900; text-anchor: start; letter-spacing: 0em;">新答内</text><text x="205.4928000000018" y="717.0119939549342" fill="#000000" transform="matrix(1,0,0,1,0,0)" style="font-size: 16px; font-family: Roboto, Arial, sans-serif; font-weight: 900; text-anchor: start; letter-spacing: 0em;">渡会二俣</text><text x="205.4928000000018" y="753.012699481695" fill="#000000" transform="matrix(1,0,0,1,0,0)" style="font-size: 16px; font-family: Roboto, Arial, sans-serif; font-weight: 900; text-anchor: start; letter-spacing: 0em;">三名沼</text><text x="205.4928000000018" y="789.0134050084558" fill="#000000" transform="matrix(1,0,0,1,0,0)" style="font-size: 16px; font-family: Roboto, Arial, sans-serif; font-weight: 900; text-anchor: start; letter-spacing: 0em;">土谷</text><text x="205.4928000000018" y="825.0141105352167" fill="#000000" transform="matrix(1,0,0,1,0,0)" style="font-size: 16px; font-family: Roboto, Arial, sans-serif; font-weight: 900; text-anchor: start; letter-spacing: 0em;">喰田水保</text><text x="205.4928000000018" y="861.0148160619775" fill="#000000" transform="matrix(1,0,0,1,0,0)" style="font-size: 16px; font-family: Roboto, Arial, sans-serif; font-weight: 900; text-anchor: start; letter-spacing: 0em;">富支川</text><text x="205.4928000000018" y="897.0155215887385" fill="#000000" transform="matrix(1,0,0,1,0,0)" style="font-size: 16px; font-family: Roboto, Arial, sans-serif; font-weight: 900; text-anchor: start; letter-spacing: 0em;">まつり野〈祀裏野〉</text><text x="205.4928000000018" y="933.0162271154991" fill="#000000" transform="matrix(1,0,0,1,0,0)" style="font-size: 16px; font-family: Roboto, Arial, sans-serif; font-weight: 900; text-anchor: start; letter-spacing: 0em;">衛藤</text></svg>