<svg height="645.6559310353243" version="1.1" width="1171.999999999996" xmlns="http://www.w3.org/2000/svg" id="svgSvg" viewBox="0 0 1171.999999999996 645.6559310353243" style="width: 1366px; height: 781.131px;"><desc>Created with Snap</desc><defs/><path d="M8,5 C10,2 10,2 5.67,3.6  C1.8,4.9 1.8,5.1 5.67,6.4 C10,8 10,8 8,5 z" fill="#ffffff" style=""/><path d="M2,5 C0,2 0,2 4.33,3.6  C8.2,4.9 8.2,5.1 4.33,6.4 C0,8 0,8 2,5 z" fill="#ffffff" style=""/><polyline points="433.0000000000041,352.2354091338854,433.0000000000041,436.31387884517966" fill="none" stroke="#ffffff" style="stroke-opacity: 0; stroke-width: 0; stroke-linecap: round; stroke-linejoin: round; marker-start: none; marker-end: none;"/><path d="M8,5 C10,2 10,2 5.67,3.6  C1.8,4.9 1.8,5.1 5.67,6.4 C10,8 10,8 8,5 z" fill="#ffffff" style=""/><path d="M2,5 C0,2 0,2 4.33,3.6  C8.2,4.9 8.2,5.1 4.33,6.4 C0,8 0,8 2,5 z" fill="#ffffff" style=""/><polyline points="424.00000000000205,375.5905396092451,424.00000000000205,412.95874836981994" fill="none" stroke="#ffffff" style="stroke-opacity: 0; stroke-width: 0; stroke-linecap: round; stroke-linejoin: round; marker-start: none; marker-end: none;"/><path d="M8,5 C10,2 10,2 5.67,3.6  C1.8,4.9 1.8,5.1 5.67,6.4 C10,8 10,8 8,5 z"/><path d="M2,5 C0,2 0,2 4.33,3.6  C8.2,4.9 8.2,5.1 4.33,6.4 C0,8 0,8 2,5 z"/><polygon points="298.0000000000041,445.65593103532433,405.99999999999795,445.65593103532433,424.00000000000205,417.62977446489157,405.99999999999795,398.94567008460484,333.9999999999918,370.9195135141721,333.9999999999918,389.60361789446017,405.99999999999795,370.9195135141721,424.00000000000205,342.89335694374074,405.99999999999795,324.20925256345265,298.0000000000041,324.20925256345265" fill="#4682b4" stroke="#4682b4" style="fill-opacity: 0.3; stroke-opacity: 1; stroke-width: 5; stroke-linecap: round; stroke-linejoin: round;"/><path d="M8,5 C10,2 10,2 5.67,3.6  C1.8,4.9 1.8,5.1 5.67,6.4 C10,8 10,8 8,5 z" fill="#ffffff" style=""/><path d="M2,5 C0,2 0,2 4.33,3.6  C8.2,4.9 8.2,5.1 4.33,6.4 C0,8 0,8 2,5 z" fill="#ffffff" style=""/><polyline points="198.99999999999181,109.34205219014336,523.0000000000041,109.34205219014336,793.0000000000041,109.34205219014336,1009.000000000002,109.34205219014336,981.9999999999959,193.42052190143895,981.9999999999959,212.104626281727" fill="none" stroke="#ffffff" style="stroke-opacity: 0; stroke-width: 0; stroke-linecap: round; stroke-linejoin: round; marker-start: none; marker-end: none;"/><path d="M8,5 C10,2 10,2 5.67,3.6  C1.8,4.9 1.8,5.1 5.67,6.4 C10,8 10,8 8,5 z" fill="#ffffff" style=""/><path d="M2,5 C0,2 0,2 4.33,3.6  C8.2,4.9 8.2,5.1 4.33,6.4 C0,8 0,8 2,5 z" fill="#ffffff" style=""/><polyline points="149.4999999999959,174.73641752115088,190,174.73641752115088,261.9999999999959,165.39436533100752,298.0000000000041,174.73641752115088,351.9999999999959,174.73641752115088,388.0000000000041,193.42052190143895,469.00000000000205,184.07846971129425,523.0000000000041,174.73641752115088,568.0000000000041,174.73641752115088,621.9999999999959,174.73641752115088,675.999999999998,174.73641752115088,748.0000000000041,174.73641752115088,793.0000000000041,165.39436533100752,838.0000000000041,174.73641752115088,900.999999999998,165.39436533100752,973.0000000000041,165.39436533100752" fill="none" stroke="#ffffff" style="stroke-opacity: 0; stroke-width: 0; stroke-linecap: round; stroke-linejoin: round; marker-start: none; marker-end: none;"/><path d="M8,5 C10,2 10,2 5.67,3.6  C1.8,4.9 1.8,5.1 5.67,6.4 C10,8 10,8 8,5 z" fill="#2f4f4f" style=""/><path d="M2,5 C0,2 0,2 4.33,3.6  C8.2,4.9 8.2,5.1 4.33,6.4 C0,8 0,8 2,5 z" fill="#2f4f4f" style=""/><polyline points="981.9999999999959,174.73641752115088,1071.999999999996,174.73641752115088" fill="none" stroke="#2f4f4f" style="stroke-opacity: 1; stroke-width: 3; stroke-linecap: round; stroke-linejoin: round; marker-start: none; marker-end: none;"/><path d="M8,5 C10,2 10,2 5.67,3.6  C1.8,4.9 1.8,5.1 5.67,6.4 C10,8 10,8 8,5 z" fill="#008080" style=""/><path d="M2,5 C0,2 0,2 4.33,3.6  C8.2,4.9 8.2,5.1 4.33,6.4 C0,8 0,8 2,5 z" fill="#008080" style=""/><polyline points="910,249.47283504230177,981.9999999999959,174.73641752115088,1054.000000000002,100" fill="none" stroke="#008080" style="stroke-opacity: 1; stroke-width: 3; stroke-linecap: round; stroke-linejoin: round; marker-start: none; marker-end: none;"/><path d="M8,5 C10,2 10,2 5.67,3.6  C1.8,4.9 1.8,5.1 5.67,6.4 C10,8 10,8 8,5 z" fill="#800050" style=""/><path d="M2,5 C0,2 0,2 4.33,3.6  C8.2,4.9 8.2,5.1 4.33,6.4 C0,8 0,8 2,5 z" fill="#800050" style=""/><polyline points="694.000000000002,249.47283504230177,765.999999999998,174.73641752115088,838.0000000000041,100" fill="none" stroke="#800050" style="stroke-opacity: 1; stroke-width: 3; stroke-linecap: round; stroke-linejoin: round; marker-start: none; marker-end: none;"/><path d="M8,5 C10,2 10,2 5.67,3.6  C1.8,4.9 1.8,5.1 5.67,6.4 C10,8 10,8 8,5 z" fill="#ffd700" style=""/><path d="M2,5 C0,2 0,2 4.33,3.6  C8.2,4.9 8.2,5.1 4.33,6.4 C0,8 0,8 2,5 z" fill="#ffd700" style=""/><polyline points="424.00000000000205,249.47283504230177,495.99999999999795,174.73641752115088,568.0000000000041,100" fill="none" stroke="#ffd700" style="stroke-opacity: 1; stroke-width: 3; stroke-linecap: round; stroke-linejoin: round; marker-start: none; marker-end: none;"/><path d="M8,5 C10,2 10,2 5.67,3.6  C1.8,4.9 1.8,5.1 5.67,6.4 C10,8 10,8 8,5 z" fill="#696969" style=""/><path d="M2,5 C0,2 0,2 4.33,3.6  C8.2,4.9 8.2,5.1 4.33,6.4 C0,8 0,8 2,5 z" fill="#696969" style=""/><polyline points="100,249.47283504230177,171.9999999999959,174.73641752115088,243.99999999999181,100" fill="none" stroke="#696969" style="stroke-opacity: 1; stroke-width: 3; stroke-linecap: round; stroke-linejoin: round; marker-start: none; marker-end: none;"/><path d="M8,5 C10,2 10,2 5.67,3.6  C1.8,4.9 1.8,5.1 5.67,6.4 C10,8 10,8 8,5 z" fill="#4682b4" style=""/><path d="M2,5 C0,2 0,2 4.33,3.6  C8.2,4.9 8.2,5.1 4.33,6.4 C0,8 0,8 2,5 z" fill="#4682b4" style=""/><polyline points="171.9999999999959,174.73641752115088,226.00000000000819,174.73641752115088,280,174.73641752115088,333.9999999999918,174.73641752115088,388.0000000000041,174.73641752115088,441.9999999999959,174.73641752115088,495.99999999999795,174.73641752115088,550,174.73641752115088,604.000000000002,174.73641752115088,658.0000000000041,174.73641752115088,711.9999999999959,174.73641752115088,765.999999999998,174.73641752115088,820,174.73641752115088,874.000000000002,174.73641752115088,928.0000000000041,174.73641752115088,981.9999999999959,174.73641752115088" fill="none" stroke="#4682b4" style="stroke-opacity: 1; stroke-width: 6; stroke-linecap: round; stroke-linejoin: round; marker-start: none; marker-end: none;"/><circle cx="433.0000000000041" cy="352.2354091338854" r="2" fill="#ffffff" stroke="#ffffff" style="stroke-width: 0; fill-opacity: 0;"/><circle cx="433.0000000000041" cy="436.31387884517966" r="2" fill="#ffffff" stroke="#ffffff" style="stroke-width: 0; fill-opacity: 0;"/><circle cx="424.00000000000205" cy="375.5905396092451" r="2" fill="#ffffff" stroke="#ffffff" style="stroke-width: 0; fill-opacity: 0;"/><circle cx="424.00000000000205" cy="412.95874836981994" r="2" fill="#ffffff" stroke="#ffffff" style="stroke-width: 0; fill-opacity: 0;"/><circle cx="198.99999999999181" cy="109.34205219014336" r="2" fill="#ffffff" stroke="#ffffff" style="stroke-width: 0; fill-opacity: 0;"/><circle cx="523.0000000000041" cy="109.34205219014336" r="2" fill="#ffffff" stroke="#ffffff" style="stroke-width: 0; fill-opacity: 0;"/><circle cx="793.0000000000041" cy="109.34205219014336" r="2" fill="#ffffff" stroke="#ffffff" style="stroke-width: 0; fill-opacity: 0;"/><circle cx="1009.000000000002" cy="109.34205219014336" r="2" fill="#ffffff" stroke="#ffffff" style="stroke-width: 0; fill-opacity: 0;"/><circle cx="981.9999999999959" cy="193.42052190143895" r="2" fill="#ffffff" stroke="#ffffff" style="stroke-width: 0; fill-opacity: 0;"/><circle cx="981.9999999999959" cy="212.104626281727" r="2" fill="#ffffff" stroke="#ffffff" style="stroke-width: 0; fill-opacity: 0;"/><circle cx="149.4999999999959" cy="174.73641752115088" r="2" fill="#ffffff" stroke="#ffffff" style="stroke-width: 0; fill-opacity: 0;"/><circle cx="190" cy="174.73641752115088" r="2" fill="#ffffff" stroke="#ffffff" style="stroke-width: 0; fill-opacity: 0;"/><circle cx="261.9999999999959" cy="165.39436533100752" r="2" fill="#ffffff" stroke="#ffffff" style="stroke-width: 0; fill-opacity: 0;"/><circle cx="298.0000000000041" cy="174.73641752115088" r="2" fill="#ffffff" stroke="#ffffff" style="stroke-width: 0; fill-opacity: 0;"/><circle cx="351.9999999999959" cy="174.73641752115088" r="2" fill="#ffffff" stroke="#ffffff" style="stroke-width: 0; fill-opacity: 0;"/><circle cx="388.0000000000041" cy="193.42052190143895" r="2" fill="#ffffff" stroke="#ffffff" style="stroke-width: 0; fill-opacity: 0;"/><circle cx="469.00000000000205" cy="184.07846971129425" r="2" fill="#ffffff" stroke="#ffffff" style="stroke-width: 0; fill-opacity: 0;"/><circle cx="523.0000000000041" cy="174.73641752115088" r="2" fill="#ffffff" stroke="#ffffff" style="stroke-width: 0; fill-opacity: 0;"/><circle cx="568.0000000000041" cy="174.73641752115088" r="2" fill="#ffffff" stroke="#ffffff" style="stroke-width: 0; fill-opacity: 0;"/><circle cx="621.9999999999959" cy="174.73641752115088" r="2" fill="#ffffff" stroke="#ffffff" style="stroke-width: 0; fill-opacity: 0;"/><circle cx="675.999999999998" cy="174.73641752115088" r="2" fill="#ffffff" stroke="#ffffff" style="stroke-width: 0; fill-opacity: 0;"/><circle cx="748.0000000000041" cy="174.73641752115088" r="2" fill="#ffffff" stroke="#ffffff" style="stroke-width: 0; fill-opacity: 0;"/><circle cx="793.0000000000041" cy="165.39436533100752" r="2" fill="#ffffff" stroke="#ffffff" style="stroke-width: 0; fill-opacity: 0;"/><circle cx="838.0000000000041" cy="174.73641752115088" r="2" fill="#ffffff" stroke="#ffffff" style="stroke-width: 0; fill-opacity: 0;"/><circle cx="900.999999999998" cy="165.39436533100752" r="2" fill="#ffffff" stroke="#ffffff" style="stroke-width: 0; fill-opacity: 0;"/><circle cx="973.0000000000041" cy="165.39436533100752" r="2" fill="#ffffff" stroke="#ffffff" style="stroke-width: 0; fill-opacity: 0;"/><circle cx="171.9999999999959" cy="174.73641752115088" r="8" fill="#ffffff" stroke="#4682b4" style="stroke-width: 4; fill-opacity: 1;"/><circle cx="226.00000000000819" cy="174.73641752115088" r="8" fill="#4682b4" stroke="#4682b4" style="stroke-width: 4; fill-opacity: 1;"/><circle cx="280" cy="174.73641752115088" r="8" fill="#4682b4" stroke="#4682b4" style="stroke-width: 4; fill-opacity: 1;"/><circle cx="333.9999999999918" cy="174.73641752115088" r="8" fill="#4682b4" stroke="#4682b4" style="stroke-width: 4; fill-opacity: 1;"/><circle cx="388.0000000000041" cy="174.73641752115088" r="8" fill="#4682b4" stroke="#4682b4" style="stroke-width: 4; fill-opacity: 1;"/><circle cx="441.9999999999959" cy="174.73641752115088" r="8" fill="#4682b4" stroke="#4682b4" style="stroke-width: 4; fill-opacity: 1;"/><circle cx="495.99999999999795" cy="174.73641752115088" r="8" fill="#ffffff" stroke="#4682b4" style="stroke-width: 4; fill-opacity: 1;"/><circle cx="550" cy="174.73641752115088" r="8" fill="#4682b4" stroke="#4682b4" style="stroke-width: 4; fill-opacity: 1;"/><circle cx="604.000000000002" cy="174.73641752115088" r="8" fill="#4682b4" stroke="#4682b4" style="stroke-width: 4; fill-opacity: 1;"/><circle cx="658.0000000000041" cy="174.73641752115088" r="8" fill="#4682b4" stroke="#4682b4" style="stroke-width: 4; fill-opacity: 1;"/><circle cx="711.9999999999959" cy="174.73641752115088" r="8" fill="#4682b4" stroke="#4682b4" style="stroke-width: 4; fill-opacity: 1;"/><circle cx="765.999999999998" cy="174.73641752115088" r="8" fill="#ffffff" stroke="#4682b4" style="stroke-width: 4; fill-opacity: 1;"/><circle cx="820" cy="174.73641752115088" r="8" fill="#4682b4" stroke="#4682b4" style="stroke-width: 4; fill-opacity: 1;"/><circle cx="874.000000000002" cy="174.73641752115088" r="8" fill="#4682b4" stroke="#4682b4" style="stroke-width: 4; fill-opacity: 1;"/><circle cx="928.0000000000041" cy="174.73641752115088" r="8" fill="#4682b4" stroke="#4682b4" style="stroke-width: 4; fill-opacity: 1;"/><circle cx="981.9999999999959" cy="174.73641752115088" r="8" fill="#ffffff" stroke="#4682b4" style="stroke-width: 4; fill-opacity: 1;"/><text x="453.0000000000041" y="355.2354091338854" fill="#191970" transform="matrix(1,0,0,1,0,0)" style="font-size: 12px; font-family: Roboto, Arial, sans-serif; font-weight: 900; text-anchor: start; letter-spacing: 0em;">Kokuna</text><text x="453.0000000000041" y="439.31387884517966" fill="#191970" transform="matrix(1,0,0,1,0,0)" style="font-size: 12px; font-family: Roboto, Arial, sans-serif; font-weight: 900; text-anchor: start; letter-spacing: 0em;">Transport Service</text><text x="444.00000000000205" y="388.5905396092451" fill="#191970" transform="matrix(1,0,0,1,0,0)" style="font-size: 32px; font-family: Roboto, Arial, sans-serif; font-weight: 900; text-anchor: start; letter-spacing: 0em;">剋奈</text><text x="444.00000000000205" y="425.95874836981994" fill="#191970" transform="matrix(1,0,0,1,0,0)" style="font-size: 32px; font-family: Roboto, Arial, sans-serif; font-weight: 900; text-anchor: start; letter-spacing: 0em;">交通事業</text><text x="218.99999999999181" y="112.34205219014336" fill="#575757" transform="matrix(0.7071,-0.7071,0.7071,0.7071,-13.1729,186.8819)" style="font-size: 12px; font-family: Roboto, Arial, sans-serif; font-weight: 900; text-anchor: start; letter-spacing: 0em;">TR 北彩源線</text><text x="543.0000000000041" y="112.34205219014336" fill="#575757" transform="matrix(0.7071,-0.7071,0.7071,0.7071,81.7245,415.9845)" style="font-size: 12px; font-family: Roboto, Arial, sans-serif; font-weight: 900; text-anchor: start; letter-spacing: 0em;">皓急 北鏡線</text><text x="813.0000000000041" y="112.34205219014336" fill="#575757" transform="matrix(0.7071,-0.7071,0.7071,0.7071,160.8057,606.9034)" style="font-size: 12px; font-family: Roboto, Arial, sans-serif; font-weight: 900; text-anchor: start; letter-spacing: 0em;">札磐 瑠那線</text><text x="1029.000000000002" y="112.34205219014336" fill="#575757" transform="matrix(0.7071,-0.7071,0.7071,0.7071,224.0706,759.6384)" style="font-size: 12px; font-family: Roboto, Arial, sans-serif; font-weight: 900; text-anchor: start; letter-spacing: 0em;">圏央 結城野線</text><text x="1001.9999999999959" y="196.42052190143895" fill="#575757" transform="matrix(1,0,0,1,0,0)" style="font-size: 12px; font-family: Roboto, Arial, sans-serif; font-weight: 900; text-anchor: start; letter-spacing: 0em;">RK玖麻ラインへ</text><text x="1001.9999999999959" y="215.104626281727" fill="#696969" transform="matrix(1,0,0,1,0,0)" style="font-size: 12px; font-family: Roboto, Arial, sans-serif; font-weight: 900; text-anchor: start; letter-spacing: 0em;">直通</text><text x="149.4999999999959" y="216.73641752115088" fill="#000000" transform="matrix(0.7071,-0.7071,0.7071,0.7071,-105.2256,167.4357)" style="font-size: 12px; font-family: Roboto, Arial, sans-serif; font-weight: 900; text-anchor: middle; letter-spacing: 0em;">Yabato</text><text x="190" y="216.73641752115088" fill="#000000" transform="matrix(0.7071,-0.7071,0.7071,0.7071,-93.3634,196.0736)" style="font-size: 12px; font-family: Roboto, Arial, sans-serif; font-weight: 900; text-anchor: middle; letter-spacing: 0em;">Kita-Yabato</text><text x="261.9999999999959" y="207.39436533100752" fill="#000000" transform="matrix(0.7071,-0.7071,0.7071,0.7071,-65.6693,244.249)" style="font-size: 12px; font-family: Roboto, Arial, sans-serif; font-weight: 900; text-anchor: middle; letter-spacing: 0em;">Kari</text><text x="298.0000000000041" y="216.73641752115088" fill="#000000" transform="matrix(0.7071,-0.7071,0.7071,0.7071,-61.731,272.4411)" style="font-size: 12px; font-family: Roboto, Arial, sans-serif; font-weight: 900; text-anchor: middle; letter-spacing: 0em;">Shungawa</text><text x="351.9999999999959" y="216.73641752115088" fill="#000000" transform="matrix(0.7071,-0.7071,0.7071,0.7071,-45.9147,310.6249)" style="font-size: 12px; font-family: Roboto, Arial, sans-serif; font-weight: 900; text-anchor: middle; letter-spacing: 0em;">Tsukuedai</text><text x="388.0000000000041" y="235.42052190143895" fill="#000000" transform="matrix(0.7071,-0.7071,0.7071,0.7071,-48.5822,341.5531)" style="font-size: 12px; font-family: Roboto, Arial, sans-serif; font-weight: 900; text-anchor: middle; letter-spacing: 0em;">Shimo-Tsukuedai</text><text x="469.00000000000205" y="226.07846971129425" fill="#000000" transform="matrix(0.7071,-0.7071,0.7071,0.7071,-18.2521,396.0926)" style="font-size: 12px; font-family: Roboto, Arial, sans-serif; font-weight: 900; text-anchor: middle; letter-spacing: 0em;">Hannogawa</text><text x="523.0000000000041" y="216.73641752115088" fill="#000000" transform="matrix(0.7071,-0.7071,0.7071,0.7071,4.17,431.5401)" style="font-size: 12px; font-family: Roboto, Arial, sans-serif; font-weight: 900; text-anchor: middle; letter-spacing: 0em;">Ashihara</text><text x="568.0000000000041" y="216.73641752115088" fill="#000000" transform="matrix(0.7071,-0.7071,0.7071,0.7071,17.3502,463.3599)" style="font-size: 12px; font-family: Roboto, Arial, sans-serif; font-weight: 900; text-anchor: middle; letter-spacing: 0em;">Nishi-Oda</text><text x="621.9999999999959" y="216.73641752115088" fill="#000000" transform="matrix(0.7071,-0.7071,0.7071,0.7071,33.1664,501.5437)" style="font-size: 12px; font-family: Roboto, Arial, sans-serif; font-weight: 900; text-anchor: middle; letter-spacing: 0em;">Odabashi</text><text x="675.999999999998" y="216.73641752115088" fill="#000000" transform="matrix(0.7071,-0.7071,0.7071,0.7071,48.9827,539.7275)" style="font-size: 12px; font-family: Roboto, Arial, sans-serif; font-weight: 900; text-anchor: middle; letter-spacing: 0em;">Shōgaoka</text><text x="748.0000000000041" y="216.73641752115088" fill="#000000" transform="matrix(0.7071,-0.7071,0.7071,0.7071,70.071,590.6391)" style="font-size: 12px; font-family: Roboto, Arial, sans-serif; font-weight: 900; text-anchor: middle; letter-spacing: 0em;">Kakesu</text><text x="793.0000000000041" y="207.39436533100752" fill="#000000" transform="matrix(0.7071,-0.7071,0.7071,0.7071,89.857,619.7227)" style="font-size: 12px; font-family: Roboto, Arial, sans-serif; font-weight: 900; text-anchor: middle; letter-spacing: 0em;">Rikui</text><text x="838.0000000000041" y="216.73641752115088" fill="#000000" transform="matrix(0.7071,-0.7071,0.7071,0.7071,96.4314,654.2788)" style="font-size: 12px; font-family: Roboto, Arial, sans-serif; font-weight: 900; text-anchor: middle; letter-spacing: 0em;">Funfuku</text><text x="900.999999999998" y="207.39436533100752" fill="#000000" transform="matrix(0.7071,-0.7071,0.7071,0.7071,121.4895,696.0903)" style="font-size: 12px; font-family: Roboto, Arial, sans-serif; font-weight: 900; text-anchor: middle; letter-spacing: 0em;">Senda</text><text x="973.0000000000041" y="207.39436533100752" fill="#000000" transform="matrix(0.7071,-0.7071,0.7071,0.7071,142.5778,747.0019)" style="font-size: 12px; font-family: Roboto, Arial, sans-serif; font-weight: 900; text-anchor: middle; letter-spacing: 0em;">Etō</text><text x="189.9999999999959" y="146.73641752115088" fill="#000000" transform="matrix(0.7071,-0.7071,0.7071,0.7071,-42.4517,174.9852)" style="font-size: 16px; font-family: Roboto, Arial, sans-serif; font-weight: 900; text-anchor: middle; letter-spacing: 0em;">夜鳩</text><text x="244.00000000000819" y="146.73641752115088" fill="#000000" transform="matrix(0.7071,-0.7071,0.7071,0.7071,-26.6355,213.169)" style="font-size: 16px; font-family: Roboto, Arial, sans-serif; font-weight: 900; text-anchor: middle; letter-spacing: 0em;">北夜鳩</text><text x="298" y="146.73641752115088" fill="#000000" transform="matrix(0.7071,-0.7071,0.7071,0.7071,-10.8193,251.3528)" style="font-size: 16px; font-family: Roboto, Arial, sans-serif; font-weight: 900; text-anchor: middle; letter-spacing: 0em;">架理</text><text x="351.9999999999918" y="146.73641752115088" fill="#000000" transform="matrix(0.7071,-0.7071,0.7071,0.7071,4.997,289.5365)" style="font-size: 16px; font-family: Roboto, Arial, sans-serif; font-weight: 900; text-anchor: middle; letter-spacing: 0em;">駿川</text><text x="406.0000000000041" y="146.73641752115088" fill="#000000" transform="matrix(0.7071,-0.7071,0.7071,0.7071,20.8132,327.7203)" style="font-size: 16px; font-family: Roboto, Arial, sans-serif; font-weight: 900; text-anchor: middle; letter-spacing: 0em;">机台</text><text x="459.9999999999959" y="146.73641752115088" fill="#000000" transform="matrix(0.7071,-0.7071,0.7071,0.7071,36.6294,365.9041)" style="font-size: 16px; font-family: Roboto, Arial, sans-serif; font-weight: 900; text-anchor: middle; letter-spacing: 0em;">下机台</text><text x="513.999999999998" y="146.73641752115088" fill="#000000" transform="matrix(0.7071,-0.7071,0.7071,0.7071,52.4457,404.0878)" style="font-size: 16px; font-family: Roboto, Arial, sans-serif; font-weight: 900; text-anchor: middle; letter-spacing: 0em;">頒ノ側</text><text x="568" y="146.73641752115088" fill="#000000" transform="matrix(0.7071,-0.7071,0.7071,0.7071,68.2619,442.2716)" style="font-size: 16px; font-family: Roboto, Arial, sans-serif; font-weight: 900; text-anchor: middle; letter-spacing: 0em;">足原</text><text x="622.000000000002" y="146.73641752115088" fill="#000000" transform="matrix(0.7071,-0.7071,0.7071,0.7071,84.0781,480.4554)" style="font-size: 16px; font-family: Roboto, Arial, sans-serif; font-weight: 900; text-anchor: middle; letter-spacing: 0em;">西小田</text><text x="676.0000000000041" y="146.73641752115088" fill="#000000" transform="matrix(0.7071,-0.7071,0.7071,0.7071,99.8944,518.6391)" style="font-size: 16px; font-family: Roboto, Arial, sans-serif; font-weight: 900; text-anchor: middle; letter-spacing: 0em;">小田橋</text><text x="729.9999999999959" y="146.73641752115088" fill="#000000" transform="matrix(0.7071,-0.7071,0.7071,0.7071,115.7106,556.8229)" style="font-size: 16px; font-family: Roboto, Arial, sans-serif; font-weight: 900; text-anchor: middle; letter-spacing: 0em;">彰ヶ岡</text><text x="783.999999999998" y="146.73641752115088" fill="#000000" transform="matrix(0.7071,-0.7071,0.7071,0.7071,131.5268,595.0067)" style="font-size: 16px; font-family: Roboto, Arial, sans-serif; font-weight: 900; text-anchor: middle; letter-spacing: 0em;">掛簾</text><text x="838" y="146.73641752115088" fill="#000000" transform="matrix(0.7071,-0.7071,0.7071,0.7071,147.3431,633.1904)" style="font-size: 16px; font-family: Roboto, Arial, sans-serif; font-weight: 900; text-anchor: middle; letter-spacing: 0em;">陸井</text><text x="892.000000000002" y="146.73641752115088" fill="#000000" transform="matrix(0.7071,-0.7071,0.7071,0.7071,163.1593,671.3742)" style="font-size: 16px; font-family: Roboto, Arial, sans-serif; font-weight: 900; text-anchor: middle; letter-spacing: 0em;">扮福</text><text x="946.0000000000041" y="146.73641752115088" fill="#000000" transform="matrix(0.7071,-0.7071,0.7071,0.7071,178.9755,709.558)" style="font-size: 16px; font-family: Roboto, Arial, sans-serif; font-weight: 900; text-anchor: middle; letter-spacing: 0em;">宣田</text><text x="999.9999999999959" y="146.73641752115088" fill="#000000" transform="matrix(0.7071,-0.7071,0.7071,0.7071,194.7918,747.7417)" style="font-size: 16px; font-family: Roboto, Arial, sans-serif; font-weight: 900; text-anchor: middle; letter-spacing: 0em;">衛藤</text></svg>