<svg height="660.0005073443292" version="1.1" width="487.99999999998363" xmlns="http://www.w3.org/2000/svg" id="svgSvg" viewBox="59 0 590.4799999999802 798.6006138866385" style="width: 1366px; height: 1847.46px;"><desc>Created with Snap</desc><defs/><path d="M8,5 C10,2 10,2 5.67,3.6  C1.8,4.9 1.8,5.1 5.67,6.4 C10,8 10,8 8,5 z" fill="#ffa500" style=""/><path d="M2,5 C0,2 0,2 4.33,3.6  C8.2,4.9 8.2,5.1 4.33,6.4 C0,8 0,8 2,5 z" fill="#ffa500" style=""/><polyline points="243.99999999999181,154.00007610164937,243.99999999999181,100,315.99999999996726,100,387.99999999998363,100" fill="none" stroke="#ffa500" style="stroke-opacity: 0.6; stroke-width: 6; stroke-linecap: round; stroke-linejoin: round; marker-start: none; marker-end: none;"/><path d="M8,5 C10,2 10,2 5.67,3.6  C1.8,4.9 1.8,5.1 5.67,6.4 C10,8 10,8 8,5 z" fill="#168000" style=""/><path d="M2,5 C0,2 0,2 4.33,3.6  C8.2,4.9 8.2,5.1 4.33,6.4 C0,8 0,8 2,5 z" fill="#168000" style=""/><polyline points="243.99999999999181,424.0004566098962,243.99999999999181,460.00050734432915,171.99999999997544,460.00050734432915,100,460.00050734432915" fill="none" stroke="#168000" style="stroke-opacity: 0.6; stroke-width: 6; stroke-linecap: round; stroke-linejoin: round; marker-start: none; marker-end: none;"/><path d="M8,5 C10,2 10,2 5.67,3.6  C1.8,4.9 1.8,5.1 5.67,6.4 C10,8 10,8 8,5 z" fill="#008000" style=""/><path d="M2,5 C0,2 0,2 4.33,3.6  C8.2,4.9 8.2,5.1 4.33,6.4 C0,8 0,8 2,5 z" fill="#008000" style=""/><polyline points="243.99999999999181,424.0004566098962,243.99999999999181,379.0003931918551,243.99999999999181,334.000329773814,243.99999999999181,289.0002663557728,243.99999999999181,244.00020293773167,243.99999999999181,199.00013951969055,243.99999999999181,154.00007610164937" fill="none" stroke="#008000" style="stroke-opacity: 1; stroke-width: 6; stroke-linecap: round; stroke-linejoin: round; marker-start: none; marker-end: none;"/><circle cx="315.99999999996726" cy="100" r="2" fill="#ffffff" stroke="#ffffff" style="stroke-width: 0; fill-opacity: 0;"/><circle cx="171.99999999997544" cy="460.00050734432915" r="2" fill="#ffffff" stroke="#ffffff" style="stroke-width: 0; fill-opacity: 0;"/><rect x="233.99999999999181" y="414.0004566098962" width="20" height="20" fill="#008000" stroke="#ffffff" transform="matrix(1,0,0,1,0,0)" style="stroke-width: 5; fill-opacity: 1;"/><rect x="233.99999999999181" y="369.0003931918551" width="20" height="20" fill="#008000" stroke="#ffffff" transform="matrix(1,0,0,1,0,0)" style="stroke-width: 5; fill-opacity: 1;"/><rect x="233.99999999999181" y="324.000329773814" width="20" height="20" fill="#008000" stroke="#ffffff" transform="matrix(1,0,0,1,0,0)" style="stroke-width: 5; fill-opacity: 1;"/><rect x="233.99999999999181" y="279.0002663557728" width="20" height="20" fill="#008000" stroke="#ffffff" transform="matrix(1,0,0,1,0,0)" style="stroke-width: 5; fill-opacity: 1;"/><rect x="233.99999999999181" y="234.00020293773167" width="20" height="20" fill="#008000" stroke="#ffffff" transform="matrix(1,0,0,1,0,0)" style="stroke-width: 5; fill-opacity: 1;"/><rect x="233.99999999999181" y="189.00013951969055" width="20" height="20" fill="#008000" stroke="#ffffff" transform="matrix(1,0,0,1,0,0)" style="stroke-width: 5; fill-opacity: 1;"/><rect x="233.99999999999181" y="144.00007610164937" width="20" height="20" fill="#008000" stroke="#ffffff" transform="matrix(1,0,0,1,0,0)" style="stroke-width: 5; fill-opacity: 1;"/><text x="315.99999999996726" y="123" fill="#ffa500" transform="matrix(1,0,0,1,0,0)" style="font-size: 10px; font-family: Roboto, Arial, sans-serif; font-weight: 900; text-anchor: middle; letter-spacing: 0em;">Re:LINE 櫻線へ直通</text><text x="171.99999999997544" y="447.00050734432915" fill="#168000" transform="matrix(1,0,0,1,0,0)" style="font-size: 10px; font-family: Roboto, Arial, sans-serif; font-weight: 900; text-anchor: middle; letter-spacing: 0em;">彩源メトロ 城野線へ直通</text><text x="263.9999999999918" y="430.0004566098962" fill="#000000" transform="matrix(1,0,0,1,0,0)" style="font-size: 18px; font-family: Roboto, Arial, sans-serif; font-weight: 900; text-anchor: start; letter-spacing: 0em;">国際城報堂大学前 / Kokusaigihōdōdaigakumae</text><text x="263.9999999999918" y="385.0003931918551" fill="#000000" transform="matrix(1,0,0,1,0,0)" style="font-size: 18px; font-family: Roboto, Arial, sans-serif; font-weight: 900; text-anchor: start; letter-spacing: 0em;">離小野 / Riono</text><text x="263.9999999999918" y="340.000329773814" fill="#000000" transform="matrix(1,0,0,1,0,0)" style="font-size: 18px; font-family: Roboto, Arial, sans-serif; font-weight: 900; text-anchor: start; letter-spacing: 0em;">浮郷 / Fugō</text><text x="263.9999999999918" y="295.0002663557728" fill="#000000" transform="matrix(1,0,0,1,0,0)" style="font-size: 18px; font-family: Roboto, Arial, sans-serif; font-weight: 900; text-anchor: start; letter-spacing: 0em;">朧小夜 / Oborosayo</text><text x="263.9999999999918" y="250.00020293773167" fill="#000000" transform="matrix(1,0,0,1,0,0)" style="font-size: 18px; font-family: Roboto, Arial, sans-serif; font-weight: 900; text-anchor: start; letter-spacing: 0em;">うぐいす明朝 / Uguisuminchō</text><text x="263.9999999999918" y="205.00013951969055" fill="#000000" transform="matrix(1,0,0,1,0,0)" style="font-size: 18px; font-family: Roboto, Arial, sans-serif; font-weight: 900; text-anchor: start; letter-spacing: 0em;">告瑠一条 / Kokuru-ichijō</text><text x="263.9999999999918" y="160.00007610164937" fill="#000000" transform="matrix(1,0,0,1,0,0)" style="font-size: 18px; font-family: Roboto, Arial, sans-serif; font-weight: 900; text-anchor: start; letter-spacing: 0em;">准野 / Junno</text></svg>
