<svg height="733.1238913593772" version="1.1" width="735.5072000000064" xmlns="http://www.w3.org/2000/svg" id="svgSvg" viewBox="73.5 0 735.5072000000064 733.1238913593772" style="width: 1366px; height: 1361.58px;"><desc>Created with Snap</desc><defs/><path d="M8,5 C10,2 10,2 5.67,3.6  C1.8,4.9 1.8,5.1 5.67,6.4 C10,8 10,8 8,5 z" fill="#20b2aa" style=""/><path d="M2,5 C0,2 0,2 4.33,3.6  C8.2,4.9 8.2,5.1 4.33,6.4 C0,8 0,8 2,5 z" fill="#20b2aa" style=""/><polyline points="297.99999999998363,273.2466765391538,302.5071999999818,273.2466765391538,297.99999999998363,277.75388373363097,302.5071999999818,282.2466909051226,297.99999999998363,286.75389809959984,329.5071999999982,286.75389809959984" fill="none" stroke="#20b2aa" style="stroke-opacity: 1; stroke-width: 2; stroke-linecap: round; stroke-linejoin: round; marker-start: none; marker-end: none;"/><path d="M8,5 C10,2 10,2 5.67,3.6  C1.8,4.9 1.8,5.1 5.67,6.4 C10,8 10,8 8,5 z" fill="#20b2aa" style=""/><path d="M2,5 C0,2 0,2 4.33,3.6  C8.2,4.9 8.2,5.1 4.33,6.4 C0,8 0,8 2,5 z" fill="#20b2aa" style=""/><polyline points="297.99999999998363,266.49306575893075,302.5071999999818,266.49306575893075" fill="none" stroke="#20b2aa" style="stroke-opacity: 1; stroke-width: 2; stroke-linecap: round; stroke-linejoin: round; marker-start: none; marker-end: none;"/><path d="M8,5 C10,2 10,2 5.67,3.6  C1.8,4.9 1.8,5.1 5.67,6.4 C10,8 10,8 8,5 z" fill="#20b2aa" style=""/><path d="M2,5 C0,2 0,2 4.33,3.6  C8.2,4.9 8.2,5.1 4.33,6.4 C0,8 0,8 2,5 z" fill="#20b2aa" style=""/><polyline points="309.2463999999927,260.8770567945662,316.0000000000082,264.246662173185,325,257.4930513929619,316.0000000000082,257.4930513929619,306.99999999997544,257.4930513929619,325,257.4930513929619,316.0000000000082,257.4930513929619,325,257.4930513929619,316.0000000000082,264.246662173185,306.99999999997544,264.246662173185,325,264.246662173185,325,275.5074801478852,306.99999999997544,275.5074801478852,325,275.5074801478852,325,269.877071160535,306.99999999997544,269.877071160535,306.99999999997544,264.246662173185,306.99999999997544,275.5074801478852,316.0000000000082,275.5074801478852,325,275.5074801478852,325,281.1234891122497,318.24639999998453,281.1234891122497,325,281.1234891122497,325,264.246662173185,316.0000000000082,264.246662173185,316.0000000000082,281.1234891122497,316.0000000000082,275.5074801478852,306.99999999997544,275.5074801478852,306.99999999997544,281.1234891122497" fill="none" stroke="#20b2aa" style="stroke-opacity: 1; stroke-width: 2; stroke-linecap: round; stroke-linejoin: round; marker-start: none; marker-end: none;"/><path d="M8,5 C10,2 10,2 5.67,3.6  C1.8,4.9 1.8,5.1 5.67,6.4 C10,8 10,8 8,5 z" fill="#20b2aa" style=""/><path d="M2,5 C0,2 0,2 4.33,3.6  C8.2,4.9 8.2,5.1 4.33,6.4 C0,8 0,8 2,5 z" fill="#20b2aa" style=""/><polyline points="271.0000000000082,273.2466765391538,286.75359999997454,286.75389809959984,277.7535999999827,279.0210857563594,284.5071999999982,273.2466765391538,268.7535999999909,286.75389809959984" fill="none" stroke="#20b2aa" style="stroke-opacity: 1; stroke-width: 2; stroke-linecap: round; stroke-linejoin: round; marker-start: none; marker-end: none;"/><path d="M8,5 C10,2 10,2 5.67,3.6  C1.8,4.9 1.8,5.1 5.67,6.4 C10,8 10,8 8,5 z" fill="#20b2aa" style=""/><path d="M2,5 C0,2 0,2 4.33,3.6  C8.2,4.9 8.2,5.1 4.33,6.4 C0,8 0,8 2,5 z" fill="#20b2aa" style=""/><polyline points="282.24639999997635,266.49306575893075,288.9999999999918,271.00027295340794" fill="none" stroke="#20b2aa" style="stroke-opacity: 1; stroke-width: 2; stroke-linecap: round; stroke-linejoin: round; marker-start: none; marker-end: none;"/><path d="M8,5 C10,2 10,2 5.67,3.6  C1.8,4.9 1.8,5.1 5.67,6.4 C10,8 10,8 8,5 z" fill="#20b2aa" style=""/><path d="M2,5 C0,2 0,2 4.33,3.6  C8.2,4.9 8.2,5.1 4.33,6.4 C0,8 0,8 2,5 z" fill="#20b2aa" style=""/><polyline points="273.24639999998453,266.49306575893075,266.50719999997364,271.00027295340794" fill="none" stroke="#20b2aa" style="stroke-opacity: 1; stroke-width: 2; stroke-linecap: round; stroke-linejoin: round; marker-start: none; marker-end: none;"/><path d="M8,5 C10,2 10,2 5.67,3.6  C1.8,4.9 1.8,5.1 5.67,6.4 C10,8 10,8 8,5 z" fill="#20b2aa" style=""/><path d="M2,5 C0,2 0,2 4.33,3.6  C8.2,4.9 8.2,5.1 4.33,6.4 C0,8 0,8 2,5 z" fill="#20b2aa" style=""/><polyline points="277.7535999999827,253.0002442214703,277.7535999999827,262.00025858743913,264.2463999999927,262.00025858743913,291.2464000000091,262.00025858743913" fill="none" stroke="#20b2aa" style="stroke-opacity: 1; stroke-width: 2; stroke-linecap: round; stroke-linejoin: round; marker-start: none; marker-end: none;"/><path d="M8,5 C10,2 10,2 5.67,3.6  C1.8,4.9 1.8,5.1 5.67,6.4 C10,8 10,8 8,5 z" fill="#20b2aa" style=""/><path d="M2,5 C0,2 0,2 4.33,3.6  C8.2,4.9 8.2,5.1 4.33,6.4 C0,8 0,8 2,5 z" fill="#20b2aa" style=""/><polyline points="256.3695999999891,258.6306532088204,246.2464000000091,258.6306532088204,246.2464000000091,289.0003016853457,246.2464000000091,266.49306575893075,256.3695999999891,266.49306575893075,251.87679999999546,266.49306575893075,251.87679999999546,289.0003016853457" fill="none" stroke="#20b2aa" style="stroke-opacity: 1; stroke-width: 2; stroke-linecap: round; stroke-linejoin: round; marker-start: none; marker-end: none;"/><path d="M8,5 C10,2 10,2 5.67,3.6  C1.8,4.9 1.8,5.1 5.67,6.4 C10,8 10,8 8,5 z" fill="#20b2aa" style=""/><path d="M2,5 C0,2 0,2 4.33,3.6  C8.2,4.9 8.2,5.1 4.33,6.4 C0,8 0,8 2,5 z" fill="#20b2aa" style=""/><polyline points="235,255.2466478072161,235,262.00025858743913,230.50720000000638,262.00025858743913,239.5071999999982,262.00025858743913,232.75359999998273,262.00025858743913,232.75359999998273,268.7538693676621,229.3695999999727,268.7538693676621,237.24639999997635,268.7538693676621,237.24639999997635,262.00025858743913,237.24639999997635,268.7538693676621,240.63039999998637,268.7538693676621,235,268.7538693676621,235,289.0003016853457,235,275.5074801478852,229.3695999999727,283.36989269799557,235,275.5074801478852,240.63039999998637,283.36989269799557,235,275.5074801478852,228.24639999998453,275.5074801478852,241.75359999997454,275.5074801478852" fill="none" stroke="#20b2aa" style="stroke-opacity: 1; stroke-width: 2; stroke-linecap: round; stroke-linejoin: round; marker-start: none; marker-end: none;"/><path d="M8,5 C10,2 10,2 5.67,3.6  C1.8,4.9 1.8,5.1 5.67,6.4 C10,8 10,8 8,5 z" fill="#20b2aa" style=""/><path d="M2,5 C0,2 0,2 4.33,3.6  C8.2,4.9 8.2,5.1 4.33,6.4 C0,8 0,8 2,5 z" fill="#20b2aa" style=""/><polyline points="219.24639999999272,282.2466909051226,219.24639999999272,286.75389809959984" fill="none" stroke="#20b2aa" style="stroke-opacity: 1; stroke-width: 2; stroke-linecap: round; stroke-linejoin: round; marker-start: none; marker-end: none;"/><path d="M8,5 C10,2 10,2 5.67,3.6  C1.8,4.9 1.8,5.1 5.67,6.4 C10,8 10,8 8,5 z" fill="#20b2aa" style=""/><path d="M2,5 C0,2 0,2 4.33,3.6  C8.2,4.9 8.2,5.1 4.33,6.4 C0,8 0,8 2,5 z" fill="#20b2aa" style=""/><polyline points="205.75360000000728,281.1234891122497,205.75360000000728,285.6306963067269" fill="none" stroke="#20b2aa" style="stroke-opacity: 1; stroke-width: 2; stroke-linecap: round; stroke-linejoin: round; marker-start: none; marker-end: none;"/><path d="M8,5 C10,2 10,2 5.67,3.6  C1.8,4.9 1.8,5.1 5.67,6.4 C10,8 10,8 8,5 z" fill="#20b2aa" style=""/><path d="M2,5 C0,2 0,2 4.33,3.6  C8.2,4.9 8.2,5.1 4.33,6.4 C0,8 0,8 2,5 z" fill="#20b2aa" style=""/><polyline points="194.5071999999982,284.49309449086843,194.5071999999982,289.0003016853457,214.7535999999991,289.0003016853457,214.7535999999991,286.75389809959984" fill="none" stroke="#20b2aa" style="stroke-opacity: 1; stroke-width: 2; stroke-linecap: round; stroke-linejoin: round; marker-start: none; marker-end: none;"/><path d="M8,5 C10,2 10,2 5.67,3.6  C1.8,4.9 1.8,5.1 5.67,6.4 C10,8 10,8 8,5 z" fill="#20b2aa" style=""/><path d="M2,5 C0,2 0,2 4.33,3.6  C8.2,4.9 8.2,5.1 4.33,6.4 C0,8 0,8 2,5 z" fill="#20b2aa" style=""/><polyline points="190,284.49309449086843,190,289.0003016853457" fill="none" stroke="#20b2aa" style="stroke-opacity: 1; stroke-width: 2; stroke-linecap: round; stroke-linejoin: round; marker-start: none; marker-end: none;"/><path d="M8,5 C10,2 10,2 5.67,3.6  C1.8,4.9 1.8,5.1 5.67,6.4 C10,8 10,8 8,5 z" fill="#20b2aa" style=""/><path d="M2,5 C0,2 0,2 4.33,3.6  C8.2,4.9 8.2,5.1 4.33,6.4 C0,8 0,8 2,5 z" fill="#20b2aa" style=""/><polyline points="190,266.49306575893075,221.50719999997364,266.49306575893075,190,266.49306575893075,197.87680000000364,266.49306575893075,201.2464000000091,262.00025858743913,197.87680000000364,266.49306575893075,194.5071999999982,271.00027295340794,190,277.75388373363097,194.5071999999982,271.00027295340794,194.5071999999982,277.75388373363097,216.99999999997544,277.75388373363097,216.99999999997544,271.00027295340794,194.5071999999982,271.00027295340794" fill="none" stroke="#20b2aa" style="stroke-opacity: 1; stroke-width: 2; stroke-linecap: round; stroke-linejoin: round; marker-start: none; marker-end: none;"/><path d="M8,5 C10,2 10,2 5.67,3.6  C1.8,4.9 1.8,5.1 5.67,6.4 C10,8 10,8 8,5 z" fill="#20b2aa" style=""/><path d="M2,5 C0,2 0,2 4.33,3.6  C8.2,4.9 8.2,5.1 4.33,6.4 C0,8 0,8 2,5 z" fill="#20b2aa" style=""/><polyline points="190,257.4930513929619,221.50719999997364,257.4930513929619,194.5071999999982,257.4930513929619,194.5071999999982,253.0002442214703,194.5071999999982,262.00025858743913,194.5071999999982,257.4930513929619,216.99999999997544,257.4930513929619,216.99999999997544,253.0002442214703,216.99999999997544,262.00025858743913" fill="none" stroke="#20b2aa" style="stroke-opacity: 1; stroke-width: 2; stroke-linecap: round; stroke-linejoin: round; marker-start: none; marker-end: none;"/><path d="M8,5 C10,2 10,2 5.67,3.6  C1.8,4.9 1.8,5.1 5.67,6.4 C10,8 10,8 8,5 z" fill="#20b2aa" style=""/><path d="M2,5 C0,2 0,2 4.33,3.6  C8.2,4.9 8.2,5.1 4.33,6.4 C0,8 0,8 2,5 z" fill="#20b2aa" style=""/><polyline points="153.99999999999181,266.49306575893075,162.99999999998363,266.49306575893075,153.99999999999181,280.0002873193768" fill="none" stroke="#20b2aa" style="stroke-opacity: 1; stroke-width: 2; stroke-linecap: round; stroke-linejoin: round; marker-start: none; marker-end: none;"/><path d="M8,5 C10,2 10,2 5.67,3.6  C1.8,4.9 1.8,5.1 5.67,6.4 C10,8 10,8 8,5 z" fill="#20b2aa" style=""/><path d="M2,5 C0,2 0,2 4.33,3.6  C8.2,4.9 8.2,5.1 4.33,6.4 C0,8 0,8 2,5 z" fill="#20b2aa" style=""/><polyline points="167.50719999998182,253.0002442214703,167.50719999998182,289.0003016853457,158.50719999999,284.49309449086843,167.50719999998182,289.0003016853457,167.50719999998182,271.00027295340794,181.00000000000819,257.4930513929619,167.50719999998182,271.00027295340794,181.00000000000819,280.0002873193768" fill="none" stroke="#20b2aa" style="stroke-opacity: 1; stroke-width: 2; stroke-linecap: round; stroke-linejoin: round; marker-start: none; marker-end: none;"/><path d="M8,5 C10,2 10,2 5.67,3.6  C1.8,4.9 1.8,5.1 5.67,6.4 C10,8 10,8 8,5 z" fill="#ffffff" style=""/><path d="M2,5 C0,2 0,2 4.33,3.6  C8.2,4.9 8.2,5.1 4.33,6.4 C0,8 0,8 2,5 z" fill="#ffffff" style=""/><polyline points="136.00000000000819,307.0003304172833" fill="none" stroke="#ffffff" style="stroke-opacity: 0; stroke-width: 0; stroke-linecap: round; stroke-linejoin: round; marker-start: none; marker-end: none;"/><path d="M8,5 C10,2 10,2 5.67,3.6  C1.8,4.9 1.8,5.1 5.67,6.4 C10,8 10,8 8,5 z"/><path d="M2,5 C0,2 0,2 4.33,3.6  C8.2,4.9 8.2,5.1 4.33,6.4 C0,8 0,8 2,5 z"/><polygon points="226.00000000000819,334.00037351518984,136.00000000000819,370.0004309790652,136.00000000000819,244.00022985550143,100,316.0003447832522" fill="#40e0d0" stroke="#40e0d0" style="fill-opacity: 1; stroke-opacity: 1; stroke-width: 0; stroke-linecap: round; stroke-linejoin: round;"/><path d="M8,5 C10,2 10,2 5.67,3.6  C1.8,4.9 1.8,5.1 5.67,6.4 C10,8 10,8 8,5 z" fill="#696969" style=""/><path d="M2,5 C0,2 0,2 4.33,3.6  C8.2,4.9 8.2,5.1 4.33,6.4 C0,8 0,8 2,5 z" fill="#696969" style=""/><polyline points="513.9999999999918,244.00022985550143,496.0000000000082,226.00020112356373,351.99999999997544,226.00020112356373" fill="none" stroke="#696969" style="stroke-opacity: 1; stroke-width: 2; stroke-linecap: round; stroke-linejoin: round; marker-start: none; marker-end: none;"/><path d="M8,5 C10,2 10,2 5.67,3.6  C1.8,4.9 1.8,5.1 5.67,6.4 C10,8 10,8 8,5 z" fill="#696969" style=""/><path d="M2,5 C0,2 0,2 4.33,3.6  C8.2,4.9 8.2,5.1 4.33,6.4 C0,8 0,8 2,5 z" fill="#696969" style=""/><polyline points="513.9999999999918,532.0006895665043,496.0000000000082,514.0006608345666,351.99999999997544,514.0006608345666" fill="none" stroke="#696969" style="stroke-opacity: 1; stroke-width: 2; stroke-linecap: round; stroke-linejoin: round; marker-start: none; marker-end: none;"/><path d="M8,5 C10,2 10,2 5.67,3.6  C1.8,4.9 1.8,5.1 5.67,6.4 C10,8 10,8 8,5 z" fill="#696969" style=""/><path d="M2,5 C0,2 0,2 4.33,3.6  C8.2,4.9 8.2,5.1 4.33,6.4 C0,8 0,8 2,5 z" fill="#696969" style=""/><polyline points="513.9999999999918,460.0005746387536,496.0000000000082,442.00054590681594,351.99999999997544,442.00054590681594" fill="none" stroke="#696969" style="stroke-opacity: 1; stroke-width: 2; stroke-linecap: round; stroke-linejoin: round; marker-start: none; marker-end: none;"/><path d="M8,5 C10,2 10,2 5.67,3.6  C1.8,4.9 1.8,5.1 5.67,6.4 C10,8 10,8 8,5 z" fill="#ffffff" style=""/><path d="M2,5 C0,2 0,2 4.33,3.6  C8.2,4.9 8.2,5.1 4.33,6.4 C0,8 0,8 2,5 z" fill="#ffffff" style=""/><polyline points="574.7535999999991,102.24640358574582,635.5072000000064,174.24651851349654,595,246.2466334412473,595,318.24674836899794,615.2464000000009,390.24686329674876,574.7535999999991,461.12377643162654,574.7535999999991,533.1238913593772" fill="none" stroke="#ffffff" style="stroke-opacity: 0; stroke-width: 0; stroke-linecap: round; stroke-linejoin: round; marker-start: none; marker-end: none;"/><path d="M8,5 C10,2 10,2 5.67,3.6  C1.8,4.9 1.8,5.1 5.67,6.4 C10,8 10,8 8,5 z" fill="#62cbc7" style=""/><path d="M2,5 C0,2 0,2 4.33,3.6  C8.2,4.9 8.2,5.1 4.33,6.4 C0,8 0,8 2,5 z" fill="#62cbc7" style=""/><polyline points="531.9999999999754,100,531.9999999999754,172.0001149277507,531.9999999999754,244.00022985550143,531.9999999999754,316.0003447832522,531.9999999999754,388.00045971100286,531.9999999999754,460.0005746387536,531.9999999999754,532.0006895665043" fill="none" stroke="#62cbc7" style="stroke-opacity: 1; stroke-width: 6; stroke-linecap: butt; marker-start: none; marker-end: none;"/><polyline points="531.9999999999754,100,531.9999999999754,172.0001149277507,531.9999999999754,244.00022985550143,531.9999999999754,316.0003447832522,531.9999999999754,388.00045971100286,531.9999999999754,460.0005746387536,531.9999999999754,532.0006895665043" fill="none" stroke="#ffffff" style="stroke-opacity: 0.5; stroke-width: 4.8; stroke-linecap: butt;"/><path d="M8,5 C10,2 10,2 5.67,3.6  C1.8,4.9 1.8,5.1 5.67,6.4 C10,8 10,8 8,5 z" fill="#ffffff" style=""/><path d="M2,5 C0,2 0,2 4.33,3.6  C8.2,4.9 8.2,5.1 4.33,6.4 C0,8 0,8 2,5 z" fill="#ffffff" style=""/><polyline points="531.9999999999754,100,531.9999999999754,172.0001149277507,531.9999999999754,244.00022985550143,531.9999999999754,316.0003447832522,531.9999999999754,388.00045971100286,531.9999999999754,460.0005746387536,531.9999999999754,532.0006895665043" fill="none" stroke="#ffffff" style="stroke-opacity: 0; stroke-width: 0; stroke-linecap: round; stroke-linejoin: round; marker-start: none; marker-end: none;"/><circle cx="136.00000000000819" cy="307.0003304172833" r="2" fill="#ffffff" stroke="#ffffff" style="stroke-width: 0; fill-opacity: 0;"/><circle cx="351.99999999997544" cy="226.00020112356373" r="2" fill="#ffffff" stroke="#ffffff" style="stroke-width: 0; fill-opacity: 0;"/><circle cx="351.99999999997544" cy="514.0006608345666" r="2" fill="#ffffff" stroke="#ffffff" style="stroke-width: 0; fill-opacity: 0;"/><circle cx="351.99999999997544" cy="442.00054590681594" r="2" fill="#ffffff" stroke="#ffffff" style="stroke-width: 0; fill-opacity: 0;"/><circle cx="574.7535999999991" cy="102.24640358574582" r="2" fill="#ffffff" stroke="#ffffff" style="stroke-width: 0; fill-opacity: 0;"/><circle cx="635.5072000000064" cy="174.24651851349654" r="2" fill="#ffffff" stroke="#ffffff" style="stroke-width: 0; fill-opacity: 0;"/><circle cx="595" cy="246.2466334412473" r="2" fill="#ffffff" stroke="#ffffff" style="stroke-width: 0; fill-opacity: 0;"/><circle cx="595" cy="318.24674836899794" r="2" fill="#ffffff" stroke="#ffffff" style="stroke-width: 0; fill-opacity: 0;"/><circle cx="615.2464000000009" cy="390.24686329674876" r="2" fill="#ffffff" stroke="#ffffff" style="stroke-width: 0; fill-opacity: 0;"/><circle cx="574.7535999999991" cy="461.12377643162654" r="2" fill="#ffffff" stroke="#ffffff" style="stroke-width: 0; fill-opacity: 0;"/><circle cx="574.7535999999991" cy="533.1238913593772" r="2" fill="#ffffff" stroke="#ffffff" style="stroke-width: 0; fill-opacity: 0;"/><circle cx="531.9999999999754" cy="100" r="8" fill="#62cbc7" stroke="#ffffff" style="stroke-width: 6; fill-opacity: 1;"/><circle cx="531.9999999999754" cy="172.0001149277507" r="8" fill="#62cbc7" stroke="#ffffff" style="stroke-width: 6; fill-opacity: 1;"/><circle cx="531.9999999999754" cy="244.00022985550143" r="8" fill="#62cbc7" stroke="#ffffff" style="stroke-width: 6; fill-opacity: 1;"/><circle cx="531.9999999999754" cy="316.0003447832522" r="8" fill="#62cbc7" stroke="#ffffff" style="stroke-width: 6; fill-opacity: 1;"/><circle cx="531.9999999999754" cy="388.00045971100286" r="8" fill="#62cbc7" stroke="#ffffff" style="stroke-width: 6; fill-opacity: 1;"/><circle cx="531.9999999999754" cy="460.0005746387536" r="8" fill="#62cbc7" stroke="#ffffff" style="stroke-width: 6; fill-opacity: 1;"/><circle cx="531.9999999999754" cy="532.0006895665043" r="8" fill="#62cbc7" stroke="#ffffff" style="stroke-width: 6; fill-opacity: 1;"/><circle cx="531.9999999999754" cy="100" r="8" fill="#ffffff" stroke="#62cbc7" style="stroke-width: 2; fill-opacity: 0;"/><circle cx="531.9999999999754" cy="172.0001149277507" r="8" fill="#ffffff" stroke="#62cbc7" style="stroke-width: 2; fill-opacity: 0;"/><circle cx="531.9999999999754" cy="244.00022985550143" r="8" fill="#ffffff" stroke="#62cbc7" style="stroke-width: 2; fill-opacity: 0;"/><circle cx="531.9999999999754" cy="316.0003447832522" r="8" fill="#ffffff" stroke="#62cbc7" style="stroke-width: 2; fill-opacity: 0;"/><circle cx="531.9999999999754" cy="388.00045971100286" r="8" fill="#ffffff" stroke="#62cbc7" style="stroke-width: 2; fill-opacity: 0;"/><circle cx="531.9999999999754" cy="460.0005746387536" r="8" fill="#ffffff" stroke="#62cbc7" style="stroke-width: 2; fill-opacity: 0;"/><circle cx="531.9999999999754" cy="532.0006895665043" r="8" fill="#ffffff" stroke="#62cbc7" style="stroke-width: 2; fill-opacity: 0;"/><text x="156.00000000000819" y="312.0003304172833" fill="#008b8b" transform="matrix(1,0,0,1,0,0)" style="font-size: 16px; font-family: Roboto, Arial, sans-serif; font-weight: 900; text-anchor: start; letter-spacing: 0em;">Mizuhiki New Transit</text><text x="405.99999999997544" y="245.00020112356373" fill="#696969" transform="matrix(1,0,0,1,0,0)" style="font-size: 14px; font-family: Roboto, Arial, sans-serif; font-weight: 900; text-anchor: middle; letter-spacing: 0em;">皓急 北鏡線</text><text x="411.99999999997544" y="533.0006608345666" fill="#696969" transform="matrix(1,0,0,1,0,0)" style="font-size: 14px; font-family: Roboto, Arial, sans-serif; font-weight: 900; text-anchor: middle; letter-spacing: 0em;">TR 北彩源線</text><text x="411.99999999997544" y="547.0006608345666" fill="#696969" transform="matrix(1,0,0,1,0,0)" style="font-size: 14px; font-family: Roboto, Arial, sans-serif; font-weight: 900; text-anchor: middle; letter-spacing: 0em;"> 　剋奈交通事業 東剋線</text><text x="405.99999999997544" y="461.00054590681594" fill="#696969" transform="matrix(1,0,0,1,0,0)" style="font-size: 14px; font-family: Roboto, Arial, sans-serif; font-weight: 900; text-anchor: middle; letter-spacing: 0em;">TR 北彩源線</text><text x="594.7535999999991" y="106.24640358574582" fill="#483d8b" transform="matrix(1,0,0,1,0,0)" style="font-size: 14px; font-family: Roboto, Arial, sans-serif; font-weight: 900; text-anchor: start; letter-spacing: 0em;">/ Okui</text><text x="655.5072000000064" y="178.24651851349654" fill="#483d8b" transform="matrix(1,0,0,1,0,0)" style="font-size: 14px; font-family: Roboto, Arial, sans-serif; font-weight: 900; text-anchor: start; letter-spacing: 0em;">/ Sendokugawa-nakasu</text><text x="615" y="250.2466334412473" fill="#483d8b" transform="matrix(1,0,0,1,0,0)" style="font-size: 14px; font-family: Roboto, Arial, sans-serif; font-weight: 900; text-anchor: start; letter-spacing: 0em;">/ Shin-Shishō</text><text x="615" y="322.24674836899794" fill="#483d8b" transform="matrix(1,0,0,1,0,0)" style="font-size: 14px; font-family: Roboto, Arial, sans-serif; font-weight: 900; text-anchor: start; letter-spacing: 0em;">/ Sanehara</text><text x="635.2464000000009" y="394.24686329674876" fill="#483d8b" transform="matrix(1,0,0,1,0,0)" style="font-size: 14px; font-family: Roboto, Arial, sans-serif; font-weight: 900; text-anchor: start; letter-spacing: 0em;">/ Inaba-teishin</text><text x="594.7535999999991" y="465.12377643162654" fill="#483d8b" transform="matrix(1,0,0,1,0,0)" style="font-size: 14px; font-family: Roboto, Arial, sans-serif; font-weight: 900; text-anchor: start; letter-spacing: 0em;">/ Mizuhiki</text><text x="594.7535999999991" y="537.1238913593772" fill="#483d8b" transform="matrix(1,0,0,1,0,0)" style="font-size: 14px; font-family: Roboto, Arial, sans-serif; font-weight: 900; text-anchor: start; letter-spacing: 0em;">/ Yabato</text><text x="551.9999999999754" y="107" fill="#3f3b54" transform="matrix(1,0,0,1,0,0)" style="font-size: 20px; font-family: Roboto, Arial, sans-serif; font-weight: 900; text-anchor: start; letter-spacing: 0em;">奥井</text><text x="551.9999999999754" y="179.0001149277507" fill="#3f3b54" transform="matrix(1,0,0,1,0,0)" style="font-size: 20px; font-family: Roboto, Arial, sans-serif; font-weight: 900; text-anchor: start; letter-spacing: 0em;">選読川中洲</text><text x="551.9999999999754" y="251.00022985550143" fill="#3f3b54" transform="matrix(1,0,0,1,0,0)" style="font-size: 20px; font-family: Roboto, Arial, sans-serif; font-weight: 900; text-anchor: start; letter-spacing: 0em;">新志小</text><text x="551.9999999999754" y="323.0003447832522" fill="#3f3b54" transform="matrix(1,0,0,1,0,0)" style="font-size: 20px; font-family: Roboto, Arial, sans-serif; font-weight: 900; text-anchor: start; letter-spacing: 0em;">沙音原</text><text x="551.9999999999754" y="395.00045971100286" fill="#3f3b54" transform="matrix(1,0,0,1,0,0)" style="font-size: 20px; font-family: Roboto, Arial, sans-serif; font-weight: 900; text-anchor: start; letter-spacing: 0em;">稲葉逓信</text><text x="551.9999999999754" y="467.0005746387536" fill="#3f3b54" transform="matrix(1,0,0,1,0,0)" style="font-size: 20px; font-family: Roboto, Arial, sans-serif; font-weight: 900; text-anchor: start; letter-spacing: 0em;">水惹</text><text x="551.9999999999754" y="539.0006895665043" fill="#3f3b54" transform="matrix(1,0,0,1,0,0)" style="font-size: 20px; font-family: Roboto, Arial, sans-serif; font-weight: 900; text-anchor: start; letter-spacing: 0em;">夜鳩</text></svg>