<svg height="561.0038174839935" version="1.1" width="1010" xmlns="http://www.w3.org/2000/svg" id="svgSvg" viewBox="0 0 1010 561.0038174839935" style="width: 1366px; height: 758.755px;"><desc>Created with Snap</desc><defs/><path d="M8,5 C10,2 10,2 5.67,3.6  C1.8,4.9 1.8,5.1 5.67,6.4 C10,8 10,8 8,5 z" fill="#ffffff" style=""/><path d="M2,5 C0,2 0,2 4.33,3.6  C8.2,4.9 8.2,5.1 4.33,6.4 C0,8 0,8 2,5 z" fill="#ffffff" style=""/><polyline points="460,307.003027659719,469.00000000003274,347.4964199226149" fill="none" stroke="#ffffff" style="stroke-opacity: 0; stroke-width: 0; stroke-linecap: round; stroke-linejoin: round; marker-start: none; marker-end: none;"/><path d="M8,5 C10,2 10,2 5.67,3.6  C1.8,4.9 1.8,5.1 5.67,6.4 C10,8 10,8 8,5 z" fill="#019a66" style=""/><path d="M2,5 C0,2 0,2 4.33,3.6  C8.2,4.9 8.2,5.1 4.33,6.4 C0,8 0,8 2,5 z" fill="#019a66" style=""/><polyline points="622.0000000000164,361.0038174839935,460,361.0038174839935,460,280.00263274758174,469.00000000003274,280.00263274758174,478.00000000002456,280.00263274758174,406.0000000000082,334.0034225718562,478.00000000002456,334.0034225718562,406.0000000000082,280.00263274758174,460,280.00263274758174,622.0000000000164,280.00263274758174,406.0000000000082,280.00263274758174,460,280.00263274758174,460,334.0034225718562,406.0000000000082,334.0034225718562,622.0000000000164,334.0034225718562" fill="none" stroke="#019a66" style="stroke-opacity: 1; stroke-width: 4; stroke-linecap: round; stroke-linejoin: round; marker-start: none; marker-end: none;"/><path d="M8,5 C10,2 10,2 5.67,3.6  C1.8,4.9 1.8,5.1 5.67,6.4 C10,8 10,8 8,5 z" fill="#2e8b57" style=""/><path d="M2,5 C0,2 0,2 4.33,3.6  C8.2,4.9 8.2,5.1 4.33,6.4 C0,8 0,8 2,5 z" fill="#2e8b57" style=""/><polyline points="100,100,154.00000000003274,100,208.00000000002456,100,262.00000000001637,100,316.0000000000082,100,370,100,424.00000000003274,100,478.00000000002456,100,532.0000000000164,100,586.0000000000082,100,640,100,694.0000000000327,100,748.0000000000246,100,802.0000000000164,100,856.0000000000082,100,910,100" fill="none" stroke="#2e8b57" style="stroke-opacity: 1; stroke-width: 6; stroke-linecap: round; stroke-linejoin: round; marker-start: none; marker-end: none;"/><circle cx="460" cy="307.003027659719" r="2" fill="#ffffff" stroke="#ffffff" style="stroke-width: 0; fill-opacity: 0;"/><circle cx="469.00000000003274" cy="347.4964199226149" r="2" fill="#ffffff" stroke="#ffffff" style="stroke-width: 0; fill-opacity: 0;"/><rect x="88" y="34" width="24" height="132" fill="#ffffff" stroke="#2e8b57" transform="matrix(1,0,0,1,0,0)" style="stroke-width: 2; fill-opacity: 1;"/><rect x="142.00000000003274" y="34" width="24" height="132" fill="#ffffff" stroke="#2e8b57" transform="matrix(1,0,0,1,0,0)" style="stroke-width: 2; fill-opacity: 1;"/><rect x="196.00000000002456" y="34" width="24" height="132" fill="#ffffff" stroke="#2e8b57" transform="matrix(1,0,0,1,0,0)" style="stroke-width: 2; fill-opacity: 1;"/><rect x="250.00000000001637" y="34" width="24" height="132" fill="#ffffff" stroke="#2e8b57" transform="matrix(1,0,0,1,0,0)" style="stroke-width: 2; fill-opacity: 1;"/><rect x="304.0000000000082" y="34" width="24" height="132" fill="#ffffff" stroke="#2e8b57" transform="matrix(1,0,0,1,0,0)" style="stroke-width: 2; fill-opacity: 1;"/><rect x="358" y="34" width="24" height="132" fill="#ffffff" stroke="#2e8b57" transform="matrix(1,0,0,1,0,0)" style="stroke-width: 2; fill-opacity: 1;"/><rect x="412.00000000003274" y="34" width="24" height="132" fill="#ffffff" stroke="#2e8b57" transform="matrix(1,0,0,1,0,0)" style="stroke-width: 2; fill-opacity: 1;"/><rect x="466.00000000002456" y="34" width="24" height="132" fill="#ffffff" stroke="#2e8b57" transform="matrix(1,0,0,1,0,0)" style="stroke-width: 2; fill-opacity: 1;"/><rect x="520.0000000000164" y="34" width="24" height="132" fill="#ffffff" stroke="#2e8b57" transform="matrix(1,0,0,1,0,0)" style="stroke-width: 2; fill-opacity: 1;"/><rect x="574.0000000000082" y="34" width="24" height="132" fill="#ffffff" stroke="#2e8b57" transform="matrix(1,0,0,1,0,0)" style="stroke-width: 2; fill-opacity: 1;"/><rect x="628" y="34" width="24" height="132" fill="#ffffff" stroke="#2e8b57" transform="matrix(1,0,0,1,0,0)" style="stroke-width: 2; fill-opacity: 1;"/><rect x="682.0000000000327" y="34" width="24" height="132" fill="#ffffff" stroke="#2e8b57" transform="matrix(1,0,0,1,0,0)" style="stroke-width: 2; fill-opacity: 1;"/><rect x="736.0000000000246" y="34" width="24" height="132" fill="#ffffff" stroke="#2e8b57" transform="matrix(1,0,0,1,0,0)" style="stroke-width: 2; fill-opacity: 1;"/><rect x="790.0000000000164" y="34" width="24" height="132" fill="#ffffff" stroke="#2e8b57" transform="matrix(1,0,0,1,0,0)" style="stroke-width: 2; fill-opacity: 1;"/><rect x="844.0000000000082" y="34" width="24" height="132" fill="#ffffff" stroke="#2e8b57" transform="matrix(1,0,0,1,0,0)" style="stroke-width: 2; fill-opacity: 1;"/><rect x="898" y="34" width="24" height="132" fill="#ffffff" stroke="#2e8b57" transform="matrix(1,0,0,1,0,0)" style="stroke-width: 2; fill-opacity: 1;"/><text x="480" y="320.003027659719" fill="#019a66" transform="matrix(1,0,0,1,0,0)" style="font-size: 32px; font-family: Roboto, Arial, sans-serif; font-weight: 900; text-anchor: start; letter-spacing: 0em;">田海鉄道</text><text x="489.00000000003274" y="352.4964199226149" fill="#019a66" transform="matrix(1,0,0,1,0,0)" style="font-size: 16px; font-family: Roboto, Arial, sans-serif; font-weight: 900; text-anchor: start; letter-spacing: 0em;">TAMI RAILWAY</text><text x="100" y="100" fill="#006400" transform="matrix(1,0,0,1,0,0)" style="font-size: 18px; font-family: Roboto, Arial, sans-serif; font-weight: 900; text-anchor: middle; writing-mode: tb; letter-spacing: 0em;">新明</text><text x="154.00000000003274" y="100" fill="#006400" transform="matrix(1,0,0,1,0,0)" style="font-size: 18px; font-family: Roboto, Arial, sans-serif; font-weight: 900; text-anchor: middle; writing-mode: tb; letter-spacing: 0em;">高線上</text><text x="208.00000000002456" y="100" fill="#006400" transform="matrix(1,0,0,1,0,0)" style="font-size: 18px; font-family: Roboto, Arial, sans-serif; font-weight: 900; text-anchor: middle; writing-mode: tb; letter-spacing: 0em;">湾岸伏見</text><text x="262.00000000001637" y="100" fill="#006400" transform="matrix(1,0,0,1,0,0)" style="font-size: 18px; font-family: Roboto, Arial, sans-serif; font-weight: 900; text-anchor: middle; writing-mode: tb; letter-spacing: 0em;">竹丸田</text><text x="316.0000000000082" y="100" fill="#006400" transform="matrix(1,0,0,1,0,0)" style="font-size: 18px; font-family: Roboto, Arial, sans-serif; font-weight: 900; text-anchor: middle; writing-mode: tb; letter-spacing: 0em;">喩渡経済大前</text><text x="370" y="100" fill="#006400" transform="matrix(1,0,0,1,0,0)" style="font-size: 18px; font-family: Roboto, Arial, sans-serif; font-weight: 900; text-anchor: middle; writing-mode: tb; letter-spacing: 0em;">祈が丘</text><text x="424.00000000003274" y="100" fill="#006400" transform="matrix(1,0,0,1,0,0)" style="font-size: 18px; font-family: Roboto, Arial, sans-serif; font-weight: 900; text-anchor: middle; writing-mode: tb; letter-spacing: 0em;">東霞実</text><text x="478.00000000002456" y="100" fill="#006400" transform="matrix(1,0,0,1,0,0)" style="font-size: 18px; font-family: Roboto, Arial, sans-serif; font-weight: 900; text-anchor: middle; writing-mode: tb; letter-spacing: 0em;">霞実</text><text x="532.0000000000164" y="100" fill="#006400" transform="matrix(1,0,0,1,0,0)" style="font-size: 18px; font-family: Roboto, Arial, sans-serif; font-weight: 900; text-anchor: middle; writing-mode: tb; letter-spacing: 0em;">落恋山登山口</text><text x="586.0000000000082" y="100" fill="#006400" transform="matrix(1,0,0,1,0,0)" style="font-size: 18px; font-family: Roboto, Arial, sans-serif; font-weight: 900; text-anchor: middle; writing-mode: tb; letter-spacing: 0em;">坂科</text><text x="640" y="100" fill="#006400" transform="matrix(1,0,0,1,0,0)" style="font-size: 18px; font-family: Roboto, Arial, sans-serif; font-weight: 900; text-anchor: middle; writing-mode: tb; letter-spacing: 0em;">和歌月</text><text x="694.0000000000327" y="100" fill="#006400" transform="matrix(1,0,0,1,0,0)" style="font-size: 18px; font-family: Roboto, Arial, sans-serif; font-weight: 900; text-anchor: middle; writing-mode: tb; letter-spacing: 0em;">匂井町</text><text x="748.0000000000246" y="100" fill="#006400" transform="matrix(1,0,0,1,0,0)" style="font-size: 18px; font-family: Roboto, Arial, sans-serif; font-weight: 900; text-anchor: middle; writing-mode: tb; letter-spacing: 0em;">五棟</text><text x="802.0000000000164" y="100" fill="#006400" transform="matrix(1,0,0,1,0,0)" style="font-size: 18px; font-family: Roboto, Arial, sans-serif; font-weight: 900; text-anchor: middle; writing-mode: tb; letter-spacing: 0em;">田海</text><text x="856.0000000000082" y="100" fill="#006400" transform="matrix(1,0,0,1,0,0)" style="font-size: 18px; font-family: Roboto, Arial, sans-serif; font-weight: 900; text-anchor: middle; writing-mode: tb; letter-spacing: 0em;">西田海</text><text x="910" y="100" fill="#006400" transform="matrix(1,0,0,1,0,0)" style="font-size: 18px; font-family: Roboto, Arial, sans-serif; font-weight: 900; text-anchor: middle; writing-mode: tb; letter-spacing: 0em;">陽越海岸</text></svg>